<?xml version="1.0" encoding="utf-8"?>
<!-- Generator: Adobe Illustrator 16.0.0, SVG Export Plug-In . SVG Version: 6.00 Build 0)  -->
<!DOCTYPE svg PUBLIC "-//W3C//DTD SVG 1.1//EN" "http://www.w3.org/Graphics/SVG/1.1/DTD/svg11.dtd">
<svg version="1.1" id="Layer_1" xmlns="http://www.w3.org/2000/svg" xmlns:xlink="http://www.w3.org/1999/xlink" x="0px" y="0px"
	 width="792px" height="612px" viewBox="0 0 792 612" enable-background="new 0 0 792 612" xml:space="preserve">
<rect x="8.517" y="527.533" fill="#012A29" width="153.819" height="69.961"/>
<rect x="162.761" y="527.533" fill="#78ACA8" width="153.819" height="69.961"/>
<rect x="317.005" y="527.533" fill="#FFCF89" width="153.819" height="69.961"/>
<rect x="471.25" y="527.533" fill="#EA6446" width="153.819" height="69.961"/>
<rect x="625.494" y="527.533" fill="#3592B3" width="153.819" height="69.961"/>
<text transform="matrix(1 0 0 1 636 550.2754)" fill="#FFFFFF" font-family="'Montserrat-Regular'" font-size="10" letter-spacing="2">C76 | M29 | Y20 | K0</text>
<text transform="matrix(1 0 0 1 482 550.2754)" fill="#FFFFFF" font-family="'Montserrat-Regular'" font-size="10" letter-spacing="2">C3 | M75 | Y77 | K0</text>
<text transform="matrix(1 0 0 1 328 550.2754)" fill="#FFFFFF" font-family="'Montserrat-Regular'" font-size="10" letter-spacing="2">C0 | M20 | Y52 | K0</text>
<text transform="matrix(1 0 0 1 174 550.2754)" fill="#FFFFFF" font-family="'Montserrat-Regular'" font-size="10" letter-spacing="2">C55 | M18 | Y35 | K0</text>
<text transform="matrix(1 0 0 1 14.9961 550.2754)" fill="#FFFFFF" font-family="'Montserrat-Regular'" font-size="10" letter-spacing="2">C89 | M59 | Y66 | K67</text>
<text transform="matrix(1 0 0 1 636 575.2754)" fill="#FFFFFF" font-family="'Montserrat-Regular'" font-size="10" letter-spacing="2">HEX: X3492B3</text>
<text transform="matrix(1 0 0 1 482 575.2754)" fill="#FFFFFF" font-family="'Montserrat-Regular'" font-size="10" letter-spacing="2">HEX: EA6345</text>
<text transform="matrix(1 0 0 1 328 575.2754)" fill="#FFFFFF" font-family="'Montserrat-Regular'" font-size="10" letter-spacing="2">HEX: FECF89</text>
<text transform="matrix(1 0 0 1 174 575.2754)" fill="#FFFFFF" font-family="'Montserrat-Regular'" font-size="10" letter-spacing="2">HEX: 77ABA7</text>
<text transform="matrix(1 0 0 1 14.9961 575.2754)" fill="#FFFFFF" font-family="'Montserrat-Regular'" font-size="10" letter-spacing="2">HEX: 002928</text>
<g>
	<g>
		<g>
			<path fill="none" stroke="#78ACA8" stroke-width="15.7635" stroke-miterlimit="10" d="M208.678,194.143
				c-1.592-0.314-3.301-0.482-5.127-0.482h-78.633c-12.003,0-21.668-7.865-21.668-21.267c0-13.232,10.144-22.898,21.776-22.898
				h5.517"/>
			<g>
				<rect x="155.359" y="192.011" fill="#FFCF89" width="25.87" height="23.396"/>
				<rect x="141.482" y="216.83" fill="#FFCF89" width="53.625" height="32.23"/>
				<rect x="159.986" y="168.575" fill="#FFCF89" width="16.617" height="23.912"/>
				<polygon fill="#FFCF89" points="202.332,375.046 134.258,375.046 134.258,250.389 202.332,252.043 				"/>
				<g>
					<rect x="196.163" y="304.06" fill="#CF9962" width="6.168" height="34.038"/>
					<rect x="185.428" y="304.06" fill="#CF9962" width="6.167" height="34.038"/>
					<g>
						<rect x="144.993" y="304.06" fill="#CF9962" width="6.17" height="34.038"/>
						<rect x="134.258" y="304.06" fill="#CF9962" width="6.169" height="34.038"/>
					</g>
				</g>
				<g>
					<rect x="196.163" y="341.066" fill="#CF9962" width="6.168" height="34.038"/>
					<rect x="185.428" y="341.066" fill="#CF9962" width="6.167" height="34.038"/>
					<g>
						<rect x="144.993" y="341.066" fill="#CF9962" width="6.17" height="34.038"/>
						<rect x="134.258" y="341.066" fill="#CF9962" width="6.169" height="34.038"/>
					</g>
				</g>
				<rect x="133.802" y="261.964" fill="#CF9962" width="68.985" height="5.714"/>
				<g>
					<rect x="136.202" y="255.8" fill="#CF9962" width="3.882" height="3.881"/>
					<rect x="196.506" y="255.8" fill="#CF9962" width="3.882" height="3.881"/>
					<rect x="148.994" y="255.8" fill="#CF9962" width="9.585" height="3.881"/>
					<rect x="159.503" y="255.8" fill="#CF9962" width="9.585" height="3.881"/>
					<rect x="170.012" y="255.8" fill="#CF9962" width="9.587" height="3.881"/>
					<rect x="180.524" y="255.8" fill="#CF9962" width="9.586" height="3.881"/>
				</g>
				<g>
					<rect x="134.258" y="270.416" fill="#CF9962" width="8.68" height="30.904"/>
					<rect x="193.649" y="270.416" fill="#CF9962" width="8.682" height="30.904"/>
					<path fill="#CF9962" d="M155.274,275.901c0-1.767-1.434-3.197-3.199-3.197c-1.768,0-3.199,1.431-3.199,3.197v14.307h6.398
						V275.901z"/>
					<path fill="#CF9962" d="M163.951,275.901c0-1.767-1.432-3.197-3.197-3.197c-1.765,0-3.196,1.431-3.196,3.197v14.307h6.393
						V275.901z"/>
					<path fill="#CF9962" d="M189.993,275.901c0-1.767-1.431-3.197-3.198-3.197c-1.766,0-3.197,1.431-3.197,3.197v14.307h6.396
						V275.901z"/>
					<path fill="#CF9962" d="M172.634,275.901c0-1.767-1.432-3.197-3.2-3.197c-1.767,0-3.199,1.431-3.199,3.197v14.307h6.399
						V275.901z"/>
					<path fill="#CF9962" d="M181.313,275.901c0-1.767-1.433-3.197-3.198-3.197c-1.766,0-3.199,1.431-3.199,3.197v14.307h6.396
						V275.901z"/>
					<rect x="148.875" y="294.238" fill="#CF9962" width="4.797" height="3.883"/>
					<rect x="185.197" y="294.238" fill="#CF9962" width="4.795" height="3.883"/>
					<rect x="176.117" y="294.238" fill="#CF9962" width="4.795" height="3.883"/>
					<rect x="167.037" y="294.238" fill="#CF9962" width="4.796" height="3.883"/>
					<rect x="157.955" y="294.238" fill="#CF9962" width="4.798" height="3.883"/>
					<rect x="148.875" y="292.868" fill="#CF9962" width="41.117" height="2.056"/>
				</g>
				<polygon fill="#CF9962" points="202.67,252.828 133.918,252.828 131.174,245.518 205.415,245.518 				"/>
				<rect x="139.855" y="214.663" fill="#CF9962" width="56.877" height="2.74"/>
				<g>
					<rect x="141.455" y="216.718" fill="#CF9962" width="9.822" height="13.638"/>
					<rect x="185.312" y="216.718" fill="#CF9962" width="9.823" height="13.638"/>
				</g>
				<g>
					<rect x="141.455" y="233.254" fill="#CF9962" width="9.822" height="11.122"/>
					<rect x="185.312" y="233.254" fill="#CF9962" width="9.823" height="11.122"/>
				</g>
				<g>
					<polygon fill="#CF9962" points="152.554,200.02 149.336,193.529 146.116,200.02 146.116,214.864 152.554,214.864 					"/>
					<polygon fill="#CF9962" points="190.473,200.02 187.255,193.529 184.034,200.02 184.034,214.864 190.473,214.864 					"/>
				</g>
				<g>
					<rect x="155.401" y="195.307" fill="#CF9962" width="3.856" height="18.103"/>
					<rect x="177.332" y="195.307" fill="#CF9962" width="3.855" height="18.103"/>
				</g>
				<g>
					<rect x="160.985" y="195.307" fill="#CF9962" width="4.113" height="2.968"/>
					<rect x="166.239" y="195.307" fill="#CF9962" width="4.111" height="2.968"/>
					<rect x="171.493" y="195.307" fill="#CF9962" width="4.113" height="2.968"/>
				</g>
				<g>
					<rect x="160.985" y="200.193" fill="#CF9962" width="4.113" height="2.97"/>
					<rect x="166.239" y="200.193" fill="#CF9962" width="4.111" height="2.97"/>
					<rect x="171.493" y="200.193" fill="#CF9962" width="4.113" height="2.97"/>
				</g>
				<g>
					<rect x="160.985" y="205.082" fill="#CF9962" width="4.113" height="2.971"/>
					<rect x="166.239" y="205.082" fill="#CF9962" width="4.111" height="2.971"/>
					<rect x="171.493" y="205.082" fill="#CF9962" width="4.113" height="2.971"/>
				</g>
				<g>
					<rect x="160.985" y="210.439" fill="#CF9962" width="4.113" height="2.97"/>
					<rect x="166.239" y="210.439" fill="#CF9962" width="4.111" height="2.97"/>
					<rect x="171.493" y="210.439" fill="#CF9962" width="4.113" height="2.97"/>
				</g>
				<g>
					<rect x="153.903" y="219.233" fill="#CF9962" width="4.112" height="4.109"/>
					<rect x="160.071" y="219.233" fill="#CF9962" width="4.111" height="4.109"/>
					<rect x="166.239" y="219.233" fill="#CF9962" width="4.111" height="4.109"/>
					<rect x="172.406" y="219.233" fill="#CF9962" width="4.112" height="4.109"/>
					<rect x="178.574" y="219.233" fill="#CF9962" width="4.111" height="4.109"/>
				</g>
				<g>
					<rect x="153.903" y="233.254" fill="#CF9962" width="4.112" height="4.111"/>
					<rect x="160.071" y="233.254" fill="#CF9962" width="4.111" height="4.111"/>
					<rect x="166.239" y="233.254" fill="#CF9962" width="4.111" height="4.111"/>
					<rect x="172.406" y="233.254" fill="#CF9962" width="4.112" height="4.111"/>
					<rect x="178.574" y="233.254" fill="#CF9962" width="4.111" height="4.111"/>
				</g>
				<g>
					<rect x="153.903" y="225.153" fill="#CF9962" width="4.112" height="4.112"/>
					<rect x="160.071" y="225.153" fill="#CF9962" width="4.111" height="4.112"/>
					<rect x="166.239" y="225.153" fill="#CF9962" width="4.111" height="4.112"/>
					<rect x="172.406" y="225.153" fill="#CF9962" width="4.112" height="4.112"/>
					<rect x="178.574" y="225.153" fill="#CF9962" width="4.111" height="4.112"/>
				</g>
				<g>
					<rect x="153.903" y="240.264" fill="#CF9962" width="4.112" height="4.112"/>
					<rect x="160.071" y="240.264" fill="#CF9962" width="4.111" height="4.112"/>
					<rect x="166.239" y="240.264" fill="#CF9962" width="4.111" height="4.112"/>
					<rect x="172.406" y="240.264" fill="#CF9962" width="4.112" height="4.112"/>
					<rect x="178.574" y="240.264" fill="#CF9962" width="4.111" height="4.112"/>
				</g>
				<rect x="157.671" y="187.388" fill="#CF9962" width="21.246" height="4.034"/>
				<rect x="159.385" y="175.599" fill="#CF9962" width="17.817" height="1.714"/>
				<g>
					<rect x="159.385" y="176.456" fill="#CF9962" width="1.713" height="12.433"/>
					<rect x="163.412" y="176.456" fill="#CF9962" width="1.711" height="12.433"/>
					<rect x="167.437" y="176.456" fill="#CF9962" width="1.714" height="11.747"/>
					<rect x="171.464" y="176.456" fill="#CF9962" width="1.712" height="11.747"/>
					<rect x="175.49" y="176.456" fill="#CF9962" width="1.712" height="11.747"/>
				</g>
				<rect x="159.899" y="171.488" fill="#CF9962" width="16.791" height="1.714"/>
				<polygon fill="#CF9962" points="171.977,148.713 168.41,141.136 164.611,148.713 164.611,158.639 171.977,158.639 				"/>
				<rect x="167.523" y="116.146" fill="#CF9962" width="1.542" height="31.015"/>
				<g>
					<rect x="154.618" y="303.833" fill="#CF9962" width="2.854" height="3.995"/>
					<rect x="160.742" y="303.833" fill="#CF9962" width="2.855" height="3.995"/>
					<rect x="166.868" y="303.833" fill="#CF9962" width="2.854" height="3.995"/>
					<rect x="172.992" y="303.833" fill="#CF9962" width="2.854" height="3.995"/>
					<rect x="179.116" y="303.833" fill="#CF9962" width="2.855" height="3.995"/>
				</g>
				<g>
					<rect x="154.618" y="310.743" fill="#CF9962" width="2.854" height="3.996"/>
					<rect x="160.742" y="310.743" fill="#CF9962" width="2.855" height="3.996"/>
					<rect x="166.868" y="310.743" fill="#CF9962" width="2.854" height="3.996"/>
					<rect x="172.992" y="310.743" fill="#CF9962" width="2.854" height="3.996"/>
					<rect x="179.116" y="310.743" fill="#CF9962" width="2.855" height="3.996"/>
				</g>
				<g>
					<rect x="154.618" y="317.54" fill="#CF9962" width="2.854" height="5.367"/>
					<rect x="160.742" y="317.54" fill="#CF9962" width="2.855" height="5.367"/>
					<rect x="166.868" y="317.54" fill="#CF9962" width="2.854" height="5.367"/>
					<rect x="172.992" y="317.54" fill="#CF9962" width="2.854" height="5.367"/>
					<rect x="179.116" y="317.54" fill="#CF9962" width="2.855" height="5.367"/>
				</g>
				<g>
					<rect x="154.618" y="324.964" fill="#CF9962" width="2.854" height="5.366"/>
					<rect x="160.742" y="324.964" fill="#CF9962" width="2.855" height="5.366"/>
					<rect x="166.868" y="324.964" fill="#CF9962" width="2.854" height="5.366"/>
					<rect x="172.992" y="324.964" fill="#CF9962" width="2.854" height="5.366"/>
					<rect x="179.116" y="324.964" fill="#CF9962" width="2.855" height="5.366"/>
				</g>
				<g>
					<rect x="154.618" y="332.958" fill="#CF9962" width="2.854" height="5.365"/>
					<rect x="160.742" y="332.958" fill="#CF9962" width="2.855" height="5.365"/>
					<rect x="166.868" y="332.958" fill="#CF9962" width="2.854" height="5.365"/>
					<rect x="172.992" y="332.958" fill="#CF9962" width="2.854" height="5.365"/>
					<rect x="179.116" y="332.958" fill="#CF9962" width="2.855" height="5.365"/>
				</g>
				<g>
					<rect x="154.618" y="339.812" fill="#CF9962" width="2.854" height="5.364"/>
					<rect x="160.742" y="339.812" fill="#CF9962" width="2.855" height="5.364"/>
					<rect x="166.868" y="339.812" fill="#CF9962" width="2.854" height="5.364"/>
					<rect x="172.992" y="339.812" fill="#CF9962" width="2.854" height="5.364"/>
					<rect x="179.116" y="339.812" fill="#CF9962" width="2.855" height="5.364"/>
				</g>
				<g>
					<rect x="154.618" y="347.749" fill="#CF9962" width="2.854" height="5.369"/>
					<rect x="160.742" y="347.749" fill="#CF9962" width="2.855" height="5.369"/>
					<rect x="166.868" y="347.749" fill="#CF9962" width="2.854" height="5.369"/>
					<rect x="172.992" y="347.749" fill="#CF9962" width="2.854" height="5.369"/>
					<rect x="179.116" y="347.749" fill="#CF9962" width="2.855" height="5.369"/>
				</g>
				<g>
					<rect x="154.618" y="355.745" fill="#CF9962" width="2.854" height="5.366"/>
					<rect x="160.742" y="355.745" fill="#CF9962" width="2.855" height="5.366"/>
					<rect x="166.868" y="355.745" fill="#CF9962" width="2.854" height="5.366"/>
					<rect x="172.992" y="355.745" fill="#CF9962" width="2.854" height="5.366"/>
					<rect x="179.116" y="355.745" fill="#CF9962" width="2.855" height="5.366"/>
				</g>
				<g>
					<rect x="154.618" y="362.598" fill="#CF9962" width="2.854" height="5.366"/>
					<rect x="160.742" y="362.598" fill="#CF9962" width="2.855" height="5.366"/>
					<rect x="166.868" y="362.598" fill="#CF9962" width="2.854" height="5.366"/>
					<rect x="172.992" y="362.598" fill="#CF9962" width="2.854" height="5.366"/>
					<rect x="179.116" y="362.598" fill="#CF9962" width="2.855" height="5.366"/>
				</g>
				<g>
					<rect x="154.618" y="369.681" fill="#CF9962" width="2.854" height="5.365"/>
					<rect x="160.742" y="369.681" fill="#CF9962" width="2.855" height="5.365"/>
					<rect x="166.868" y="369.681" fill="#CF9962" width="2.854" height="5.365"/>
					<rect x="172.992" y="369.681" fill="#CF9962" width="2.854" height="5.365"/>
					<rect x="179.116" y="369.681" fill="#CF9962" width="2.855" height="5.365"/>
				</g>
				<polygon fill="#CF9962" points="159.986,168.575 164.667,156.582 171.885,156.582 176.603,168.575 				"/>
				<path fill="#FFCF89" d="M170.435,165.407c0-1.185-0.957-2.143-2.141-2.143c-1.182,0-2.142,0.958-2.142,2.143v4.711h4.282
					V165.407z"/>
				<rect x="153.847" y="190.706" fill="#CF9962" width="28.896" height="3.052"/>
			</g>
			<path fill="none" stroke="#78ACA8" stroke-width="15.7635" stroke-miterlimit="10" d="M199.659,329.317
				c1.15,0,2.143,0.059,3.229,0c8.001-0.431,22.331-5.26,22.331-22.859c0-10.545-7.051-21.294-21.667-21.294h-78.633
				c-12.003,0-21.668-11.021-21.668-24.42c0-13.232,10.144-22.9,21.776-22.9h17.339"/>
			<rect x="141.482" y="244.31" fill="#FCB319" width="53.625" height="4.751"/>
			<polygon fill="#CF9962" points="205.388,252.828 131.164,252.828 131.174,245.518 205.415,245.518 			"/>
			<g>
				<rect x="141.455" y="233.254" fill="#012A29" width="9.822" height="11.122"/>
				<rect x="185.312" y="233.254" fill="#012A29" width="9.823" height="11.122"/>
			</g>
			<path fill="none" stroke="#78ACA8" stroke-width="15.7635" stroke-miterlimit="10" d="M130.468,237.828
				c1.15,0,71.333,0.058,72.42,0c8.001-0.431,22.331-5.271,22.331-22.874c0-10.545-7.051-21.294-21.667-21.294h-3.728"/>
			<rect x="196.163" y="304.06" fill="#CF9962" width="6.168" height="34.038"/>
			<rect x="134.258" y="304.06" fill="#CF9962" width="6.169" height="34.038"/>
			<g>
				<polygon fill="#012A29" points="168.873,116.251 168.873,134.452 198.395,131.04 191.626,125.294 198.395,119.662 				"/>
				<polygon fill="#FBF7EE" points="183.208,124.214 192.925,124.214 196.019,121.642 173.424,119.037 				"/>
				<polygon fill="#FBF7EE" points="192.966,126.432 183.208,126.432 173.424,131.608 196,129.007 				"/>
				<polygon fill="#012A29" points="168.873,116.251 187.019,125.352 168.873,134.452 				"/>
				<circle fill="#FFFFFF" cx="174.448" cy="125.294" r="3.413"/>
				<circle fill="#012A29" cx="174.447" cy="125.294" r="2.275"/>
				<circle fill="#FBF7EE" cx="173.196" cy="119.891" r="0.625"/>
				<circle fill="#FBF7EE" cx="179.908" cy="123.929" r="0.626"/>
				<path fill="#FBF7EE" d="M180.534,127.057c0,0.347-0.279,0.627-0.625,0.627s-0.626-0.28-0.626-0.627
					c0-0.343,0.281-0.625,0.626-0.625S180.534,126.714,180.534,127.057z"/>
				<circle fill="#FBF7EE" cx="182.24" cy="125.408" r="0.626"/>
				<circle fill="#FBF7EE" cx="170.978" cy="121.029" r="0.626"/>
				<circle fill="#FBF7EE" cx="173.196" cy="130.982" r="0.625"/>
				<circle fill="#FBF7EE" cx="170.978" cy="129.845" r="0.626"/>
			</g>
			<path fill="#78ACA8" d="M127.464,155.305c0,0,4.491,9.448,10.913,9.076c6.422-0.37,10.857-3.784,17.869-4.903
				c5.274-0.842,4.859-6.369,4.859-6.369l-0.178-0.155c0,0,1.505-5.337-3.499-7.208c-6.65-2.486-10.322-6.71-16.542-8.349
				c-6.221-1.637-12.497,6.732-12.497,6.732"/>
			<g>
				
					<ellipse transform="matrix(-0.2943 0.9557 -0.9557 -0.2943 320.3467 49.7711)" fill="#012A29" cx="141.797" cy="143.161" rx="1.427" ry="3.145"/>
				
					<ellipse transform="matrix(-0.2943 -0.9557 0.9557 -0.2943 32.1234 340.5536)" fill="#012A29" cx="141.797" cy="158.417" rx="1.427" ry="3.145"/>
			</g>
			<g>
				<path fill="none" stroke="#78ACA8" stroke-width="15.7635" stroke-miterlimit="10" d="M175.846,373.501h-50.928
					c-12.003,0-21.668-7.866-21.668-21.268c0-13.231,10.144-22.898,21.776-22.898h9.458"/>
				<g>
					<path fill="#78ACA8" d="M198.046,365.538H154.63v15.771h47.104c11.904,0,17.971,7.434,17.971,14.671
						c0,8.701-4.039,12.613-8.528,14.375c0.288,0.429,0.657,1.05,0.914,1.499c9.284-2.203,16.834-8.839,16.834-20.483
						C228.925,376.032,215.626,365.538,198.046,365.538z"/>
				</g>
			</g>
			<g>
				
					<path fill="none" stroke="#97BCB9" stroke-width="1.0896" stroke-linecap="round" stroke-linejoin="round" stroke-miterlimit="10" d="
					M197.351,235.252c-1.756,0-3.179,1.194-3.179,2.668c0,1.472,1.423,2.666,3.179,2.666"/>
				
					<path fill="none" stroke="#97BCB9" stroke-width="1.0896" stroke-linecap="round" stroke-linejoin="round" stroke-miterlimit="10" d="
					M200.529,237.92c-1.756,0-3.178,1.193-3.178,2.666c0,1.474,1.422,2.67,3.178,2.67"/>
				
					<path fill="none" stroke="#97BCB9" stroke-width="1.0896" stroke-linecap="round" stroke-linejoin="round" stroke-miterlimit="10" d="
					M151.529,237.92c-1.756,0-3.179,1.193-3.179,2.666c0,1.474,1.423,2.67,3.179,2.67"/>
				
					<path fill="none" stroke="#97BCB9" stroke-width="1.0896" stroke-linecap="round" stroke-linejoin="round" stroke-miterlimit="10" d="
					M133.034,195.7c1.756,0,3.179-1.193,3.179-2.667c0-1.473-1.422-2.667-3.179-2.667"/>
				
					<path fill="none" stroke="#97BCB9" stroke-width="1.0896" stroke-linecap="round" stroke-linejoin="round" stroke-miterlimit="10" d="
					M102.958,174.843c0,1.755,1.195,3.178,2.668,3.178c1.473,0,2.667-1.423,2.667-3.178"/>
				
					<path fill="none" stroke="#97BCB9" stroke-width="1.0896" stroke-linecap="round" stroke-linejoin="round" stroke-miterlimit="10" d="
					M217.012,204.161c1.241,1.243,3.093,1.403,4.134,0.362c1.042-1.041,0.88-2.893-0.361-4.133"/>
				
					<path fill="none" stroke="#97BCB9" stroke-width="1.0896" stroke-linecap="round" stroke-linejoin="round" stroke-miterlimit="10" d="
					M129.855,198.394c1.756,0,3.179-1.196,3.179-2.67c0-1.473-1.423-2.668-3.179-2.668"/>
				<g>
					
						<path fill="none" stroke="#97BCB9" stroke-width="1.0896" stroke-linecap="round" stroke-linejoin="round" stroke-miterlimit="10" d="
						M105.193,264.157c0,1.754,1.195,3.178,2.668,3.178c1.473,0,2.667-1.424,2.667-3.178"/>
					
						<path fill="none" stroke="#97BCB9" stroke-width="1.0896" stroke-linecap="round" stroke-linejoin="round" stroke-miterlimit="10" d="
						M102.502,260.993c0,1.757,1.195,3.178,2.668,3.178c1.473,0,2.667-1.421,2.667-3.178"/>
				</g>
				<g>
					
						<path fill="none" stroke="#97BCB9" stroke-width="1.0896" stroke-linecap="round" stroke-linejoin="round" stroke-miterlimit="10" d="
						M227.55,306.618c0,1.755-1.195,3.178-2.668,3.178c-1.472,0-2.667-1.423-2.667-3.178"/>
					
						<path fill="none" stroke="#97BCB9" stroke-width="1.0896" stroke-linecap="round" stroke-linejoin="round" stroke-miterlimit="10" d="
						M230.24,303.456c0,1.754-1.196,3.177-2.668,3.177s-2.667-1.423-2.667-3.177"/>
				</g>
				<g>
					
						<path fill="none" stroke="#97BCB9" stroke-width="1.0896" stroke-linecap="round" stroke-linejoin="round" stroke-miterlimit="10" d="
						M174.688,287.552c1.755,0,3.178-1.196,3.178-2.667c0-1.474-1.423-2.669-3.178-2.669"/>
					
						<path fill="none" stroke="#97BCB9" stroke-width="1.0896" stroke-linecap="round" stroke-linejoin="round" stroke-miterlimit="10" d="
						M181.03,287.552c1.755,0,3.177-1.196,3.177-2.667c0-1.474-1.422-2.669-3.177-2.669"/>
					
						<path fill="none" stroke="#97BCB9" stroke-width="1.0896" stroke-linecap="round" stroke-linejoin="round" stroke-miterlimit="10" d="
						M177.867,290.241c1.755,0,3.179-1.192,3.179-2.667c0-1.472-1.424-2.667-3.179-2.667"/>
				</g>
				<g>
					
						<path fill="none" stroke="#97BCB9" stroke-width="1.0896" stroke-linecap="round" stroke-linejoin="round" stroke-miterlimit="10" d="
						M144.354,378.656c1.756,0,3.179-1.192,3.179-2.665c0-1.475-1.422-2.669-3.179-2.669"/>
					
						<path fill="none" stroke="#97BCB9" stroke-width="1.0896" stroke-linecap="round" stroke-linejoin="round" stroke-miterlimit="10" d="
						M141.176,375.991c1.755,0,3.178-1.195,3.178-2.669c0-1.473-1.423-2.666-3.178-2.666"/>
				</g>
				
					<path fill="none" stroke="#97BCB9" stroke-width="1.0896" stroke-linecap="round" stroke-linejoin="round" stroke-miterlimit="10" d="
					M200.547,376.676c1.755,0,3.177-1.196,3.177-2.669c0-1.471-1.422-2.668-3.177-2.668"/>
				
					<path fill="none" stroke="#97BCB9" stroke-width="1.0896" stroke-linecap="round" stroke-linejoin="round" stroke-miterlimit="10" d="
					M190.471,374.007c1.755,0,3.178-1.194,3.178-2.668c0-1.473-1.423-2.667-3.178-2.667"/>
				
					<path fill="none" stroke="#97BCB9" stroke-width="1.0896" stroke-linecap="round" stroke-linejoin="round" stroke-miterlimit="10" d="
					M197.368,379.366c1.756,0,3.18-1.196,3.18-2.669s-1.424-2.666-3.18-2.666"/>
			</g>
		</g>
	</g>
	<g>
		<g>
			<text transform="matrix(1 0 0 1 263.5327 302.6631)"><tspan x="0" y="0" fill="#78ACA8" font-family="'Montserrat-ExtraBold'" font-size="105.3592" letter-spacing="7">P</tspan><tspan x="79.862" y="0" fill="#78ACA8" font-family="'Montserrat-ExtraBold'" font-size="105.3592" letter-spacing="5">Y</tspan><tspan x="159.092" y="0" fill="#78ACA8" font-family="'Montserrat-ExtraBold'" font-size="105.3592" letter-spacing="10">C</tspan><tspan x="242.324" y="0" fill="#78ACA8" font-family="'Montserrat-ExtraBold'" font-size="105.3592" letter-spacing="7">O</tspan><tspan x="334.723" y="0" fill="#78ACA8" font-family="'Montserrat-ExtraBold'" font-size="105.3592" letter-spacing="10">N</tspan></text>
		</g>
		<g>
			<text transform="matrix(1 0 0 1 266.5098 345.3604)"><tspan x="0" y="0" fill="#012A29" font-family="'Montserrat-Light'" font-size="36.5018" letter-spacing="7">CLEVELAND </tspan><tspan x="302.122" y="0" fill="#012A29" font-family="'Montserrat-ExtraBold'" font-size="36.5018" letter-spacing="7">2018</tspan></text>
		</g>
	</g>
</g>
</svg>
