<?xml version="1.0" encoding="utf-8"?>
<!-- Generator: Adobe Illustrator 16.0.0, SVG Export Plug-In . SVG Version: 6.00 Build 0)  -->
<!DOCTYPE svg PUBLIC "-//W3C//DTD SVG 1.1//EN" "http://www.w3.org/Graphics/SVG/1.1/DTD/svg11.dtd">
<svg version="1.1" id="Layer_1" xmlns="http://www.w3.org/2000/svg" xmlns:xlink="http://www.w3.org/1999/xlink" x="0px" y="0px"
	 width="322.229px" height="157px" viewBox="0 0 322.229 157" enable-background="new 0 0 322.229 157" xml:space="preserve">
<g>
	<g>
		<text transform="matrix(1 0 0 1 184.7568 89.2549)"><tspan x="0" y="0" fill="#012A29" font-family="'Montserrat-Light'" font-size="22.485" letter-spacing="4">CLE</tspan><tspan x="55.492" y="0" fill="#012A29" font-family="'Montserrat-Regular'" font-size="22.485" letter-spacing="4"> </tspan><tspan x="65.791" y="0" fill="#012A29" font-family="'Montserrat-ExtraBold'" font-size="22.485" letter-spacing="4">2018</tspan></text>
		<g>
			<text transform="matrix(1 0 0 1 6.3379 90.1484)"><tspan x="0" y="0" fill="#78ACA8" font-family="'Montserrat-ExtraBold'" font-size="26.2324" letter-spacing="1">P</tspan><tspan x="19.884" y="0" fill="#78ACA8" font-family="'Montserrat-ExtraBold'" font-size="26.2324" letter-spacing="1">Y</tspan><tspan x="39.611" y="0" fill="#78ACA8" font-family="'Montserrat-ExtraBold'" font-size="26.2324" letter-spacing="2">C</tspan><tspan x="60.334" y="0" fill="#78ACA8" font-family="'Montserrat-ExtraBold'" font-size="26.2324" letter-spacing="1">O</tspan><tspan x="83.34" y="0" fill="#78ACA8" font-family="'Montserrat-ExtraBold'" font-size="26.2324" letter-spacing="2">N</tspan></text>
		</g>
	</g>
	<g>
		<g opacity="0.5">
			<g>
				<rect x="127.38" y="119.035" fill="#FFCF89" width="39.829" height="31.309"/>
				<g>
					<rect x="127.119" y="120.432" fill="#CF9962" width="39.959" height="0.599"/>
				</g>
				<g>
					<rect x="128.427" y="121.639" fill="#CF9962" width="1.205" height="1.338"/>
					<rect x="128.427" y="123.858" fill="#CF9962" width="1.205" height="4.087"/>
					<rect x="128.427" y="130.48" fill="#CF9962" width="1.205" height="1.339"/>
					<rect x="128.427" y="133.143" fill="#CF9962" width="1.205" height="1.339"/>
					<rect x="128.427" y="135.805" fill="#CF9962" width="1.205" height="1.338"/>
					<rect x="128.427" y="138.466" fill="#CF9962" width="1.205" height="1.339"/>
					<rect x="128.427" y="141.127" fill="#CF9962" width="1.205" height="1.339"/>
					<rect x="128.427" y="143.788" fill="#CF9962" width="1.205" height="1.339"/>
					<g>
						<rect x="130.486" y="123.858" fill="#CF9962" width="1.205" height="4.087"/>
						<rect x="130.486" y="121.639" fill="#CF9962" width="1.205" height="1.338"/>
						<rect x="130.486" y="130.48" fill="#CF9962" width="1.205" height="1.339"/>
						<rect x="130.486" y="133.143" fill="#CF9962" width="1.205" height="1.339"/>
						<rect x="130.486" y="135.805" fill="#CF9962" width="1.205" height="1.338"/>
						<rect x="130.486" y="138.466" fill="#CF9962" width="1.205" height="1.339"/>
						<rect x="130.486" y="141.127" fill="#CF9962" width="1.205" height="1.339"/>
						<rect x="130.486" y="143.788" fill="#CF9962" width="1.205" height="1.339"/>
					</g>
				</g>
				<g>
					<rect x="162.57" y="121.639" fill="#CF9962" width="1.205" height="1.338"/>
					<rect x="162.57" y="123.858" fill="#CF9962" width="1.205" height="4.087"/>
					<rect x="164.631" y="123.858" fill="#CF9962" width="1.205" height="4.087"/>
					<rect x="164.631" y="121.639" fill="#CF9962" width="1.205" height="1.338"/>
					<g>
						<rect x="162.57" y="130.48" fill="#CF9962" width="1.205" height="1.339"/>
						<rect x="164.631" y="130.48" fill="#CF9962" width="1.205" height="1.339"/>
					</g>
					<g>
						<rect x="162.57" y="133.143" fill="#CF9962" width="1.205" height="1.339"/>
						<rect x="164.631" y="133.143" fill="#CF9962" width="1.205" height="1.339"/>
					</g>
					<g>
						<rect x="162.57" y="135.805" fill="#CF9962" width="1.205" height="1.338"/>
						<rect x="164.631" y="135.805" fill="#CF9962" width="1.205" height="1.338"/>
					</g>
					<g>
						<rect x="162.57" y="138.466" fill="#CF9962" width="1.205" height="1.339"/>
						<rect x="164.631" y="138.466" fill="#CF9962" width="1.205" height="1.339"/>
					</g>
					<g>
						<rect x="162.57" y="141.127" fill="#CF9962" width="1.205" height="1.339"/>
						<rect x="164.631" y="141.127" fill="#CF9962" width="1.205" height="1.339"/>
					</g>
					<g>
						<rect x="162.57" y="143.788" fill="#CF9962" width="1.205" height="1.339"/>
						<rect x="164.631" y="143.788" fill="#CF9962" width="1.205" height="1.339"/>
					</g>
				</g>
			</g>
			<g>
				<polygon fill="#CF9962" points="71.948,124.819 90.431,117.426 90.691,112.43 72.208,120.223 				"/>
				<polygon fill="#FFCF89" points="127.657,150.344 112.559,150.344 112.559,113.029 127.657,115.63 				"/>
				<polygon fill="#CF9962" points="97.199,144.796 112.559,150.344 112.559,113.029 97.199,117.625 				"/>
				<g>
					<g>
						<g>
							<polygon fill="#CF9962" points="124.246,123.08 123.041,122.943 123.041,118.83 124.246,118.993 							"/>
							<polygon fill="#CF9962" points="124.246,118.111 123.041,117.943 123.041,116.596 124.246,116.772 							"/>
							<polygon fill="#CF9962" points="124.246,128.554 123.041,128.451 123.041,127.104 124.246,127.215 							"/>
							<polygon fill="#CF9962" points="124.246,131.229 123.041,131.145 123.041,129.797 124.246,129.891 							"/>
							<polygon fill="#CF9962" points="124.246,133.904 123.041,133.836 123.041,132.489 124.246,132.565 							"/>
							<polygon fill="#CF9962" points="124.246,136.58 123.041,136.529 123.041,135.182 124.246,135.241 							"/>
							<polygon fill="#CF9962" points="124.246,139.255 123.041,139.221 123.041,137.873 124.246,137.916 							"/>
							<polygon fill="#CF9962" points="124.246,141.93 123.041,141.913 123.041,140.566 124.246,140.592 							"/>
							<polygon fill="#CF9962" points="124.246,144.605 123.041,144.605 123.041,143.259 124.246,143.268 							"/>
						</g>
						<g>
							<polygon fill="#CF9962" points="121.939,122.818 120.734,122.682 120.734,118.519 121.939,118.682 							"/>
							<polygon fill="#CF9962" points="121.939,117.789 120.734,117.621 120.734,116.257 121.939,116.434 							"/>
							<polygon fill="#CF9962" points="121.939,128.358 120.734,128.256 120.734,126.893 121.939,127.003 							"/>
							<polygon fill="#CF9962" points="121.939,131.066 120.734,130.981 120.734,129.618 121.939,129.712 							"/>
							<polygon fill="#CF9962" points="121.939,133.774 120.734,133.706 120.734,132.343 121.939,132.419 							"/>
							<polygon fill="#CF9962" points="121.939,136.482 120.734,136.432 120.734,135.067 121.939,135.127 							"/>
							<polygon fill="#CF9962" points="121.939,139.189 120.734,139.156 120.734,137.792 121.939,137.835 							"/>
							<polygon fill="#CF9962" points="121.939,141.897 120.734,141.88 120.734,140.518 121.939,140.543 							"/>
							<polygon fill="#CF9962" points="121.939,144.605 120.734,144.605 120.734,143.243 121.939,143.251 							"/>
						</g>
						<g>
							<polygon fill="#CF9962" points="119.633,122.557 118.428,122.42 118.428,118.207 119.633,118.37 							"/>
							<polygon fill="#CF9962" points="119.633,117.467 118.428,117.298 118.428,115.918 119.633,116.096 							"/>
							<polygon fill="#CF9962" points="119.633,128.163 118.428,128.061 118.428,126.682 119.633,126.792 							"/>
							<polygon fill="#CF9962" points="119.633,130.904 118.428,130.819 118.428,129.439 119.633,129.532 							"/>
							<polygon fill="#CF9962" points="119.633,133.644 118.428,133.576 118.428,132.196 119.633,132.272 							"/>
							<polygon fill="#CF9962" points="119.633,136.385 118.428,136.334 118.428,134.954 119.633,135.014 							"/>
							<polygon fill="#CF9962" points="119.633,139.125 118.428,139.091 118.428,137.711 119.633,137.753 							"/>
							<polygon fill="#CF9962" points="119.633,141.864 118.428,141.848 118.428,140.469 119.633,140.494 							"/>
							<polygon fill="#CF9962" points="119.633,144.605 118.428,144.605 118.428,143.227 119.633,143.235 							"/>
						</g>
						<g>
							<polygon fill="#CF9962" points="117.326,122.294 116.121,122.157 116.121,117.896 117.326,118.059 							"/>
							<polygon fill="#CF9962" points="117.326,117.145 116.121,116.976 116.121,115.58 117.326,115.757 							"/>
							<polygon fill="#CF9962" points="117.326,127.968 116.121,127.865 116.121,126.47 117.326,126.58 							"/>
							<polygon fill="#CF9962" points="117.326,130.741 116.121,130.656 116.121,129.26 117.326,129.354 							"/>
							<polygon fill="#CF9962" points="117.326,133.514 116.121,133.445 116.121,132.05 117.326,132.126 							"/>
							<polygon fill="#CF9962" points="117.326,136.287 116.121,136.236 116.121,134.84 117.326,134.899 							"/>
							<polygon fill="#CF9962" points="117.326,139.06 116.121,139.025 116.121,137.629 117.326,137.672 							"/>
							<polygon fill="#CF9962" points="117.326,141.832 116.121,141.815 116.121,140.42 117.326,140.445 							"/>
							<polygon fill="#CF9962" points="117.326,144.605 116.121,144.605 116.121,143.21 117.326,143.219 							"/>
						</g>
					</g>
				</g>
				<polygon fill="#FFCF89" points="117.504,150.344 86.006,150.344 86.006,114.628 117.504,120.223 				"/>
				<polygon fill="#FFCF89" points="58.933,150.341 86.006,150.344 86.006,114.628 58.933,125.416 				"/>
				<polygon fill="#FFCF89" points="108.914,120.223 90.431,117.426 90.691,112.43 109.174,115.627 				"/>
				<g>
					<g>
						<g>
							<g>
								<polygon fill="#CF9962" points="116.318,128.619 115.4,128.504 115.4,123.769 116.318,123.918 								"/>
								<polygon fill="#CF9962" points="116.318,131.487 115.4,131.393 115.4,130.044 116.318,130.148 								"/>
								<polygon fill="#CF9962" points="116.318,134.11 115.4,134.035 115.4,132.687 116.318,132.771 								"/>
								<polygon fill="#CF9962" points="116.318,136.734 115.4,136.678 115.4,135.33 116.318,135.396 								"/>
								<polygon fill="#CF9962" points="116.318,139.358 115.4,139.32 115.4,137.972 116.318,138.02 								"/>
								<polygon fill="#CF9962" points="116.318,141.981 115.4,141.963 115.4,140.614 116.318,140.643 								"/>
								<polygon fill="#CF9962" points="116.318,144.605 115.4,144.605 115.4,143.258 116.318,143.268 								"/>
							</g>
							<g>
								<polygon fill="#CF9962" points="114.627,128.406 113.708,128.291 113.708,123.494 114.627,123.643 								"/>
								<polygon fill="#CF9962" points="114.627,131.312 113.708,131.219 113.708,129.852 114.627,129.956 								"/>
								<polygon fill="#CF9962" points="114.627,133.971 113.708,133.896 113.708,132.529 114.627,132.614 								"/>
								<polygon fill="#CF9962" points="114.627,136.63 113.708,136.573 113.708,135.208 114.627,135.274 								"/>
								<polygon fill="#CF9962" points="114.627,139.289 113.708,139.251 113.708,137.885 114.627,137.932 								"/>
								<polygon fill="#CF9962" points="114.627,141.946 113.708,141.928 113.708,140.562 114.627,140.59 								"/>
								<polygon fill="#CF9962" points="114.627,144.605 113.708,144.605 113.708,143.24 114.627,143.25 								"/>
							</g>
							<g>
								<polygon fill="#CF9962" points="112.935,128.194 112.016,128.079 112.016,123.219 112.935,123.368 								"/>
								<polygon fill="#CF9962" points="112.935,131.139 112.016,131.044 112.016,129.66 112.935,129.764 								"/>
								<polygon fill="#CF9962" points="112.935,133.831 112.016,133.756 112.016,132.371 112.935,132.457 								"/>
								<polygon fill="#CF9962" points="112.935,136.525 112.016,136.469 112.016,135.085 112.935,135.151 								"/>
								<polygon fill="#CF9962" points="112.935,139.219 112.016,139.181 112.016,137.797 112.935,137.845 								"/>
								<polygon fill="#CF9962" points="112.935,141.912 112.016,141.893 112.016,140.509 112.935,140.537 								"/>
								<polygon fill="#CF9962" points="112.935,144.605 112.016,144.605 112.016,143.223 112.935,143.232 								"/>
							</g>
						</g>
						<g>
							<g>
								<polygon fill="#CF9962" points="110.288,127.861 109.37,127.746 109.37,122.789 110.288,122.938 								"/>
								<polygon fill="#CF9962" points="110.288,130.866 109.37,130.771 109.37,129.359 110.288,129.464 								"/>
								<polygon fill="#CF9962" points="110.288,133.613 109.37,133.537 109.37,132.125 110.288,132.211 								"/>
								<polygon fill="#CF9962" points="110.288,136.361 109.37,136.305 109.37,134.894 110.288,134.96 								"/>
								<polygon fill="#CF9962" points="110.288,139.109 109.37,139.072 109.37,137.66 110.288,137.707 								"/>
								<polygon fill="#CF9962" points="110.288,141.857 109.37,141.838 109.37,140.426 110.288,140.455 								"/>
								<polygon fill="#CF9962" points="110.288,144.605 109.37,144.605 109.37,143.194 110.288,143.204 								"/>
							</g>
							<g>
								<polygon fill="#CF9962" points="108.596,127.649 107.678,127.534 107.678,122.514 108.596,122.663 								"/>
								<polygon fill="#CF9962" points="108.596,130.691 107.678,130.597 107.678,129.167 108.596,129.271 								"/>
								<polygon fill="#CF9962" points="108.596,133.474 107.678,133.398 107.678,131.968 108.596,132.054 								"/>
								<polygon fill="#CF9962" points="108.596,136.257 107.678,136.2 107.678,134.771 108.596,134.838 								"/>
								<polygon fill="#CF9962" points="108.596,139.04 107.678,139.002 107.678,137.572 108.596,137.62 								"/>
								<polygon fill="#CF9962" points="108.596,141.822 107.678,141.804 107.678,140.373 108.596,140.402 								"/>
								<polygon fill="#CF9962" points="108.596,144.605 107.678,144.605 107.678,143.177 108.596,143.187 								"/>
							</g>
							<g>
								<polygon fill="#CF9962" points="106.904,127.437 105.985,127.321 105.985,122.238 106.904,122.388 								"/>
								<polygon fill="#CF9962" points="106.904,130.518 105.985,130.422 105.985,128.975 106.904,129.079 								"/>
								<polygon fill="#CF9962" points="106.904,133.334 105.985,133.258 105.985,131.811 106.904,131.896 								"/>
								<polygon fill="#CF9962" points="106.904,136.152 105.985,136.096 105.985,134.648 106.904,134.715 								"/>
								<polygon fill="#CF9962" points="106.904,138.971 105.985,138.933 105.985,137.484 106.904,137.532 								"/>
								<polygon fill="#CF9962" points="106.904,141.787 105.985,141.769 105.985,140.321 106.904,140.35 								"/>
								<polygon fill="#CF9962" points="106.904,144.605 105.985,144.605 105.985,143.159 106.904,143.169 								"/>
							</g>
						</g>
						<g>
							<g>
								<polygon fill="#CF9962" points="104.258,127.104 103.339,126.989 103.339,121.809 104.258,121.958 								"/>
								<polygon fill="#CF9962" points="104.258,130.244 103.339,130.149 103.339,128.674 104.258,128.778 								"/>
								<polygon fill="#CF9962" points="104.258,133.116 103.339,133.04 103.339,131.564 104.258,131.65 								"/>
								<polygon fill="#CF9962" points="104.258,135.988 103.339,135.932 103.339,134.457 104.258,134.523 								"/>
								<polygon fill="#CF9962" points="104.258,138.861 103.339,138.823 103.339,137.348 104.258,137.396 								"/>
								<polygon fill="#CF9962" points="104.258,141.732 103.339,141.714 103.339,140.238 104.258,140.268 								"/>
								<polygon fill="#CF9962" points="104.258,144.605 103.339,144.605 103.339,143.131 104.258,143.141 								"/>
							</g>
							<g>
								<polygon fill="#CF9962" points="102.565,126.892 101.646,126.776 101.646,121.533 102.565,121.683 								"/>
								<polygon fill="#CF9962" points="102.565,130.07 101.646,129.976 101.646,128.482 102.565,128.586 								"/>
								<polygon fill="#CF9962" points="102.565,132.977 101.646,132.9 101.646,131.407 102.565,131.493 								"/>
								<polygon fill="#CF9962" points="102.565,135.884 101.646,135.827 101.646,134.335 102.565,134.401 								"/>
								<polygon fill="#CF9962" points="102.565,138.791 101.646,138.754 101.646,137.261 102.565,137.308 								"/>
								<polygon fill="#CF9962" points="102.565,141.698 101.646,141.679 101.646,140.186 102.565,140.215 								"/>
								<polygon fill="#CF9962" points="102.565,144.605 101.646,144.605 101.646,143.113 102.565,143.123 								"/>
							</g>
							<g>
								<polygon fill="#CF9962" points="100.873,126.68 99.954,126.563 99.954,121.258 100.873,121.408 								"/>
								<polygon fill="#CF9962" points="100.873,129.896 99.954,129.801 99.954,128.29 100.873,128.395 								"/>
								<polygon fill="#CF9962" points="100.873,132.837 99.954,132.761 99.954,131.25 100.873,131.336 								"/>
								<polygon fill="#CF9962" points="100.873,135.779 99.954,135.723 99.954,134.213 100.873,134.279 								"/>
								<polygon fill="#CF9962" points="100.873,138.722 99.954,138.684 99.954,137.173 100.873,137.221 								"/>
								<polygon fill="#CF9962" points="100.873,141.663 99.954,141.645 99.954,140.133 100.873,140.162 								"/>
								<polygon fill="#CF9962" points="100.873,144.605 99.954,144.605 99.954,143.096 100.873,143.105 								"/>
							</g>
						</g>
						<g>
							<g>
								<polygon fill="#CF9962" points="98.227,126.347 97.308,126.231 97.308,120.828 98.227,120.978 								"/>
								<polygon fill="#CF9962" points="98.227,129.623 97.308,129.528 97.308,127.989 98.227,128.094 								"/>
								<polygon fill="#CF9962" points="98.227,132.619 97.308,132.543 97.308,131.004 98.227,131.09 								"/>
								<polygon fill="#CF9962" points="98.227,135.615 97.308,135.559 97.308,134.021 98.227,134.088 								"/>
								<polygon fill="#CF9962" points="98.227,138.612 97.308,138.574 97.308,137.036 98.227,137.084 								"/>
								<polygon fill="#CF9962" points="98.227,141.608 97.308,141.59 97.308,140.051 98.227,140.079 								"/>
								<polygon fill="#CF9962" points="98.227,144.605 97.308,144.605 97.308,143.067 98.227,143.077 								"/>
							</g>
							<g>
								<polygon fill="#CF9962" points="96.534,126.135 95.616,126.02 95.616,120.553 96.534,120.702 								"/>
								<polygon fill="#CF9962" points="96.534,129.448 95.616,129.354 95.616,127.797 96.534,127.901 								"/>
								<polygon fill="#CF9962" points="96.534,132.479 95.616,132.403 95.616,130.847 96.534,130.932 								"/>
								<polygon fill="#CF9962" points="96.534,135.511 95.616,135.454 95.616,133.898 96.534,133.965 								"/>
								<polygon fill="#CF9962" points="96.534,138.543 95.616,138.505 95.616,136.948 96.534,136.996 								"/>
								<polygon fill="#CF9962" points="96.534,141.573 95.616,141.555 95.616,139.998 96.534,140.026 								"/>
								<polygon fill="#CF9962" points="96.534,144.605 95.616,144.605 95.616,143.05 96.534,143.06 								"/>
							</g>
							<g>
								<polygon fill="#CF9962" points="94.842,125.922 93.924,125.807 93.924,120.278 94.842,120.428 								"/>
								<polygon fill="#CF9962" points="94.842,129.273 93.924,129.18 93.924,127.604 94.842,127.709 								"/>
								<polygon fill="#CF9962" points="94.842,132.34 93.924,132.264 93.924,130.689 94.842,130.774 								"/>
								<polygon fill="#CF9962" points="94.842,135.406 93.924,135.35 93.924,133.776 94.842,133.843 								"/>
								<polygon fill="#CF9962" points="94.842,138.473 93.924,138.436 93.924,136.861 94.842,136.908 								"/>
								<polygon fill="#CF9962" points="94.842,141.539 93.924,141.52 93.924,139.945 94.842,139.974 								"/>
								<polygon fill="#CF9962" points="94.842,144.605 93.924,144.605 93.924,143.032 94.842,143.042 								"/>
							</g>
						</g>
						<g>
							<g>
								<polygon fill="#CF9962" points="92.196,125.59 91.277,125.475 91.277,119.848 92.196,119.997 								"/>
								<polygon fill="#CF9962" points="92.196,129.001 91.277,128.906 91.277,127.305 92.196,127.408 								"/>
								<polygon fill="#CF9962" points="92.196,132.121 91.277,132.046 91.277,130.443 92.196,130.529 								"/>
								<polygon fill="#CF9962" points="92.196,135.242 91.277,135.186 91.277,133.585 92.196,133.651 								"/>
								<polygon fill="#CF9962" points="92.196,138.364 91.277,138.326 91.277,136.724 92.196,136.771 								"/>
								<polygon fill="#CF9962" points="92.196,141.484 91.277,141.465 91.277,139.863 92.196,139.892 								"/>
								<polygon fill="#CF9962" points="92.196,144.605 91.277,144.605 91.277,143.004 92.196,143.014 								"/>
							</g>
							<g>
								<polygon fill="#CF9962" points="90.504,125.377 89.585,125.262 89.585,119.573 90.504,119.723 								"/>
								<polygon fill="#CF9962" points="90.504,128.827 89.585,128.732 89.585,127.112 90.504,127.217 								"/>
								<polygon fill="#CF9962" points="90.504,131.981 89.585,131.906 89.585,130.286 90.504,130.371 								"/>
								<polygon fill="#CF9962" points="90.504,135.138 89.585,135.081 89.585,133.463 90.504,133.529 								"/>
								<polygon fill="#CF9962" points="90.504,138.294 89.585,138.256 89.585,136.637 90.504,136.684 								"/>
								<polygon fill="#CF9962" points="90.504,141.449 89.585,141.431 89.585,139.811 90.504,139.839 								"/>
								<polygon fill="#CF9962" points="90.504,144.605 89.585,144.605 89.585,142.986 90.504,142.996 								"/>
							</g>
							<g>
								<polygon fill="#CF9962" points="88.812,125.164 87.893,125.049 87.893,119.298 88.812,119.447 								"/>
								<polygon fill="#CF9962" points="88.812,128.652 87.893,128.558 87.893,126.92 88.812,127.024 								"/>
								<polygon fill="#CF9962" points="88.812,131.842 87.893,131.767 87.893,130.129 88.812,130.214 								"/>
								<polygon fill="#CF9962" points="88.812,135.033 87.893,134.977 87.893,133.34 88.812,133.406 								"/>
								<polygon fill="#CF9962" points="88.812,138.225 87.893,138.187 87.893,136.549 88.812,136.597 								"/>
								<polygon fill="#CF9962" points="88.812,141.414 87.893,141.396 87.893,139.758 88.812,139.786 								"/>
								<polygon fill="#CF9962" points="88.812,144.605 87.893,144.605 87.893,142.969 88.812,142.979 								"/>
							</g>
						</g>
					</g>
				</g>
				<g>
					<g>
						<g>
							<g>
								<g>
									<polygon fill="#CF9962" points="84.169,124.42 83.251,124.693 83.251,119.693 84.169,119.35 									"/>
									<polygon fill="#CF9962" points="84.169,127.515 83.251,127.746 83.251,126.322 84.169,126.07 									"/>
									<polygon fill="#CF9962" points="84.169,130.362 83.251,130.556 83.251,129.131 84.169,128.918 									"/>
									<polygon fill="#CF9962" points="84.169,133.211 83.251,133.365 83.251,131.941 84.169,131.768 									"/>
									<polygon fill="#CF9962" points="84.169,136.06 83.251,136.176 83.251,134.751 84.169,134.615 									"/>
									<polygon fill="#CF9962" points="84.169,138.909 83.251,138.986 83.251,137.562 84.169,137.465 									"/>
									<polygon fill="#CF9962" points="84.169,141.758 83.251,141.796 83.251,140.371 84.169,140.313 									"/>
									<polygon fill="#CF9962" points="84.169,144.605 83.251,144.605 83.251,143.182 84.169,143.162 									"/>
								</g>
							</g>
							<g>
								<g>
									<polygon fill="#CF9962" points="82.412,124.944 81.493,125.219 81.493,120.35 82.412,120.006 									"/>
									<polygon fill="#CF9962" points="82.412,127.958 81.493,128.19 81.493,126.804 82.412,126.552 									"/>
									<polygon fill="#CF9962" points="82.412,130.732 81.493,130.926 81.493,129.539 82.412,129.326 									"/>
									<polygon fill="#CF9962" points="82.412,133.507 81.493,133.661 81.493,132.275 82.412,132.102 									"/>
									<polygon fill="#CF9962" points="82.412,136.282 81.493,136.398 81.493,135.011 82.412,134.875 									"/>
									<polygon fill="#CF9962" points="82.412,139.057 81.493,139.135 81.493,137.748 82.412,137.65 									"/>
									<polygon fill="#CF9962" points="82.412,141.831 81.493,141.87 81.493,140.483 82.412,140.425 									"/>
									<polygon fill="#CF9962" points="82.412,144.605 81.493,144.605 81.493,143.22 82.412,143.2 									"/>
								</g>
							</g>
							<g>
								<g>
									<polygon fill="#CF9962" points="80.655,125.469 79.736,125.743 79.736,121.006 80.655,120.662 									"/>
									<polygon fill="#CF9962" points="80.655,128.402 79.736,128.635 79.736,127.285 80.655,127.033 									"/>
									<polygon fill="#CF9962" points="80.655,131.103 79.736,131.296 79.736,129.946 80.655,129.733 									"/>
									<polygon fill="#CF9962" points="80.655,133.803 79.736,133.957 79.736,132.609 80.655,132.435 									"/>
									<polygon fill="#CF9962" points="80.655,136.504 79.736,136.62 79.736,135.271 80.655,135.135 									"/>
									<polygon fill="#CF9962" points="80.655,139.205 79.736,139.282 79.736,137.934 80.655,137.836 									"/>
									<polygon fill="#CF9962" points="80.655,141.905 79.736,141.944 79.736,140.595 80.655,140.536 									"/>
									<polygon fill="#CF9962" points="80.655,144.605 79.736,144.605 79.736,143.257 80.655,143.237 									"/>
								</g>
							</g>
						</g>
						<g>
							<g>
								<g>
									<polygon fill="#CF9962" points="77.884,126.296 76.966,126.57 76.966,122.04 77.884,121.697 									"/>
									<polygon fill="#CF9962" points="77.884,129.103 76.966,129.335 76.966,128.045 77.884,127.793 									"/>
									<polygon fill="#CF9962" points="77.884,131.687 76.966,131.88 76.966,130.59 77.884,130.376 									"/>
									<polygon fill="#CF9962" points="77.884,134.27 76.966,134.425 76.966,133.135 77.884,132.961 									"/>
									<polygon fill="#CF9962" points="77.884,136.854 76.966,136.97 76.966,135.68 77.884,135.544 									"/>
									<polygon fill="#CF9962" points="77.884,139.438 76.966,139.516 76.966,138.226 77.884,138.129 									"/>
									<polygon fill="#CF9962" points="77.884,142.021 76.966,142.061 76.966,140.771 77.884,140.712 									"/>
									<polygon fill="#CF9962" points="77.884,144.605 76.966,144.605 76.966,143.316 77.884,143.297 									"/>
								</g>
							</g>
							<g>
								<g>
									<polygon fill="#CF9962" points="76.127,126.82 75.209,127.094 75.209,122.696 76.127,122.354 									"/>
									<polygon fill="#CF9962" points="76.127,129.547 75.209,129.779 75.209,128.526 76.127,128.274 									"/>
									<polygon fill="#CF9962" points="76.127,132.057 75.209,132.25 75.209,130.997 76.127,130.784 									"/>
									<polygon fill="#CF9962" points="76.127,134.565 75.209,134.721 75.209,133.469 76.127,133.294 									"/>
									<polygon fill="#CF9962" points="76.127,137.076 75.209,137.192 75.209,135.939 76.127,135.804 									"/>
									<polygon fill="#CF9962" points="76.127,139.587 75.209,139.664 75.209,138.411 76.127,138.314 									"/>
									<polygon fill="#CF9962" points="76.127,142.096 75.209,142.135 75.209,140.882 76.127,140.823 									"/>
									<polygon fill="#CF9962" points="76.127,144.605 75.209,144.605 75.209,143.354 76.127,143.334 									"/>
								</g>
							</g>
							<g>
								<g>
									<polygon fill="#CF9962" points="74.37,127.345 73.451,127.619 73.451,123.353 74.37,123.01 									"/>
									<polygon fill="#CF9962" points="74.37,129.991 73.451,130.223 73.451,129.008 74.37,128.756 									"/>
									<polygon fill="#CF9962" points="74.37,132.427 73.451,132.62 73.451,131.404 74.37,131.191 									"/>
									<polygon fill="#CF9962" points="74.37,134.861 73.451,135.017 73.451,133.803 74.37,133.628 									"/>
									<polygon fill="#CF9962" points="74.37,137.298 73.451,137.414 73.451,136.199 74.37,136.063 									"/>
									<polygon fill="#CF9962" points="74.37,139.734 73.451,139.812 73.451,138.597 74.37,138.5 									"/>
									<polygon fill="#CF9962" points="74.37,142.17 73.451,142.209 73.451,140.993 74.37,140.936 									"/>
									<polygon fill="#CF9962" points="74.37,144.605 73.451,144.605 73.451,143.391 74.37,143.371 									"/>
								</g>
							</g>
						</g>
						<g>
							<g>
								<g>
									<polygon fill="#CF9962" points="71.599,128.172 70.681,128.446 70.681,124.388 71.599,124.045 									"/>
									<polygon fill="#CF9962" points="71.599,130.691 70.681,130.924 70.681,129.768 71.599,129.516 									"/>
									<polygon fill="#CF9962" points="71.599,133.01 70.681,133.203 70.681,132.047 71.599,131.834 									"/>
									<polygon fill="#CF9962" points="71.599,135.329 70.681,135.483 70.681,134.328 71.599,134.154 									"/>
									<polygon fill="#CF9962" points="71.599,137.648 70.681,137.765 70.681,136.608 71.599,136.473 									"/>
									<polygon fill="#CF9962" points="71.599,139.968 70.681,140.045 70.681,138.89 71.599,138.792 									"/>
									<polygon fill="#CF9962" points="71.599,142.287 70.681,142.325 70.681,141.169 71.599,141.111 									"/>
									<polygon fill="#CF9962" points="71.599,144.605 70.681,144.605 70.681,143.45 71.599,143.431 									"/>
								</g>
							</g>
							<g>
								<g>
									<polygon fill="#CF9962" points="69.842,128.696 68.923,128.971 68.923,125.044 69.842,124.701 									"/>
									<polygon fill="#CF9962" points="69.842,131.136 68.923,131.367 68.923,130.249 69.842,129.997 									"/>
									<polygon fill="#CF9962" points="69.842,133.38 68.923,133.574 68.923,132.455 69.842,132.242 									"/>
									<polygon fill="#CF9962" points="69.842,135.625 68.923,135.779 68.923,134.662 69.842,134.487 									"/>
									<polygon fill="#CF9962" points="69.842,137.87 68.923,137.986 68.923,136.868 69.842,136.732 									"/>
									<polygon fill="#CF9962" points="69.842,140.116 68.923,140.193 68.923,139.075 69.842,138.978 									"/>
									<polygon fill="#CF9962" points="69.842,142.36 68.923,142.399 68.923,141.281 69.842,141.223 									"/>
									<polygon fill="#CF9962" points="69.842,144.605 68.923,144.605 68.923,143.488 69.842,143.468 									"/>
								</g>
							</g>
							<g>
								<g>
									<polygon fill="#CF9962" points="68.085,129.221 67.166,129.495 67.166,125.7 68.085,125.357 									"/>
									<polygon fill="#CF9962" points="68.085,131.579 67.166,131.812 67.166,130.73 68.085,130.479 									"/>
									<polygon fill="#CF9962" points="68.085,133.75 67.166,133.943 67.166,132.862 68.085,132.649 									"/>
									<polygon fill="#CF9962" points="68.085,135.921 67.166,136.076 67.166,134.996 68.085,134.821 									"/>
									<polygon fill="#CF9962" points="68.085,138.093 67.166,138.209 67.166,137.128 68.085,136.992 									"/>
									<polygon fill="#CF9962" points="68.085,140.264 67.166,140.342 67.166,139.261 68.085,139.163 									"/>
									<polygon fill="#CF9962" points="68.085,142.435 67.166,142.474 67.166,141.393 68.085,141.334 									"/>
									<polygon fill="#CF9962" points="68.085,144.605 67.166,144.605 67.166,143.525 68.085,143.506 									"/>
								</g>
							</g>
						</g>
						<g>
							<g>
								<g>
									<polygon fill="#CF9962" points="65.313,130.048 64.396,130.322 64.396,126.735 65.313,126.393 									"/>
									<polygon fill="#CF9962" points="65.313,132.28 64.396,132.512 64.396,131.49 65.313,131.238 									"/>
									<polygon fill="#CF9962" points="65.313,134.334 64.396,134.527 64.396,133.506 65.313,133.293 									"/>
									<polygon fill="#CF9962" points="65.313,136.388 64.396,136.543 64.396,135.521 65.313,135.348 									"/>
									<polygon fill="#CF9962" points="65.313,138.442 64.396,138.559 64.396,137.537 65.313,137.401 									"/>
									<polygon fill="#CF9962" points="65.313,140.497 64.396,140.575 64.396,139.553 65.313,139.456 									"/>
									<polygon fill="#CF9962" points="65.313,142.552 64.396,142.59 64.396,141.568 65.313,141.51 									"/>
									<polygon fill="#CF9962" points="65.313,144.605 64.396,144.605 64.396,143.584 65.313,143.564 									"/>
								</g>
							</g>
							<g>
								<g>
									<polygon fill="#CF9962" points="63.557,130.572 62.638,130.847 62.638,127.392 63.557,127.048 									"/>
									<polygon fill="#CF9962" points="63.557,132.724 62.638,132.956 62.638,131.972 63.557,131.72 									"/>
									<polygon fill="#CF9962" points="63.557,134.704 62.638,134.897 62.638,133.913 63.557,133.7 									"/>
									<polygon fill="#CF9962" points="63.557,136.684 62.638,136.839 62.638,135.855 63.557,135.681 									"/>
									<polygon fill="#CF9962" points="63.557,138.665 62.638,138.781 62.638,137.797 63.557,137.661 									"/>
									<polygon fill="#CF9962" points="63.557,140.646 62.638,140.723 62.638,139.738 63.557,139.642 									"/>
									<polygon fill="#CF9962" points="63.557,142.625 62.638,142.664 62.638,141.68 63.557,141.621 									"/>
									<polygon fill="#CF9962" points="63.557,144.605 62.638,144.605 62.638,143.622 63.557,143.603 									"/>
								</g>
							</g>
							<g>
								<g>
									<polygon fill="#CF9962" points="61.8,131.097 60.881,131.371 60.881,128.048 61.8,127.704 									"/>
									<polygon fill="#CF9962" points="61.8,133.168 60.881,133.4 60.881,132.453 61.8,132.201 									"/>
									<polygon fill="#CF9962" points="61.8,135.074 60.881,135.268 60.881,134.32 61.8,134.107 									"/>
									<polygon fill="#CF9962" points="61.8,136.98 60.881,137.135 60.881,136.188 61.8,136.015 									"/>
									<polygon fill="#CF9962" points="61.8,138.887 60.881,139.003 60.881,138.056 61.8,137.92 									"/>
									<polygon fill="#CF9962" points="61.8,140.793 60.881,140.871 60.881,139.924 61.8,139.827 									"/>
									<polygon fill="#CF9962" points="61.8,142.699 60.881,142.738 60.881,141.791 61.8,141.733 									"/>
									<polygon fill="#CF9962" points="61.8,144.605 60.881,144.605 60.881,143.659 61.8,143.64 									"/>
								</g>
							</g>
						</g>
					</g>
				</g>
				<g>
					<polygon fill="#CF9962" points="108.046,117.896 106.571,117.637 106.571,116.097 108.046,116.363 					"/>
					<polygon fill="#CF9962" points="105.243,117.403 103.769,117.145 103.769,115.59 105.243,115.857 					"/>
					<polygon fill="#CF9962" points="102.44,116.912 100.966,116.652 100.966,115.083 102.44,115.35 					"/>
					<polygon fill="#CF9962" points="99.638,116.42 98.163,116.16 98.163,114.576 99.638,114.843 					"/>
					<polygon fill="#CF9962" points="96.835,115.928 95.36,115.668 95.36,114.069 96.835,114.336 					"/>
					<polygon fill="#CF9962" points="94.032,115.436 92.558,115.177 92.558,113.562 94.032,113.83 					"/>
				</g>
				<polygon fill="#CF9962" points="117.504,121.824 86.006,116.629 86.006,115.963 117.504,121.159 				"/>
				<polygon fill="#CF9962" points="58.932,127.021 86.006,116.629 86.006,115.963 58.932,126.355 				"/>
			</g>
			<g>
				<polygon fill="#CF9962" points="222.591,124.819 204.108,117.426 203.848,112.43 222.331,120.223 				"/>
				<polygon fill="#FFCF89" points="166.882,150.344 181.98,150.344 181.98,113.029 166.882,115.63 				"/>
				<polygon fill="#CF9962" points="197.34,144.796 181.98,150.344 181.98,113.029 197.34,117.625 				"/>
				<g>
					<g>
						<polygon fill="#CF9962" points="170.293,123.08 171.498,122.943 171.498,118.83 170.293,118.993 						"/>
						<polygon fill="#CF9962" points="170.293,118.111 171.498,117.943 171.498,116.596 170.293,116.772 						"/>
						<polygon fill="#CF9962" points="170.293,128.554 171.498,128.452 171.498,127.104 170.293,127.215 						"/>
						<polygon fill="#CF9962" points="170.293,131.229 171.498,131.144 171.498,129.797 170.293,129.891 						"/>
						<polygon fill="#CF9962" points="170.293,133.904 171.498,133.837 171.498,132.489 170.293,132.565 						"/>
						<polygon fill="#CF9962" points="170.293,136.58 171.498,136.528 171.498,135.182 170.293,135.241 						"/>
						<polygon fill="#CF9962" points="170.293,139.255 171.498,139.221 171.498,137.874 170.293,137.916 						"/>
						<polygon fill="#CF9962" points="170.293,141.93 171.498,141.913 171.498,140.565 170.293,140.592 						"/>
						<polygon fill="#CF9962" points="170.293,144.605 171.498,144.605 171.498,143.259 170.293,143.268 						"/>
					</g>
					<g>
						<polygon fill="#CF9962" points="172.6,122.817 173.805,122.681 173.805,118.519 172.6,118.682 						"/>
						<polygon fill="#CF9962" points="172.6,117.789 173.805,117.62 173.805,116.257 172.6,116.434 						"/>
						<polygon fill="#CF9962" points="172.6,128.358 173.805,128.256 173.805,126.893 172.6,127.003 						"/>
						<polygon fill="#CF9962" points="172.6,131.066 173.805,130.981 173.805,129.618 172.6,129.711 						"/>
						<polygon fill="#CF9962" points="172.6,133.774 173.805,133.706 173.805,132.343 172.6,132.419 						"/>
						<polygon fill="#CF9962" points="172.6,136.482 173.805,136.431 173.805,135.067 172.6,135.127 						"/>
						<polygon fill="#CF9962" points="172.6,139.189 173.805,139.156 173.805,137.792 172.6,137.835 						"/>
						<polygon fill="#CF9962" points="172.6,141.897 173.805,141.881 173.805,140.517 172.6,140.543 						"/>
						<polygon fill="#CF9962" points="172.6,144.605 173.805,144.605 173.805,143.242 172.6,143.25 						"/>
					</g>
					<g>
						<polygon fill="#CF9962" points="174.906,122.556 176.111,122.419 176.111,118.207 174.906,118.369 						"/>
						<polygon fill="#CF9962" points="174.906,117.467 176.111,117.298 176.111,115.918 174.906,116.096 						"/>
						<polygon fill="#CF9962" points="174.906,128.163 176.111,128.061 176.111,126.682 174.906,126.792 						"/>
						<polygon fill="#CF9962" points="174.906,130.904 176.111,130.818 176.111,129.438 174.906,129.533 						"/>
						<polygon fill="#CF9962" points="174.906,133.644 176.111,133.576 176.111,132.196 174.906,132.272 						"/>
						<polygon fill="#CF9962" points="174.906,136.385 176.111,136.333 176.111,134.954 174.906,135.014 						"/>
						<polygon fill="#CF9962" points="174.906,139.124 176.111,139.09 176.111,137.711 174.906,137.753 						"/>
						<polygon fill="#CF9962" points="174.906,141.865 176.111,141.848 176.111,140.468 174.906,140.494 						"/>
						<polygon fill="#CF9962" points="174.906,144.605 176.111,144.605 176.111,143.226 174.906,143.234 						"/>
					</g>
					<g>
						<polygon fill="#CF9962" points="177.213,122.294 178.418,122.156 178.418,117.895 177.213,118.059 						"/>
						<polygon fill="#CF9962" points="177.213,117.145 178.418,116.976 178.418,115.58 177.213,115.757 						"/>
						<polygon fill="#CF9962" points="177.213,127.968 178.418,127.865 178.418,126.47 177.213,126.58 						"/>
						<polygon fill="#CF9962" points="177.213,130.74 178.418,130.656 178.418,129.26 177.213,129.354 						"/>
						<polygon fill="#CF9962" points="177.213,133.514 178.418,133.445 178.418,132.05 177.213,132.126 						"/>
						<polygon fill="#CF9962" points="177.213,136.286 178.418,136.236 178.418,134.84 177.213,134.898 						"/>
						<polygon fill="#CF9962" points="177.213,139.06 178.418,139.025 178.418,137.63 177.213,137.672 						"/>
						<polygon fill="#CF9962" points="177.213,141.832 178.418,141.815 178.418,140.419 177.213,140.445 						"/>
						<polygon fill="#CF9962" points="177.213,144.605 178.418,144.605 178.418,143.21 177.213,143.219 						"/>
					</g>
				</g>
				<polygon fill="#FFCF89" points="177.035,150.344 208.533,150.344 208.533,114.628 177.035,120.223 				"/>
				<polygon fill="#FFCF89" points="235.607,150.341 208.533,150.344 208.533,114.628 235.607,125.416 				"/>
				<polygon fill="#FFCF89" points="185.625,120.223 204.108,117.426 203.848,112.43 185.365,115.627 				"/>
				<g>
					<g>
						<g>
							<polygon fill="#CF9962" points="178.221,128.619 179.139,128.504 179.139,123.77 178.221,123.918 							"/>
							<polygon fill="#CF9962" points="178.221,131.487 179.139,131.393 179.139,130.044 178.221,130.148 							"/>
							<polygon fill="#CF9962" points="178.221,134.11 179.139,134.035 179.139,132.687 178.221,132.771 							"/>
							<polygon fill="#CF9962" points="178.221,136.734 179.139,136.678 179.139,135.329 178.221,135.396 							"/>
							<polygon fill="#CF9962" points="178.221,139.358 179.139,139.32 179.139,137.972 178.221,138.02 							"/>
							<polygon fill="#CF9962" points="178.221,141.981 179.139,141.963 179.139,140.614 178.221,140.643 							"/>
							<polygon fill="#CF9962" points="178.221,144.605 179.139,144.605 179.139,143.257 178.221,143.268 							"/>
						</g>
						<g>
							<polygon fill="#CF9962" points="179.912,128.406 180.831,128.291 180.831,123.494 179.912,123.644 							"/>
							<polygon fill="#CF9962" points="179.912,131.312 180.831,131.218 180.831,129.852 179.912,129.956 							"/>
							<polygon fill="#CF9962" points="179.912,133.972 180.831,133.896 180.831,132.529 179.912,132.615 							"/>
							<polygon fill="#CF9962" points="179.912,136.63 180.831,136.573 180.831,135.207 179.912,135.273 							"/>
							<polygon fill="#CF9962" points="179.912,139.289 180.831,139.25 180.831,137.885 179.912,137.932 							"/>
							<polygon fill="#CF9962" points="179.912,141.947 180.831,141.928 180.831,140.562 179.912,140.591 							"/>
							<polygon fill="#CF9962" points="179.912,144.605 180.831,144.605 180.831,143.24 179.912,143.249 							"/>
						</g>
						<g>
							<polygon fill="#CF9962" points="181.604,128.194 182.523,128.078 182.523,123.22 181.604,123.369 							"/>
							<polygon fill="#CF9962" points="181.604,131.139 182.523,131.044 182.523,129.66 181.604,129.764 							"/>
							<polygon fill="#CF9962" points="181.604,133.832 182.523,133.756 182.523,132.372 181.604,132.458 							"/>
							<polygon fill="#CF9962" points="181.604,136.525 182.523,136.469 182.523,135.084 181.604,135.151 							"/>
							<polygon fill="#CF9962" points="181.604,139.219 182.523,139.181 182.523,137.797 181.604,137.844 							"/>
							<polygon fill="#CF9962" points="181.604,141.912 182.523,141.894 182.523,140.51 181.604,140.538 							"/>
							<polygon fill="#CF9962" points="181.604,144.605 182.523,144.605 182.523,143.222 181.604,143.231 							"/>
						</g>
					</g>
					<g>
						<g>
							<polygon fill="#CF9962" points="184.251,127.861 185.169,127.746 185.169,122.789 184.251,122.938 							"/>
							<polygon fill="#CF9962" points="184.251,130.865 185.169,130.771 185.169,129.359 184.251,129.464 							"/>
							<polygon fill="#CF9962" points="184.251,133.613 185.169,133.538 185.169,132.126 184.251,132.211 							"/>
							<polygon fill="#CF9962" points="184.251,136.362 185.169,136.305 185.169,134.894 184.251,134.959 							"/>
							<polygon fill="#CF9962" points="184.251,139.109 185.169,139.071 185.169,137.66 184.251,137.708 							"/>
							<polygon fill="#CF9962" points="184.251,141.857 185.169,141.839 185.169,140.427 184.251,140.455 							"/>
							<polygon fill="#CF9962" points="184.251,144.605 185.169,144.605 185.169,143.194 184.251,143.203 							"/>
						</g>
						<g>
							<polygon fill="#CF9962" points="185.943,127.649 186.861,127.533 186.861,122.514 185.943,122.663 							"/>
							<polygon fill="#CF9962" points="185.943,130.691 186.861,130.597 186.861,129.167 185.943,129.271 							"/>
							<polygon fill="#CF9962" points="185.943,133.475 186.861,133.398 186.861,131.969 185.943,132.054 							"/>
							<polygon fill="#CF9962" points="185.943,136.258 186.861,136.2 186.861,134.771 185.943,134.837 							"/>
							<polygon fill="#CF9962" points="185.943,139.04 186.861,139.002 186.861,137.572 185.943,137.62 							"/>
							<polygon fill="#CF9962" points="185.943,141.822 186.861,141.804 186.861,140.374 185.943,140.402 							"/>
							<polygon fill="#CF9962" points="185.943,144.605 186.861,144.605 186.861,143.176 185.943,143.186 							"/>
						</g>
						<g>
							<polygon fill="#CF9962" points="187.635,127.437 188.554,127.321 188.554,122.239 187.635,122.389 							"/>
							<polygon fill="#CF9962" points="187.635,130.518 188.554,130.422 188.554,128.975 187.635,129.079 							"/>
							<polygon fill="#CF9962" points="187.635,133.334 188.554,133.259 188.554,131.812 187.635,131.896 							"/>
							<polygon fill="#CF9962" points="187.635,136.152 188.554,136.096 188.554,134.648 187.635,134.715 							"/>
							<polygon fill="#CF9962" points="187.635,138.971 188.554,138.933 188.554,137.484 187.635,137.532 							"/>
							<polygon fill="#CF9962" points="187.635,141.788 188.554,141.769 188.554,140.322 187.635,140.351 							"/>
							<polygon fill="#CF9962" points="187.635,144.605 188.554,144.605 188.554,143.158 187.635,143.168 							"/>
						</g>
					</g>
					<g>
						<g>
							<polygon fill="#CF9962" points="190.281,127.104 191.2,126.989 191.2,121.809 190.281,121.959 							"/>
							<polygon fill="#CF9962" points="190.281,130.244 191.2,130.149 191.2,128.674 190.281,128.778 							"/>
							<polygon fill="#CF9962" points="190.281,133.116 191.2,133.04 191.2,131.565 190.281,131.65 							"/>
							<polygon fill="#CF9962" points="190.281,135.989 191.2,135.932 191.2,134.457 190.281,134.523 							"/>
							<polygon fill="#CF9962" points="190.281,138.861 191.2,138.823 191.2,137.348 190.281,137.396 							"/>
							<polygon fill="#CF9962" points="190.281,141.733 191.2,141.715 191.2,140.239 190.281,140.268 							"/>
							<polygon fill="#CF9962" points="190.281,144.605 191.2,144.605 191.2,143.131 190.281,143.14 							"/>
						</g>
						<g>
							<polygon fill="#CF9962" points="191.974,126.892 192.893,126.776 192.893,121.534 191.974,121.684 							"/>
							<polygon fill="#CF9962" points="191.974,130.069 192.893,129.975 192.893,128.482 191.974,128.587 							"/>
							<polygon fill="#CF9962" points="191.974,132.977 192.893,132.901 192.893,131.408 191.974,131.493 							"/>
							<polygon fill="#CF9962" points="191.974,135.884 192.893,135.827 192.893,134.334 191.974,134.4 							"/>
							<polygon fill="#CF9962" points="191.974,138.791 192.893,138.753 192.893,137.261 191.974,137.309 							"/>
							<polygon fill="#CF9962" points="191.974,141.698 192.893,141.68 192.893,140.187 191.974,140.215 							"/>
							<polygon fill="#CF9962" points="191.974,144.605 192.893,144.605 192.893,143.112 191.974,143.122 							"/>
						</g>
						<g>
							<polygon fill="#CF9962" points="193.666,126.68 194.585,126.564 194.585,121.259 193.666,121.408 							"/>
							<polygon fill="#CF9962" points="193.666,129.896 194.585,129.801 194.585,128.289 193.666,128.394 							"/>
							<polygon fill="#CF9962" points="193.666,132.837 194.585,132.762 194.585,131.251 193.666,131.336 							"/>
							<polygon fill="#CF9962" points="193.666,135.779 194.585,135.723 194.585,134.212 193.666,134.278 							"/>
							<polygon fill="#CF9962" points="193.666,138.722 194.585,138.684 194.585,137.173 193.666,137.221 							"/>
							<polygon fill="#CF9962" points="193.666,141.664 194.585,141.645 194.585,140.134 193.666,140.162 							"/>
							<polygon fill="#CF9962" points="193.666,144.605 194.585,144.605 194.585,143.095 193.666,143.104 							"/>
						</g>
					</g>
					<g>
						<g>
							<polygon fill="#CF9962" points="196.312,126.347 197.231,126.231 197.231,120.829 196.312,120.979 							"/>
							<polygon fill="#CF9962" points="196.312,129.623 197.231,129.527 197.231,127.989 196.312,128.094 							"/>
							<polygon fill="#CF9962" points="196.312,132.619 197.231,132.543 197.231,131.005 196.312,131.09 							"/>
							<polygon fill="#CF9962" points="196.312,135.616 197.231,135.56 197.231,134.021 196.312,134.087 							"/>
							<polygon fill="#CF9962" points="196.312,138.612 197.231,138.574 197.231,137.036 196.312,137.084 							"/>
							<polygon fill="#CF9962" points="196.312,141.609 197.231,141.59 197.231,140.051 196.312,140.08 							"/>
							<polygon fill="#CF9962" points="196.312,144.605 197.231,144.605 197.231,143.066 196.312,143.077 							"/>
						</g>
						<g>
							<polygon fill="#CF9962" points="198.005,126.135 198.923,126.019 198.923,120.554 198.005,120.703 							"/>
							<polygon fill="#CF9962" points="198.005,129.448 198.923,129.354 198.923,127.797 198.005,127.901 							"/>
							<polygon fill="#CF9962" points="198.005,132.479 198.923,132.404 198.923,130.848 198.005,130.933 							"/>
							<polygon fill="#CF9962" points="198.005,135.511 198.923,135.454 198.923,133.897 198.005,133.964 							"/>
							<polygon fill="#CF9962" points="198.005,138.543 198.923,138.505 198.923,136.948 198.005,136.996 							"/>
							<polygon fill="#CF9962" points="198.005,141.574 198.923,141.556 198.923,139.999 198.005,140.027 							"/>
							<polygon fill="#CF9962" points="198.005,144.605 198.923,144.605 198.923,143.049 198.005,143.059 							"/>
						</g>
						<g>
							<polygon fill="#CF9962" points="199.697,125.922 200.615,125.807 200.615,120.279 199.697,120.428 							"/>
							<polygon fill="#CF9962" points="199.697,129.273 200.615,129.18 200.615,127.604 199.697,127.709 							"/>
							<polygon fill="#CF9962" points="199.697,132.34 200.615,132.265 200.615,130.69 199.697,130.775 							"/>
							<polygon fill="#CF9962" points="199.697,135.406 200.615,135.35 200.615,133.775 199.697,133.842 							"/>
							<polygon fill="#CF9962" points="199.697,138.473 200.615,138.435 200.615,136.861 199.697,136.908 							"/>
							<polygon fill="#CF9962" points="199.697,141.539 200.615,141.521 200.615,139.946 199.697,139.975 							"/>
							<polygon fill="#CF9962" points="199.697,144.605 200.615,144.605 200.615,143.031 199.697,143.041 							"/>
						</g>
					</g>
					<g>
						<g>
							<polygon fill="#CF9962" points="202.343,125.59 203.262,125.474 203.262,119.849 202.343,119.998 							"/>
							<polygon fill="#CF9962" points="202.343,129.001 203.262,128.906 203.262,127.305 202.343,127.408 							"/>
							<polygon fill="#CF9962" points="202.343,132.122 203.262,132.046 203.262,130.443 202.343,130.529 							"/>
							<polygon fill="#CF9962" points="202.343,135.243 203.262,135.186 203.262,133.584 202.343,133.65 							"/>
							<polygon fill="#CF9962" points="202.343,138.363 203.262,138.326 203.262,136.724 202.343,136.771 							"/>
							<polygon fill="#CF9962" points="202.343,141.484 203.262,141.466 203.262,139.863 202.343,139.893 							"/>
							<polygon fill="#CF9962" points="202.343,144.605 203.262,144.605 203.262,143.003 202.343,143.013 							"/>
						</g>
						<g>
							<polygon fill="#CF9962" points="204.035,125.377 204.954,125.262 204.954,119.574 204.035,119.724 							"/>
							<polygon fill="#CF9962" points="204.035,128.826 204.954,128.732 204.954,127.112 204.035,127.217 							"/>
							<polygon fill="#CF9962" points="204.035,131.982 204.954,131.906 204.954,130.287 204.035,130.372 							"/>
							<polygon fill="#CF9962" points="204.035,135.139 204.954,135.082 204.954,133.461 204.035,133.527 							"/>
							<polygon fill="#CF9962" points="204.035,138.294 204.954,138.256 204.954,136.636 204.035,136.684 							"/>
							<polygon fill="#CF9962" points="204.035,141.45 204.954,141.431 204.954,139.811 204.035,139.84 							"/>
							<polygon fill="#CF9962" points="204.035,144.605 204.954,144.605 204.954,142.986 204.035,142.995 							"/>
						</g>
						<g>
							<polygon fill="#CF9962" points="205.728,125.165 206.646,125.049 206.646,119.299 205.728,119.447 							"/>
							<polygon fill="#CF9962" points="205.728,128.652 206.646,128.558 206.646,126.92 205.728,127.024 							"/>
							<polygon fill="#CF9962" points="205.728,131.843 206.646,131.768 206.646,130.129 205.728,130.215 							"/>
							<polygon fill="#CF9962" points="205.728,135.033 206.646,134.977 206.646,133.34 205.728,133.405 							"/>
							<polygon fill="#CF9962" points="205.728,138.225 206.646,138.187 206.646,136.549 205.728,136.596 							"/>
							<polygon fill="#CF9962" points="205.728,141.415 206.646,141.396 206.646,139.759 205.728,139.787 							"/>
							<polygon fill="#CF9962" points="205.728,144.605 206.646,144.605 206.646,142.969 205.728,142.978 							"/>
						</g>
					</g>
				</g>
				<g>
					<g>
						<g>
							<polygon fill="#CF9962" points="210.37,124.42 211.288,124.693 211.288,119.693 210.37,119.351 							"/>
							<polygon fill="#CF9962" points="210.37,127.514 211.288,127.746 211.288,126.321 210.37,126.069 							"/>
							<polygon fill="#CF9962" points="210.37,130.362 211.288,130.556 211.288,129.132 210.37,128.918 							"/>
							<polygon fill="#CF9962" points="210.37,133.211 211.288,133.366 211.288,131.941 210.37,131.768 							"/>
							<polygon fill="#CF9962" points="210.37,136.06 211.288,136.176 211.288,134.751 210.37,134.616 							"/>
							<polygon fill="#CF9962" points="210.37,138.908 211.288,138.985 211.288,137.562 210.37,137.465 							"/>
							<polygon fill="#CF9962" points="210.37,141.757 211.288,141.795 211.288,140.371 210.37,140.312 							"/>
							<polygon fill="#CF9962" points="210.37,144.605 211.288,144.605 211.288,143.182 210.37,143.161 							"/>
						</g>
						<g>
							<polygon fill="#CF9962" points="212.127,124.944 213.046,125.219 213.046,120.35 212.127,120.006 							"/>
							<polygon fill="#CF9962" points="212.127,127.958 213.046,128.19 213.046,126.803 212.127,126.551 							"/>
							<polygon fill="#CF9962" points="212.127,130.732 213.046,130.926 213.046,129.539 212.127,129.326 							"/>
							<polygon fill="#CF9962" points="212.127,133.507 213.046,133.662 213.046,132.275 212.127,132.101 							"/>
							<polygon fill="#CF9962" points="212.127,136.281 213.046,136.398 213.046,135.011 212.127,134.875 							"/>
							<polygon fill="#CF9962" points="212.127,139.057 213.046,139.134 213.046,137.747 212.127,137.65 							"/>
							<polygon fill="#CF9962" points="212.127,141.831 213.046,141.869 213.046,140.482 212.127,140.424 							"/>
							<polygon fill="#CF9962" points="212.127,144.605 213.046,144.605 213.046,143.219 212.127,143.199 							"/>
						</g>
						<g>
							<polygon fill="#CF9962" points="213.885,125.469 214.803,125.743 214.803,121.005 213.885,120.662 							"/>
							<polygon fill="#CF9962" points="213.885,128.402 214.803,128.635 214.803,127.285 213.885,127.033 							"/>
							<polygon fill="#CF9962" points="213.885,131.103 214.803,131.296 214.803,129.946 213.885,129.733 							"/>
							<polygon fill="#CF9962" points="213.885,133.803 214.803,133.958 214.803,132.608 213.885,132.435 							"/>
							<polygon fill="#CF9962" points="213.885,136.504 214.803,136.62 214.803,135.271 213.885,135.135 							"/>
							<polygon fill="#CF9962" points="213.885,139.205 214.803,139.282 214.803,137.933 213.885,137.836 							"/>
							<polygon fill="#CF9962" points="213.885,141.904 214.803,141.943 214.803,140.595 213.885,140.536 							"/>
							<polygon fill="#CF9962" points="213.885,144.605 214.803,144.605 214.803,143.257 213.885,143.236 							"/>
						</g>
					</g>
					<g>
						<g>
							<polygon fill="#CF9962" points="216.655,126.296 217.573,126.57 217.573,122.04 216.655,121.697 							"/>
							<polygon fill="#CF9962" points="216.655,129.103 217.573,129.334 217.573,128.045 216.655,127.792 							"/>
							<polygon fill="#CF9962" points="216.655,131.686 217.573,131.88 217.573,130.59 216.655,130.376 							"/>
							<polygon fill="#CF9962" points="216.655,134.271 217.573,134.425 217.573,133.135 216.655,132.96 							"/>
							<polygon fill="#CF9962" points="216.655,136.854 217.573,136.971 217.573,135.681 216.655,135.545 							"/>
							<polygon fill="#CF9962" points="216.655,139.438 217.573,139.516 217.573,138.226 216.655,138.128 							"/>
							<polygon fill="#CF9962" points="216.655,142.021 217.573,142.061 217.573,140.771 216.655,140.712 							"/>
							<polygon fill="#CF9962" points="216.655,144.605 217.573,144.605 217.573,143.316 216.655,143.296 							"/>
						</g>
						<g>
							<polygon fill="#CF9962" points="218.412,126.82 219.331,127.095 219.331,122.697 218.412,122.354 							"/>
							<polygon fill="#CF9962" points="218.412,129.547 219.331,129.779 219.331,128.526 218.412,128.274 							"/>
							<polygon fill="#CF9962" points="218.412,132.057 219.331,132.249 219.331,130.997 218.412,130.784 							"/>
							<polygon fill="#CF9962" points="218.412,134.566 219.331,134.721 219.331,133.469 218.412,133.294 							"/>
							<polygon fill="#CF9962" points="218.412,137.076 219.331,137.192 219.331,135.939 218.412,135.805 							"/>
							<polygon fill="#CF9962" points="218.412,139.586 219.331,139.663 219.331,138.41 218.412,138.314 							"/>
							<polygon fill="#CF9962" points="218.412,142.096 219.331,142.135 219.331,140.882 218.412,140.823 							"/>
							<polygon fill="#CF9962" points="218.412,144.605 219.331,144.605 219.331,143.354 218.412,143.333 							"/>
						</g>
						<g>
							<polygon fill="#CF9962" points="220.169,127.346 221.088,127.619 221.088,123.353 220.169,123.01 							"/>
							<polygon fill="#CF9962" points="220.169,129.991 221.088,130.223 221.088,129.008 220.169,128.756 							"/>
							<polygon fill="#CF9962" points="220.169,132.426 221.088,132.62 221.088,131.404 220.169,131.191 							"/>
							<polygon fill="#CF9962" points="220.169,134.862 221.088,135.018 221.088,133.802 220.169,133.628 							"/>
							<polygon fill="#CF9962" points="220.169,137.298 221.088,137.414 221.088,136.199 220.169,136.063 							"/>
							<polygon fill="#CF9962" points="220.169,139.734 221.088,139.812 221.088,138.597 220.169,138.499 							"/>
							<polygon fill="#CF9962" points="220.169,142.17 221.088,142.209 221.088,140.993 220.169,140.935 							"/>
							<polygon fill="#CF9962" points="220.169,144.605 221.088,144.605 221.088,143.391 220.169,143.371 							"/>
						</g>
					</g>
					<g>
						<g>
							<polygon fill="#CF9962" points="222.94,128.172 223.859,128.446 223.859,124.388 222.94,124.045 							"/>
							<polygon fill="#CF9962" points="222.94,130.691 223.859,130.924 223.859,129.768 222.94,129.516 							"/>
							<polygon fill="#CF9962" points="222.94,133.01 223.859,133.203 223.859,132.048 222.94,131.834 							"/>
							<polygon fill="#CF9962" points="222.94,135.329 223.859,135.484 223.859,134.328 222.94,134.153 							"/>
							<polygon fill="#CF9962" points="222.94,137.648 223.859,137.765 223.859,136.608 222.94,136.473 							"/>
							<polygon fill="#CF9962" points="222.94,139.968 223.859,140.045 223.859,138.889 222.94,138.792 							"/>
							<polygon fill="#CF9962" points="222.94,142.286 223.859,142.325 223.859,141.169 222.94,141.111 							"/>
							<polygon fill="#CF9962" points="222.94,144.605 223.859,144.605 223.859,143.449 222.94,143.43 							"/>
						</g>
						<g>
							<polygon fill="#CF9962" points="224.697,128.697 225.616,128.971 225.616,125.044 224.697,124.701 							"/>
							<polygon fill="#CF9962" points="224.697,131.136 225.616,131.367 225.616,130.249 224.697,129.997 							"/>
							<polygon fill="#CF9962" points="224.697,133.38 225.616,133.573 225.616,132.455 224.697,132.242 							"/>
							<polygon fill="#CF9962" points="224.697,135.625 225.616,135.78 225.616,134.662 224.697,134.487 							"/>
							<polygon fill="#CF9962" points="224.697,137.871 225.616,137.986 225.616,136.868 224.697,136.732 							"/>
							<polygon fill="#CF9962" points="224.697,140.115 225.616,140.192 225.616,139.074 224.697,138.978 							"/>
							<polygon fill="#CF9962" points="224.697,142.36 225.616,142.399 225.616,141.281 224.697,141.223 							"/>
							<polygon fill="#CF9962" points="224.697,144.605 225.616,144.605 225.616,143.487 224.697,143.468 							"/>
						</g>
						<g>
							<polygon fill="#CF9962" points="226.454,129.222 227.373,129.496 227.373,125.7 226.454,125.357 							"/>
							<polygon fill="#CF9962" points="226.454,131.579 227.373,131.812 227.373,130.73 226.454,130.479 							"/>
							<polygon fill="#CF9962" points="226.454,133.75 227.373,133.943 227.373,132.862 226.454,132.649 							"/>
							<polygon fill="#CF9962" points="226.454,135.922 227.373,136.076 227.373,134.995 226.454,134.821 							"/>
							<polygon fill="#CF9962" points="226.454,138.092 227.373,138.209 227.373,137.128 226.454,136.992 							"/>
							<polygon fill="#CF9962" points="226.454,140.264 227.373,140.341 227.373,139.26 226.454,139.163 							"/>
							<polygon fill="#CF9962" points="226.454,142.435 227.373,142.473 227.373,141.393 226.454,141.334 							"/>
							<polygon fill="#CF9962" points="226.454,144.605 227.373,144.605 227.373,143.525 226.454,143.505 							"/>
						</g>
					</g>
					<g>
						<g>
							<polygon fill="#CF9962" points="229.225,130.049 230.144,130.322 230.144,126.735 229.225,126.393 							"/>
							<polygon fill="#CF9962" points="229.225,132.279 230.144,132.512 230.144,131.49 229.225,131.238 							"/>
							<polygon fill="#CF9962" points="229.225,134.334 230.144,134.527 230.144,133.506 229.225,133.293 							"/>
							<polygon fill="#CF9962" points="229.225,136.389 230.144,136.543 230.144,135.521 229.225,135.348 							"/>
							<polygon fill="#CF9962" points="229.225,138.443 230.144,138.559 230.144,137.537 229.225,137.401 							"/>
							<polygon fill="#CF9962" points="229.225,140.497 230.144,140.574 230.144,139.553 229.225,139.455 							"/>
							<polygon fill="#CF9962" points="229.225,142.551 230.144,142.59 230.144,141.568 229.225,141.51 							"/>
							<polygon fill="#CF9962" points="229.225,144.605 230.144,144.605 230.144,143.584 229.225,143.564 							"/>
						</g>
						<g>
							<polygon fill="#CF9962" points="230.982,130.572 231.901,130.847 231.901,127.392 230.982,127.048 							"/>
							<polygon fill="#CF9962" points="230.982,132.724 231.901,132.956 231.901,131.972 230.982,131.72 							"/>
							<polygon fill="#CF9962" points="230.982,134.704 231.901,134.897 231.901,133.913 230.982,133.7 							"/>
							<polygon fill="#CF9962" points="230.982,136.685 231.901,136.84 231.901,135.854 230.982,135.681 							"/>
							<polygon fill="#CF9962" points="230.982,138.665 231.901,138.781 231.901,137.797 230.982,137.66 							"/>
							<polygon fill="#CF9962" points="230.982,140.646 231.901,140.723 231.901,139.738 230.982,139.642 							"/>
							<polygon fill="#CF9962" points="230.982,142.625 231.901,142.664 231.901,141.68 230.982,141.621 							"/>
							<polygon fill="#CF9962" points="230.982,144.605 231.901,144.605 231.901,143.621 230.982,143.602 							"/>
						</g>
						<g>
							<polygon fill="#CF9962" points="232.739,131.098 233.658,131.372 233.658,128.048 232.739,127.705 							"/>
							<polygon fill="#CF9962" points="232.739,133.168 233.658,133.4 233.658,132.453 232.739,132.201 							"/>
							<polygon fill="#CF9962" points="232.739,135.074 233.658,135.268 233.658,134.32 232.739,134.107 							"/>
							<polygon fill="#CF9962" points="232.739,136.98 233.658,137.136 233.658,136.188 232.739,136.015 							"/>
							<polygon fill="#CF9962" points="232.739,138.887 233.658,139.004 233.658,138.057 232.739,137.921 							"/>
							<polygon fill="#CF9962" points="232.739,140.793 233.658,140.87 233.658,139.924 232.739,139.826 							"/>
							<polygon fill="#CF9962" points="232.739,142.699 233.658,142.738 233.658,141.791 232.739,141.732 							"/>
							<polygon fill="#CF9962" points="232.739,144.605 233.658,144.605 233.658,143.659 232.739,143.64 							"/>
						</g>
					</g>
				</g>
				<g>
					<polygon fill="#CF9962" points="186.493,117.896 187.968,117.637 187.968,116.097 186.493,116.363 					"/>
					<polygon fill="#CF9962" points="189.296,117.403 190.771,117.145 190.771,115.59 189.296,115.857 					"/>
					<polygon fill="#CF9962" points="192.099,116.912 193.573,116.652 193.573,115.083 192.099,115.35 					"/>
					<polygon fill="#CF9962" points="194.901,116.42 196.376,116.16 196.376,114.576 194.901,114.843 					"/>
					<polygon fill="#CF9962" points="197.704,115.928 199.179,115.668 199.179,114.069 197.704,114.336 					"/>
					<polygon fill="#CF9962" points="200.507,115.436 201.981,115.177 201.981,113.562 200.507,113.83 					"/>
				</g>
				<polygon fill="#CF9962" points="177.035,121.824 208.533,116.629 208.533,115.963 177.035,121.159 				"/>
				<polygon fill="#CF9962" points="235.607,127.021 208.533,116.629 208.533,115.963 235.607,126.355 				"/>
			</g>
		</g>
		<path fill="none" stroke="#78ACA8" stroke-width="6.6515" stroke-miterlimit="10" d="M164.078,40.004
			c-0.672-0.132-1.393-0.203-2.164-0.203h-33.179c-5.065,0-9.144-3.319-9.144-8.974c0-5.583,4.28-9.663,9.188-9.663h2.328"/>
		<g>
			<rect x="141.579" y="39.104" fill="#FFCF89" width="10.916" height="9.872"/>
			<rect x="135.724" y="49.578" fill="#FFCF89" width="22.628" height="13.599"/>
			<rect x="143.531" y="29.217" fill="#FFCF89" width="7.012" height="10.089"/>
			<polygon fill="#FFCF89" points="161.4,150.405 132.676,150.405 132.676,63.737 161.4,64.749 			"/>
			<g>
				<rect x="158.797" y="86.479" fill="#CF9962" width="2.604" height="14.362"/>
				<rect x="154.267" y="86.479" fill="#CF9962" width="2.603" height="14.362"/>
				<g>
					<rect x="137.205" y="86.479" fill="#CF9962" width="2.604" height="14.362"/>
					<rect x="132.676" y="86.479" fill="#CF9962" width="2.604" height="14.362"/>
				</g>
			</g>
			<g>
				<rect x="158.797" y="102.093" fill="#CF9962" width="2.604" height="14.362"/>
				<rect x="154.267" y="102.093" fill="#CF9962" width="2.603" height="14.362"/>
				<g>
					<rect x="137.205" y="102.093" fill="#CF9962" width="2.604" height="14.362"/>
					<rect x="132.676" y="102.093" fill="#CF9962" width="2.604" height="14.362"/>
				</g>
			</g>
			<rect x="132.483" y="68.622" fill="#CF9962" width="29.109" height="2.41"/>
			<g>
				<rect x="133.496" y="66.021" fill="#CF9962" width="1.638" height="1.637"/>
				<rect x="158.941" y="66.021" fill="#CF9962" width="1.639" height="1.637"/>
				<rect x="138.894" y="66.021" fill="#CF9962" width="4.045" height="1.637"/>
				<rect x="143.328" y="66.021" fill="#CF9962" width="4.045" height="1.637"/>
				<rect x="147.763" y="66.021" fill="#CF9962" width="4.045" height="1.637"/>
				<rect x="152.198" y="66.021" fill="#CF9962" width="4.045" height="1.637"/>
			</g>
			<g>
				<rect x="132.676" y="72.188" fill="#CF9962" width="3.663" height="13.039"/>
				<rect x="157.736" y="72.188" fill="#CF9962" width="3.664" height="13.039"/>
				<path fill="#CF9962" d="M141.544,74.503c0-0.745-0.604-1.35-1.351-1.35s-1.35,0.604-1.35,1.35v6.037h2.7V74.503z"/>
				<path fill="#CF9962" d="M145.205,74.503c0-0.745-0.604-1.35-1.35-1.35c-0.744,0-1.348,0.604-1.348,1.35v6.037h2.697V74.503z"/>
				<path fill="#CF9962" d="M156.194,74.503c0-0.745-0.604-1.35-1.351-1.35c-0.745,0-1.349,0.604-1.349,1.35v6.037h2.699V74.503z"/>
				<path fill="#CF9962" d="M148.868,74.503c0-0.745-0.604-1.35-1.35-1.35c-0.745,0-1.35,0.604-1.35,1.35v6.037h2.699V74.503z"/>
				<path fill="#CF9962" d="M152.531,74.503c0-0.745-0.604-1.35-1.35-1.35s-1.35,0.604-1.35,1.35v6.037h2.699V74.503z"/>
				<rect x="138.844" y="82.24" fill="#CF9962" width="2.024" height="1.64"/>
				<rect x="154.17" y="82.24" fill="#CF9962" width="2.024" height="1.64"/>
				<rect x="150.339" y="82.24" fill="#CF9962" width="2.023" height="1.64"/>
				<rect x="146.507" y="82.24" fill="#CF9962" width="2.024" height="1.64"/>
				<rect x="142.675" y="82.24" fill="#CF9962" width="2.024" height="1.64"/>
				<rect x="138.844" y="81.662" fill="#CF9962" width="17.351" height="0.867"/>
			</g>
			<polygon fill="#CF9962" points="161.543,64.768 132.532,64.768 131.375,61.682 162.701,61.682 			"/>
			<rect x="135.037" y="48.663" fill="#CF9962" width="24" height="1.156"/>
			<g>
				<rect x="135.712" y="49.53" fill="#CF9962" width="4.146" height="5.754"/>
				<rect x="154.219" y="49.53" fill="#CF9962" width="4.145" height="5.754"/>
			</g>
			<g>
				<rect x="135.712" y="56.507" fill="#CF9962" width="4.146" height="4.693"/>
				<rect x="154.219" y="56.507" fill="#CF9962" width="4.145" height="4.693"/>
			</g>
			<g>
				<polygon fill="#CF9962" points="140.396,42.484 139.038,39.745 137.68,42.484 137.68,48.748 140.396,48.748 				"/>
				<polygon fill="#CF9962" points="156.396,42.484 155.038,39.745 153.679,42.484 153.679,48.748 156.396,48.748 				"/>
			</g>
			<g>
				<rect x="141.598" y="40.495" fill="#CF9962" width="1.627" height="7.64"/>
				<rect x="150.851" y="40.495" fill="#CF9962" width="1.627" height="7.64"/>
			</g>
			<g>
				<rect x="143.953" y="40.495" fill="#CF9962" width="1.736" height="1.252"/>
				<rect x="146.17" y="40.495" fill="#CF9962" width="1.735" height="1.252"/>
				<rect x="148.387" y="40.495" fill="#CF9962" width="1.736" height="1.252"/>
			</g>
			<g>
				<rect x="143.953" y="42.557" fill="#CF9962" width="1.736" height="1.254"/>
				<rect x="146.17" y="42.557" fill="#CF9962" width="1.735" height="1.254"/>
				<rect x="148.387" y="42.557" fill="#CF9962" width="1.736" height="1.254"/>
			</g>
			<g>
				<rect x="143.953" y="44.62" fill="#CF9962" width="1.736" height="1.254"/>
				<rect x="146.17" y="44.62" fill="#CF9962" width="1.735" height="1.254"/>
				<rect x="148.387" y="44.62" fill="#CF9962" width="1.736" height="1.254"/>
			</g>
			<g>
				<rect x="143.953" y="46.882" fill="#CF9962" width="1.736" height="1.253"/>
				<rect x="146.17" y="46.882" fill="#CF9962" width="1.735" height="1.253"/>
				<rect x="148.387" y="46.882" fill="#CF9962" width="1.736" height="1.253"/>
			</g>
			<g>
				<rect x="140.966" y="50.591" fill="#CF9962" width="1.734" height="1.735"/>
				<rect x="143.567" y="50.591" fill="#CF9962" width="1.735" height="1.735"/>
				<rect x="146.17" y="50.591" fill="#CF9962" width="1.735" height="1.735"/>
				<rect x="148.772" y="50.591" fill="#CF9962" width="1.734" height="1.735"/>
				<rect x="151.375" y="50.591" fill="#CF9962" width="1.734" height="1.735"/>
			</g>
			<g>
				<rect x="140.966" y="56.507" fill="#CF9962" width="1.734" height="1.736"/>
				<rect x="143.567" y="56.507" fill="#CF9962" width="1.735" height="1.736"/>
				<rect x="146.17" y="56.507" fill="#CF9962" width="1.735" height="1.736"/>
				<rect x="148.772" y="56.507" fill="#CF9962" width="1.734" height="1.736"/>
				<rect x="151.375" y="56.507" fill="#CF9962" width="1.734" height="1.736"/>
			</g>
			<g>
				<rect x="140.966" y="53.09" fill="#CF9962" width="1.734" height="1.734"/>
				<rect x="143.567" y="53.09" fill="#CF9962" width="1.735" height="1.734"/>
				<rect x="146.17" y="53.09" fill="#CF9962" width="1.735" height="1.734"/>
				<rect x="148.772" y="53.09" fill="#CF9962" width="1.734" height="1.734"/>
				<rect x="151.375" y="53.09" fill="#CF9962" width="1.734" height="1.734"/>
			</g>
			<g>
				<rect x="140.966" y="59.465" fill="#CF9962" width="1.734" height="1.735"/>
				<rect x="143.567" y="59.465" fill="#CF9962" width="1.735" height="1.735"/>
				<rect x="146.17" y="59.465" fill="#CF9962" width="1.735" height="1.735"/>
				<rect x="148.772" y="59.465" fill="#CF9962" width="1.734" height="1.735"/>
				<rect x="151.375" y="59.465" fill="#CF9962" width="1.734" height="1.735"/>
			</g>
			<rect x="142.556" y="37.154" fill="#CF9962" width="8.965" height="1.702"/>
			<rect x="143.278" y="32.18" fill="#CF9962" width="7.519" height="0.723"/>
			<g>
				<rect x="143.278" y="32.541" fill="#CF9962" width="0.723" height="5.246"/>
				<rect x="144.978" y="32.541" fill="#CF9962" width="0.723" height="5.246"/>
				<rect x="146.676" y="32.541" fill="#CF9962" width="0.723" height="4.957"/>
				<rect x="148.375" y="32.541" fill="#CF9962" width="0.723" height="4.957"/>
				<rect x="150.074" y="32.541" fill="#CF9962" width="0.723" height="4.957"/>
			</g>
			<rect x="143.495" y="30.445" fill="#CF9962" width="7.085" height="0.723"/>
			<polygon fill="#CF9962" points="148.592,20.835 147.087,17.638 145.484,20.835 145.484,25.022 148.592,25.022 			"/>
			<rect x="146.712" y="7.093" fill="#CF9962" width="0.651" height="13.088"/>
			<g>
				<rect x="141.267" y="86.479" fill="#CF9962" width="1.204" height="1.688"/>
				<rect x="143.851" y="86.479" fill="#CF9962" width="1.205" height="1.688"/>
				<rect x="146.436" y="86.479" fill="#CF9962" width="1.205" height="1.688"/>
				<rect x="149.02" y="86.479" fill="#CF9962" width="1.205" height="1.688"/>
				<rect x="151.604" y="86.479" fill="#CF9962" width="1.205" height="1.688"/>
			</g>
			<g>
				<rect x="141.267" y="89.077" fill="#CF9962" width="1.204" height="1.687"/>
				<rect x="143.851" y="89.077" fill="#CF9962" width="1.205" height="1.687"/>
				<rect x="146.436" y="89.077" fill="#CF9962" width="1.205" height="1.687"/>
				<rect x="149.02" y="89.077" fill="#CF9962" width="1.205" height="1.687"/>
				<rect x="151.604" y="89.077" fill="#CF9962" width="1.205" height="1.687"/>
			</g>
			<g>
				<rect x="141.267" y="91.675" fill="#CF9962" width="1.204" height="2.265"/>
				<rect x="143.851" y="91.675" fill="#CF9962" width="1.205" height="2.265"/>
				<rect x="146.436" y="91.675" fill="#CF9962" width="1.205" height="2.265"/>
				<rect x="149.02" y="91.675" fill="#CF9962" width="1.205" height="2.265"/>
				<rect x="151.604" y="91.675" fill="#CF9962" width="1.205" height="2.265"/>
			</g>
			<g>
				<rect x="141.267" y="94.851" fill="#CF9962" width="1.204" height="2.265"/>
				<rect x="143.851" y="94.851" fill="#CF9962" width="1.205" height="2.265"/>
				<rect x="146.436" y="94.851" fill="#CF9962" width="1.205" height="2.265"/>
				<rect x="149.02" y="94.851" fill="#CF9962" width="1.205" height="2.265"/>
				<rect x="151.604" y="94.851" fill="#CF9962" width="1.205" height="2.265"/>
			</g>
			<g>
				<rect x="141.267" y="98.026" fill="#CF9962" width="1.204" height="2.265"/>
				<rect x="143.851" y="98.026" fill="#CF9962" width="1.205" height="2.265"/>
				<rect x="146.436" y="98.026" fill="#CF9962" width="1.205" height="2.265"/>
				<rect x="149.02" y="98.026" fill="#CF9962" width="1.205" height="2.265"/>
				<rect x="151.604" y="98.026" fill="#CF9962" width="1.205" height="2.265"/>
			</g>
			<g>
				<rect x="141.267" y="101.202" fill="#CF9962" width="1.204" height="2.264"/>
				<rect x="143.851" y="101.202" fill="#CF9962" width="1.205" height="2.264"/>
				<rect x="146.436" y="101.202" fill="#CF9962" width="1.205" height="2.264"/>
				<rect x="149.02" y="101.202" fill="#CF9962" width="1.205" height="2.264"/>
				<rect x="151.604" y="101.202" fill="#CF9962" width="1.205" height="2.264"/>
			</g>
			<g>
				<rect x="141.267" y="104.376" fill="#CF9962" width="1.204" height="2.266"/>
				<rect x="143.851" y="104.376" fill="#CF9962" width="1.205" height="2.266"/>
				<rect x="146.436" y="104.376" fill="#CF9962" width="1.205" height="2.266"/>
				<rect x="149.02" y="104.376" fill="#CF9962" width="1.205" height="2.266"/>
				<rect x="151.604" y="104.376" fill="#CF9962" width="1.205" height="2.266"/>
			</g>
			<g>
				<rect x="141.267" y="107.553" fill="#CF9962" width="1.204" height="2.265"/>
				<rect x="143.851" y="107.553" fill="#CF9962" width="1.205" height="2.265"/>
				<rect x="146.436" y="107.553" fill="#CF9962" width="1.205" height="2.265"/>
				<rect x="149.02" y="107.553" fill="#CF9962" width="1.205" height="2.265"/>
				<rect x="151.604" y="107.553" fill="#CF9962" width="1.205" height="2.265"/>
			</g>
			<g>
				<rect x="141.267" y="110.729" fill="#CF9962" width="1.204" height="2.264"/>
				<rect x="143.851" y="110.729" fill="#CF9962" width="1.205" height="2.264"/>
				<rect x="146.436" y="110.729" fill="#CF9962" width="1.205" height="2.264"/>
				<rect x="149.02" y="110.729" fill="#CF9962" width="1.205" height="2.264"/>
				<rect x="151.604" y="110.729" fill="#CF9962" width="1.205" height="2.264"/>
			</g>
			<g>
				<rect x="141.267" y="113.904" fill="#CF9962" width="1.204" height="2.264"/>
				<rect x="143.851" y="113.904" fill="#CF9962" width="1.205" height="2.264"/>
				<rect x="146.436" y="113.904" fill="#CF9962" width="1.205" height="2.264"/>
				<rect x="149.02" y="113.904" fill="#CF9962" width="1.205" height="2.264"/>
				<rect x="151.604" y="113.904" fill="#CF9962" width="1.205" height="2.264"/>
			</g>
			<g>
				<rect x="158.797" y="117.707" fill="#CF9962" width="2.604" height="14.362"/>
				<rect x="154.267" y="117.707" fill="#CF9962" width="2.603" height="14.362"/>
				<g>
					<rect x="137.205" y="117.707" fill="#CF9962" width="2.604" height="14.362"/>
					<rect x="132.676" y="117.707" fill="#CF9962" width="2.604" height="14.362"/>
				</g>
			</g>
			<g>
				<rect x="141.267" y="117.08" fill="#CF9962" width="1.204" height="2.263"/>
				<rect x="143.851" y="117.08" fill="#CF9962" width="1.205" height="2.263"/>
				<rect x="146.436" y="117.08" fill="#CF9962" width="1.205" height="2.263"/>
				<rect x="149.02" y="117.08" fill="#CF9962" width="1.205" height="2.263"/>
				<rect x="151.604" y="117.08" fill="#CF9962" width="1.205" height="2.263"/>
			</g>
			<g>
				<rect x="141.267" y="120.254" fill="#CF9962" width="1.204" height="2.265"/>
				<rect x="143.851" y="120.254" fill="#CF9962" width="1.205" height="2.265"/>
				<rect x="146.436" y="120.254" fill="#CF9962" width="1.205" height="2.265"/>
				<rect x="149.02" y="120.254" fill="#CF9962" width="1.205" height="2.265"/>
				<rect x="151.604" y="120.254" fill="#CF9962" width="1.205" height="2.265"/>
			</g>
			<g>
				<rect x="141.267" y="123.43" fill="#CF9962" width="1.204" height="2.265"/>
				<rect x="143.851" y="123.43" fill="#CF9962" width="1.205" height="2.265"/>
				<rect x="146.436" y="123.43" fill="#CF9962" width="1.205" height="2.265"/>
				<rect x="149.02" y="123.43" fill="#CF9962" width="1.205" height="2.265"/>
				<rect x="151.604" y="123.43" fill="#CF9962" width="1.205" height="2.265"/>
			</g>
			<g>
				<rect x="141.267" y="126.605" fill="#CF9962" width="1.204" height="2.265"/>
				<rect x="143.851" y="126.605" fill="#CF9962" width="1.205" height="2.265"/>
				<rect x="146.436" y="126.605" fill="#CF9962" width="1.205" height="2.265"/>
				<rect x="149.02" y="126.605" fill="#CF9962" width="1.205" height="2.265"/>
				<rect x="151.604" y="126.605" fill="#CF9962" width="1.205" height="2.265"/>
			</g>
			<g>
				<rect x="141.267" y="129.781" fill="#CF9962" width="1.204" height="2.265"/>
				<rect x="143.851" y="129.781" fill="#CF9962" width="1.205" height="2.265"/>
				<rect x="146.436" y="129.781" fill="#CF9962" width="1.205" height="2.265"/>
				<rect x="149.02" y="129.781" fill="#CF9962" width="1.205" height="2.265"/>
				<rect x="151.604" y="129.781" fill="#CF9962" width="1.205" height="2.265"/>
			</g>
			<g>
				<rect x="158.797" y="133.01" fill="#CF9962" width="2.604" height="8.778"/>
				<rect x="154.267" y="133.01" fill="#CF9962" width="2.603" height="8.778"/>
				<g>
					<rect x="137.205" y="133.01" fill="#CF9962" width="2.604" height="8.778"/>
					<rect x="132.676" y="133.01" fill="#CF9962" width="2.604" height="8.778"/>
				</g>
			</g>
			<g>
				<rect x="141.267" y="129.973" fill="#CF9962" width="1.204" height="2.265"/>
				<rect x="143.851" y="129.973" fill="#CF9962" width="1.205" height="2.265"/>
				<rect x="146.436" y="129.973" fill="#CF9962" width="1.205" height="2.265"/>
				<rect x="149.02" y="129.973" fill="#CF9962" width="1.205" height="2.265"/>
				<rect x="151.604" y="129.973" fill="#CF9962" width="1.205" height="2.265"/>
			</g>
			<g>
				<rect x="141.267" y="133.148" fill="#CF9962" width="1.204" height="2.265"/>
				<rect x="143.851" y="133.148" fill="#CF9962" width="1.205" height="2.265"/>
				<rect x="146.436" y="133.148" fill="#CF9962" width="1.205" height="2.265"/>
				<rect x="149.02" y="133.148" fill="#CF9962" width="1.205" height="2.265"/>
				<rect x="151.604" y="133.148" fill="#CF9962" width="1.205" height="2.265"/>
			</g>
			<g>
				<rect x="141.267" y="136.324" fill="#CF9962" width="1.204" height="2.265"/>
				<rect x="143.851" y="136.324" fill="#CF9962" width="1.205" height="2.265"/>
				<rect x="146.436" y="136.324" fill="#CF9962" width="1.205" height="2.265"/>
				<rect x="149.02" y="136.324" fill="#CF9962" width="1.205" height="2.265"/>
				<rect x="151.604" y="136.324" fill="#CF9962" width="1.205" height="2.265"/>
			</g>
			<g>
				<rect x="141.267" y="139.5" fill="#CF9962" width="1.204" height="2.265"/>
				<rect x="143.851" y="139.5" fill="#CF9962" width="1.205" height="2.265"/>
				<rect x="146.436" y="139.5" fill="#CF9962" width="1.205" height="2.265"/>
				<rect x="149.02" y="139.5" fill="#CF9962" width="1.205" height="2.265"/>
				<rect x="151.604" y="139.5" fill="#CF9962" width="1.205" height="2.265"/>
			</g>
			<polygon fill="#CF9962" points="143.531,29.217 145.507,24.155 148.553,24.155 150.543,29.217 			"/>
			<path fill="#FFCF89" d="M147.94,27.879c0-0.499-0.403-0.904-0.902-0.904s-0.904,0.405-0.904,0.904v1.988h1.807V27.879z"/>
			<rect x="140.941" y="38.555" fill="#CF9962" width="12.192" height="1.287"/>
			<path fill="#CF9962" d="M146.039,146.529c0-1.444-1.171-2.614-2.614-2.614c-1.444,0-2.614,1.17-2.614,2.614v3.892h5.229V146.529z
				"/>
			<path fill="#CF9962" d="M153.14,146.529c0-1.444-1.17-2.614-2.614-2.614c-1.443,0-2.613,1.17-2.613,2.614v3.892h5.228V146.529z"
				/>
			<path fill="#CF9962" d="M160.241,146.529c0-1.444-1.171-2.614-2.614-2.614c-1.444,0-2.614,1.17-2.614,2.614v3.892h5.229V146.529z
				"/>
			<path fill="#CF9962" d="M138.938,146.529c0-1.444-1.171-2.614-2.614-2.614c-1.444,0-2.613,1.17-2.613,2.614v3.892h5.228V146.529z
				"/>
		</g>
		<path fill="none" stroke="#78ACA8" stroke-width="6.6515" stroke-miterlimit="10" d="M160.272,97.042c0.485,0,0.904,0.024,1.362,0
			c3.377-0.183,9.423-2.219,9.423-9.646c0-4.449-2.976-8.985-9.144-8.985h-33.179c-5.065,0-9.144-4.649-9.144-10.305
			c0-5.583,4.28-9.662,9.188-9.662h7.316"/>
		<rect x="135.724" y="61.173" fill="#FCB319" width="22.628" height="2.004"/>
		<polygon fill="#CF9962" points="162.689,64.768 131.37,64.768 131.375,61.682 162.701,61.682 		"/>
		<g>
			<rect x="135.712" y="56.507" fill="#012A29" width="4.146" height="4.693"/>
			<rect x="154.219" y="56.507" fill="#012A29" width="4.145" height="4.693"/>
		</g>
		<path fill="none" stroke="#78ACA8" stroke-width="6.6515" stroke-miterlimit="10" d="M131.077,58.438c0.484,0,30.1,0.024,30.558,0
			c3.377-0.183,9.423-2.225,9.423-9.651c0-4.449-2.976-8.985-9.144-8.985h-1.572"/>
		<rect x="158.797" y="86.385" fill="#CF9962" width="2.604" height="14.361"/>
		<rect x="132.676" y="86.385" fill="#CF9962" width="2.604" height="14.361"/>
		<g>
			<polygon fill="#012A29" points="147.282,7.137 147.282,14.817 159.738,13.377 156.884,10.953 159.738,8.576 			"/>
			<polygon fill="#FBF7EE" points="153.33,10.498 157.431,10.498 158.736,9.412 149.202,8.313 			"/>
			<polygon fill="#FBF7EE" points="157.447,11.434 153.33,11.434 149.202,13.617 158.729,12.521 			"/>
			<polygon fill="#012A29" points="147.282,7.137 154.938,10.978 147.282,14.817 			"/>
			<circle fill="#FFFFFF" cx="149.634" cy="10.953" r="1.44"/>
			<circle fill="#012A29" cx="149.634" cy="10.953" r="0.96"/>
			<circle fill="#FBF7EE" cx="149.106" cy="8.674" r="0.264"/>
			<circle fill="#FBF7EE" cx="151.938" cy="10.378" r="0.264"/>
			<circle fill="#FBF7EE" cx="151.938" cy="11.697" r="0.264"/>
			<circle fill="#FBF7EE" cx="152.922" cy="11.001" r="0.264"/>
			<circle fill="#FBF7EE" cx="148.17" cy="9.153" r="0.264"/>
			<circle fill="#FBF7EE" cx="149.106" cy="13.354" r="0.264"/>
			<circle fill="#FBF7EE" cx="148.17" cy="12.874" r="0.264"/>
		</g>
		<g>
			<path fill="#78ACA8" d="M129.81,23.616c0,0,1.895,3.987,4.604,3.829c2.71-0.156,4.581-1.596,7.54-2.067
				c2.226-0.355,2.05-2.688,2.05-2.688l-0.075-0.065c0,0,0.636-2.251-1.477-3.041c-2.805-1.049-4.354-2.832-6.979-3.523
				c-2.624-0.69-5.272,2.842-5.272,2.842"/>
			<g>
				
					<ellipse transform="matrix(-0.2935 0.956 -0.956 -0.2935 193.4119 -105.9529)" fill="#012A29" cx="135.857" cy="18.493" rx="0.602" ry="1.328"/>
				
					<ellipse transform="matrix(-0.2935 -0.956 0.956 -0.2935 151.9026 162.1198)" fill="#012A29" cx="135.857" cy="24.929" rx="0.602" ry="1.327"/>
			</g>
		</g>
		
			<path fill="none" stroke="#97BCB9" stroke-width="0.4597" stroke-linecap="round" stroke-linejoin="round" stroke-miterlimit="10" d="
			M159.299,57.351c-0.741,0-1.342,0.504-1.342,1.126c0,0.621,0.601,1.125,1.342,1.125"/>
		
			<path fill="none" stroke="#97BCB9" stroke-width="0.4597" stroke-linecap="round" stroke-linejoin="round" stroke-miterlimit="10" d="
			M160.64,58.477c-0.741,0-1.341,0.504-1.341,1.125s0.6,1.126,1.341,1.126"/>
		
			<path fill="none" stroke="#97BCB9" stroke-width="0.4597" stroke-linecap="round" stroke-linejoin="round" stroke-miterlimit="10" d="
			M139.963,58.477c-0.74,0-1.341,0.504-1.341,1.125s0.601,1.126,1.341,1.126"/>
		
			<path fill="none" stroke="#97BCB9" stroke-width="0.4597" stroke-linecap="round" stroke-linejoin="round" stroke-miterlimit="10" d="
			M132.159,40.662c0.741,0,1.342-0.504,1.342-1.125c0-0.622-0.601-1.126-1.342-1.126"/>
		
			<path fill="none" stroke="#97BCB9" stroke-width="0.4597" stroke-linecap="round" stroke-linejoin="round" stroke-miterlimit="10" d="
			M119.469,31.861c0,0.74,0.505,1.341,1.126,1.341s1.125-0.601,1.125-1.341"/>
		
			<path fill="none" stroke="#97BCB9" stroke-width="0.4597" stroke-linecap="round" stroke-linejoin="round" stroke-miterlimit="10" d="
			M167.594,44.232c0.524,0.523,1.306,0.592,1.745,0.152s0.371-1.221-0.152-1.744"/>
		
			<path fill="none" stroke="#97BCB9" stroke-width="0.4597" stroke-linecap="round" stroke-linejoin="round" stroke-miterlimit="10" d="
			M130.818,41.797c0.74,0,1.341-0.504,1.341-1.125c0-0.622-0.601-1.126-1.341-1.126"/>
		<g>
			
				<path fill="none" stroke="#97BCB9" stroke-width="0.4597" stroke-linecap="round" stroke-linejoin="round" stroke-miterlimit="10" d="
				M120.412,69.547c0,0.741,0.504,1.341,1.125,1.341c0.622,0,1.126-0.6,1.126-1.341"/>
			
				<path fill="none" stroke="#97BCB9" stroke-width="0.4597" stroke-linecap="round" stroke-linejoin="round" stroke-miterlimit="10" d="
				M119.276,68.213c0,0.741,0.505,1.341,1.126,1.341s1.125-0.6,1.125-1.341"/>
		</g>
		<g>
			
				<path fill="none" stroke="#97BCB9" stroke-width="0.4597" stroke-linecap="round" stroke-linejoin="round" stroke-miterlimit="10" d="
				M172.041,87.464c0,0.74-0.505,1.341-1.126,1.341s-1.125-0.601-1.125-1.341"/>
			
				<path fill="none" stroke="#97BCB9" stroke-width="0.4597" stroke-linecap="round" stroke-linejoin="round" stroke-miterlimit="10" d="
				M173.176,86.13c0,0.74-0.504,1.34-1.126,1.34c-0.621,0-1.125-0.6-1.125-1.34"/>
		</g>
		<g>
			
				<path fill="none" stroke="#97BCB9" stroke-width="0.4597" stroke-linecap="round" stroke-linejoin="round" stroke-miterlimit="10" d="
				M149.735,79.42c0.741,0,1.342-0.506,1.342-1.127s-0.601-1.126-1.342-1.126"/>
			
				<path fill="none" stroke="#97BCB9" stroke-width="0.4597" stroke-linecap="round" stroke-linejoin="round" stroke-miterlimit="10" d="
				M152.411,79.42c0.741,0,1.341-0.506,1.341-1.127s-0.6-1.126-1.341-1.126"/>
			
				<path fill="none" stroke="#97BCB9" stroke-width="0.4597" stroke-linecap="round" stroke-linejoin="round" stroke-miterlimit="10" d="
				M151.077,80.555c0.74,0,1.341-0.505,1.341-1.126s-0.601-1.126-1.341-1.126"/>
		</g>
		<g>
			<path fill="none" stroke="#78ACA8" stroke-width="6.6515" stroke-miterlimit="10" d="M150.312,115.686h-21.489
				c-5.065,0-9.144-3.319-9.144-8.975c0-5.582,4.28-9.662,9.188-9.662h3.99"/>
			<g>
				<path fill="#78ACA8" d="M159.679,112.326h-18.319v6.654h19.875c5.022,0,7.583,3.136,7.583,6.19c0,3.671-1.704,5.321-3.599,6.065
					c0.122,0.18,0.276,0.442,0.386,0.633c3.918-0.931,7.104-3.73,7.104-8.644C172.708,116.753,167.096,112.326,159.679,112.326z"/>
			</g>
		</g>
		<g>
			
				<path fill="none" stroke="#97BCB9" stroke-width="0.4597" stroke-linecap="round" stroke-linejoin="round" stroke-miterlimit="10" d="
				M136.936,117.861c0.742,0,1.342-0.504,1.342-1.125c0-0.622-0.6-1.126-1.342-1.126"/>
			
				<path fill="none" stroke="#97BCB9" stroke-width="0.4597" stroke-linecap="round" stroke-linejoin="round" stroke-miterlimit="10" d="
				M135.595,116.736c0.741,0,1.341-0.504,1.341-1.126s-0.6-1.125-1.341-1.125"/>
		</g>
		
			<path fill="none" stroke="#97BCB9" stroke-width="0.4597" stroke-linecap="round" stroke-linejoin="round" stroke-miterlimit="10" d="
			M160.646,117.024c0.741,0,1.342-0.504,1.342-1.126c0-0.62-0.601-1.124-1.342-1.124"/>
		
			<path fill="none" stroke="#97BCB9" stroke-width="0.4597" stroke-linecap="round" stroke-linejoin="round" stroke-miterlimit="10" d="
			M156.396,115.898c0.741,0,1.341-0.503,1.341-1.124c0-0.622-0.6-1.126-1.341-1.126"/>
		
			<path fill="none" stroke="#97BCB9" stroke-width="0.4597" stroke-linecap="round" stroke-linejoin="round" stroke-miterlimit="10" d="
			M159.306,118.16c0.74,0,1.341-0.504,1.341-1.125c0-0.623-0.601-1.126-1.341-1.126"/>
	</g>
</g>
</svg>
