<?xml version="1.0" encoding="utf-8"?>
<!-- Generator: Adobe Illustrator 16.0.0, SVG Export Plug-In . SVG Version: 6.00 Build 0)  -->
<!DOCTYPE svg PUBLIC "-//W3C//DTD SVG 1.1//EN" "http://www.w3.org/Graphics/SVG/1.1/DTD/svg11.dtd">
<svg version="1.1" id="Layer_1" xmlns="http://www.w3.org/2000/svg" xmlns:xlink="http://www.w3.org/1999/xlink" x="0px" y="0px"
	 width="358.309px" height="411.922px" viewBox="0 0 358.309 411.922" enable-background="new 0 0 358.309 411.922"
	 xml:space="preserve">
<g>
	<g>
		<g opacity="0.5">
			<g>
				<rect x="136.237" y="227.179" fill="#FFCF89" width="76.5" height="60.135"/>
				<g>
					<rect x="135.737" y="229.859" fill="#CF9962" width="76.75" height="1.151"/>
				</g>
				<g>
					<rect x="138.249" y="232.178" fill="#CF9962" width="2.314" height="2.571"/>
					<rect x="138.249" y="236.442" fill="#CF9962" width="2.314" height="7.849"/>
					<rect x="138.249" y="249.162" fill="#CF9962" width="2.314" height="2.571"/>
					<rect x="138.249" y="254.274" fill="#CF9962" width="2.314" height="2.571"/>
					<rect x="138.249" y="259.387" fill="#CF9962" width="2.314" height="2.571"/>
					<rect x="138.249" y="264.498" fill="#CF9962" width="2.314" height="2.571"/>
					<rect x="138.249" y="269.609" fill="#CF9962" width="2.314" height="2.572"/>
					<rect x="138.249" y="274.722" fill="#CF9962" width="2.314" height="2.571"/>
					<g>
						<rect x="142.205" y="236.442" fill="#CF9962" width="2.314" height="7.849"/>
						<rect x="142.205" y="232.178" fill="#CF9962" width="2.314" height="2.571"/>
						<rect x="142.205" y="249.162" fill="#CF9962" width="2.314" height="2.571"/>
						<rect x="142.205" y="254.274" fill="#CF9962" width="2.314" height="2.571"/>
						<rect x="142.205" y="259.387" fill="#CF9962" width="2.314" height="2.571"/>
						<rect x="142.205" y="264.498" fill="#CF9962" width="2.314" height="2.571"/>
						<rect x="142.205" y="269.609" fill="#CF9962" width="2.314" height="2.572"/>
						<rect x="142.205" y="274.722" fill="#CF9962" width="2.314" height="2.571"/>
					</g>
				</g>
				<g>
					<rect x="203.83" y="232.178" fill="#CF9962" width="2.314" height="2.571"/>
					<rect x="203.83" y="236.442" fill="#CF9962" width="2.314" height="7.849"/>
					<rect x="207.787" y="236.442" fill="#CF9962" width="2.314" height="7.849"/>
					<rect x="207.787" y="232.178" fill="#CF9962" width="2.314" height="2.571"/>
					<g>
						<rect x="203.83" y="249.162" fill="#CF9962" width="2.314" height="2.571"/>
						<rect x="207.787" y="249.162" fill="#CF9962" width="2.314" height="2.571"/>
					</g>
					<g>
						<rect x="203.83" y="254.274" fill="#CF9962" width="2.314" height="2.571"/>
						<rect x="207.787" y="254.274" fill="#CF9962" width="2.314" height="2.571"/>
					</g>
					<g>
						<rect x="203.83" y="259.387" fill="#CF9962" width="2.314" height="2.571"/>
						<rect x="207.787" y="259.387" fill="#CF9962" width="2.314" height="2.571"/>
					</g>
					<g>
						<rect x="203.83" y="264.498" fill="#CF9962" width="2.314" height="2.571"/>
						<rect x="207.787" y="264.498" fill="#CF9962" width="2.314" height="2.571"/>
					</g>
					<g>
						<rect x="203.83" y="269.609" fill="#CF9962" width="2.314" height="2.572"/>
						<rect x="207.787" y="269.609" fill="#CF9962" width="2.314" height="2.572"/>
					</g>
					<g>
						<rect x="203.83" y="274.722" fill="#CF9962" width="2.314" height="2.571"/>
						<rect x="207.787" y="274.722" fill="#CF9962" width="2.314" height="2.571"/>
					</g>
				</g>
			</g>
			<g>
				<polygon fill="#CF9962" points="29.77,238.288 65.27,224.086 65.77,214.49 30.27,229.46 				"/>
				<polygon fill="#FFCF89" points="136.77,287.313 107.77,287.313 107.77,215.642 136.77,220.638 				"/>
				<polygon fill="#CF9962" points="78.27,276.656 107.77,287.313 107.77,215.642 78.27,224.47 				"/>
				<g>
					<g>
						<g>
							<polygon fill="#CF9962" points="130.219,234.946 127.905,234.684 127.905,226.784 130.219,227.097 							"/>
							<polygon fill="#CF9962" points="130.219,225.403 127.905,225.08 127.905,222.492 130.219,222.832 							"/>
							<polygon fill="#CF9962" points="130.219,245.46 127.905,245.264 127.905,242.677 130.219,242.889 							"/>
							<polygon fill="#CF9962" points="130.219,250.6 127.905,250.437 127.905,247.849 130.219,248.028 							"/>
							<polygon fill="#CF9962" points="130.219,255.737 127.905,255.606 127.905,253.02 130.219,253.166 							"/>
							<polygon fill="#CF9962" points="130.219,260.876 127.905,260.778 127.905,258.19 130.219,258.305 							"/>
							<polygon fill="#CF9962" points="130.219,266.015 127.905,265.949 127.905,263.361 130.219,263.443 							"/>
							<polygon fill="#CF9962" points="130.219,271.152 127.905,271.119 127.905,268.532 130.219,268.581 							"/>
							<polygon fill="#CF9962" points="130.219,276.292 127.905,276.292 127.905,273.704 130.219,273.721 							"/>
						</g>
						<g>
							<polygon fill="#CF9962" points="125.789,234.443 123.474,234.181 123.474,226.186 125.789,226.498 							"/>
							<polygon fill="#CF9962" points="125.789,224.784 123.474,224.461 123.474,221.842 125.789,222.182 							"/>
							<polygon fill="#CF9962" points="125.789,245.085 123.474,244.889 123.474,242.27 125.789,242.482 							"/>
							<polygon fill="#CF9962" points="125.789,250.287 123.474,250.124 123.474,247.505 125.789,247.685 							"/>
							<polygon fill="#CF9962" points="125.789,255.487 123.474,255.356 123.474,252.737 125.789,252.885 							"/>
							<polygon fill="#CF9962" points="125.789,260.688 123.474,260.591 123.474,257.972 125.789,258.086 							"/>
							<polygon fill="#CF9962" points="125.789,265.89 123.474,265.824 123.474,263.205 125.789,263.287 							"/>
							<polygon fill="#CF9962" points="125.789,271.09 123.474,271.057 123.474,268.438 125.789,268.487 							"/>
							<polygon fill="#CF9962" points="125.789,276.292 123.474,276.292 123.474,273.673 125.789,273.689 							"/>
						</g>
						<g>
							<polygon fill="#CF9962" points="121.358,233.94 119.044,233.678 119.044,225.587 121.358,225.899 							"/>
							<polygon fill="#CF9962" points="121.358,224.165 119.044,223.842 119.044,221.191 121.358,221.531 							"/>
							<polygon fill="#CF9962" points="121.358,244.71 119.044,244.514 119.044,241.863 121.358,242.076 							"/>
							<polygon fill="#CF9962" points="121.358,249.975 119.044,249.812 119.044,247.161 121.358,247.341 							"/>
							<polygon fill="#CF9962" points="121.358,255.237 119.044,255.106 119.044,252.456 121.358,252.604 							"/>
							<polygon fill="#CF9962" points="121.358,260.501 119.044,260.402 119.044,257.753 121.358,257.867 							"/>
							<polygon fill="#CF9962" points="121.358,265.765 119.044,265.699 119.044,263.049 121.358,263.131 							"/>
							<polygon fill="#CF9962" points="121.358,271.027 119.044,270.994 119.044,268.345 121.358,268.394 							"/>
							<polygon fill="#CF9962" points="121.358,276.292 119.044,276.292 119.044,273.642 121.358,273.658 							"/>
						</g>
						<g>
							<polygon fill="#CF9962" points="116.928,233.438 114.613,233.174 114.613,224.988 116.928,225.301 							"/>
							<polygon fill="#CF9962" points="116.928,223.546 114.613,223.223 114.613,220.541 116.928,220.881 							"/>
							<polygon fill="#CF9962" points="116.928,244.335 114.613,244.139 114.613,241.457 116.928,241.67 							"/>
							<polygon fill="#CF9962" points="116.928,249.662 114.613,249.498 114.613,246.817 116.928,246.997 							"/>
							<polygon fill="#CF9962" points="116.928,254.987 114.613,254.856 114.613,252.175 116.928,252.322 							"/>
							<polygon fill="#CF9962" points="116.928,260.313 114.613,260.215 114.613,257.534 116.928,257.648 							"/>
							<polygon fill="#CF9962" points="116.928,265.64 114.613,265.574 114.613,262.893 116.928,262.975 							"/>
							<polygon fill="#CF9962" points="116.928,270.965 114.613,270.932 114.613,268.251 116.928,268.3 							"/>
							<polygon fill="#CF9962" points="116.928,276.292 114.613,276.292 114.613,273.61 116.928,273.627 							"/>
						</g>
					</g>
				</g>
				<polygon fill="#FFCF89" points="117.27,287.313 56.77,287.313 56.77,218.713 117.27,229.46 				"/>
				<polygon fill="#FFCF89" points="4.77,287.308 56.77,287.313 56.77,218.713 4.77,239.434 				"/>
				<polygon fill="#FFCF89" points="100.77,229.46 65.27,224.086 65.77,214.49 101.27,220.632 				"/>
				<g>
					<g>
						<g>
							<g>
								<polygon fill="#CF9962" points="114.993,245.586 113.229,245.364 113.229,236.271 114.993,236.558 								"/>
								<polygon fill="#CF9962" points="114.993,251.095 113.229,250.913 113.229,248.323 114.993,248.523 								"/>
								<polygon fill="#CF9962" points="114.993,256.134 113.229,255.988 113.229,253.398 114.993,253.562 								"/>
								<polygon fill="#CF9962" points="114.993,261.174 113.229,261.064 113.229,258.475 114.993,258.603 								"/>
								<polygon fill="#CF9962" points="114.993,266.213 113.229,266.141 113.229,263.551 114.993,263.642 								"/>
								<polygon fill="#CF9962" points="114.993,271.252 113.229,271.216 113.229,268.626 114.993,268.681 								"/>
								<polygon fill="#CF9962" points="114.993,276.292 113.229,276.292 113.229,273.702 114.993,273.721 								"/>
							</g>
							<g>
								<polygon fill="#CF9962" points="111.743,245.178 109.979,244.956 109.979,235.742 111.743,236.029 								"/>
								<polygon fill="#CF9962" points="111.743,250.76 109.979,250.578 109.979,247.954 111.743,248.154 								"/>
								<polygon fill="#CF9962" points="111.743,255.865 109.979,255.721 109.979,253.097 111.743,253.26 								"/>
								<polygon fill="#CF9962" points="111.743,260.973 109.979,260.863 109.979,258.24 111.743,258.367 								"/>
								<polygon fill="#CF9962" points="111.743,266.079 109.979,266.006 109.979,263.382 111.743,263.474 								"/>
								<polygon fill="#CF9962" points="111.743,271.185 109.979,271.148 109.979,268.524 111.743,268.579 								"/>
								<polygon fill="#CF9962" points="111.743,276.292 109.979,276.292 109.979,273.668 111.743,273.687 								"/>
							</g>
							<g>
								<polygon fill="#CF9962" points="108.493,244.77 106.729,244.548 106.729,235.215 108.493,235.501 								"/>
								<polygon fill="#CF9962" points="108.493,250.425 106.729,250.243 106.729,247.585 108.493,247.785 								"/>
								<polygon fill="#CF9962" points="108.493,255.598 106.729,255.452 106.729,252.794 108.493,252.958 								"/>
								<polygon fill="#CF9962" points="108.493,260.771 106.729,260.663 106.729,258.005 108.493,258.132 								"/>
								<polygon fill="#CF9962" points="108.493,265.945 106.729,265.872 106.729,263.214 108.493,263.305 								"/>
								<polygon fill="#CF9962" points="108.493,271.118 106.729,271.082 106.729,268.424 108.493,268.479 								"/>
								<polygon fill="#CF9962" points="108.493,276.292 106.729,276.292 106.729,273.634 108.493,273.652 								"/>
							</g>
						</g>
						<g>
							<g>
								<polygon fill="#CF9962" points="103.41,244.131 101.646,243.909 101.646,234.389 103.41,234.675 								"/>
								<polygon fill="#CF9962" points="103.41,249.9 101.646,249.719 101.646,247.008 103.41,247.208 								"/>
								<polygon fill="#CF9962" points="103.41,255.179 101.646,255.033 101.646,252.321 103.41,252.485 								"/>
								<polygon fill="#CF9962" points="103.41,260.457 101.646,260.349 101.646,257.637 103.41,257.765 								"/>
								<polygon fill="#CF9962" points="103.41,265.735 101.646,265.662 101.646,262.951 103.41,263.042 								"/>
								<polygon fill="#CF9962" points="103.41,271.014 101.646,270.977 101.646,268.266 103.41,268.32 								"/>
								<polygon fill="#CF9962" points="103.41,276.292 101.646,276.292 101.646,273.58 103.41,273.599 								"/>
							</g>
							<g>
								<polygon fill="#CF9962" points="100.16,243.723 98.396,243.501 98.396,233.86 100.16,234.146 								"/>
								<polygon fill="#CF9962" points="100.16,249.566 98.396,249.384 98.396,246.639 100.16,246.839 								"/>
								<polygon fill="#CF9962" points="100.16,254.91 98.396,254.766 98.396,252.02 100.16,252.184 								"/>
								<polygon fill="#CF9962" points="100.16,260.257 98.396,260.147 98.396,257.401 100.16,257.529 								"/>
								<polygon fill="#CF9962" points="100.16,265.602 98.396,265.528 98.396,262.783 100.16,262.874 								"/>
								<polygon fill="#CF9962" points="100.16,270.946 98.396,270.91 98.396,268.164 100.16,268.219 								"/>
								<polygon fill="#CF9962" points="100.16,276.292 98.396,276.292 98.396,273.546 100.16,273.564 								"/>
							</g>
							<g>
								<polygon fill="#CF9962" points="96.91,243.314 95.145,243.093 95.145,233.332 96.91,233.618 								"/>
								<polygon fill="#CF9962" points="96.91,249.23 95.145,249.049 95.145,246.27 96.91,246.47 								"/>
								<polygon fill="#CF9962" points="96.91,254.643 95.145,254.497 95.145,251.717 96.91,251.881 								"/>
								<polygon fill="#CF9962" points="96.91,260.056 95.145,259.946 95.145,257.166 96.91,257.294 								"/>
								<polygon fill="#CF9962" points="96.91,265.468 95.145,265.395 95.145,262.614 96.91,262.706 								"/>
								<polygon fill="#CF9962" points="96.91,270.879 95.145,270.843 95.145,268.062 96.91,268.117 								"/>
								<polygon fill="#CF9962" points="96.91,276.292 95.145,276.292 95.145,273.512 96.91,273.53 								"/>
							</g>
						</g>
						<g>
							<g>
								<polygon fill="#CF9962" points="91.827,242.676 90.062,242.455 90.062,232.506 91.827,232.792 								"/>
								<polygon fill="#CF9962" points="91.827,248.707 90.062,248.525 90.062,245.691 91.827,245.893 								"/>
								<polygon fill="#CF9962" points="91.827,254.224 90.062,254.078 90.062,251.244 91.827,251.408 								"/>
								<polygon fill="#CF9962" points="91.827,259.741 90.062,259.632 90.062,256.799 91.827,256.926 								"/>
								<polygon fill="#CF9962" points="91.827,265.258 90.062,265.186 90.062,262.352 91.827,262.443 								"/>
								<polygon fill="#CF9962" points="91.827,270.774 90.062,270.738 90.062,267.904 91.827,267.959 								"/>
								<polygon fill="#CF9962" points="91.827,276.292 90.062,276.292 90.062,273.459 91.827,273.477 								"/>
							</g>
							<g>
								<polygon fill="#CF9962" points="88.576,242.268 86.812,242.047 86.812,231.978 88.576,232.264 								"/>
								<polygon fill="#CF9962" points="88.576,248.372 86.812,248.19 86.812,245.322 88.576,245.523 								"/>
								<polygon fill="#CF9962" points="88.576,253.955 86.812,253.811 86.812,250.942 88.576,251.106 								"/>
								<polygon fill="#CF9962" points="88.576,259.54 86.812,259.432 86.812,256.563 88.576,256.691 								"/>
								<polygon fill="#CF9962" points="88.576,265.124 86.812,265.051 86.812,262.184 88.576,262.274 								"/>
								<polygon fill="#CF9962" points="88.576,270.707 86.812,270.671 86.812,267.804 88.576,267.858 								"/>
								<polygon fill="#CF9962" points="88.576,276.292 86.812,276.292 86.812,273.424 88.576,273.443 								"/>
							</g>
							<g>
								<polygon fill="#CF9962" points="85.326,241.859 83.562,241.639 83.562,231.449 85.326,231.736 								"/>
								<polygon fill="#CF9962" points="85.326,248.037 83.562,247.855 83.562,244.953 85.326,245.154 								"/>
								<polygon fill="#CF9962" points="85.326,253.688 83.562,253.542 83.562,250.641 85.326,250.805 								"/>
								<polygon fill="#CF9962" points="85.326,259.339 83.562,259.23 83.562,256.328 85.326,256.456 								"/>
								<polygon fill="#CF9962" points="85.326,264.99 83.562,264.917 83.562,262.016 85.326,262.106 								"/>
								<polygon fill="#CF9962" points="85.326,270.641 83.562,270.604 83.562,267.702 85.326,267.757 								"/>
								<polygon fill="#CF9962" points="85.326,276.292 83.562,276.292 83.562,273.391 85.326,273.408 								"/>
							</g>
						</g>
						<g>
							<g>
								<polygon fill="#CF9962" points="80.244,241.222 78.479,241 78.479,230.623 80.244,230.91 								"/>
								<polygon fill="#CF9962" points="80.244,247.514 78.479,247.331 78.479,244.376 80.244,244.576 								"/>
								<polygon fill="#CF9962" points="80.244,253.269 78.479,253.123 78.479,250.168 80.244,250.332 								"/>
								<polygon fill="#CF9962" points="80.244,259.025 78.479,258.916 78.479,255.961 80.244,256.088 								"/>
								<polygon fill="#CF9962" points="80.244,264.78 78.479,264.707 78.479,261.752 80.244,261.844 								"/>
								<polygon fill="#CF9962" points="80.244,270.535 78.479,270.499 78.479,267.544 80.244,267.599 								"/>
								<polygon fill="#CF9962" points="80.244,276.292 78.479,276.292 78.479,273.337 80.244,273.355 								"/>
							</g>
							<g>
								<polygon fill="#CF9962" points="76.993,240.813 75.229,240.592 75.229,230.095 76.993,230.382 								"/>
								<polygon fill="#CF9962" points="76.993,247.178 75.229,246.996 75.229,244.007 76.993,244.207 								"/>
								<polygon fill="#CF9962" points="76.993,253 75.229,252.855 75.229,249.865 76.993,250.029 								"/>
								<polygon fill="#CF9962" points="76.993,258.824 75.229,258.715 75.229,255.726 76.993,255.853 								"/>
								<polygon fill="#CF9962" points="76.993,264.646 75.229,264.573 75.229,261.584 76.993,261.676 								"/>
								<polygon fill="#CF9962" points="76.993,270.469 75.229,270.433 75.229,267.442 76.993,267.498 								"/>
								<polygon fill="#CF9962" points="76.993,276.292 75.229,276.292 75.229,273.303 76.993,273.321 								"/>
							</g>
							<g>
								<polygon fill="#CF9962" points="73.743,240.405 71.979,240.184 71.979,229.566 73.743,229.854 								"/>
								<polygon fill="#CF9962" points="73.743,246.844 71.979,246.661 71.979,243.638 73.743,243.838 								"/>
								<polygon fill="#CF9962" points="73.743,252.732 71.979,252.587 71.979,249.563 73.743,249.728 								"/>
								<polygon fill="#CF9962" points="73.743,258.623 71.979,258.514 71.979,255.49 73.743,255.618 								"/>
								<polygon fill="#CF9962" points="73.743,264.512 71.979,264.439 71.979,261.416 73.743,261.507 								"/>
								<polygon fill="#CF9962" points="73.743,270.401 71.979,270.365 71.979,267.342 73.743,267.396 								"/>
								<polygon fill="#CF9962" points="73.743,276.292 71.979,276.292 71.979,273.269 73.743,273.287 								"/>
							</g>
						</g>
						<g>
							<g>
								<polygon fill="#CF9962" points="68.66,239.767 66.896,239.545 66.896,228.74 68.66,229.027 								"/>
								<polygon fill="#CF9962" points="68.66,246.319 66.896,246.138 66.896,243.061 68.66,243.261 								"/>
								<polygon fill="#CF9962" points="68.66,252.313 66.896,252.168 66.896,249.091 68.66,249.255 								"/>
								<polygon fill="#CF9962" points="68.66,258.309 66.896,258.199 66.896,255.122 68.66,255.25 								"/>
								<polygon fill="#CF9962" points="68.66,264.303 66.896,264.23 66.896,261.152 68.66,261.244 								"/>
								<polygon fill="#CF9962" points="68.66,270.297 66.896,270.261 66.896,267.184 68.66,267.238 								"/>
								<polygon fill="#CF9962" points="68.66,276.292 66.896,276.292 66.896,273.215 68.66,273.233 								"/>
							</g>
							<g>
								<polygon fill="#CF9962" points="65.41,239.358 63.646,239.137 63.646,228.212 65.41,228.499 								"/>
								<polygon fill="#CF9962" points="65.41,245.984 63.646,245.803 63.646,242.691 65.41,242.892 								"/>
								<polygon fill="#CF9962" points="65.41,252.045 63.646,251.9 63.646,248.789 65.41,248.953 								"/>
								<polygon fill="#CF9962" points="65.41,258.107 63.646,257.998 63.646,254.887 65.41,255.015 								"/>
								<polygon fill="#CF9962" points="65.41,264.169 63.646,264.096 63.646,260.984 65.41,261.076 								"/>
								<polygon fill="#CF9962" points="65.41,270.229 63.646,270.193 63.646,267.082 65.41,267.137 								"/>
								<polygon fill="#CF9962" points="65.41,276.292 63.646,276.292 63.646,273.181 65.41,273.199 								"/>
							</g>
							<g>
								<polygon fill="#CF9962" points="62.16,238.95 60.396,238.729 60.396,227.684 62.16,227.971 								"/>
								<polygon fill="#CF9962" points="62.16,245.649 60.396,245.468 60.396,242.322 62.16,242.522 								"/>
								<polygon fill="#CF9962" points="62.16,251.777 60.396,251.632 60.396,248.486 62.16,248.65 								"/>
								<polygon fill="#CF9962" points="62.16,257.906 60.396,257.798 60.396,254.652 62.16,254.779 								"/>
								<polygon fill="#CF9962" points="62.16,264.035 60.396,263.962 60.396,260.816 62.16,260.908 								"/>
								<polygon fill="#CF9962" points="62.16,270.163 60.396,270.126 60.396,266.98 62.16,267.036 								"/>
								<polygon fill="#CF9962" points="62.16,276.292 60.396,276.292 60.396,273.146 62.16,273.165 								"/>
							</g>
						</g>
					</g>
				</g>
				<g>
					<g>
						<g>
							<g>
								<g>
									<polygon fill="#CF9962" points="53.243,237.521 51.479,238.047 51.479,228.441 53.243,227.782 									"/>
									<polygon fill="#CF9962" points="53.243,243.463 51.479,243.909 51.479,241.174 53.243,240.689 									"/>
									<polygon fill="#CF9962" points="53.243,248.934 51.479,249.306 51.479,246.57 53.243,246.16 									"/>
									<polygon fill="#CF9962" points="53.243,254.406 51.479,254.703 51.479,251.968 53.243,251.633 									"/>
									<polygon fill="#CF9962" points="53.243,259.878 51.479,260.102 51.479,257.364 53.243,257.104 									"/>
									<polygon fill="#CF9962" points="53.243,265.349 51.479,265.498 51.479,262.762 53.243,262.576 									"/>
									<polygon fill="#CF9962" points="53.243,270.82 51.479,270.895 51.479,268.158 53.243,268.047 									"/>
									<polygon fill="#CF9962" points="53.243,276.292 51.479,276.292 51.479,273.557 53.243,273.519 									"/>
								</g>
							</g>
							<g>
								<g>
									<polygon fill="#CF9962" points="49.868,238.527 48.104,239.055 48.104,229.702 49.868,229.043 									"/>
									<polygon fill="#CF9962" points="49.868,244.316 48.104,244.762 48.104,242.099 49.868,241.615 									"/>
									<polygon fill="#CF9962" points="49.868,249.645 48.104,250.017 48.104,247.353 49.868,246.943 									"/>
									<polygon fill="#CF9962" points="49.868,254.975 48.104,255.272 48.104,252.608 49.868,252.273 									"/>
									<polygon fill="#CF9962" points="49.868,260.305 48.104,260.527 48.104,257.863 49.868,257.603 									"/>
									<polygon fill="#CF9962" points="49.868,265.634 48.104,265.782 48.104,263.118 49.868,262.932 									"/>
									<polygon fill="#CF9962" points="49.868,270.962 48.104,271.036 48.104,268.373 49.868,268.261 									"/>
									<polygon fill="#CF9962" points="49.868,276.292 48.104,276.292 48.104,273.628 49.868,273.591 									"/>
								</g>
							</g>
							<g>
								<g>
									<polygon fill="#CF9962" points="46.493,239.535 44.729,240.062 44.729,230.962 46.493,230.304 									"/>
									<polygon fill="#CF9962" points="46.493,245.169 44.729,245.615 44.729,243.023 46.493,242.54 									"/>
									<polygon fill="#CF9962" points="46.493,250.355 44.729,250.728 44.729,248.136 46.493,247.727 									"/>
									<polygon fill="#CF9962" points="46.493,255.543 44.729,255.841 44.729,253.249 46.493,252.914 									"/>
									<polygon fill="#CF9962" points="46.493,260.731 44.729,260.954 44.729,258.361 46.493,258.101 									"/>
									<polygon fill="#CF9962" points="46.493,265.918 44.729,266.066 44.729,263.475 46.493,263.288 									"/>
									<polygon fill="#CF9962" points="46.493,271.104 44.729,271.179 44.729,268.587 46.493,268.475 									"/>
									<polygon fill="#CF9962" points="46.493,276.292 44.729,276.292 44.729,273.7 46.493,273.663 									"/>
								</g>
							</g>
						</g>
						<g>
							<g>
								<g>
									<polygon fill="#CF9962" points="41.171,241.124 39.407,241.65 39.407,232.95 41.171,232.291 									"/>
									<polygon fill="#CF9962" points="41.171,246.515 39.407,246.96 39.407,244.482 41.171,243.999 									"/>
									<polygon fill="#CF9962" points="41.171,251.477 39.407,251.849 39.407,249.37 41.171,248.961 									"/>
									<polygon fill="#CF9962" points="41.171,256.44 39.407,256.737 39.407,254.26 41.171,253.925 									"/>
									<polygon fill="#CF9962" points="41.171,261.403 39.407,261.627 39.407,259.147 41.171,258.887 									"/>
									<polygon fill="#CF9962" points="41.171,266.366 39.407,266.515 39.407,264.037 41.171,263.851 									"/>
									<polygon fill="#CF9962" points="41.171,271.328 39.407,271.403 39.407,268.925 41.171,268.812 									"/>
									<polygon fill="#CF9962" points="41.171,276.292 39.407,276.292 39.407,273.814 41.171,273.776 									"/>
								</g>
							</g>
							<g>
								<g>
									<polygon fill="#CF9962" points="37.796,242.131 36.032,242.658 36.032,234.211 37.796,233.552 									"/>
									<polygon fill="#CF9962" points="37.796,247.367 36.032,247.813 36.032,245.407 37.796,244.924 									"/>
									<polygon fill="#CF9962" points="37.796,252.188 36.032,252.56 36.032,250.153 37.796,249.744 									"/>
									<polygon fill="#CF9962" points="37.796,257.009 36.032,257.307 36.032,254.9 37.796,254.565 									"/>
									<polygon fill="#CF9962" points="37.796,261.83 36.032,262.053 36.032,259.646 37.796,259.386 									"/>
									<polygon fill="#CF9962" points="37.796,266.65 36.032,266.799 36.032,264.394 37.796,264.207 									"/>
									<polygon fill="#CF9962" points="37.796,271.471 36.032,271.545 36.032,269.139 37.796,269.027 									"/>
									<polygon fill="#CF9962" points="37.796,276.292 36.032,276.292 36.032,273.886 37.796,273.849 									"/>
								</g>
							</g>
							<g>
								<g>
									<polygon fill="#CF9962" points="34.421,243.139 32.657,243.666 32.657,235.471 34.421,234.812 									"/>
									<polygon fill="#CF9962" points="34.421,248.221 32.657,248.666 32.657,246.333 34.421,245.849 									"/>
									<polygon fill="#CF9962" points="34.421,252.898 32.657,253.271 32.657,250.937 34.421,250.527 									"/>
									<polygon fill="#CF9962" points="34.421,257.578 32.657,257.875 32.657,255.541 34.421,255.206 									"/>
									<polygon fill="#CF9962" points="34.421,262.257 32.657,262.479 32.657,260.145 34.421,259.885 									"/>
									<polygon fill="#CF9962" points="34.421,266.935 32.657,267.084 32.657,264.75 34.421,264.563 									"/>
									<polygon fill="#CF9962" points="34.421,271.613 32.657,271.688 32.657,269.354 34.421,269.241 									"/>
									<polygon fill="#CF9962" points="34.421,276.292 32.657,276.292 32.657,273.958 34.421,273.921 									"/>
								</g>
							</g>
						</g>
						<g>
							<g>
								<g>
									<polygon fill="#CF9962" points="29.099,244.728 27.335,245.254 27.335,237.459 29.099,236.8 									"/>
									<polygon fill="#CF9962" points="29.099,249.565 27.335,250.012 27.335,247.791 29.099,247.308 									"/>
									<polygon fill="#CF9962" points="29.099,254.02 27.335,254.392 27.335,252.171 29.099,251.762 									"/>
									<polygon fill="#CF9962" points="29.099,258.475 27.335,258.771 27.335,256.552 29.099,256.217 									"/>
									<polygon fill="#CF9962" points="29.099,262.93 27.335,263.152 27.335,260.932 29.099,260.671 									"/>
									<polygon fill="#CF9962" points="29.099,267.383 27.335,267.532 27.335,265.312 29.099,265.125 									"/>
									<polygon fill="#CF9962" points="29.099,271.837 27.335,271.911 27.335,269.691 29.099,269.579 									"/>
									<polygon fill="#CF9962" points="29.099,276.292 27.335,276.292 27.335,274.072 29.099,274.034 									"/>
								</g>
							</g>
							<g>
								<g>
									<polygon fill="#CF9962" points="25.724,245.735 23.96,246.262 23.96,238.72 25.724,238.061 									"/>
									<polygon fill="#CF9962" points="25.724,250.419 23.96,250.865 23.96,248.717 25.724,248.233 									"/>
									<polygon fill="#CF9962" points="25.724,254.73 23.96,255.103 23.96,252.954 25.724,252.545 									"/>
									<polygon fill="#CF9962" points="25.724,259.043 23.96,259.341 23.96,257.192 25.724,256.857 									"/>
									<polygon fill="#CF9962" points="25.724,263.355 23.96,263.579 23.96,261.43 25.724,261.169 									"/>
									<polygon fill="#CF9962" points="25.724,267.668 23.96,267.816 23.96,265.668 25.724,265.481 									"/>
									<polygon fill="#CF9962" points="25.724,271.979 23.96,272.054 23.96,269.905 25.724,269.794 									"/>
									<polygon fill="#CF9962" points="25.724,276.292 23.96,276.292 23.96,274.144 25.724,274.106 									"/>
								</g>
							</g>
							<g>
								<g>
									<polygon fill="#CF9962" points="22.349,246.742 20.585,247.27 20.585,239.979 22.349,239.321 									"/>
									<polygon fill="#CF9962" points="22.349,251.271 20.585,251.718 20.585,249.642 22.349,249.158 									"/>
									<polygon fill="#CF9962" points="22.349,255.441 20.585,255.813 20.585,253.737 22.349,253.328 									"/>
									<polygon fill="#CF9962" points="22.349,259.612 20.585,259.909 20.585,257.833 22.349,257.498 									"/>
									<polygon fill="#CF9962" points="22.349,263.782 20.585,264.005 20.585,261.929 22.349,261.668 									"/>
									<polygon fill="#CF9962" points="22.349,267.952 20.585,268.101 20.585,266.024 22.349,265.838 									"/>
									<polygon fill="#CF9962" points="22.349,272.121 20.585,272.196 20.585,270.12 22.349,270.008 									"/>
									<polygon fill="#CF9962" points="22.349,276.292 20.585,276.292 20.585,274.216 22.349,274.178 									"/>
								</g>
							</g>
						</g>
						<g>
							<g>
								<g>
									<polygon fill="#CF9962" points="17.027,248.331 15.263,248.857 15.263,241.968 17.027,241.309 									"/>
									<polygon fill="#CF9962" points="17.027,252.617 15.263,253.062 15.263,251.101 17.027,250.617 									"/>
									<polygon fill="#CF9962" points="17.027,256.562 15.263,256.934 15.263,254.972 17.027,254.562 									"/>
									<polygon fill="#CF9962" points="17.027,260.509 15.263,260.806 15.263,258.844 17.027,258.509 									"/>
									<polygon fill="#CF9962" points="17.027,264.455 15.263,264.678 15.263,262.715 17.027,262.454 									"/>
									<polygon fill="#CF9962" points="17.027,268.4 15.263,268.549 15.263,266.587 17.027,266.4 									"/>
									<polygon fill="#CF9962" points="17.027,272.346 15.263,272.42 15.263,270.458 17.027,270.346 									"/>
									<polygon fill="#CF9962" points="17.027,276.292 15.263,276.292 15.263,274.33 17.027,274.292 									"/>
								</g>
							</g>
							<g>
								<g>
									<polygon fill="#CF9962" points="13.652,249.339 11.888,249.865 11.888,243.229 13.652,242.569 									"/>
									<polygon fill="#CF9962" points="13.652,253.47 11.888,253.916 11.888,252.025 13.652,251.542 									"/>
									<polygon fill="#CF9962" points="13.652,257.273 11.888,257.645 11.888,255.755 13.652,255.346 									"/>
									<polygon fill="#CF9962" points="13.652,261.077 11.888,261.375 11.888,259.484 13.652,259.149 									"/>
									<polygon fill="#CF9962" points="13.652,264.881 11.888,265.104 11.888,263.213 13.652,262.953 									"/>
									<polygon fill="#CF9962" points="13.652,268.685 11.888,268.833 11.888,266.943 13.652,266.757 									"/>
									<polygon fill="#CF9962" points="13.652,272.488 11.888,272.562 11.888,270.672 13.652,270.56 									"/>
									<polygon fill="#CF9962" points="13.652,276.292 11.888,276.292 11.888,274.401 13.652,274.364 									"/>
								</g>
							</g>
							<g>
								<g>
									<polygon fill="#CF9962" points="10.277,250.346 8.513,250.873 8.513,244.488 10.277,243.83 									"/>
									<polygon fill="#CF9962" points="10.277,254.323 8.513,254.77 8.513,252.951 10.277,252.467 									"/>
									<polygon fill="#CF9962" points="10.277,257.984 8.513,258.355 8.513,256.537 10.277,256.128 									"/>
									<polygon fill="#CF9962" points="10.277,261.646 8.513,261.943 8.513,260.125 10.277,259.79 									"/>
									<polygon fill="#CF9962" points="10.277,265.308 8.513,265.531 8.513,263.712 10.277,263.451 									"/>
									<polygon fill="#CF9962" points="10.277,268.969 8.513,269.117 8.513,267.3 10.277,267.113 									"/>
									<polygon fill="#CF9962" points="10.277,272.63 8.513,272.704 8.513,270.887 10.277,270.774 									"/>
									<polygon fill="#CF9962" points="10.277,276.292 8.513,276.292 8.513,274.474 10.277,274.436 									"/>
								</g>
							</g>
						</g>
					</g>
				</g>
				<g>
					<polygon fill="#CF9962" points="99.104,224.989 96.271,224.492 96.271,221.534 99.104,222.047 					"/>
					<polygon fill="#CF9962" points="93.72,224.044 90.887,223.547 90.887,220.562 93.72,221.074 					"/>
					<polygon fill="#CF9962" points="88.337,223.1 85.504,222.602 85.504,219.587 88.337,220.1 					"/>
					<polygon fill="#CF9962" points="82.954,222.154 80.121,221.656 80.121,218.614 82.954,219.126 					"/>
					<polygon fill="#CF9962" points="77.57,221.209 74.737,220.711 74.737,217.641 77.57,218.153 					"/>
					<polygon fill="#CF9962" points="72.187,220.264 69.354,219.767 69.354,216.667 72.187,217.18 					"/>
				</g>
				<polygon fill="#CF9962" points="117.27,232.536 56.77,222.557 56.77,221.277 117.27,231.258 				"/>
				<polygon fill="#CF9962" points="4.77,242.517 56.77,222.557 56.77,221.277 4.77,241.237 				"/>
			</g>
			<g>
				<polygon fill="#CF9962" points="319.111,238.288 283.611,224.086 283.111,214.49 318.611,229.46 				"/>
				<polygon fill="#FFCF89" points="212.111,287.313 241.111,287.313 241.111,215.642 212.111,220.638 				"/>
				<polygon fill="#CF9962" points="270.611,276.656 241.111,287.313 241.111,215.642 270.611,224.47 				"/>
				<g>
					<g>
						<polygon fill="#CF9962" points="218.662,234.946 220.976,234.684 220.976,226.784 218.662,227.097 						"/>
						<polygon fill="#CF9962" points="218.662,225.403 220.976,225.08 220.976,222.492 218.662,222.832 						"/>
						<polygon fill="#CF9962" points="218.662,245.46 220.976,245.265 220.976,242.677 218.662,242.889 						"/>
						<polygon fill="#CF9962" points="218.662,250.6 220.976,250.436 220.976,247.848 218.662,248.028 						"/>
						<polygon fill="#CF9962" points="218.662,255.737 220.976,255.607 220.976,253.02 218.662,253.166 						"/>
						<polygon fill="#CF9962" points="218.662,260.876 220.976,260.777 220.976,258.19 218.662,258.305 						"/>
						<polygon fill="#CF9962" points="218.662,266.015 220.976,265.949 220.976,263.361 218.662,263.443 						"/>
						<polygon fill="#CF9962" points="218.662,271.152 220.976,271.119 220.976,268.532 218.662,268.581 						"/>
						<polygon fill="#CF9962" points="218.662,276.292 220.976,276.292 220.976,273.704 218.662,273.721 						"/>
					</g>
					<g>
						<polygon fill="#CF9962" points="223.092,234.443 225.407,234.18 225.407,226.186 223.092,226.498 						"/>
						<polygon fill="#CF9962" points="223.092,224.784 225.407,224.461 225.407,221.842 223.092,222.182 						"/>
						<polygon fill="#CF9962" points="223.092,245.086 225.407,244.889 225.407,242.271 223.092,242.482 						"/>
						<polygon fill="#CF9962" points="223.092,250.287 225.407,250.123 225.407,247.505 223.092,247.684 						"/>
						<polygon fill="#CF9962" points="223.092,255.487 225.407,255.356 225.407,252.738 223.092,252.885 						"/>
						<polygon fill="#CF9962" points="223.092,260.688 225.407,260.59 225.407,257.972 223.092,258.086 						"/>
						<polygon fill="#CF9962" points="223.092,265.889 225.407,265.824 225.407,263.204 223.092,263.287 						"/>
						<polygon fill="#CF9962" points="223.092,271.09 225.407,271.058 225.407,268.438 223.092,268.487 						"/>
						<polygon fill="#CF9962" points="223.092,276.292 225.407,276.292 225.407,273.673 223.092,273.688 						"/>
					</g>
					<g>
						<polygon fill="#CF9962" points="227.522,233.939 229.837,233.678 229.837,225.587 227.522,225.899 						"/>
						<polygon fill="#CF9962" points="227.522,224.165 229.837,223.842 229.837,221.19 227.522,221.531 						"/>
						<polygon fill="#CF9962" points="227.522,244.71 229.837,244.514 229.837,241.864 227.522,242.076 						"/>
						<polygon fill="#CF9962" points="227.522,249.975 229.837,249.811 229.837,247.16 227.522,247.341 						"/>
						<polygon fill="#CF9962" points="227.522,255.237 229.837,255.107 229.837,252.456 227.522,252.604 						"/>
						<polygon fill="#CF9962" points="227.522,260.501 229.837,260.402 229.837,257.753 227.522,257.867 						"/>
						<polygon fill="#CF9962" points="227.522,265.764 229.837,265.698 229.837,263.049 227.522,263.13 						"/>
						<polygon fill="#CF9962" points="227.522,271.027 229.837,270.995 229.837,268.344 227.522,268.394 						"/>
						<polygon fill="#CF9962" points="227.522,276.292 229.837,276.292 229.837,273.642 227.522,273.658 						"/>
					</g>
					<g>
						<polygon fill="#CF9962" points="231.953,233.437 234.268,233.174 234.268,224.988 231.953,225.302 						"/>
						<polygon fill="#CF9962" points="231.953,223.546 234.268,223.223 234.268,220.541 231.953,220.881 						"/>
						<polygon fill="#CF9962" points="231.953,244.335 234.268,244.139 234.268,241.458 231.953,241.67 						"/>
						<polygon fill="#CF9962" points="231.953,249.661 234.268,249.498 234.268,246.816 231.953,246.996 						"/>
						<polygon fill="#CF9962" points="231.953,254.987 234.268,254.856 234.268,252.175 231.953,252.322 						"/>
						<polygon fill="#CF9962" points="231.953,260.312 234.268,260.216 234.268,257.534 231.953,257.647 						"/>
						<polygon fill="#CF9962" points="231.953,265.64 234.268,265.573 234.268,262.893 231.953,262.974 						"/>
						<polygon fill="#CF9962" points="231.953,270.965 234.268,270.932 234.268,268.25 231.953,268.3 						"/>
						<polygon fill="#CF9962" points="231.953,276.292 234.268,276.292 234.268,273.61 231.953,273.627 						"/>
					</g>
				</g>
				<polygon fill="#FFCF89" points="231.611,287.313 292.111,287.313 292.111,218.713 231.611,229.46 				"/>
				<polygon fill="#FFCF89" points="344.111,287.308 292.111,287.313 292.111,218.713 344.111,239.434 				"/>
				<polygon fill="#FFCF89" points="248.111,229.46 283.611,224.086 283.111,214.49 247.611,220.632 				"/>
				<g>
					<g>
						<g>
							<polygon fill="#CF9962" points="233.888,245.586 235.652,245.365 235.652,236.271 233.888,236.558 							"/>
							<polygon fill="#CF9962" points="233.888,251.095 235.652,250.913 235.652,248.323 233.888,248.523 							"/>
							<polygon fill="#CF9962" points="233.888,256.134 235.652,255.988 235.652,253.398 233.888,253.562 							"/>
							<polygon fill="#CF9962" points="233.888,261.174 235.652,261.064 235.652,258.475 233.888,258.603 							"/>
							<polygon fill="#CF9962" points="233.888,266.213 235.652,266.141 235.652,263.55 233.888,263.642 							"/>
							<polygon fill="#CF9962" points="233.888,271.252 235.652,271.216 235.652,268.626 233.888,268.681 							"/>
							<polygon fill="#CF9962" points="233.888,276.292 235.652,276.292 235.652,273.701 233.888,273.721 							"/>
						</g>
						<g>
							<polygon fill="#CF9962" points="237.138,245.178 238.902,244.956 238.902,235.743 237.138,236.029 							"/>
							<polygon fill="#CF9962" points="237.138,250.76 238.902,250.578 238.902,247.954 237.138,248.154 							"/>
							<polygon fill="#CF9962" points="237.138,255.866 238.902,255.721 238.902,253.097 237.138,253.261 							"/>
							<polygon fill="#CF9962" points="237.138,260.973 238.902,260.863 238.902,258.239 237.138,258.367 							"/>
							<polygon fill="#CF9962" points="237.138,266.079 238.902,266.006 238.902,263.382 237.138,263.474 							"/>
							<polygon fill="#CF9962" points="237.138,271.186 238.902,271.148 238.902,268.525 237.138,268.58 							"/>
							<polygon fill="#CF9962" points="237.138,276.292 238.902,276.292 238.902,273.668 237.138,273.686 							"/>
						</g>
						<g>
							<polygon fill="#CF9962" points="240.388,244.77 242.152,244.548 242.152,235.215 240.388,235.502 							"/>
							<polygon fill="#CF9962" points="240.388,250.425 242.152,250.243 242.152,247.585 240.388,247.785 							"/>
							<polygon fill="#CF9962" points="240.388,255.598 242.152,255.453 242.152,252.795 240.388,252.959 							"/>
							<polygon fill="#CF9962" points="240.388,260.771 242.152,260.662 242.152,258.004 240.388,258.132 							"/>
							<polygon fill="#CF9962" points="240.388,265.945 242.152,265.872 242.152,263.214 240.388,263.305 							"/>
							<polygon fill="#CF9962" points="240.388,271.118 242.152,271.082 242.152,268.424 240.388,268.479 							"/>
							<polygon fill="#CF9962" points="240.388,276.292 242.152,276.292 242.152,273.633 240.388,273.652 							"/>
						</g>
					</g>
					<g>
						<g>
							<polygon fill="#CF9962" points="245.471,244.131 247.235,243.91 247.235,234.389 245.471,234.676 							"/>
							<polygon fill="#CF9962" points="245.471,249.9 247.235,249.719 247.235,247.008 245.471,247.208 							"/>
							<polygon fill="#CF9962" points="245.471,255.179 247.235,255.033 247.235,252.322 245.471,252.485 							"/>
							<polygon fill="#CF9962" points="245.471,260.458 247.235,260.348 247.235,257.637 245.471,257.764 							"/>
							<polygon fill="#CF9962" points="245.471,265.735 247.235,265.662 247.235,262.951 245.471,263.043 							"/>
							<polygon fill="#CF9962" points="245.471,271.014 247.235,270.978 247.235,268.266 245.471,268.32 							"/>
							<polygon fill="#CF9962" points="245.471,276.292 247.235,276.292 247.235,273.58 245.471,273.598 							"/>
						</g>
						<g>
							<polygon fill="#CF9962" points="248.721,243.724 250.485,243.501 250.485,233.86 248.721,234.146 							"/>
							<polygon fill="#CF9962" points="248.721,249.566 250.485,249.384 250.485,246.638 248.721,246.839 							"/>
							<polygon fill="#CF9962" points="248.721,254.911 250.485,254.766 250.485,252.02 248.721,252.184 							"/>
							<polygon fill="#CF9962" points="248.721,260.257 250.485,260.147 250.485,257.401 248.721,257.528 							"/>
							<polygon fill="#CF9962" points="248.721,265.602 250.485,265.528 250.485,262.783 248.721,262.874 							"/>
							<polygon fill="#CF9962" points="248.721,270.946 250.485,270.91 250.485,268.164 248.721,268.219 							"/>
							<polygon fill="#CF9962" points="248.721,276.292 250.485,276.292 250.485,273.546 248.721,273.564 							"/>
						</g>
						<g>
							<polygon fill="#CF9962" points="251.971,243.314 253.736,243.094 253.736,233.332 251.971,233.619 							"/>
							<polygon fill="#CF9962" points="251.971,249.231 253.736,249.049 253.736,246.27 251.971,246.47 							"/>
							<polygon fill="#CF9962" points="251.971,254.643 253.736,254.498 253.736,251.718 251.971,251.881 							"/>
							<polygon fill="#CF9962" points="251.971,260.055 253.736,259.946 253.736,257.166 251.971,257.294 							"/>
							<polygon fill="#CF9962" points="251.971,265.468 253.736,265.395 253.736,262.614 251.971,262.706 							"/>
							<polygon fill="#CF9962" points="251.971,270.88 253.736,270.843 253.736,268.063 251.971,268.118 							"/>
							<polygon fill="#CF9962" points="251.971,276.292 253.736,276.292 253.736,273.511 251.971,273.529 							"/>
						</g>
					</g>
					<g>
						<g>
							<polygon fill="#CF9962" points="257.054,242.677 258.818,242.455 258.818,232.506 257.054,232.793 							"/>
							<polygon fill="#CF9962" points="257.054,248.707 258.818,248.525 258.818,245.691 257.054,245.893 							"/>
							<polygon fill="#CF9962" points="257.054,254.224 258.818,254.078 258.818,251.245 257.054,251.409 							"/>
							<polygon fill="#CF9962" points="257.054,259.741 258.818,259.632 258.818,256.799 257.054,256.926 							"/>
							<polygon fill="#CF9962" points="257.054,265.258 258.818,265.186 258.818,262.352 257.054,262.442 							"/>
							<polygon fill="#CF9962" points="257.054,270.774 258.818,270.738 258.818,267.905 257.054,267.96 							"/>
							<polygon fill="#CF9962" points="257.054,276.292 258.818,276.292 258.818,273.458 257.054,273.477 							"/>
						</g>
						<g>
							<polygon fill="#CF9962" points="260.305,242.268 262.068,242.047 262.068,231.979 260.305,232.265 							"/>
							<polygon fill="#CF9962" points="260.305,248.372 262.068,248.19 262.068,245.323 260.305,245.523 							"/>
							<polygon fill="#CF9962" points="260.305,253.956 262.068,253.811 262.068,250.942 260.305,251.106 							"/>
							<polygon fill="#CF9962" points="260.305,259.54 262.068,259.431 262.068,256.562 260.305,256.69 							"/>
							<polygon fill="#CF9962" points="260.305,265.124 262.068,265.051 262.068,262.184 260.305,262.275 							"/>
							<polygon fill="#CF9962" points="260.305,270.708 262.068,270.671 262.068,267.804 260.305,267.858 							"/>
							<polygon fill="#CF9962" points="260.305,276.292 262.068,276.292 262.068,273.424 260.305,273.442 							"/>
						</g>
						<g>
							<polygon fill="#CF9962" points="263.555,241.86 265.319,241.639 265.319,231.449 263.555,231.736 							"/>
							<polygon fill="#CF9962" points="263.555,248.037 265.319,247.855 265.319,244.953 263.555,245.153 							"/>
							<polygon fill="#CF9962" points="263.555,253.688 265.319,253.543 265.319,250.641 263.555,250.805 							"/>
							<polygon fill="#CF9962" points="263.555,259.339 265.319,259.229 265.319,256.328 263.555,256.456 							"/>
							<polygon fill="#CF9962" points="263.555,264.99 265.319,264.918 265.319,262.016 263.555,262.106 							"/>
							<polygon fill="#CF9962" points="263.555,270.641 265.319,270.604 265.319,267.702 263.555,267.757 							"/>
							<polygon fill="#CF9962" points="263.555,276.292 265.319,276.292 265.319,273.39 263.555,273.408 							"/>
						</g>
					</g>
					<g>
						<g>
							<polygon fill="#CF9962" points="268.637,241.222 270.402,241 270.402,230.623 268.637,230.91 							"/>
							<polygon fill="#CF9962" points="268.637,247.514 270.402,247.331 270.402,244.376 268.637,244.576 							"/>
							<polygon fill="#CF9962" points="268.637,253.269 270.402,253.123 270.402,250.168 268.637,250.332 							"/>
							<polygon fill="#CF9962" points="268.637,259.025 270.402,258.916 270.402,255.96 268.637,256.088 							"/>
							<polygon fill="#CF9962" points="268.637,264.78 270.402,264.707 270.402,261.752 268.637,261.844 							"/>
							<polygon fill="#CF9962" points="268.637,270.536 270.402,270.5 270.402,267.544 268.637,267.6 							"/>
							<polygon fill="#CF9962" points="268.637,276.292 270.402,276.292 270.402,273.336 268.637,273.355 							"/>
						</g>
						<g>
							<polygon fill="#CF9962" points="271.888,240.813 273.652,240.592 273.652,230.095 271.888,230.382 							"/>
							<polygon fill="#CF9962" points="271.888,247.179 273.652,246.996 273.652,244.007 271.888,244.207 							"/>
							<polygon fill="#CF9962" points="271.888,253.001 273.652,252.855 273.652,249.866 271.888,250.029 							"/>
							<polygon fill="#CF9962" points="271.888,258.823 273.652,258.715 273.652,255.725 271.888,255.853 							"/>
							<polygon fill="#CF9962" points="271.888,264.646 273.652,264.573 273.652,261.584 271.888,261.675 							"/>
							<polygon fill="#CF9962" points="271.888,270.469 273.652,270.433 273.652,267.443 271.888,267.498 							"/>
							<polygon fill="#CF9962" points="271.888,276.292 273.652,276.292 273.652,273.302 271.888,273.32 							"/>
						</g>
						<g>
							<polygon fill="#CF9962" points="275.138,240.405 276.902,240.184 276.902,229.567 275.138,229.854 							"/>
							<polygon fill="#CF9962" points="275.138,246.844 276.902,246.662 276.902,243.638 275.138,243.838 							"/>
							<polygon fill="#CF9962" points="275.138,252.732 276.902,252.588 276.902,249.564 275.138,249.729 							"/>
							<polygon fill="#CF9962" points="275.138,258.622 276.902,258.514 276.902,255.49 275.138,255.617 							"/>
							<polygon fill="#CF9962" points="275.138,264.513 276.902,264.439 276.902,261.416 275.138,261.507 							"/>
							<polygon fill="#CF9962" points="275.138,270.402 276.902,270.365 276.902,267.342 275.138,267.396 							"/>
							<polygon fill="#CF9962" points="275.138,276.292 276.902,276.292 276.902,273.269 275.138,273.286 							"/>
						</g>
					</g>
					<g>
						<g>
							<polygon fill="#CF9962" points="280.221,239.768 281.985,239.545 281.985,228.741 280.221,229.027 							"/>
							<polygon fill="#CF9962" points="280.221,246.319 281.985,246.138 281.985,243.061 280.221,243.261 							"/>
							<polygon fill="#CF9962" points="280.221,252.313 281.985,252.168 281.985,249.091 280.221,249.255 							"/>
							<polygon fill="#CF9962" points="280.221,258.309 281.985,258.199 281.985,255.122 280.221,255.25 							"/>
							<polygon fill="#CF9962" points="280.221,264.303 281.985,264.23 281.985,261.152 280.221,261.244 							"/>
							<polygon fill="#CF9962" points="280.221,270.297 281.985,270.261 281.985,267.184 280.221,267.238 							"/>
							<polygon fill="#CF9962" points="280.221,276.292 281.985,276.292 281.985,273.214 280.221,273.232 							"/>
						</g>
						<g>
							<polygon fill="#CF9962" points="283.471,239.358 285.235,239.138 285.235,228.213 283.471,228.5 							"/>
							<polygon fill="#CF9962" points="283.471,245.984 285.235,245.803 285.235,242.691 283.471,242.892 							"/>
							<polygon fill="#CF9962" points="283.471,252.046 285.235,251.9 285.235,248.789 283.471,248.953 							"/>
							<polygon fill="#CF9962" points="283.471,258.107 285.235,257.999 285.235,254.887 283.471,255.014 							"/>
							<polygon fill="#CF9962" points="283.471,264.169 285.235,264.096 285.235,260.984 283.471,261.076 							"/>
							<polygon fill="#CF9962" points="283.471,270.23 285.235,270.193 285.235,267.082 283.471,267.138 							"/>
							<polygon fill="#CF9962" points="283.471,276.292 285.235,276.292 285.235,273.181 283.471,273.198 							"/>
						</g>
						<g>
							<polygon fill="#CF9962" points="286.721,238.951 288.485,238.729 288.485,227.685 286.721,227.971 							"/>
							<polygon fill="#CF9962" points="286.721,245.65 288.485,245.468 288.485,242.322 286.721,242.522 							"/>
							<polygon fill="#CF9962" points="286.721,251.777 288.485,251.633 288.485,248.486 286.721,248.65 							"/>
							<polygon fill="#CF9962" points="286.721,257.906 288.485,257.798 288.485,254.652 286.721,254.779 							"/>
							<polygon fill="#CF9962" points="286.721,264.035 288.485,263.963 288.485,260.816 286.721,260.907 							"/>
							<polygon fill="#CF9962" points="286.721,270.163 288.485,270.127 288.485,266.981 286.721,267.036 							"/>
							<polygon fill="#CF9962" points="286.721,276.292 288.485,276.292 288.485,273.146 286.721,273.165 							"/>
						</g>
					</g>
				</g>
				<g>
					<g>
						<g>
							<polygon fill="#CF9962" points="295.638,237.521 297.402,238.047 297.402,228.441 295.638,227.783 							"/>
							<polygon fill="#CF9962" points="295.638,243.463 297.402,243.909 297.402,241.173 295.638,240.689 							"/>
							<polygon fill="#CF9962" points="295.638,248.935 297.402,249.306 297.402,246.57 295.638,246.16 							"/>
							<polygon fill="#CF9962" points="295.638,254.406 297.402,254.703 297.402,251.968 295.638,251.633 							"/>
							<polygon fill="#CF9962" points="295.638,259.877 297.402,260.101 297.402,257.364 295.638,257.104 							"/>
							<polygon fill="#CF9962" points="295.638,265.349 297.402,265.497 297.402,262.762 295.638,262.575 							"/>
							<polygon fill="#CF9962" points="295.638,270.819 297.402,270.894 297.402,268.158 295.638,268.046 							"/>
							<polygon fill="#CF9962" points="295.638,276.292 297.402,276.292 297.402,273.556 295.638,273.518 							"/>
						</g>
						<g>
							<polygon fill="#CF9962" points="299.013,238.528 300.777,239.055 300.777,229.702 299.013,229.043 							"/>
							<polygon fill="#CF9962" points="299.013,244.316 300.777,244.763 300.777,242.098 299.013,241.614 							"/>
							<polygon fill="#CF9962" points="299.013,249.645 300.777,250.017 300.777,247.353 299.013,246.943 							"/>
							<polygon fill="#CF9962" points="299.013,254.975 300.777,255.272 300.777,252.608 299.013,252.273 							"/>
							<polygon fill="#CF9962" points="299.013,260.304 300.777,260.527 300.777,257.863 299.013,257.603 							"/>
							<polygon fill="#CF9962" points="299.013,265.634 300.777,265.782 300.777,263.118 299.013,262.932 							"/>
							<polygon fill="#CF9962" points="299.013,270.962 300.777,271.036 300.777,268.373 299.013,268.26 							"/>
							<polygon fill="#CF9962" points="299.013,276.292 300.777,276.292 300.777,273.628 299.013,273.591 							"/>
						</g>
						<g>
							<polygon fill="#CF9962" points="302.388,239.535 304.152,240.062 304.152,230.962 302.388,230.303 							"/>
							<polygon fill="#CF9962" points="302.388,245.17 304.152,245.615 304.152,243.023 302.388,242.539 							"/>
							<polygon fill="#CF9962" points="302.388,250.355 304.152,250.728 304.152,248.136 302.388,247.727 							"/>
							<polygon fill="#CF9962" points="302.388,255.543 304.152,255.84 304.152,253.249 302.388,252.914 							"/>
							<polygon fill="#CF9962" points="302.388,260.73 304.152,260.954 304.152,258.362 302.388,258.102 							"/>
							<polygon fill="#CF9962" points="302.388,265.918 304.152,266.066 304.152,263.475 302.388,263.288 							"/>
							<polygon fill="#CF9962" points="302.388,271.104 304.152,271.179 304.152,268.587 302.388,268.475 							"/>
							<polygon fill="#CF9962" points="302.388,276.292 304.152,276.292 304.152,273.7 302.388,273.662 							"/>
						</g>
					</g>
					<g>
						<g>
							<polygon fill="#CF9962" points="307.709,241.124 309.474,241.651 309.474,232.95 307.709,232.291 							"/>
							<polygon fill="#CF9962" points="307.709,246.515 309.474,246.96 309.474,244.482 307.709,243.998 							"/>
							<polygon fill="#CF9962" points="307.709,251.477 309.474,251.849 309.474,249.371 307.709,248.961 							"/>
							<polygon fill="#CF9962" points="307.709,256.44 309.474,256.737 309.474,254.26 307.709,253.924 							"/>
							<polygon fill="#CF9962" points="307.709,261.403 309.474,261.626 309.474,259.148 307.709,258.888 							"/>
							<polygon fill="#CF9962" points="307.709,266.366 309.474,266.515 309.474,264.037 307.709,263.85 							"/>
							<polygon fill="#CF9962" points="307.709,271.328 309.474,271.403 309.474,268.925 307.709,268.812 							"/>
							<polygon fill="#CF9962" points="307.709,276.292 309.474,276.292 309.474,273.814 307.709,273.775 							"/>
						</g>
						<g>
							<polygon fill="#CF9962" points="311.084,242.132 312.849,242.658 312.849,234.211 311.084,233.552 							"/>
							<polygon fill="#CF9962" points="311.084,247.367 312.849,247.813 312.849,245.407 311.084,244.924 							"/>
							<polygon fill="#CF9962" points="311.084,252.188 312.849,252.559 312.849,250.153 311.084,249.744 							"/>
							<polygon fill="#CF9962" points="311.084,257.009 312.849,257.306 312.849,254.9 311.084,254.565 							"/>
							<polygon fill="#CF9962" points="311.084,261.83 312.849,262.053 312.849,259.646 311.084,259.387 							"/>
							<polygon fill="#CF9962" points="311.084,266.65 312.849,266.799 312.849,264.393 311.084,264.207 							"/>
							<polygon fill="#CF9962" points="311.084,271.471 312.849,271.545 312.849,269.139 311.084,269.026 							"/>
							<polygon fill="#CF9962" points="311.084,276.292 312.849,276.292 312.849,273.886 311.084,273.848 							"/>
						</g>
						<g>
							<polygon fill="#CF9962" points="314.459,243.14 316.224,243.666 316.224,235.471 314.459,234.812 							"/>
							<polygon fill="#CF9962" points="314.459,248.221 316.224,248.667 316.224,246.332 314.459,245.849 							"/>
							<polygon fill="#CF9962" points="314.459,252.898 316.224,253.271 316.224,250.936 314.459,250.527 							"/>
							<polygon fill="#CF9962" points="314.459,257.577 316.224,257.875 316.224,255.54 314.459,255.206 							"/>
							<polygon fill="#CF9962" points="314.459,262.256 316.224,262.479 316.224,260.146 314.459,259.885 							"/>
							<polygon fill="#CF9962" points="314.459,266.935 316.224,267.083 316.224,264.75 314.459,264.562 							"/>
							<polygon fill="#CF9962" points="314.459,271.613 316.224,271.688 316.224,269.354 314.459,269.241 							"/>
							<polygon fill="#CF9962" points="314.459,276.292 316.224,276.292 316.224,273.958 314.459,273.92 							"/>
						</g>
					</g>
					<g>
						<g>
							<polygon fill="#CF9962" points="319.782,244.728 321.546,245.254 321.546,237.459 319.782,236.8 							"/>
							<polygon fill="#CF9962" points="319.782,249.565 321.546,250.012 321.546,247.791 319.782,247.308 							"/>
							<polygon fill="#CF9962" points="319.782,254.02 321.546,254.392 321.546,252.171 319.782,251.762 							"/>
							<polygon fill="#CF9962" points="319.782,258.474 321.546,258.771 321.546,256.551 319.782,256.216 							"/>
							<polygon fill="#CF9962" points="319.782,262.929 321.546,263.152 321.546,260.932 319.782,260.671 							"/>
							<polygon fill="#CF9962" points="319.782,267.383 321.546,267.531 321.546,265.311 319.782,265.125 							"/>
							<polygon fill="#CF9962" points="319.782,271.837 321.546,271.911 321.546,269.69 319.782,269.579 							"/>
							<polygon fill="#CF9962" points="319.782,276.292 321.546,276.292 321.546,274.071 319.782,274.033 							"/>
						</g>
						<g>
							<polygon fill="#CF9962" points="323.157,245.735 324.921,246.262 324.921,238.719 323.157,238.061 							"/>
							<polygon fill="#CF9962" points="323.157,250.419 324.921,250.865 324.921,248.716 323.157,248.232 							"/>
							<polygon fill="#CF9962" points="323.157,254.73 324.921,255.102 324.921,252.954 323.157,252.545 							"/>
							<polygon fill="#CF9962" points="323.157,259.043 324.921,259.341 324.921,257.192 323.157,256.857 							"/>
							<polygon fill="#CF9962" points="323.157,263.355 324.921,263.578 324.921,261.43 323.157,261.17 							"/>
							<polygon fill="#CF9962" points="323.157,267.667 324.921,267.815 324.921,265.668 323.157,265.481 							"/>
							<polygon fill="#CF9962" points="323.157,271.979 324.921,272.054 324.921,269.905 323.157,269.793 							"/>
							<polygon fill="#CF9962" points="323.157,276.292 324.921,276.292 324.921,274.144 323.157,274.105 							"/>
						</g>
						<g>
							<polygon fill="#CF9962" points="326.532,246.743 328.296,247.27 328.296,239.98 326.532,239.321 							"/>
							<polygon fill="#CF9962" points="326.532,251.271 328.296,251.718 328.296,249.642 326.532,249.158 							"/>
							<polygon fill="#CF9962" points="326.532,255.441 328.296,255.812 328.296,253.736 326.532,253.327 							"/>
							<polygon fill="#CF9962" points="326.532,259.612 328.296,259.909 328.296,257.833 326.532,257.498 							"/>
							<polygon fill="#CF9962" points="326.532,263.781 328.296,264.005 328.296,261.929 326.532,261.668 							"/>
							<polygon fill="#CF9962" points="326.532,267.951 328.296,268.1 328.296,266.024 326.532,265.838 							"/>
							<polygon fill="#CF9962" points="326.532,272.121 328.296,272.195 328.296,270.119 326.532,270.008 							"/>
							<polygon fill="#CF9962" points="326.532,276.292 328.296,276.292 328.296,274.216 326.532,274.178 							"/>
						</g>
					</g>
					<g>
						<g>
							<polygon fill="#CF9962" points="331.854,248.332 333.618,248.857 333.618,241.968 331.854,241.309 							"/>
							<polygon fill="#CF9962" points="331.854,252.617 333.618,253.062 333.618,251.1 331.854,250.616 							"/>
							<polygon fill="#CF9962" points="331.854,256.562 333.618,256.934 333.618,254.972 331.854,254.562 							"/>
							<polygon fill="#CF9962" points="331.854,260.509 333.618,260.806 333.618,258.843 331.854,258.509 							"/>
							<polygon fill="#CF9962" points="331.854,264.455 333.618,264.678 333.618,262.715 331.854,262.454 							"/>
							<polygon fill="#CF9962" points="331.854,268.399 333.618,268.549 333.618,266.586 331.854,266.399 							"/>
							<polygon fill="#CF9962" points="331.854,272.346 333.618,272.42 333.618,270.458 331.854,270.346 							"/>
							<polygon fill="#CF9962" points="331.854,276.292 333.618,276.292 333.618,274.329 331.854,274.291 							"/>
						</g>
						<g>
							<polygon fill="#CF9962" points="335.229,249.338 336.993,249.865 336.993,243.228 335.229,242.568 							"/>
							<polygon fill="#CF9962" points="335.229,253.47 336.993,253.916 336.993,252.025 335.229,251.542 							"/>
							<polygon fill="#CF9962" points="335.229,257.273 336.993,257.645 336.993,255.754 335.229,255.345 							"/>
							<polygon fill="#CF9962" points="335.229,261.077 336.993,261.375 336.993,259.483 335.229,259.148 							"/>
							<polygon fill="#CF9962" points="335.229,264.881 336.993,265.104 336.993,263.214 335.229,262.952 							"/>
							<polygon fill="#CF9962" points="335.229,268.685 336.993,268.833 336.993,266.942 335.229,266.757 							"/>
							<polygon fill="#CF9962" points="335.229,272.488 336.993,272.562 336.993,270.671 335.229,270.56 							"/>
							<polygon fill="#CF9962" points="335.229,276.292 336.993,276.292 336.993,274.4 335.229,274.363 							"/>
						</g>
						<g>
							<polygon fill="#CF9962" points="338.604,250.346 340.368,250.873 340.368,244.488 338.604,243.83 							"/>
							<polygon fill="#CF9962" points="338.604,254.323 340.368,254.77 340.368,252.95 338.604,252.467 							"/>
							<polygon fill="#CF9962" points="338.604,257.983 340.368,258.355 340.368,256.537 338.604,256.128 							"/>
							<polygon fill="#CF9962" points="338.604,261.646 340.368,261.943 340.368,260.125 338.604,259.79 							"/>
							<polygon fill="#CF9962" points="338.604,265.308 340.368,265.531 340.368,263.712 338.604,263.452 							"/>
							<polygon fill="#CF9962" points="338.604,268.969 340.368,269.117 340.368,267.299 338.604,267.112 							"/>
							<polygon fill="#CF9962" points="338.604,272.63 340.368,272.704 340.368,270.886 338.604,270.773 							"/>
							<polygon fill="#CF9962" points="338.604,276.292 340.368,276.292 340.368,274.474 338.604,274.436 							"/>
						</g>
					</g>
				</g>
				<g>
					<polygon fill="#CF9962" points="249.777,224.989 252.61,224.492 252.61,221.534 249.777,222.047 					"/>
					<polygon fill="#CF9962" points="255.161,224.044 257.994,223.547 257.994,220.562 255.161,221.074 					"/>
					<polygon fill="#CF9962" points="260.544,223.1 263.377,222.602 263.377,219.587 260.544,220.1 					"/>
					<polygon fill="#CF9962" points="265.927,222.154 268.76,221.656 268.76,218.614 265.927,219.126 					"/>
					<polygon fill="#CF9962" points="271.311,221.209 274.144,220.711 274.144,217.641 271.311,218.153 					"/>
					<polygon fill="#CF9962" points="276.694,220.264 279.527,219.767 279.527,216.667 276.694,217.18 					"/>
				</g>
				<polygon fill="#CF9962" points="231.611,232.536 292.111,222.557 292.111,221.277 231.611,231.258 				"/>
				<polygon fill="#CF9962" points="344.111,242.517 292.111,222.557 292.111,221.277 344.111,241.237 				"/>
			</g>
		</g>
		<path fill="none" stroke="#78ACA8" stroke-width="12.7756" stroke-miterlimit="10" d="M206.724,75.383
			c-1.289-0.254-2.674-0.391-4.156-0.391h-63.727c-9.729,0-17.561-6.375-17.561-17.236c0-10.723,8.221-18.559,17.647-18.559h4.472"
			/>
		<g>
			<rect x="163.511" y="73.654" fill="#FFCF89" width="20.967" height="18.961"/>
			<rect x="152.265" y="93.771" fill="#FFCF89" width="43.461" height="26.119"/>
			<rect x="167.261" y="54.662" fill="#FFCF89" width="13.468" height="19.379"/>
			<polygon fill="#FFCF89" points="201.582,287.432 146.41,287.432 146.41,120.967 201.582,122.91 			"/>
			<g>
				<rect x="196.582" y="164.648" fill="#CF9962" width="5" height="27.586"/>
				<rect x="187.88" y="164.648" fill="#CF9962" width="4.999" height="27.586"/>
				<g>
					<rect x="155.11" y="164.648" fill="#CF9962" width="5.001" height="27.586"/>
					<rect x="146.41" y="164.648" fill="#CF9962" width="5" height="27.586"/>
				</g>
			</g>
			<g>
				<rect x="196.582" y="194.637" fill="#CF9962" width="5" height="27.586"/>
				<rect x="187.88" y="194.637" fill="#CF9962" width="4.999" height="27.586"/>
				<g>
					<rect x="155.11" y="194.637" fill="#CF9962" width="5.001" height="27.586"/>
					<rect x="146.41" y="194.637" fill="#CF9962" width="5" height="27.586"/>
				</g>
			</g>
			<rect x="146.04" y="130.35" fill="#CF9962" width="55.911" height="4.629"/>
			<g>
				<rect x="147.985" y="125.354" fill="#CF9962" width="3.146" height="3.145"/>
				<rect x="196.859" y="125.354" fill="#CF9962" width="3.146" height="3.145"/>
				<rect x="158.353" y="125.354" fill="#CF9962" width="7.77" height="3.145"/>
				<rect x="166.87" y="125.354" fill="#CF9962" width="7.769" height="3.145"/>
				<rect x="175.388" y="125.354" fill="#CF9962" width="7.77" height="3.145"/>
				<rect x="183.906" y="125.354" fill="#CF9962" width="7.769" height="3.145"/>
			</g>
			<g>
				<rect x="146.41" y="137.199" fill="#CF9962" width="7.035" height="25.045"/>
				<rect x="194.544" y="137.199" fill="#CF9962" width="7.037" height="25.045"/>
				<path fill="#CF9962" d="M163.442,141.645c0-1.432-1.161-2.592-2.593-2.592c-1.433,0-2.593,1.16-2.593,2.592v11.596h5.186
					V141.645z"/>
				<path fill="#CF9962" d="M170.476,141.645c0-1.432-1.16-2.592-2.592-2.592c-1.43,0-2.59,1.16-2.59,2.592v11.596h5.182V141.645z"
					/>
				<path fill="#CF9962" d="M191.582,141.645c0-1.432-1.16-2.592-2.593-2.592c-1.431,0-2.591,1.16-2.591,2.592v11.596h5.184V141.645
					z"/>
				<path fill="#CF9962" d="M177.512,141.645c0-1.432-1.16-2.592-2.593-2.592c-1.432,0-2.592,1.16-2.592,2.592v11.596h5.185V141.645
					z"/>
				<path fill="#CF9962" d="M184.546,141.645c0-1.432-1.16-2.592-2.592-2.592c-1.431,0-2.592,1.16-2.592,2.592v11.596h5.184V141.645
					z"/>
				<rect x="158.257" y="156.506" fill="#CF9962" width="3.889" height="3.148"/>
				<rect x="187.694" y="156.506" fill="#CF9962" width="3.887" height="3.148"/>
				<rect x="180.335" y="156.506" fill="#CF9962" width="3.887" height="3.148"/>
				<rect x="172.976" y="156.506" fill="#CF9962" width="3.888" height="3.148"/>
				<rect x="165.615" y="156.506" fill="#CF9962" width="3.889" height="3.148"/>
				<rect x="158.257" y="155.395" fill="#CF9962" width="33.325" height="1.666"/>
			</g>
			<polygon fill="#CF9962" points="201.855,122.945 146.135,122.945 143.911,117.02 204.08,117.02 			"/>
			<rect x="150.946" y="92.014" fill="#CF9962" width="46.096" height="2.221"/>
			<g>
				<rect x="152.242" y="93.68" fill="#CF9962" width="7.962" height="11.051"/>
				<rect x="187.787" y="93.68" fill="#CF9962" width="7.96" height="11.051"/>
			</g>
			<g>
				<rect x="152.242" y="107.08" fill="#CF9962" width="7.962" height="9.014"/>
				<rect x="187.787" y="107.08" fill="#CF9962" width="7.96" height="9.014"/>
			</g>
			<g>
				<polygon fill="#CF9962" points="161.238,80.146 158.63,74.885 156.021,80.146 156.021,92.178 161.238,92.178 				"/>
				<polygon fill="#CF9962" points="191.97,80.146 189.361,74.885 186.751,80.146 186.751,92.178 191.97,92.178 				"/>
			</g>
			<g>
				<rect x="163.546" y="76.326" fill="#CF9962" width="3.125" height="14.672"/>
				<rect x="181.319" y="76.326" fill="#CF9962" width="3.124" height="14.672"/>
			</g>
			<g>
				<rect x="168.071" y="76.326" fill="#CF9962" width="3.334" height="2.404"/>
				<rect x="172.329" y="76.326" fill="#CF9962" width="3.332" height="2.404"/>
				<rect x="176.587" y="76.326" fill="#CF9962" width="3.334" height="2.404"/>
			</g>
			<g>
				<rect x="168.071" y="80.285" fill="#CF9962" width="3.334" height="2.408"/>
				<rect x="172.329" y="80.285" fill="#CF9962" width="3.332" height="2.408"/>
				<rect x="176.587" y="80.285" fill="#CF9962" width="3.334" height="2.408"/>
			</g>
			<g>
				<rect x="168.071" y="84.248" fill="#CF9962" width="3.334" height="2.408"/>
				<rect x="172.329" y="84.248" fill="#CF9962" width="3.332" height="2.408"/>
				<rect x="176.587" y="84.248" fill="#CF9962" width="3.334" height="2.408"/>
			</g>
			<g>
				<rect x="168.071" y="88.592" fill="#CF9962" width="3.334" height="2.406"/>
				<rect x="172.329" y="88.592" fill="#CF9962" width="3.332" height="2.406"/>
				<rect x="176.587" y="88.592" fill="#CF9962" width="3.334" height="2.406"/>
			</g>
			<g>
				<rect x="162.332" y="95.717" fill="#CF9962" width="3.332" height="3.332"/>
				<rect x="167.329" y="95.717" fill="#CF9962" width="3.334" height="3.332"/>
				<rect x="172.329" y="95.717" fill="#CF9962" width="3.332" height="3.332"/>
				<rect x="177.327" y="95.717" fill="#CF9962" width="3.332" height="3.332"/>
				<rect x="182.326" y="95.717" fill="#CF9962" width="3.331" height="3.332"/>
			</g>
			<g>
				<rect x="162.332" y="107.08" fill="#CF9962" width="3.332" height="3.334"/>
				<rect x="167.329" y="107.08" fill="#CF9962" width="3.334" height="3.334"/>
				<rect x="172.329" y="107.08" fill="#CF9962" width="3.332" height="3.334"/>
				<rect x="177.327" y="107.08" fill="#CF9962" width="3.332" height="3.334"/>
				<rect x="182.326" y="107.08" fill="#CF9962" width="3.331" height="3.334"/>
			</g>
			<g>
				<rect x="162.332" y="100.516" fill="#CF9962" width="3.332" height="3.332"/>
				<rect x="167.329" y="100.516" fill="#CF9962" width="3.334" height="3.332"/>
				<rect x="172.329" y="100.516" fill="#CF9962" width="3.332" height="3.332"/>
				<rect x="177.327" y="100.516" fill="#CF9962" width="3.332" height="3.332"/>
				<rect x="182.326" y="100.516" fill="#CF9962" width="3.331" height="3.332"/>
			</g>
			<g>
				<rect x="162.332" y="112.762" fill="#CF9962" width="3.332" height="3.332"/>
				<rect x="167.329" y="112.762" fill="#CF9962" width="3.334" height="3.332"/>
				<rect x="172.329" y="112.762" fill="#CF9962" width="3.332" height="3.332"/>
				<rect x="177.327" y="112.762" fill="#CF9962" width="3.332" height="3.332"/>
				<rect x="182.326" y="112.762" fill="#CF9962" width="3.331" height="3.332"/>
			</g>
			<rect x="165.386" y="69.908" fill="#CF9962" width="17.219" height="3.27"/>
			<rect x="166.774" y="60.354" fill="#CF9962" width="14.44" height="1.389"/>
			<g>
				<rect x="166.774" y="61.049" fill="#CF9962" width="1.389" height="10.076"/>
				<rect x="170.038" y="61.049" fill="#CF9962" width="1.388" height="10.076"/>
				<rect x="173.3" y="61.049" fill="#CF9962" width="1.389" height="9.52"/>
				<rect x="176.563" y="61.049" fill="#CF9962" width="1.389" height="9.52"/>
				<rect x="179.827" y="61.049" fill="#CF9962" width="1.388" height="9.52"/>
			</g>
			<rect x="167.191" y="57.023" fill="#CF9962" width="13.607" height="1.387"/>
			<polygon fill="#CF9962" points="176.979,38.564 174.089,32.424 171.011,38.564 171.011,46.607 176.979,46.607 			"/>
			<rect x="173.37" y="12.17" fill="#CF9962" width="1.25" height="25.137"/>
			<g>
				<rect x="162.911" y="164.648" fill="#CF9962" width="2.312" height="3.24"/>
				<rect x="167.874" y="164.648" fill="#CF9962" width="2.314" height="3.24"/>
				<rect x="172.839" y="164.648" fill="#CF9962" width="2.313" height="3.24"/>
				<rect x="177.802" y="164.648" fill="#CF9962" width="2.314" height="3.24"/>
				<rect x="182.766" y="164.648" fill="#CF9962" width="2.313" height="3.24"/>
			</g>
			<g>
				<rect x="162.911" y="169.637" fill="#CF9962" width="2.312" height="3.24"/>
				<rect x="167.874" y="169.637" fill="#CF9962" width="2.314" height="3.24"/>
				<rect x="172.839" y="169.637" fill="#CF9962" width="2.313" height="3.24"/>
				<rect x="177.802" y="169.637" fill="#CF9962" width="2.314" height="3.24"/>
				<rect x="182.766" y="169.637" fill="#CF9962" width="2.313" height="3.24"/>
			</g>
			<g>
				<rect x="162.911" y="174.627" fill="#CF9962" width="2.312" height="4.35"/>
				<rect x="167.874" y="174.627" fill="#CF9962" width="2.314" height="4.35"/>
				<rect x="172.839" y="174.627" fill="#CF9962" width="2.313" height="4.35"/>
				<rect x="177.802" y="174.627" fill="#CF9962" width="2.314" height="4.35"/>
				<rect x="182.766" y="174.627" fill="#CF9962" width="2.313" height="4.35"/>
			</g>
			<g>
				<rect x="162.911" y="180.727" fill="#CF9962" width="2.312" height="4.35"/>
				<rect x="167.874" y="180.727" fill="#CF9962" width="2.314" height="4.35"/>
				<rect x="172.839" y="180.727" fill="#CF9962" width="2.313" height="4.35"/>
				<rect x="177.802" y="180.727" fill="#CF9962" width="2.314" height="4.35"/>
				<rect x="182.766" y="180.727" fill="#CF9962" width="2.313" height="4.35"/>
			</g>
			<g>
				<rect x="162.911" y="186.826" fill="#CF9962" width="2.312" height="4.35"/>
				<rect x="167.874" y="186.826" fill="#CF9962" width="2.314" height="4.35"/>
				<rect x="172.839" y="186.826" fill="#CF9962" width="2.313" height="4.35"/>
				<rect x="177.802" y="186.826" fill="#CF9962" width="2.314" height="4.35"/>
				<rect x="182.766" y="186.826" fill="#CF9962" width="2.313" height="4.35"/>
			</g>
			<g>
				<rect x="162.911" y="192.926" fill="#CF9962" width="2.312" height="4.348"/>
				<rect x="167.874" y="192.926" fill="#CF9962" width="2.314" height="4.348"/>
				<rect x="172.839" y="192.926" fill="#CF9962" width="2.313" height="4.348"/>
				<rect x="177.802" y="192.926" fill="#CF9962" width="2.314" height="4.348"/>
				<rect x="182.766" y="192.926" fill="#CF9962" width="2.313" height="4.348"/>
			</g>
			<g>
				<rect x="162.911" y="199.021" fill="#CF9962" width="2.312" height="4.352"/>
				<rect x="167.874" y="199.021" fill="#CF9962" width="2.314" height="4.352"/>
				<rect x="172.839" y="199.021" fill="#CF9962" width="2.313" height="4.352"/>
				<rect x="177.802" y="199.021" fill="#CF9962" width="2.314" height="4.352"/>
				<rect x="182.766" y="199.021" fill="#CF9962" width="2.313" height="4.352"/>
			</g>
			<g>
				<rect x="162.911" y="205.123" fill="#CF9962" width="2.312" height="4.35"/>
				<rect x="167.874" y="205.123" fill="#CF9962" width="2.314" height="4.35"/>
				<rect x="172.839" y="205.123" fill="#CF9962" width="2.313" height="4.35"/>
				<rect x="177.802" y="205.123" fill="#CF9962" width="2.314" height="4.35"/>
				<rect x="182.766" y="205.123" fill="#CF9962" width="2.313" height="4.35"/>
			</g>
			<g>
				<rect x="162.911" y="211.223" fill="#CF9962" width="2.312" height="4.35"/>
				<rect x="167.874" y="211.223" fill="#CF9962" width="2.314" height="4.35"/>
				<rect x="172.839" y="211.223" fill="#CF9962" width="2.313" height="4.35"/>
				<rect x="177.802" y="211.223" fill="#CF9962" width="2.314" height="4.35"/>
				<rect x="182.766" y="211.223" fill="#CF9962" width="2.313" height="4.35"/>
			</g>
			<g>
				<rect x="162.911" y="217.322" fill="#CF9962" width="2.312" height="4.348"/>
				<rect x="167.874" y="217.322" fill="#CF9962" width="2.314" height="4.348"/>
				<rect x="172.839" y="217.322" fill="#CF9962" width="2.313" height="4.348"/>
				<rect x="177.802" y="217.322" fill="#CF9962" width="2.314" height="4.348"/>
				<rect x="182.766" y="217.322" fill="#CF9962" width="2.313" height="4.348"/>
			</g>
			<g>
				<rect x="196.582" y="224.627" fill="#CF9962" width="5" height="27.586"/>
				<rect x="187.88" y="224.627" fill="#CF9962" width="4.999" height="27.586"/>
				<g>
					<rect x="155.11" y="224.627" fill="#CF9962" width="5.001" height="27.586"/>
					<rect x="146.41" y="224.627" fill="#CF9962" width="5" height="27.586"/>
				</g>
			</g>
			<g>
				<rect x="162.911" y="223.422" fill="#CF9962" width="2.312" height="4.348"/>
				<rect x="167.874" y="223.422" fill="#CF9962" width="2.314" height="4.348"/>
				<rect x="172.839" y="223.422" fill="#CF9962" width="2.313" height="4.348"/>
				<rect x="177.802" y="223.422" fill="#CF9962" width="2.314" height="4.348"/>
				<rect x="182.766" y="223.422" fill="#CF9962" width="2.313" height="4.348"/>
			</g>
			<g>
				<rect x="162.911" y="229.52" fill="#CF9962" width="2.312" height="4.35"/>
				<rect x="167.874" y="229.52" fill="#CF9962" width="2.314" height="4.35"/>
				<rect x="172.839" y="229.52" fill="#CF9962" width="2.313" height="4.35"/>
				<rect x="177.802" y="229.52" fill="#CF9962" width="2.314" height="4.35"/>
				<rect x="182.766" y="229.52" fill="#CF9962" width="2.313" height="4.35"/>
			</g>
			<g>
				<rect x="162.911" y="235.619" fill="#CF9962" width="2.312" height="4.35"/>
				<rect x="167.874" y="235.619" fill="#CF9962" width="2.314" height="4.35"/>
				<rect x="172.839" y="235.619" fill="#CF9962" width="2.313" height="4.35"/>
				<rect x="177.802" y="235.619" fill="#CF9962" width="2.314" height="4.35"/>
				<rect x="182.766" y="235.619" fill="#CF9962" width="2.313" height="4.35"/>
			</g>
			<g>
				<rect x="162.911" y="241.719" fill="#CF9962" width="2.312" height="4.35"/>
				<rect x="167.874" y="241.719" fill="#CF9962" width="2.314" height="4.35"/>
				<rect x="172.839" y="241.719" fill="#CF9962" width="2.313" height="4.35"/>
				<rect x="177.802" y="241.719" fill="#CF9962" width="2.314" height="4.35"/>
				<rect x="182.766" y="241.719" fill="#CF9962" width="2.313" height="4.35"/>
			</g>
			<g>
				<rect x="162.911" y="247.818" fill="#CF9962" width="2.312" height="4.35"/>
				<rect x="167.874" y="247.818" fill="#CF9962" width="2.314" height="4.35"/>
				<rect x="172.839" y="247.818" fill="#CF9962" width="2.313" height="4.35"/>
				<rect x="177.802" y="247.818" fill="#CF9962" width="2.314" height="4.35"/>
				<rect x="182.766" y="247.818" fill="#CF9962" width="2.313" height="4.35"/>
			</g>
			<g>
				<rect x="196.582" y="254.02" fill="#CF9962" width="5" height="16.86"/>
				<rect x="187.88" y="254.02" fill="#CF9962" width="4.999" height="16.86"/>
				<g>
					<rect x="155.11" y="254.02" fill="#CF9962" width="5.001" height="16.86"/>
					<rect x="146.41" y="254.02" fill="#CF9962" width="5" height="16.86"/>
				</g>
			</g>
			<g>
				<rect x="162.911" y="248.187" fill="#CF9962" width="2.312" height="4.35"/>
				<rect x="167.874" y="248.187" fill="#CF9962" width="2.314" height="4.35"/>
				<rect x="172.839" y="248.187" fill="#CF9962" width="2.313" height="4.35"/>
				<rect x="177.802" y="248.187" fill="#CF9962" width="2.314" height="4.35"/>
				<rect x="182.766" y="248.187" fill="#CF9962" width="2.313" height="4.35"/>
			</g>
			<g>
				<rect x="162.911" y="254.286" fill="#CF9962" width="2.312" height="4.35"/>
				<rect x="167.874" y="254.286" fill="#CF9962" width="2.314" height="4.35"/>
				<rect x="172.839" y="254.286" fill="#CF9962" width="2.313" height="4.35"/>
				<rect x="177.802" y="254.286" fill="#CF9962" width="2.314" height="4.35"/>
				<rect x="182.766" y="254.286" fill="#CF9962" width="2.313" height="4.35"/>
			</g>
			<g>
				<rect x="162.911" y="260.386" fill="#CF9962" width="2.312" height="4.35"/>
				<rect x="167.874" y="260.386" fill="#CF9962" width="2.314" height="4.35"/>
				<rect x="172.839" y="260.386" fill="#CF9962" width="2.313" height="4.35"/>
				<rect x="177.802" y="260.386" fill="#CF9962" width="2.314" height="4.35"/>
				<rect x="182.766" y="260.386" fill="#CF9962" width="2.313" height="4.35"/>
			</g>
			<g>
				<rect x="162.911" y="266.485" fill="#CF9962" width="2.312" height="4.35"/>
				<rect x="167.874" y="266.485" fill="#CF9962" width="2.314" height="4.35"/>
				<rect x="172.839" y="266.485" fill="#CF9962" width="2.313" height="4.35"/>
				<rect x="177.802" y="266.485" fill="#CF9962" width="2.314" height="4.35"/>
				<rect x="182.766" y="266.485" fill="#CF9962" width="2.313" height="4.35"/>
			</g>
			<polygon fill="#CF9962" points="167.261,54.662 171.056,44.941 176.905,44.941 180.729,54.662 			"/>
			<path fill="#FFCF89" d="M175.729,52.094c0-0.959-0.775-1.736-1.734-1.736c-0.958,0-1.736,0.777-1.736,1.736v3.818h3.471V52.094z"
				/>
			<rect x="162.286" y="72.598" fill="#CF9962" width="23.418" height="2.473"/>
			<path fill="#CF9962" d="M172.077,279.986c0-2.773-2.249-5.021-5.021-5.021c-2.773,0-5.021,2.248-5.021,5.021v7.475h10.042
				V279.986z"/>
			<path fill="#CF9962" d="M185.716,279.986c0-2.773-2.248-5.021-5.021-5.021s-5.021,2.248-5.021,5.021v7.475h10.042V279.986z"/>
			<path fill="#CF9962" d="M199.355,279.986c0-2.773-2.248-5.021-5.021-5.021s-5.021,2.248-5.021,5.021v7.475h10.042V279.986z"/>
			<path fill="#CF9962" d="M158.438,279.986c0-2.773-2.248-5.021-5.021-5.021c-2.774,0-5.021,2.248-5.021,5.021v7.475h10.041
				V279.986z"/>
		</g>
		<path fill="none" stroke="#78ACA8" stroke-width="12.7756" stroke-miterlimit="10" d="M199.416,184.936
			c0.932,0,1.736,0.047,2.617,0c6.484-0.35,18.098-4.262,18.098-18.525c0-8.547-5.715-17.26-17.562-17.26h-63.727
			c-9.729,0-17.561-8.93-17.561-19.791c0-10.725,8.221-18.559,17.647-18.559h14.053"/>
		<rect x="152.265" y="116.041" fill="#FCB319" width="43.461" height="3.85"/>
		<polygon fill="#CF9962" points="204.058,122.945 143.901,122.945 143.911,117.02 204.08,117.02 		"/>
		<g>
			<rect x="152.242" y="107.08" fill="#012A29" width="7.962" height="9.014"/>
			<rect x="187.787" y="107.08" fill="#012A29" width="7.96" height="9.014"/>
		</g>
		<path fill="none" stroke="#78ACA8" stroke-width="12.7756" stroke-miterlimit="10" d="M143.339,110.787
			c0.932,0,57.813,0.047,58.694,0c6.484-0.35,18.098-4.271,18.098-18.537c0-8.545-5.715-17.258-17.562-17.258h-3.02"/>
		<rect x="196.582" y="164.467" fill="#CF9962" width="5" height="27.584"/>
		<rect x="146.41" y="164.467" fill="#CF9962" width="5" height="27.584"/>
		<g>
			<polygon fill="#012A29" points="174.464,12.254 174.464,27.006 198.39,24.24 192.906,19.584 198.39,15.02 			"/>
			<polygon fill="#FBF7EE" points="186.081,18.709 193.957,18.709 196.464,16.623 178.152,14.514 			"/>
			<polygon fill="#FBF7EE" points="193.99,20.506 186.081,20.506 178.152,24.701 196.451,22.594 			"/>
			<polygon fill="#012A29" points="174.464,12.254 189.17,19.631 174.464,27.006 			"/>
			<circle fill="#FFFFFF" cx="178.982" cy="19.584" r="2.766"/>
			<circle fill="#012A29" cx="178.981" cy="19.584" r="1.844"/>
			<circle fill="#FBF7EE" cx="177.968" cy="15.205" r="0.508"/>
			<circle fill="#FBF7EE" cx="183.408" cy="18.479" r="0.507"/>
			<circle fill="#FBF7EE" cx="183.408" cy="21.014" r="0.507"/>
			<circle fill="#FBF7EE" cx="185.297" cy="19.676" r="0.507"/>
			<circle fill="#FBF7EE" cx="176.17" cy="16.127" r="0.507"/>
			<circle fill="#FBF7EE" cx="177.968" cy="24.195" r="0.508"/>
			<circle fill="#FBF7EE" cx="176.17" cy="23.273" r="0.507"/>
		</g>
		<g>
			<path fill="#78ACA8" d="M140.904,43.906c0,0,3.64,7.658,8.845,7.355c5.205-0.301,8.799-3.066,14.482-3.973
				c4.273-0.682,3.938-5.164,3.938-5.164L168.024,42c0,0,1.22-4.324-2.836-5.84c-5.389-2.016-8.364-5.439-13.406-6.768
				c-5.041-1.326-10.127,5.457-10.127,5.457"/>
			<g>
				
					<ellipse transform="matrix(-0.2938 0.9559 -0.9559 -0.2938 229.899 -101.7128)" fill="#012A29" cx="152.521" cy="34.064" rx="1.157" ry="2.549"/>
				<path fill="#012A29" d="M152.181,45.322c-1.346,0.418-2.284,1.248-2.096,1.857c0.188,0.611,1.431,0.768,2.775,0.354
					c1.348-0.414,2.285-1.242,2.098-1.855C154.771,45.066,153.525,44.91,152.181,45.322z"/>
			</g>
		</g>
		
			<path fill="none" stroke="#97BCB9" stroke-width="0.883" stroke-linecap="round" stroke-linejoin="round" stroke-miterlimit="10" d="
			M197.544,108.699c-1.424,0-2.576,0.969-2.576,2.164c0,1.191,1.152,2.16,2.576,2.16"/>
		
			<path fill="none" stroke="#97BCB9" stroke-width="0.883" stroke-linecap="round" stroke-linejoin="round" stroke-miterlimit="10" d="
			M200.121,110.863c-1.424,0-2.576,0.967-2.576,2.16s1.152,2.162,2.576,2.162"/>
		
			<path fill="none" stroke="#97BCB9" stroke-width="0.883" stroke-linecap="round" stroke-linejoin="round" stroke-miterlimit="10" d="
			M160.407,110.863c-1.423,0-2.576,0.967-2.576,2.16s1.153,2.162,2.576,2.162"/>
		
			<path fill="none" stroke="#97BCB9" stroke-width="0.883" stroke-linecap="round" stroke-linejoin="round" stroke-miterlimit="10" d="
			M145.418,76.646c1.423,0,2.576-0.969,2.576-2.162s-1.153-2.162-2.576-2.162"/>
		
			<path fill="none" stroke="#97BCB9" stroke-width="0.883" stroke-linecap="round" stroke-linejoin="round" stroke-miterlimit="10" d="
			M121.044,59.742c0,1.422,0.969,2.576,2.162,2.576s2.161-1.154,2.161-2.576"/>
		
			<path fill="none" stroke="#97BCB9" stroke-width="0.883" stroke-linecap="round" stroke-linejoin="round" stroke-miterlimit="10" d="
			M213.478,83.504c1.006,1.006,2.508,1.137,3.352,0.293s0.713-2.346-0.293-3.352"/>
		
			<path fill="none" stroke="#97BCB9" stroke-width="0.883" stroke-linecap="round" stroke-linejoin="round" stroke-miterlimit="10" d="
			M142.842,78.826c1.423,0,2.576-0.969,2.576-2.162s-1.153-2.162-2.576-2.162"/>
		<g>
			
				<path fill="none" stroke="#97BCB9" stroke-width="0.883" stroke-linecap="round" stroke-linejoin="round" stroke-miterlimit="10" d="
				M122.854,132.125c0,1.424,0.969,2.576,2.162,2.576s2.162-1.152,2.162-2.576"/>
			
				<path fill="none" stroke="#97BCB9" stroke-width="0.883" stroke-linecap="round" stroke-linejoin="round" stroke-miterlimit="10" d="
				M120.674,129.562c0,1.424,0.969,2.576,2.162,2.576s2.162-1.152,2.162-2.576"/>
		</g>
		<g>
			
				<path fill="none" stroke="#97BCB9" stroke-width="0.883" stroke-linecap="round" stroke-linejoin="round" stroke-miterlimit="10" d="
				M222.019,166.539c0,1.422-0.969,2.576-2.162,2.576c-1.193-0.002-2.162-1.154-2.162-2.576"/>
			
				<path fill="none" stroke="#97BCB9" stroke-width="0.883" stroke-linecap="round" stroke-linejoin="round" stroke-miterlimit="10" d="
				M224.199,163.977c0,1.422-0.969,2.574-2.162,2.574s-2.162-1.152-2.162-2.574"/>
		</g>
		<g>
			
				<path fill="none" stroke="#97BCB9" stroke-width="0.883" stroke-linecap="round" stroke-linejoin="round" stroke-miterlimit="10" d="
				M179.177,151.088c1.423,0,2.576-0.971,2.576-2.164s-1.153-2.162-2.576-2.162"/>
			
				<path fill="none" stroke="#97BCB9" stroke-width="0.883" stroke-linecap="round" stroke-linejoin="round" stroke-miterlimit="10" d="
				M184.316,151.088c1.423,0,2.575-0.971,2.575-2.164s-1.152-2.162-2.575-2.162"/>
			
				<path fill="none" stroke="#97BCB9" stroke-width="0.883" stroke-linecap="round" stroke-linejoin="round" stroke-miterlimit="10" d="
				M181.753,153.268c1.423,0,2.576-0.969,2.576-2.162s-1.153-2.162-2.576-2.162"/>
		</g>
		<g>
			<path fill="none" stroke="#78ACA8" stroke-width="12.7756" stroke-miterlimit="10" d="M180.283,220.744h-41.275
				c-9.729,0-17.561-6.375-17.561-17.236c0-10.723,8.221-18.559,17.647-18.559h7.665"/>
			<g>
				<path fill="#78ACA8" d="M198.275,214.291h-35.187v12.781h38.175c9.646,0,14.564,6.023,14.564,11.891
					c0,7.051-3.273,10.221-6.912,11.65c0.234,0.346,0.531,0.85,0.74,1.215c7.525-1.787,13.645-7.164,13.645-16.602
					C223.3,222.795,212.521,214.291,198.275,214.291z"/>
			</g>
		</g>
		<g>
			
				<path fill="none" stroke="#97BCB9" stroke-width="0.883" stroke-linecap="round" stroke-linejoin="round" stroke-miterlimit="10" d="
				M154.593,224.924c1.424,0,2.576-0.969,2.576-2.162s-1.152-2.162-2.576-2.162"/>
			
				<path fill="none" stroke="#97BCB9" stroke-width="0.883" stroke-linecap="round" stroke-linejoin="round" stroke-miterlimit="10" d="
				M152.017,222.762c1.423,0,2.576-0.967,2.576-2.162c0-1.193-1.153-2.16-2.576-2.16"/>
		</g>
		
			<path fill="none" stroke="#97BCB9" stroke-width="0.883" stroke-linecap="round" stroke-linejoin="round" stroke-miterlimit="10" d="
			M200.134,223.316c1.424,0,2.576-0.969,2.576-2.162c0-1.191-1.152-2.16-2.576-2.16"/>
		
			<path fill="none" stroke="#97BCB9" stroke-width="0.883" stroke-linecap="round" stroke-linejoin="round" stroke-miterlimit="10" d="
			M191.968,221.154c1.424,0,2.576-0.967,2.576-2.16c0-1.195-1.152-2.162-2.576-2.162"/>
		
			<path fill="none" stroke="#97BCB9" stroke-width="0.883" stroke-linecap="round" stroke-linejoin="round" stroke-miterlimit="10" d="
			M197.558,225.498c1.422,0,2.576-0.969,2.576-2.162c0-1.195-1.154-2.162-2.576-2.162"/>
	</g>
	<g>
		<g>
			<text transform="matrix(1 0 0 1 0 366.1807)"><tspan x="0" y="0" fill="#78ACA8" font-family="'Montserrat-ExtraBold'" font-size="88.6251" letter-spacing="6">P</tspan><tspan x="67.178" y="0" fill="#78ACA8" font-family="'Montserrat-ExtraBold'" font-size="88.6251" letter-spacing="4">Y</tspan><tspan x="133.823" y="0" fill="#78ACA8" font-family="'Montserrat-ExtraBold'" font-size="88.6251" letter-spacing="8">C</tspan><tspan x="203.836" y="0" fill="#78ACA8" font-family="'Montserrat-ExtraBold'" font-size="88.6251" letter-spacing="6">O</tspan><tspan x="281.559" y="0" fill="#78ACA8" font-family="'Montserrat-ExtraBold'" font-size="88.6251" letter-spacing="8">N</tspan></text>
		</g>
		<g>
			<text transform="matrix(1 0 0 1 2.5044 402.0967)"><tspan x="0" y="0" fill="#012A29" font-family="'Montserrat-Light'" font-size="30.7042" letter-spacing="6">CLEVELAND </tspan><tspan x="254.136" y="0" fill="#012A29" font-family="'Montserrat-ExtraBold'" font-size="30.7042" letter-spacing="6">2018</tspan></text>
		</g>
	</g>
</g>
</svg>
