<?xml version="1.0" encoding="utf-8"?>
<!-- Generator: Adobe Illustrator 16.0.0, SVG Export Plug-In . SVG Version: 6.00 Build 0)  -->
<!DOCTYPE svg PUBLIC "-//W3C//DTD SVG 1.1//EN" "http://www.w3.org/Graphics/SVG/1.1/DTD/svg11.dtd">
<svg version="1.1" id="Layer_1" xmlns="http://www.w3.org/2000/svg" xmlns:xlink="http://www.w3.org/1999/xlink" x="0px" y="0px"
	 width="360px" height="360px" viewBox="0 0 360 360" enable-background="new 0 0 360 360" xml:space="preserve">
<g opacity="0.5">
	<rect x="-6.5" y="-6" fill="#FFEACB" width="372" height="368"/>
	<g>
		<defs>
			<path id="SVGID_1_" d="M450.071,180c0,149.159-120.911,270.073-270.069,270.073C30.843,450.073-90.071,329.159-90.071,180
				c0-149.156,120.914-270.073,270.073-270.073C329.16-90.073,450.071,30.844,450.071,180z"/>
		</defs>
		<clipPath id="SVGID_2_">
			<use xlink:href="#SVGID_1_"  overflow="visible"/>
		</clipPath>
		<g clip-path="url(#SVGID_2_)">
			<g>
				<polygon fill="#FFE1B5" points="238.619,-124.28 174.847,187.82 111.07,-124.28 				"/>
				<polygon fill="#FFE1B5" points="111.07,484.284 174.847,172.183 238.619,484.284 				"/>
			</g>
			<g>
				<polygon fill="#FFE1B5" points="479.127,243.779 167.029,180 479.127,116.227 				"/>
				<polygon fill="#FFE1B5" points="-129.438,116.227 182.663,180 -129.438,243.779 				"/>
			</g>
			<g>
				<polygon fill="#FFE1B5" points="435.103,9.94 169.319,185.53 344.909,-80.256 				"/>
				<polygon fill="#FFE1B5" points="-85.41,350.066 180.373,174.473 4.783,440.256 				"/>
			</g>
			<g>
				<polygon fill="#FFE1B5" points="344.909,440.256 169.319,174.473 435.103,350.066 				"/>
				<polygon fill="#FFE1B5" points="4.783,-80.256 180.373,185.53 -85.41,9.938 				"/>
			</g>
		</g>
	</g>
</g>
<g>
	<path fill="none" stroke="#78ACA8" stroke-width="32.9973" stroke-miterlimit="10" d="M268.561,199.457
		c-3.332-0.656-6.909-1.01-10.732-1.01H93.228c-25.124,0-45.358-16.463-45.358-44.516c0-27.699,21.236-47.934,45.585-47.934h11.549"
		/>
	<g>
		<rect x="156.95" y="194.995" fill="#FFCF89" width="54.152" height="48.973"/>
		<rect x="127.899" y="246.949" fill="#FFCF89" width="112.253" height="67.466"/>
		<rect x="166.635" y="145.938" fill="#FFCF89" width="34.784" height="50.055"/>
		<polygon fill="#FFCF89" points="255.273,578.137 112.778,578.137 112.778,317.195 255.273,320.658 		"/>
		<rect x="111.822" y="341.426" fill="#CF9962" width="144.405" height="11.961"/>
		<g>
			<rect x="116.846" y="328.523" fill="#CF9962" width="8.129" height="8.123"/>
			<rect x="243.081" y="328.523" fill="#CF9962" width="8.126" height="8.123"/>
			<rect x="143.625" y="328.523" fill="#CF9962" width="20.067" height="8.123"/>
			<rect x="165.625" y="328.523" fill="#CF9962" width="20.062" height="8.123"/>
			<rect x="187.621" y="328.523" fill="#CF9962" width="20.068" height="8.123"/>
			<rect x="209.626" y="328.523" fill="#CF9962" width="20.065" height="8.123"/>
		</g>
		<g>
			<rect x="112.778" y="359.118" fill="#CF9962" width="18.171" height="64.69"/>
			<rect x="237.101" y="359.118" fill="#CF9962" width="18.173" height="64.69"/>
		</g>
		<polygon fill="#CF9962" points="255.984,322.304 112.068,322.304 106.323,307.001 261.729,307.001 		"/>
		<rect x="124.496" y="242.412" fill="#CF9962" width="119.058" height="5.736"/>
		<g>
			<rect x="127.844" y="246.715" fill="#CF9962" width="20.559" height="28.547"/>
			<rect x="219.649" y="246.715" fill="#CF9962" width="20.56" height="28.547"/>
		</g>
		<g>
			<rect x="127.844" y="281.328" fill="#CF9962" width="20.559" height="23.279"/>
			<rect x="219.649" y="281.328" fill="#CF9962" width="20.56" height="23.279"/>
		</g>
		<g>
			<polygon fill="#CF9962" points="151.076,211.759 144.342,198.174 137.6,211.759 137.6,242.835 151.076,242.835 			"/>
			<polygon fill="#CF9962" points="230.453,211.759 223.718,198.174 216.974,211.759 216.974,242.835 230.453,242.835 			"/>
		</g>
		<g>
			<rect x="157.037" y="201.894" fill="#CF9962" width="8.072" height="37.896"/>
			<rect x="202.943" y="201.894" fill="#CF9962" width="8.069" height="37.896"/>
		</g>
		<g>
			<rect x="168.727" y="201.894" fill="#CF9962" width="8.609" height="6.213"/>
			<rect x="179.725" y="201.894" fill="#CF9962" width="8.604" height="6.213"/>
			<rect x="190.724" y="201.894" fill="#CF9962" width="8.608" height="6.213"/>
		</g>
		<g>
			<rect x="168.727" y="212.122" fill="#CF9962" width="8.609" height="6.218"/>
			<rect x="179.725" y="212.122" fill="#CF9962" width="8.604" height="6.218"/>
			<rect x="190.724" y="212.122" fill="#CF9962" width="8.608" height="6.218"/>
		</g>
		<g>
			<rect x="168.727" y="222.356" fill="#CF9962" width="8.609" height="6.218"/>
			<rect x="179.725" y="222.356" fill="#CF9962" width="8.604" height="6.218"/>
			<rect x="190.724" y="222.356" fill="#CF9962" width="8.608" height="6.218"/>
		</g>
		<g>
			<rect x="168.727" y="233.57" fill="#CF9962" width="8.609" height="6.219"/>
			<rect x="179.725" y="233.57" fill="#CF9962" width="8.604" height="6.219"/>
			<rect x="190.724" y="233.57" fill="#CF9962" width="8.608" height="6.219"/>
		</g>
		<g>
			<rect x="153.901" y="251.979" fill="#CF9962" width="8.606" height="8.604"/>
			<rect x="166.812" y="251.979" fill="#CF9962" width="8.604" height="8.604"/>
			<rect x="179.725" y="251.979" fill="#CF9962" width="8.604" height="8.604"/>
			<rect x="192.631" y="251.979" fill="#CF9962" width="8.609" height="8.604"/>
			<rect x="205.542" y="251.979" fill="#CF9962" width="8.608" height="8.604"/>
		</g>
		<g>
			<rect x="153.901" y="281.328" fill="#CF9962" width="8.606" height="8.606"/>
			<rect x="166.812" y="281.328" fill="#CF9962" width="8.604" height="8.606"/>
			<rect x="179.725" y="281.328" fill="#CF9962" width="8.604" height="8.606"/>
			<rect x="192.631" y="281.328" fill="#CF9962" width="8.609" height="8.606"/>
			<rect x="205.542" y="281.328" fill="#CF9962" width="8.608" height="8.606"/>
		</g>
		<g>
			<rect x="153.901" y="264.372" fill="#CF9962" width="8.606" height="8.607"/>
			<rect x="166.812" y="264.372" fill="#CF9962" width="8.604" height="8.607"/>
			<rect x="179.725" y="264.372" fill="#CF9962" width="8.604" height="8.607"/>
			<rect x="192.631" y="264.372" fill="#CF9962" width="8.609" height="8.607"/>
			<rect x="205.542" y="264.372" fill="#CF9962" width="8.608" height="8.607"/>
		</g>
		<g>
			<rect x="153.901" y="296.002" fill="#CF9962" width="8.606" height="8.605"/>
			<rect x="166.812" y="296.002" fill="#CF9962" width="8.604" height="8.605"/>
			<rect x="179.725" y="296.002" fill="#CF9962" width="8.604" height="8.605"/>
			<rect x="192.631" y="296.002" fill="#CF9962" width="8.609" height="8.605"/>
			<rect x="205.542" y="296.002" fill="#CF9962" width="8.608" height="8.605"/>
		</g>
		<rect x="161.789" y="185.318" fill="#CF9962" width="44.475" height="8.444"/>
		<rect x="165.375" y="160.639" fill="#CF9962" width="37.297" height="3.59"/>
		<g>
			<rect x="165.375" y="162.435" fill="#CF9962" width="3.587" height="26.024"/>
			<rect x="173.807" y="162.435" fill="#CF9962" width="3.582" height="26.024"/>
			<rect x="182.23" y="162.435" fill="#CF9962" width="3.586" height="24.59"/>
			<rect x="190.661" y="162.435" fill="#CF9962" width="3.586" height="24.59"/>
			<rect x="199.089" y="162.435" fill="#CF9962" width="3.583" height="24.59"/>
		</g>
		<rect x="166.451" y="152.035" fill="#CF9962" width="35.147" height="3.59"/>
		<polygon fill="#CF9962" points="191.735,104.361 184.268,88.499 176.317,104.361 176.317,125.139 191.735,125.139 		"/>
		<rect x="182.413" y="36.191" fill="#CF9962" width="3.225" height="64.92"/>
		<polygon fill="#CF9962" points="166.635,145.938 176.433,120.834 191.543,120.834 201.419,145.938 		"/>
		<path fill="#FFCF89" d="M188.508,139.306c0-2.478-2.004-4.483-4.481-4.483c-2.473,0-4.484,2.006-4.484,4.483v9.862h8.966V139.306z
			"/>
		<rect x="153.784" y="192.263" fill="#CF9962" width="60.484" height="6.39"/>
	</g>
	<path fill="none" stroke="#78ACA8" stroke-width="32.9973" stroke-miterlimit="10" d="M249.68,482.414c2.408,0,4.486,0.123,6.76,0
		c16.746-0.9,46.743-11.01,46.743-47.85c0-22.076-14.758-44.575-45.354-44.575H93.228c-25.124,0-45.358-23.067-45.358-51.116
		c0-27.699,21.236-47.937,45.585-47.937h36.294"/>
	<rect x="127.899" y="304.472" fill="#FCB319" width="112.253" height="9.943"/>
	<polygon fill="#CF9962" points="261.674,322.304 106.301,322.304 106.323,307.001 261.729,307.001 	"/>
	<g>
		<rect x="127.844" y="281.328" fill="#012A29" width="20.559" height="23.279"/>
		<rect x="219.649" y="281.328" fill="#012A29" width="20.56" height="23.279"/>
	</g>
	<path fill="none" stroke="#78ACA8" stroke-width="32.9973" stroke-miterlimit="10" d="M104.846,290.902
		c2.407,0,149.32,0.121,151.594,0c16.746-0.9,46.743-11.034,46.743-47.881c0-22.074-14.758-44.574-45.354-44.574h-7.802"/>
	<g>
		<polygon fill="#012A29" points="185.235,36.41 185.235,74.509 247.034,67.368 232.867,55.34 247.034,43.55 		"/>
		<polygon fill="#FBF7EE" points="215.242,53.078 235.585,53.078 242.061,47.693 194.765,42.241 		"/>
		<polygon fill="#FBF7EE" points="235.672,57.72 215.242,57.72 194.765,68.556 242.021,63.11 		"/>
		<polygon fill="#012A29" points="185.235,36.41 223.22,55.46 185.235,74.509 		"/>
		<path fill="#FFFFFF" d="M204.051,55.34c0,3.944-3.197,7.146-7.144,7.146s-7.146-3.202-7.146-7.146
			c0-3.943,3.199-7.145,7.146-7.145S204.051,51.396,204.051,55.34z"/>
		<circle fill="#012A29" cx="196.906" cy="55.34" r="4.762"/>
		<circle fill="#FBF7EE" cx="194.286" cy="44.028" r="1.309"/>
		<circle fill="#FBF7EE" cx="208.337" cy="52.48" r="1.31"/>
		<path fill="#FBF7EE" d="M209.647,59.029c0,0.725-0.587,1.312-1.309,1.312c-0.725,0-1.312-0.588-1.312-1.312
			c0-0.719,0.587-1.31,1.312-1.31C209.061,57.72,209.647,58.311,209.647,59.029z"/>
		<circle fill="#FBF7EE" cx="213.218" cy="55.577" r="1.311"/>
		<path fill="#FBF7EE" d="M190.953,46.412c0,0.719-0.586,1.306-1.311,1.306c-0.724,0-1.309-0.587-1.309-1.306
			c0-0.726,0.585-1.312,1.309-1.312C190.367,45.1,190.953,45.687,190.953,46.412z"/>
		<circle fill="#FBF7EE" cx="194.286" cy="67.247" r="1.309"/>
		<path fill="#FBF7EE" d="M190.953,64.863c0-0.722-0.586-1.308-1.311-1.308c-0.724,0-1.309,0.586-1.309,1.308
			c0,0.726,0.585,1.31,1.309,1.31C190.367,66.173,190.953,65.589,190.953,64.863z"/>
	</g>
	<path fill="#78ACA8" d="M98.559,118.159c0,0,9.397,19.779,22.844,18.999c13.443-0.775,22.726-7.922,37.406-10.263
		c11.037-1.763,10.169-13.334,10.169-13.334l-0.023,0.023c0,0,2.802-11.519-7.673-15.436c-13.919-5.206-21.605-14.047-34.626-17.477
		c-13.021-3.426-26.158,14.092-26.158,14.092"/>
	<g>
		<path fill="#012A29" d="M127.682,95.593c-3.474-1.074-5.898-3.22-5.409-4.794c0.48-1.58,3.692-1.986,7.166-0.915
			c3.48,1.068,5.901,3.214,5.415,4.792C134.372,96.254,131.156,96.661,127.682,95.593z"/>
		<path fill="#012A29" d="M127.682,121.818c-3.474,1.078-5.898,3.22-5.409,4.797c0.48,1.578,3.692,1.982,7.166,0.912
			c3.48-1.068,5.901-3.214,5.415-4.791C134.372,121.159,131.156,120.75,127.682,121.818z"/>
	</g>
	<g>
		
			<path fill="none" stroke="#97BCB9" stroke-width="2.2807" stroke-linecap="round" stroke-linejoin="round" stroke-miterlimit="10" d="
			M244.85,285.51c-3.676,0-6.655,2.501-6.655,5.586c0,3.079,2.979,5.58,6.655,5.58"/>
		
			<path fill="none" stroke="#97BCB9" stroke-width="2.2807" stroke-linecap="round" stroke-linejoin="round" stroke-miterlimit="10" d="
			M251.504,291.096c-3.676,0-6.654,2.498-6.654,5.58c0,3.085,2.979,5.589,6.654,5.589"/>
		
			<path fill="none" stroke="#97BCB9" stroke-width="2.2807" stroke-linecap="round" stroke-linejoin="round" stroke-miterlimit="10" d="
			M148.932,291.096c-3.676,0-6.654,2.498-6.654,5.58c0,3.085,2.979,5.589,6.654,5.589"/>
		
			<path fill="none" stroke="#97BCB9" stroke-width="2.2807" stroke-linecap="round" stroke-linejoin="round" stroke-miterlimit="10" d="
			M110.217,202.718c3.675,0,6.651-2.496,6.651-5.582c0-3.081-2.977-5.583-6.651-5.583"/>
		
			<path fill="none" stroke="#97BCB9" stroke-width="2.2807" stroke-linecap="round" stroke-linejoin="round" stroke-miterlimit="10" d="
			M47.26,159.06c0,3.672,2.501,6.65,5.583,6.65c3.085,0,5.586-2.979,5.586-6.65"/>
		
			<path fill="none" stroke="#97BCB9" stroke-width="2.2807" stroke-linecap="round" stroke-linejoin="round" stroke-miterlimit="10" d="
			M286.006,220.43c2.598,2.601,6.476,2.938,8.651,0.758c2.182-2.178,1.846-6.055-0.756-8.65"/>
		
			<path fill="none" stroke="#97BCB9" stroke-width="2.2807" stroke-linecap="round" stroke-linejoin="round" stroke-miterlimit="10" d="
			M103.562,208.354c3.677,0,6.655-2.502,6.655-5.589c0-3.082-2.979-5.582-6.655-5.582"/>
		<g>
			
				<path fill="none" stroke="#97BCB9" stroke-width="2.2807" stroke-linecap="round" stroke-linejoin="round" stroke-miterlimit="10" d="
				M51.937,346.018c0,3.671,2.504,6.65,5.586,6.65c3.085,0,5.583-2.979,5.583-6.65"/>
			
				<path fill="none" stroke="#97BCB9" stroke-width="2.2807" stroke-linecap="round" stroke-linejoin="round" stroke-miterlimit="10" d="
				M46.307,339.393c0,3.679,2.5,6.652,5.585,6.652c3.082,0,5.583-2.974,5.583-6.652"/>
		</g>
	</g>
</g>
</svg>
