<?xml version="1.0" encoding="utf-8"?>
<!-- Generator: Adobe Illustrator 16.0.0, SVG Export Plug-In . SVG Version: 6.00 Build 0)  -->
<!DOCTYPE svg PUBLIC "-//W3C//DTD SVG 1.1//EN" "http://www.w3.org/Graphics/SVG/1.1/DTD/svg11.dtd">
<svg version="1.1" id="Layer_1" xmlns="http://www.w3.org/2000/svg" xmlns:xlink="http://www.w3.org/1999/xlink" x="0px" y="0px"
	 width="497.015px" height="178.694px" viewBox="0 0 497.015 178.694" enable-background="new 0 0 497.015 178.694"
	 xml:space="preserve">
<g>
	<g>
		<g>
			<text transform="matrix(1 0 0 1 185.7056 96.9795)"><tspan x="0" y="0" fill="#78ACA8" font-family="'Montserrat-ExtraBold'" font-size="77" letter-spacing="5">P</tspan><tspan x="58.366" y="0" fill="#78ACA8" font-family="'Montserrat-ExtraBold'" font-size="77" letter-spacing="3">Y</tspan><tspan x="116.27" y="0" fill="#78ACA8" font-family="'Montserrat-ExtraBold'" font-size="77" letter-spacing="7">C</tspan><tspan x="177.099" y="0" fill="#78ACA8" font-family="'Montserrat-ExtraBold'" font-size="77" letter-spacing="5">O</tspan><tspan x="244.627" y="0" fill="#78ACA8" font-family="'Montserrat-ExtraBold'" font-size="77" letter-spacing="7">N</tspan></text>
		</g>
		<g>
			<text transform="matrix(1 0 0 1 187.8813 128.1836)"><tspan x="0" y="0" fill="#012A29" font-family="'Montserrat-Light'" font-size="26.6767" letter-spacing="5">CLEVELAND </tspan><tspan x="220.801" y="0" fill="#012A29" font-family="'Montserrat-ExtraBold'" font-size="26.6767" letter-spacing="5">2018</tspan></text>
		</g>
	</g>
	<g>
		<circle opacity="0.5" fill="#FFEACB" cx="89.452" cy="87.962" r="78.073"/>
		<g opacity="0.5">
			<defs>
				<circle id="SVGID_4_" opacity="0.5" cx="89.452" cy="87.962" r="78.073"/>
			</defs>
			<clipPath id="SVGID_2_">
				<use xlink:href="#SVGID_4_"  overflow="visible"/>
			</clipPath>
			<g clip-path="url(#SVGID_2_)">
				<g>
					<polygon fill="#FFE1B5" points="106.398,0 87.962,90.223 69.526,0 					"/>
					<polygon fill="#FFE1B5" points="69.526,175.925 87.962,85.702 106.398,175.925 					"/>
				</g>
				<g>
					<polygon fill="#FFE1B5" points="175.924,106.399 85.702,87.962 175.924,69.526 					"/>
					<polygon fill="#FFE1B5" points="0,69.526 90.223,87.962 0,106.399 					"/>
				</g>
				<g>
					<polygon fill="#FFE1B5" points="163.198,38.801 86.364,89.561 137.125,12.727 					"/>
					<polygon fill="#FFE1B5" points="12.727,137.125 89.56,86.364 38.8,163.197 					"/>
				</g>
				<g>
					<polygon fill="#FFE1B5" points="137.125,163.197 86.365,86.364 163.198,137.125 					"/>
					<polygon fill="#FFE1B5" points="38.8,12.727 89.561,89.561 12.727,38.8 					"/>
				</g>
			</g>
		</g>
		<g>
			<defs>
				<circle id="SVGID_6_" cx="89.452" cy="87.962" r="78.073"/>
			</defs>
			<clipPath id="SVGID_3_">
				<use xlink:href="#SVGID_6_"  overflow="visible"/>
			</clipPath>
			<g clip-path="url(#SVGID_3_)">
				<path fill="none" stroke="#78ACA8" stroke-width="10.755" stroke-miterlimit="10" d="M117.497,83.022
					c-1.086-0.214-2.252-0.328-3.499-0.328H60.349c-8.189,0-14.783-5.367-14.783-14.51c0-9.028,6.92-15.624,14.857-15.624h3.764"/>
				<g>
					<rect x="81.118" y="81.568" fill="#FFCF89" width="17.651" height="15.962"/>
					<rect x="71.65" y="98.503" fill="#FFCF89" width="36.587" height="21.989"/>
					<rect x="84.275" y="65.579" fill="#FFCF89" width="11.337" height="16.313"/>
					<polygon fill="#FFCF89" points="113.167,206.448 66.722,206.448 66.722,121.397 113.167,122.525 					"/>
					<g>
						<rect x="108.958" y="158.017" fill="#CF9962" width="4.208" height="23.223"/>
						<rect x="101.633" y="158.017" fill="#CF9962" width="4.208" height="23.223"/>
						<g>
							<rect x="74.047" y="158.017" fill="#CF9962" width="4.209" height="23.223"/>
							<rect x="66.722" y="158.017" fill="#CF9962" width="4.209" height="23.223"/>
						</g>
					</g>
					<rect x="66.411" y="129.296" fill="#CF9962" width="47.067" height="3.898"/>
					<g>
						<rect x="68.048" y="125.091" fill="#CF9962" width="2.649" height="2.646"/>
						<rect x="109.192" y="125.091" fill="#CF9962" width="2.649" height="2.646"/>
						<rect x="76.776" y="125.091" fill="#CF9962" width="6.54" height="2.646"/>
						<rect x="83.946" y="125.091" fill="#CF9962" width="6.54" height="2.646"/>
						<rect x="91.116" y="125.091" fill="#CF9962" width="6.542" height="2.646"/>
						<rect x="98.288" y="125.091" fill="#CF9962" width="6.54" height="2.646"/>
					</g>
					<g>
						<rect x="66.722" y="135.063" fill="#CF9962" width="5.923" height="21.084"/>
						<rect x="107.243" y="135.063" fill="#CF9962" width="5.923" height="21.084"/>
						<path fill="#CF9962" d="M81.06,138.805c0-1.205-0.977-2.183-2.183-2.183s-2.182,0.978-2.182,2.183v9.761h4.365V138.805z"/>
						<path fill="#CF9962" d="M86.981,138.805c0-1.205-0.977-2.183-2.182-2.183c-1.204,0-2.18,0.978-2.18,2.183v9.761h4.362V138.805
							z"/>
						<path fill="#CF9962" d="M104.749,138.805c0-1.205-0.977-2.183-2.182-2.183s-2.182,0.978-2.182,2.183v9.761h4.364V138.805z"/>
						<path fill="#CF9962" d="M92.904,138.805c0-1.205-0.977-2.183-2.183-2.183c-1.206,0-2.182,0.978-2.182,2.183v9.761h4.365
							V138.805z"/>
						<path fill="#CF9962" d="M98.826,138.805c0-1.205-0.977-2.183-2.182-2.183s-2.182,0.978-2.182,2.183v9.761h4.364V138.805z"/>
						<rect x="76.695" y="151.315" fill="#CF9962" width="3.273" height="2.65"/>
						<rect x="101.477" y="151.315" fill="#CF9962" width="3.272" height="2.65"/>
						<rect x="95.281" y="151.315" fill="#CF9962" width="3.271" height="2.65"/>
						<rect x="89.086" y="151.315" fill="#CF9962" width="3.273" height="2.65"/>
						<rect x="82.89" y="151.315" fill="#CF9962" width="3.273" height="2.65"/>
						<rect x="76.695" y="150.38" fill="#CF9962" width="28.053" height="1.403"/>
					</g>
					<polygon fill="#CF9962" points="113.397,123.062 66.49,123.062 64.618,118.075 115.27,118.075 					"/>
					<rect x="70.541" y="97.023" fill="#CF9962" width="38.807" height="1.87"/>
					<g>
						<rect x="71.632" y="98.426" fill="#CF9962" width="6.702" height="9.304"/>
						<rect x="101.555" y="98.426" fill="#CF9962" width="6.702" height="9.304"/>
					</g>
					<g>
						<rect x="71.632" y="109.707" fill="#CF9962" width="6.702" height="7.588"/>
						<rect x="101.555" y="109.707" fill="#CF9962" width="6.702" height="7.588"/>
					</g>
					<g>
						<polygon fill="#CF9962" points="79.205,87.032 77.009,82.604 74.812,87.032 74.812,97.161 79.205,97.161 						"/>
						<polygon fill="#CF9962" points="105.076,87.032 102.88,82.604 100.683,87.032 100.683,97.161 105.076,97.161 						"/>
					</g>
					<g>
						<rect x="81.147" y="83.816" fill="#CF9962" width="2.631" height="12.352"/>
						<rect x="96.11" y="83.816" fill="#CF9962" width="2.63" height="12.352"/>
					</g>
					<g>
						<rect x="84.957" y="83.816" fill="#CF9962" width="2.807" height="2.025"/>
						<rect x="88.542" y="83.816" fill="#CF9962" width="2.805" height="2.025"/>
						<rect x="92.126" y="83.816" fill="#CF9962" width="2.806" height="2.025"/>
					</g>
					<g>
						<rect x="84.957" y="87.15" fill="#CF9962" width="2.807" height="2.026"/>
						<rect x="88.542" y="87.15" fill="#CF9962" width="2.805" height="2.026"/>
						<rect x="92.126" y="87.15" fill="#CF9962" width="2.806" height="2.026"/>
					</g>
					<g>
						<rect x="84.957" y="90.486" fill="#CF9962" width="2.807" height="2.026"/>
						<rect x="88.542" y="90.486" fill="#CF9962" width="2.805" height="2.026"/>
						<rect x="92.126" y="90.486" fill="#CF9962" width="2.806" height="2.026"/>
					</g>
					<g>
						<rect x="84.957" y="94.142" fill="#CF9962" width="2.807" height="2.026"/>
						<rect x="88.542" y="94.142" fill="#CF9962" width="2.805" height="2.026"/>
						<rect x="92.126" y="94.142" fill="#CF9962" width="2.806" height="2.026"/>
					</g>
					<g>
						<rect x="80.125" y="100.141" fill="#CF9962" width="2.805" height="2.806"/>
						<rect x="84.333" y="100.141" fill="#CF9962" width="2.806" height="2.806"/>
						<rect x="88.542" y="100.141" fill="#CF9962" width="2.805" height="2.806"/>
						<rect x="92.749" y="100.141" fill="#CF9962" width="2.805" height="2.806"/>
						<rect x="96.958" y="100.141" fill="#CF9962" width="2.805" height="2.806"/>
					</g>
					<g>
						<rect x="80.125" y="109.707" fill="#CF9962" width="2.805" height="2.806"/>
						<rect x="84.333" y="109.707" fill="#CF9962" width="2.806" height="2.806"/>
						<rect x="88.542" y="109.707" fill="#CF9962" width="2.805" height="2.806"/>
						<rect x="92.749" y="109.707" fill="#CF9962" width="2.805" height="2.806"/>
						<rect x="96.958" y="109.707" fill="#CF9962" width="2.805" height="2.806"/>
					</g>
					<g>
						<rect x="80.125" y="104.181" fill="#CF9962" width="2.805" height="2.805"/>
						<rect x="84.333" y="104.181" fill="#CF9962" width="2.806" height="2.805"/>
						<rect x="88.542" y="104.181" fill="#CF9962" width="2.805" height="2.805"/>
						<rect x="92.749" y="104.181" fill="#CF9962" width="2.805" height="2.805"/>
						<rect x="96.958" y="104.181" fill="#CF9962" width="2.805" height="2.805"/>
					</g>
					<g>
						<rect x="80.125" y="114.49" fill="#CF9962" width="2.805" height="2.805"/>
						<rect x="84.333" y="114.49" fill="#CF9962" width="2.806" height="2.805"/>
						<rect x="88.542" y="114.49" fill="#CF9962" width="2.805" height="2.805"/>
						<rect x="92.749" y="114.49" fill="#CF9962" width="2.805" height="2.805"/>
						<rect x="96.958" y="114.49" fill="#CF9962" width="2.805" height="2.805"/>
					</g>
					<rect x="82.696" y="78.414" fill="#CF9962" width="14.495" height="2.752"/>
					<rect x="83.866" y="70.37" fill="#CF9962" width="12.156" height="1.17"/>
					<g>
						<rect x="83.866" y="70.956" fill="#CF9962" width="1.169" height="8.482"/>
						<rect x="86.613" y="70.956" fill="#CF9962" width="1.168" height="8.482"/>
						<rect x="89.359" y="70.956" fill="#CF9962" width="1.169" height="8.015"/>
						<rect x="92.107" y="70.956" fill="#CF9962" width="1.168" height="8.015"/>
						<rect x="94.854" y="70.956" fill="#CF9962" width="1.168" height="8.015"/>
					</g>
					<rect x="84.216" y="67.566" fill="#CF9962" width="11.456" height="1.169"/>
					<polygon fill="#CF9962" points="92.457,52.027 90.022,46.857 87.431,52.027 87.431,58.799 92.457,58.799 					"/>
					<rect x="89.418" y="29.808" fill="#CF9962" width="1.052" height="21.161"/>
					<g>
						<rect x="80.613" y="157.86" fill="#CF9962" width="1.947" height="2.728"/>
						<rect x="84.791" y="157.86" fill="#CF9962" width="1.948" height="2.728"/>
						<rect x="88.97" y="157.86" fill="#CF9962" width="1.948" height="2.728"/>
						<rect x="93.149" y="157.86" fill="#CF9962" width="1.948" height="2.728"/>
						<rect x="97.328" y="157.86" fill="#CF9962" width="1.948" height="2.728"/>
					</g>
					<g>
						<rect x="80.613" y="162.575" fill="#CF9962" width="1.947" height="2.727"/>
						<rect x="84.791" y="162.575" fill="#CF9962" width="1.948" height="2.727"/>
						<rect x="88.97" y="162.575" fill="#CF9962" width="1.948" height="2.727"/>
						<rect x="93.149" y="162.575" fill="#CF9962" width="1.948" height="2.727"/>
						<rect x="97.328" y="162.575" fill="#CF9962" width="1.948" height="2.727"/>
					</g>
					<g>
						<rect x="80.613" y="167.213" fill="#CF9962" width="1.947" height="3.663"/>
						<rect x="84.791" y="167.213" fill="#CF9962" width="1.948" height="3.663"/>
						<rect x="88.97" y="167.213" fill="#CF9962" width="1.948" height="3.663"/>
						<rect x="93.149" y="167.213" fill="#CF9962" width="1.948" height="3.663"/>
						<rect x="97.328" y="167.213" fill="#CF9962" width="1.948" height="3.663"/>
					</g>
					<g>
						<rect x="80.613" y="172.278" fill="#CF9962" width="1.947" height="3.662"/>
						<rect x="84.791" y="172.278" fill="#CF9962" width="1.948" height="3.662"/>
						<rect x="88.97" y="172.278" fill="#CF9962" width="1.948" height="3.662"/>
						<rect x="93.149" y="172.278" fill="#CF9962" width="1.948" height="3.662"/>
						<rect x="97.328" y="172.278" fill="#CF9962" width="1.948" height="3.662"/>
					</g>
					<g>
						<rect x="80.613" y="177.733" fill="#CF9962" width="1.947" height="3.66"/>
						<rect x="84.791" y="177.733" fill="#CF9962" width="1.948" height="3.66"/>
						<rect x="88.97" y="177.733" fill="#CF9962" width="1.948" height="3.66"/>
						<rect x="93.149" y="177.733" fill="#CF9962" width="1.948" height="3.66"/>
						<rect x="97.328" y="177.733" fill="#CF9962" width="1.948" height="3.66"/>
					</g>
					<polygon fill="#CF9962" points="84.275,65.579 87.469,57.396 92.394,57.396 95.612,65.579 					"/>
					<path fill="#FFCF89" d="M91.405,63.417c0-0.808-0.654-1.461-1.461-1.461c-0.806,0-1.46,0.653-1.46,1.461v3.215h2.922V63.417z"
						/>
					<rect x="80.087" y="80.678" fill="#CF9962" width="19.715" height="2.082"/>
				</g>
				<path fill="none" stroke="#78ACA8" stroke-width="10.755" stroke-miterlimit="10" d="M111.343,175.249
					c0.785,0,1.462,0.04,2.203,0c5.459-0.293,15.236-3.588,15.236-15.596c0-7.195-4.811-14.529-14.784-14.529H60.349
					c-8.189,0-14.783-7.518-14.783-16.661c0-9.028,6.92-15.624,14.857-15.624h11.831"/>
				<rect x="71.65" y="117.251" fill="#FCB319" width="36.587" height="3.241"/>
				<polygon fill="#CF9962" points="115.252,123.062 64.61,123.062 64.618,118.075 115.27,118.075 				"/>
				<g>
					<rect x="71.632" y="109.707" fill="#012A29" width="6.702" height="7.588"/>
					<rect x="101.555" y="109.707" fill="#012A29" width="6.702" height="7.588"/>
				</g>
				<path fill="none" stroke="#78ACA8" stroke-width="10.755" stroke-miterlimit="10" d="M64.136,112.828
					c0.785,0,48.669,0.04,49.41,0c5.459-0.294,15.236-3.597,15.236-15.605c0-7.194-4.811-14.528-14.784-14.528h-2.543"/>
				<rect x="108.958" y="158.017" fill="#CF9962" width="4.208" height="23.223"/>
				<rect x="66.722" y="158.017" fill="#CF9962" width="4.209" height="23.223"/>
				<g>
					<polygon fill="#012A29" points="90.338,29.879 90.338,42.298 110.481,39.97 105.863,36.05 110.481,32.207 					"/>
					<polygon fill="#FBF7EE" points="100.119,35.312 106.749,35.312 108.859,33.557 93.444,31.78 					"/>
					<polygon fill="#FBF7EE" points="106.777,36.825 100.119,36.825 93.444,40.356 108.847,38.582 					"/>
					<polygon fill="#012A29" points="90.338,29.879 102.719,36.088 90.338,42.298 					"/>
					<circle fill="#FFFFFF" cx="94.142" cy="36.05" r="2.329"/>
					<circle fill="#012A29" cx="94.142" cy="36.05" r="1.552"/>
					<circle fill="#FBF7EE" cx="93.289" cy="32.362" r="0.427"/>
					<circle fill="#FBF7EE" cx="97.868" cy="35.118" r="0.427"/>
					<circle fill="#FBF7EE" cx="97.868" cy="37.253" r="0.427"/>
					<circle fill="#FBF7EE" cx="99.459" cy="36.127" r="0.427"/>
					<circle fill="#FBF7EE" cx="91.775" cy="33.139" r="0.427"/>
					<circle fill="#FBF7EE" cx="93.289" cy="39.931" r="0.427"/>
					<circle fill="#FBF7EE" cx="91.775" cy="39.154" r="0.427"/>
				</g>
				<path fill="#78ACA8" d="M62.087,56.525c0,0,3.064,6.445,7.446,6.191c4.382-0.253,7.407-2.581,12.191-3.345
					c3.598-0.574,3.315-4.347,3.315-4.347l-0.122-0.105c0,0,1.026-3.641-2.387-4.917c-4.537-1.696-7.042-4.578-11.286-5.695
					C67,43.189,62.719,48.9,62.719,48.9"/>
				<g>
					
						<ellipse transform="matrix(-0.2939 0.9558 -0.9558 -0.2939 139.0944 -6.2769)" fill="#012A29" cx="71.866" cy="48.239" rx="0.974" ry="2.146"/>
					
						<ellipse transform="matrix(-0.2939 -0.9558 0.9558 -0.2939 36.9274 144.5749)" fill="#012A29" cx="71.866" cy="58.647" rx="0.974" ry="2.146"/>
				</g>
				<g>
					<path fill="none" stroke="#78ACA8" stroke-width="10.755" stroke-miterlimit="10" d="M95.097,205.394H60.349
						c-8.189,0-14.783-5.365-14.783-14.51c0-9.027,6.92-15.623,14.857-15.623h6.453"/>
				</g>
				<g>
					
						<path fill="none" stroke="#97BCB9" stroke-width="0.7434" stroke-linecap="round" stroke-linejoin="round" stroke-miterlimit="10" d="
						M109.769,111.07c-1.198,0-2.168,0.815-2.168,1.821c0,1.004,0.97,1.818,2.168,1.818"/>
					
						<path fill="none" stroke="#97BCB9" stroke-width="0.7434" stroke-linecap="round" stroke-linejoin="round" stroke-miterlimit="10" d="
						M111.937,112.892c-1.198,0-2.168,0.813-2.168,1.818s0.971,1.821,2.168,1.821"/>
					
						<path fill="none" stroke="#97BCB9" stroke-width="0.7434" stroke-linecap="round" stroke-linejoin="round" stroke-miterlimit="10" d="
						M78.505,112.892c-1.198,0-2.169,0.813-2.169,1.818s0.971,1.821,2.169,1.821"/>
					
						<path fill="none" stroke="#97BCB9" stroke-width="0.7434" stroke-linecap="round" stroke-linejoin="round" stroke-miterlimit="10" d="
						M65.887,84.086c1.198,0,2.168-0.814,2.168-1.819s-0.971-1.82-2.168-1.82"/>
					
						<path fill="none" stroke="#97BCB9" stroke-width="0.7434" stroke-linecap="round" stroke-linejoin="round" stroke-miterlimit="10" d="
						M45.367,69.855c0,1.196,0.815,2.169,1.82,2.169c1.004,0,1.82-0.973,1.82-2.169"/>
					
						<path fill="none" stroke="#97BCB9" stroke-width="0.7434" stroke-linecap="round" stroke-linejoin="round" stroke-miterlimit="10" d="
						M123.183,89.859c0.847,0.847,2.11,0.958,2.82,0.246c0.711-0.711,0.6-1.974-0.246-2.82"/>
					
						<path fill="none" stroke="#97BCB9" stroke-width="0.7434" stroke-linecap="round" stroke-linejoin="round" stroke-miterlimit="10" d="
						M63.718,85.922c1.198,0,2.169-0.815,2.169-1.82s-0.971-1.819-2.169-1.819"/>
					<g>
						
							<path fill="none" stroke="#97BCB9" stroke-width="0.7434" stroke-linecap="round" stroke-linejoin="round" stroke-miterlimit="10" d="
							M46.892,130.792c0,1.197,0.815,2.168,1.82,2.168c1.004,0,1.82-0.971,1.82-2.168"/>
						
							<path fill="none" stroke="#97BCB9" stroke-width="0.7434" stroke-linecap="round" stroke-linejoin="round" stroke-miterlimit="10" d="
							M45.056,128.633c0,1.199,0.815,2.169,1.82,2.169s1.82-0.97,1.82-2.169"/>
					</g>
					<g>
						
							<path fill="none" stroke="#97BCB9" stroke-width="0.7434" stroke-linecap="round" stroke-linejoin="round" stroke-miterlimit="10" d="
							M130.373,159.763c0,1.197-0.815,2.168-1.82,2.168c-1.005-0.001-1.819-0.971-1.82-2.168"/>
						
							<path fill="none" stroke="#97BCB9" stroke-width="0.7434" stroke-linecap="round" stroke-linejoin="round" stroke-miterlimit="10" d="
							M132.208,157.604c0,1.197-0.816,2.168-1.82,2.168c-1.005,0-1.82-0.971-1.82-2.168"/>
					</g>
					<g>
						
							<path fill="none" stroke="#97BCB9" stroke-width="0.7434" stroke-linecap="round" stroke-linejoin="round" stroke-miterlimit="10" d="
							M94.306,146.754c1.198,0,2.169-0.816,2.169-1.821c0-1.004-0.971-1.819-2.169-1.819"/>
						
							<path fill="none" stroke="#97BCB9" stroke-width="0.7434" stroke-linecap="round" stroke-linejoin="round" stroke-miterlimit="10" d="
							M98.633,146.754c1.197,0,2.168-0.816,2.168-1.821c0-1.004-0.971-1.819-2.168-1.819"/>
						
							<path fill="none" stroke="#97BCB9" stroke-width="0.7434" stroke-linecap="round" stroke-linejoin="round" stroke-miterlimit="10" d="
							M96.475,148.589c1.197,0,2.168-0.814,2.168-1.819s-0.971-1.82-2.168-1.82"/>
					</g>
				</g>
			</g>
		</g>
		<g>
			<path fill="#012A29" d="M89.453,9.889c43.119,0,78.073,34.955,78.073,78.073c0,43.119-34.954,78.073-78.073,78.073
				s-78.073-34.954-78.073-78.073C11.379,44.844,46.334,9.889,89.453,9.889 M89.453,3.889c-46.358,0-84.073,37.715-84.073,84.073
				s37.715,84.073,84.073,84.073s84.073-37.715,84.073-84.073S135.811,3.889,89.453,3.889L89.453,3.889z"/>
		</g>
	</g>
</g>
</svg>
