<?xml version="1.0" encoding="utf-8"?>
<!-- Generator: Adobe Illustrator 16.0.0, SVG Export Plug-In . SVG Version: 6.00 Build 0)  -->
<!DOCTYPE svg PUBLIC "-//W3C//DTD SVG 1.1//EN" "http://www.w3.org/Graphics/SVG/1.1/DTD/svg11.dtd">
<svg version="1.1" id="Layer_1" xmlns="http://www.w3.org/2000/svg" xmlns:xlink="http://www.w3.org/1999/xlink" x="0px" y="0px"
	 width="456px" height="235px" viewBox="0 0 456 235" enable-background="new 0 0 456 235" xml:space="preserve">
<g>
	<g>
		<g>
			<path fill="none" stroke="#78ACA8" stroke-width="11.5205" stroke-miterlimit="10" d="M96.47,67.975
				c-1.163-0.229-2.412-0.353-3.747-0.353H35.255c-8.772,0-15.835-5.748-15.835-15.542c0-9.671,7.413-16.735,15.915-16.735h4.032"/>
			<g>
				<rect x="57.502" y="66.417" fill="#FFCF89" width="18.907" height="17.098"/>
				<rect x="47.36" y="84.556" fill="#FFCF89" width="39.191" height="23.555"/>
				<rect x="60.884" y="49.289" fill="#FFCF89" width="12.144" height="17.476"/>
				<polygon fill="#FFCF89" points="91.832,200.185 42.081,200.185 42.081,109.081 91.832,110.29 				"/>
				<g>
					<rect x="87.323" y="148.306" fill="#CF9962" width="4.508" height="24.876"/>
					<rect x="79.478" y="148.306" fill="#CF9962" width="4.507" height="24.876"/>
					<g>
						<rect x="49.927" y="148.306" fill="#CF9962" width="4.509" height="24.876"/>
						<rect x="42.081" y="148.306" fill="#CF9962" width="4.509" height="24.876"/>
					</g>
				</g>
				<g>
					<rect x="87.323" y="175.352" fill="#CF9962" width="4.508" height="24.876"/>
					<rect x="79.478" y="175.352" fill="#CF9962" width="4.507" height="24.876"/>
					<g>
						<rect x="49.927" y="175.352" fill="#CF9962" width="4.509" height="24.876"/>
						<rect x="42.081" y="175.352" fill="#CF9962" width="4.509" height="24.876"/>
					</g>
				</g>
				<rect x="41.748" y="117.541" fill="#CF9962" width="50.417" height="4.176"/>
				<g>
					<rect x="43.501" y="113.036" fill="#CF9962" width="2.837" height="2.836"/>
					<rect x="87.574" y="113.036" fill="#CF9962" width="2.837" height="2.836"/>
					<rect x="52.851" y="113.036" fill="#CF9962" width="7.005" height="2.836"/>
					<rect x="60.531" y="113.036" fill="#CF9962" width="7.005" height="2.836"/>
					<rect x="68.211" y="113.036" fill="#CF9962" width="7.007" height="2.836"/>
					<rect x="75.894" y="113.036" fill="#CF9962" width="7.006" height="2.836"/>
				</g>
				<g>
					<rect x="42.081" y="123.718" fill="#CF9962" width="6.344" height="22.586"/>
					<rect x="85.486" y="123.718" fill="#CF9962" width="6.345" height="22.586"/>
					<path fill="#CF9962" d="M57.44,127.727c0-1.291-1.047-2.337-2.338-2.337c-1.292,0-2.338,1.046-2.338,2.337v10.456h4.676
						V127.727z"/>
					<path fill="#CF9962" d="M63.782,127.727c0-1.291-1.046-2.337-2.336-2.337c-1.29,0-2.336,1.046-2.336,2.337v10.456h4.672
						V127.727z"/>
					<path fill="#CF9962" d="M82.814,127.727c0-1.291-1.046-2.337-2.337-2.337c-1.291,0-2.337,1.046-2.337,2.337v10.456h4.674
						V127.727z"/>
					<path fill="#CF9962" d="M70.127,127.727c0-1.291-1.046-2.337-2.338-2.337c-1.292,0-2.338,1.046-2.338,2.337v10.456h4.676
						V127.727z"/>
					<path fill="#CF9962" d="M76.471,127.727c0-1.291-1.047-2.337-2.337-2.337c-1.291,0-2.338,1.046-2.338,2.337v10.456h4.675
						V127.727z"/>
					<rect x="52.764" y="141.128" fill="#CF9962" width="3.506" height="2.838"/>
					<rect x="79.309" y="141.128" fill="#CF9962" width="3.505" height="2.838"/>
					<rect x="72.673" y="141.128" fill="#CF9962" width="3.504" height="2.838"/>
					<rect x="66.037" y="141.128" fill="#CF9962" width="3.505" height="2.838"/>
					<rect x="59.399" y="141.128" fill="#CF9962" width="3.506" height="2.838"/>
					<rect x="52.764" y="140.127" fill="#CF9962" width="30.05" height="1.502"/>
				</g>
				<polygon fill="#CF9962" points="92.079,110.864 41.833,110.864 39.827,105.521 94.084,105.521 				"/>
				<rect x="46.172" y="82.972" fill="#CF9962" width="41.568" height="2.003"/>
				<g>
					<rect x="47.34" y="84.474" fill="#CF9962" width="7.179" height="9.967"/>
					<rect x="79.393" y="84.474" fill="#CF9962" width="7.179" height="9.967"/>
				</g>
				<g>
					<rect x="47.34" y="96.559" fill="#CF9962" width="7.179" height="8.128"/>
					<rect x="79.393" y="96.559" fill="#CF9962" width="7.179" height="8.128"/>
				</g>
				<g>
					<polygon fill="#CF9962" points="55.453,72.27 53.101,67.526 50.747,72.27 50.747,83.119 55.453,83.119 					"/>
					<polygon fill="#CF9962" points="83.165,72.27 80.813,67.526 78.459,72.27 78.459,83.119 83.165,83.119 					"/>
				</g>
				<g>
					<rect x="57.533" y="68.825" fill="#CF9962" width="2.818" height="13.23"/>
					<rect x="73.561" y="68.825" fill="#CF9962" width="2.817" height="13.23"/>
				</g>
				<g>
					<rect x="61.614" y="68.825" fill="#CF9962" width="3.006" height="2.169"/>
					<rect x="65.454" y="68.825" fill="#CF9962" width="3.004" height="2.169"/>
					<rect x="69.293" y="68.825" fill="#CF9962" width="3.006" height="2.169"/>
				</g>
				<g>
					<rect x="61.614" y="72.396" fill="#CF9962" width="3.006" height="2.171"/>
					<rect x="65.454" y="72.396" fill="#CF9962" width="3.004" height="2.171"/>
					<rect x="69.293" y="72.396" fill="#CF9962" width="3.006" height="2.171"/>
				</g>
				<g>
					<rect x="61.614" y="75.97" fill="#CF9962" width="3.006" height="2.171"/>
					<rect x="65.454" y="75.97" fill="#CF9962" width="3.004" height="2.171"/>
					<rect x="69.293" y="75.97" fill="#CF9962" width="3.006" height="2.171"/>
				</g>
				<g>
					<rect x="61.614" y="79.885" fill="#CF9962" width="3.006" height="2.171"/>
					<rect x="65.454" y="79.885" fill="#CF9962" width="3.004" height="2.171"/>
					<rect x="69.293" y="79.885" fill="#CF9962" width="3.006" height="2.171"/>
				</g>
				<g>
					<rect x="56.438" y="86.312" fill="#CF9962" width="3.005" height="3.004"/>
					<rect x="60.946" y="86.312" fill="#CF9962" width="3.005" height="3.004"/>
					<rect x="65.454" y="86.312" fill="#CF9962" width="3.004" height="3.004"/>
					<rect x="69.96" y="86.312" fill="#CF9962" width="3.005" height="3.004"/>
					<rect x="74.468" y="86.312" fill="#CF9962" width="3.005" height="3.004"/>
				</g>
				<g>
					<rect x="56.438" y="96.559" fill="#CF9962" width="3.005" height="3.005"/>
					<rect x="60.946" y="96.559" fill="#CF9962" width="3.005" height="3.005"/>
					<rect x="65.454" y="96.559" fill="#CF9962" width="3.004" height="3.005"/>
					<rect x="69.96" y="96.559" fill="#CF9962" width="3.005" height="3.005"/>
					<rect x="74.468" y="96.559" fill="#CF9962" width="3.005" height="3.005"/>
				</g>
				<g>
					<rect x="56.438" y="90.639" fill="#CF9962" width="3.005" height="3.005"/>
					<rect x="60.946" y="90.639" fill="#CF9962" width="3.005" height="3.005"/>
					<rect x="65.454" y="90.639" fill="#CF9962" width="3.004" height="3.005"/>
					<rect x="69.96" y="90.639" fill="#CF9962" width="3.005" height="3.005"/>
					<rect x="74.468" y="90.639" fill="#CF9962" width="3.005" height="3.005"/>
				</g>
				<g>
					<rect x="56.438" y="101.682" fill="#CF9962" width="3.005" height="3.005"/>
					<rect x="60.946" y="101.682" fill="#CF9962" width="3.005" height="3.005"/>
					<rect x="65.454" y="101.682" fill="#CF9962" width="3.004" height="3.005"/>
					<rect x="69.96" y="101.682" fill="#CF9962" width="3.005" height="3.005"/>
					<rect x="74.468" y="101.682" fill="#CF9962" width="3.005" height="3.005"/>
				</g>
				<rect x="59.192" y="63.038" fill="#CF9962" width="15.527" height="2.948"/>
				<rect x="60.445" y="54.422" fill="#CF9962" width="13.021" height="1.253"/>
				<g>
					<rect x="60.445" y="55.049" fill="#CF9962" width="1.252" height="9.086"/>
					<rect x="63.388" y="55.049" fill="#CF9962" width="1.251" height="9.086"/>
					<rect x="66.329" y="55.049" fill="#CF9962" width="1.252" height="8.585"/>
					<rect x="69.272" y="55.049" fill="#CF9962" width="1.251" height="8.585"/>
					<rect x="72.215" y="55.049" fill="#CF9962" width="1.251" height="8.585"/>
				</g>
				<rect x="60.82" y="51.418" fill="#CF9962" width="12.271" height="1.253"/>
				<polygon fill="#CF9962" points="69.647,34.773 67.04,29.235 64.264,34.773 64.264,42.027 69.647,42.027 				"/>
				<rect x="66.393" y="10.973" fill="#CF9962" width="1.126" height="22.666"/>
				<g>
					<rect x="56.96" y="148.14" fill="#CF9962" width="2.086" height="2.92"/>
					<rect x="61.437" y="148.14" fill="#CF9962" width="2.086" height="2.92"/>
					<rect x="65.914" y="148.14" fill="#CF9962" width="2.086" height="2.92"/>
					<rect x="70.389" y="148.14" fill="#CF9962" width="2.086" height="2.92"/>
					<rect x="74.865" y="148.14" fill="#CF9962" width="2.087" height="2.92"/>
				</g>
				<g>
					<rect x="56.96" y="153.19" fill="#CF9962" width="2.086" height="2.92"/>
					<rect x="61.437" y="153.19" fill="#CF9962" width="2.086" height="2.92"/>
					<rect x="65.914" y="153.19" fill="#CF9962" width="2.086" height="2.92"/>
					<rect x="70.389" y="153.19" fill="#CF9962" width="2.086" height="2.92"/>
					<rect x="74.865" y="153.19" fill="#CF9962" width="2.087" height="2.92"/>
				</g>
				<g>
					<rect x="56.96" y="158.157" fill="#CF9962" width="2.086" height="3.923"/>
					<rect x="61.437" y="158.157" fill="#CF9962" width="2.086" height="3.923"/>
					<rect x="65.914" y="158.157" fill="#CF9962" width="2.086" height="3.923"/>
					<rect x="70.389" y="158.157" fill="#CF9962" width="2.086" height="3.923"/>
					<rect x="74.865" y="158.157" fill="#CF9962" width="2.087" height="3.923"/>
				</g>
				<g>
					<rect x="56.96" y="163.583" fill="#CF9962" width="2.086" height="3.922"/>
					<rect x="61.437" y="163.583" fill="#CF9962" width="2.086" height="3.922"/>
					<rect x="65.914" y="163.583" fill="#CF9962" width="2.086" height="3.922"/>
					<rect x="70.389" y="163.583" fill="#CF9962" width="2.086" height="3.922"/>
					<rect x="74.865" y="163.583" fill="#CF9962" width="2.087" height="3.922"/>
				</g>
				<g>
					<rect x="56.96" y="169.426" fill="#CF9962" width="2.086" height="3.921"/>
					<rect x="61.437" y="169.426" fill="#CF9962" width="2.086" height="3.921"/>
					<rect x="65.914" y="169.426" fill="#CF9962" width="2.086" height="3.921"/>
					<rect x="70.389" y="169.426" fill="#CF9962" width="2.086" height="3.921"/>
					<rect x="74.865" y="169.426" fill="#CF9962" width="2.087" height="3.921"/>
				</g>
				<g>
					<rect x="56.96" y="174.435" fill="#CF9962" width="2.086" height="3.92"/>
					<rect x="61.437" y="174.435" fill="#CF9962" width="2.086" height="3.92"/>
					<rect x="65.914" y="174.435" fill="#CF9962" width="2.086" height="3.92"/>
					<rect x="70.389" y="174.435" fill="#CF9962" width="2.086" height="3.92"/>
					<rect x="74.865" y="174.435" fill="#CF9962" width="2.087" height="3.92"/>
				</g>
				<g>
					<rect x="56.96" y="180.235" fill="#CF9962" width="2.086" height="3.924"/>
					<rect x="61.437" y="180.235" fill="#CF9962" width="2.086" height="3.924"/>
					<rect x="65.914" y="180.235" fill="#CF9962" width="2.086" height="3.924"/>
					<rect x="70.389" y="180.235" fill="#CF9962" width="2.086" height="3.924"/>
					<rect x="74.865" y="180.235" fill="#CF9962" width="2.087" height="3.924"/>
				</g>
				<g>
					<rect x="56.96" y="186.079" fill="#CF9962" width="2.086" height="3.922"/>
					<rect x="61.437" y="186.079" fill="#CF9962" width="2.086" height="3.922"/>
					<rect x="65.914" y="186.079" fill="#CF9962" width="2.086" height="3.922"/>
					<rect x="70.389" y="186.079" fill="#CF9962" width="2.086" height="3.922"/>
					<rect x="74.865" y="186.079" fill="#CF9962" width="2.087" height="3.922"/>
				</g>
				<g>
					<rect x="56.96" y="191.087" fill="#CF9962" width="2.086" height="3.922"/>
					<rect x="61.437" y="191.087" fill="#CF9962" width="2.086" height="3.922"/>
					<rect x="65.914" y="191.087" fill="#CF9962" width="2.086" height="3.922"/>
					<rect x="70.389" y="191.087" fill="#CF9962" width="2.086" height="3.922"/>
					<rect x="74.865" y="191.087" fill="#CF9962" width="2.087" height="3.922"/>
				</g>
				<g>
					<rect x="56.96" y="196.264" fill="#CF9962" width="2.086" height="3.921"/>
					<rect x="61.437" y="196.264" fill="#CF9962" width="2.086" height="3.921"/>
					<rect x="65.914" y="196.264" fill="#CF9962" width="2.086" height="3.921"/>
					<rect x="70.389" y="196.264" fill="#CF9962" width="2.086" height="3.921"/>
					<rect x="74.865" y="196.264" fill="#CF9962" width="2.087" height="3.921"/>
				</g>
				<polygon fill="#CF9962" points="60.884,49.289 64.305,40.524 69.58,40.524 73.028,49.289 				"/>
				<path fill="#FFCF89" d="M68.521,46.974c0-0.865-0.7-1.565-1.564-1.565c-0.864,0-1.565,0.7-1.565,1.565v3.443h3.13V46.974z"/>
				<rect x="56.397" y="65.463" fill="#CF9962" width="21.118" height="2.23"/>
			</g>
			<path fill="none" stroke="#78ACA8" stroke-width="11.5205" stroke-miterlimit="10" d="M89.878,166.765
				c0.841,0,1.566,0.043,2.36,0c5.847-0.314,16.32-3.844,16.32-16.706c0-7.707-5.153-15.562-15.835-15.562H35.255
				c-8.772,0-15.835-8.054-15.835-17.847c0-9.671,7.413-16.736,15.915-16.736h12.672"/>
			<rect x="47.36" y="104.639" fill="#FCB319" width="39.191" height="3.472"/>
			<polygon fill="#CF9962" points="94.065,110.864 39.819,110.864 39.827,105.521 94.084,105.521 			"/>
			<g>
				<rect x="47.34" y="96.559" fill="#012A29" width="7.179" height="8.128"/>
				<rect x="79.393" y="96.559" fill="#012A29" width="7.179" height="8.128"/>
			</g>
			<path fill="none" stroke="#78ACA8" stroke-width="11.5205" stroke-miterlimit="10" d="M39.312,99.901
				c0.84,0,52.133,0.042,52.927,0c5.847-0.314,16.32-3.853,16.32-16.717c0-7.707-5.153-15.562-15.835-15.562h-2.724"/>
			<rect x="87.323" y="148.306" fill="#CF9962" width="4.508" height="24.876"/>
			<rect x="42.081" y="148.306" fill="#CF9962" width="4.509" height="24.876"/>
			<g>
				<polygon fill="#012A29" points="67.378,11.049 67.378,24.351 88.955,21.857 84.008,17.658 88.955,13.542 				"/>
				<polygon fill="#FBF7EE" points="77.855,16.868 84.957,16.868 87.218,14.988 70.705,13.085 				"/>
				<polygon fill="#FBF7EE" points="84.987,18.489 77.855,18.489 70.705,22.272 87.205,20.371 				"/>
				<polygon fill="#012A29" points="67.378,11.049 80.64,17.7 67.378,24.351 				"/>
				<circle fill="#FFFFFF" cx="71.453" cy="17.658" r="2.494"/>
				<circle fill="#012A29" cx="71.453" cy="17.658" r="1.663"/>
				<circle fill="#FBF7EE" cx="70.538" cy="13.709" r="0.457"/>
				<circle fill="#FBF7EE" cx="75.444" cy="16.66" r="0.457"/>
				<circle fill="#FBF7EE" cx="75.444" cy="18.946" r="0.457"/>
				<circle fill="#FBF7EE" cx="77.148" cy="17.741" r="0.457"/>
				<circle fill="#FBF7EE" cx="68.917" cy="14.541" r="0.458"/>
				<circle fill="#FBF7EE" cx="70.538" cy="21.815" r="0.457"/>
				<circle fill="#FBF7EE" cx="68.917" cy="20.983" r="0.458"/>
			</g>
			<path fill="#78ACA8" d="M37.116,39.591c0,0,3.282,6.905,7.976,6.633c4.693-0.271,7.935-2.766,13.059-3.583
				c3.854-0.615,3.551-4.655,3.551-4.655l-0.13-0.113c0,0,1.1-3.9-2.557-5.268c-4.86-1.817-7.543-4.904-12.089-6.102
				c-4.546-1.196-9.133,4.92-9.133,4.92"/>
			<g>
				
					<ellipse transform="matrix(-0.2943 0.9557 -0.9557 -0.2943 90.9521 -5.7286)" fill="#012A29" cx="47.591" cy="30.715" rx="1.043" ry="2.298"/>
				
					<ellipse transform="matrix(-0.2943 -0.9557 0.9557 -0.2943 21.5864 99.6689)" fill="#012A29" cx="47.591" cy="41.865" rx="1.043" ry="2.298"/>
			</g>
			<g>
				<path fill="none" stroke="#78ACA8" stroke-width="11.5205" stroke-miterlimit="10" d="M72.475,199.056h-37.22
					c-8.772,0-15.835-5.749-15.835-15.543c0-9.67,7.413-16.735,15.915-16.735h6.912"/>
				<g>
					<path fill="#78ACA8" d="M88.7,193.236H56.97v11.525h34.425c8.7,0,13.134,5.433,13.134,10.722c0,6.359-2.952,9.219-6.233,10.506
						c0.21,0.313,0.48,0.768,0.668,1.096c6.785-1.61,12.303-6.46,12.303-14.97C111.267,200.905,101.547,193.236,88.7,193.236z"/>
				</g>
			</g>
			<g>
				
					<path fill="none" stroke="#97BCB9" stroke-width="0.7963" stroke-linecap="round" stroke-linejoin="round" stroke-miterlimit="10" d="
					M88.191,98.019c-1.283,0-2.323,0.873-2.323,1.95c0,1.075,1.04,1.948,2.323,1.948"/>
				
					<path fill="none" stroke="#97BCB9" stroke-width="0.7963" stroke-linecap="round" stroke-linejoin="round" stroke-miterlimit="10" d="
					M90.514,99.969c-1.283,0-2.323,0.872-2.323,1.948c0,1.077,1.04,1.951,2.323,1.951"/>
				
					<path fill="none" stroke="#97BCB9" stroke-width="0.7963" stroke-linecap="round" stroke-linejoin="round" stroke-miterlimit="10" d="
					M54.703,99.969c-1.283,0-2.323,0.872-2.323,1.948c0,1.077,1.04,1.951,2.323,1.951"/>
				
					<path fill="none" stroke="#97BCB9" stroke-width="0.7963" stroke-linecap="round" stroke-linejoin="round" stroke-miterlimit="10" d="
					M41.186,69.113c1.284,0,2.323-0.872,2.323-1.949c0-1.076-1.04-1.949-2.323-1.949"/>
				
					<path fill="none" stroke="#97BCB9" stroke-width="0.7963" stroke-linecap="round" stroke-linejoin="round" stroke-miterlimit="10" d="
					M19.206,53.87c0,1.282,0.874,2.322,1.95,2.322c1.077,0,1.95-1.04,1.95-2.322"/>
				
					<path fill="none" stroke="#97BCB9" stroke-width="0.7963" stroke-linecap="round" stroke-linejoin="round" stroke-miterlimit="10" d="
					M102.561,75.297c0.907,0.908,2.26,1.025,3.021,0.265c0.762-0.761,0.644-2.114-0.264-3.021"/>
				
					<path fill="none" stroke="#97BCB9" stroke-width="0.7963" stroke-linecap="round" stroke-linejoin="round" stroke-miterlimit="10" d="
					M38.863,71.081c1.283,0,2.323-0.874,2.323-1.951c0-1.076-1.04-1.949-2.323-1.949"/>
				<g>
					
						<path fill="none" stroke="#97BCB9" stroke-width="0.7963" stroke-linecap="round" stroke-linejoin="round" stroke-miterlimit="10" d="
						M20.839,119.144c0,1.282,0.874,2.322,1.95,2.322c1.077,0,1.949-1.04,1.949-2.322"/>
					
						<path fill="none" stroke="#97BCB9" stroke-width="0.7963" stroke-linecap="round" stroke-linejoin="round" stroke-miterlimit="10" d="
						M18.873,116.831c0,1.284,0.873,2.322,1.95,2.322c1.076,0,1.95-1.038,1.95-2.322"/>
				</g>
				<g>
					
						<path fill="none" stroke="#97BCB9" stroke-width="0.7963" stroke-linecap="round" stroke-linejoin="round" stroke-miterlimit="10" d="
						M110.262,150.176c0,1.282-0.874,2.322-1.95,2.322s-1.949-1.04-1.949-2.322"/>
					
						<path fill="none" stroke="#97BCB9" stroke-width="0.7963" stroke-linecap="round" stroke-linejoin="round" stroke-miterlimit="10" d="
						M112.228,147.864c0,1.282-0.874,2.322-1.95,2.322s-1.949-1.04-1.949-2.322"/>
				</g>
				<g>
					
						<path fill="none" stroke="#97BCB9" stroke-width="0.7963" stroke-linecap="round" stroke-linejoin="round" stroke-miterlimit="10" d="
						M71.629,136.241c1.283,0,2.323-0.874,2.323-1.949c0-1.077-1.04-1.95-2.323-1.95"/>
					
						<path fill="none" stroke="#97BCB9" stroke-width="0.7963" stroke-linecap="round" stroke-linejoin="round" stroke-miterlimit="10" d="
						M76.264,136.241c1.283,0,2.322-0.874,2.322-1.949c0-1.077-1.04-1.95-2.322-1.95"/>
					
						<path fill="none" stroke="#97BCB9" stroke-width="0.7963" stroke-linecap="round" stroke-linejoin="round" stroke-miterlimit="10" d="
						M73.952,138.207c1.283,0,2.323-0.872,2.323-1.949c0-1.076-1.041-1.949-2.323-1.949"/>
				</g>
				<g>
					
						<path fill="none" stroke="#97BCB9" stroke-width="0.7963" stroke-linecap="round" stroke-linejoin="round" stroke-miterlimit="10" d="
						M49.459,202.823c1.284,0,2.323-0.871,2.323-1.947c0-1.078-1.04-1.951-2.323-1.951"/>
					
						<path fill="none" stroke="#97BCB9" stroke-width="0.7963" stroke-linecap="round" stroke-linejoin="round" stroke-miterlimit="10" d="
						M47.137,200.876c1.283,0,2.323-0.874,2.323-1.951c0-1.076-1.04-1.948-2.323-1.948"/>
				</g>
				
					<path fill="none" stroke="#97BCB9" stroke-width="0.7963" stroke-linecap="round" stroke-linejoin="round" stroke-miterlimit="10" d="
					M90.527,201.376c1.283,0,2.322-0.874,2.322-1.95c0-1.075-1.04-1.95-2.322-1.95"/>
				
					<path fill="none" stroke="#97BCB9" stroke-width="0.7963" stroke-linecap="round" stroke-linejoin="round" stroke-miterlimit="10" d="
					M83.164,199.426c1.283,0,2.323-0.873,2.323-1.95c0-1.076-1.04-1.949-2.323-1.949"/>
				
					<path fill="none" stroke="#97BCB9" stroke-width="0.7963" stroke-linecap="round" stroke-linejoin="round" stroke-miterlimit="10" d="
					M88.204,203.342c1.283,0,2.324-0.874,2.324-1.95s-1.041-1.948-2.324-1.948"/>
			</g>
		</g>
	</g>
	<g>
		<g>
			<text transform="matrix(1 0 0 1 136.5596 147.2852)"><tspan x="0" y="0" fill="#78ACA8" font-family="'Montserrat-ExtraBold'" font-size="77" letter-spacing="5">P</tspan><tspan x="58.366" y="0" fill="#78ACA8" font-family="'Montserrat-ExtraBold'" font-size="77" letter-spacing="3">Y</tspan><tspan x="116.27" y="0" fill="#78ACA8" font-family="'Montserrat-ExtraBold'" font-size="77" letter-spacing="7">C</tspan><tspan x="177.099" y="0" fill="#78ACA8" font-family="'Montserrat-ExtraBold'" font-size="77" letter-spacing="5">O</tspan><tspan x="244.627" y="0" fill="#78ACA8" font-family="'Montserrat-ExtraBold'" font-size="77" letter-spacing="7">N</tspan></text>
		</g>
		<g>
			<text transform="matrix(1 0 0 1 138.7354 178.4893)"><tspan x="0" y="0" fill="#012A29" font-family="'Montserrat-Light'" font-size="26.6767" letter-spacing="5">CLEVELAND </tspan><tspan x="220.801" y="0" fill="#012A29" font-family="'Montserrat-ExtraBold'" font-size="26.6767" letter-spacing="5">2018</tspan></text>
		</g>
	</g>
</g>
</svg>
