<?xml version="1.0" encoding="UTF-8" standalone="no"?>
<svg
   xmlns:dc="http://purl.org/dc/elements/1.1/"
   xmlns:cc="http://creativecommons.org/ns#"
   xmlns:rdf="http://www.w3.org/1999/02/22-rdf-syntax-ns#"
   xmlns:svg="http://www.w3.org/2000/svg"
   xmlns="http://www.w3.org/2000/svg"
   xmlns:sodipodi="http://sodipodi.sourceforge.net/DTD/sodipodi-0.dtd"
   xmlns:inkscape="http://www.inkscape.org/namespaces/inkscape"
   viewBox="0 0 522.81709 68.059037"
   version="1.1"
   id="svg283"
   sodipodi:docname="footer-squiggle.svg"
   width="522.81708"
   height="68.059036"
   preserveAspectRatio="none">
  <metadata
     id="metadata287">
    <rdf:RDF>
      <cc:Work
         rdf:about="">
        <dc:format>image/svg+xml</dc:format>
        <dc:type
           rdf:resource="http://purl.org/dc/dcmitype/StillImage" />
        <dc:title>Pycon Logo 2019 FINAL</dc:title>
      </cc:Work>
    </rdf:RDF>
  </metadata>
  <sodipodi:namedview
     pagecolor="#ffffff"
     bordercolor="#666666"
     borderopacity="1"
     objecttolerance="10"
     gridtolerance="10"
     guidetolerance="10"
     inkscape:pageopacity="0"
     inkscape:pageshadow="2"
     inkscape:window-width="1920"
     inkscape:window-height="1016"
     id="namedview285"
     showgrid="false"
     inkscape:snap-nodes="true"
     fit-margin-top="0"
     fit-margin-left="0"
     fit-margin-right="0"
     fit-margin-bottom="0"
     inkscape:zoom="2.2627416"
     inkscape:cx="287.08686"
     inkscape:cy="-30.475916"
     inkscape:window-x="0"
     inkscape:window-y="27"
     inkscape:window-maximized="0"
     inkscape:current-layer="svg283"
     inkscape:measure-start="0,0"
     inkscape:measure-end="0,0" />
  <defs
     id="defs20">
    <style
       id="style2">.cls-1,.cls-10{fill:none;}.cls-2{fill:#fff;}.cls-3{fill:url(#linear-gradient);}.cls-4{clip-path:url(#clip-path);}.cls-5{fill:#306a99;}.cls-6{fill:#ffd43c;}.cls-7{fill:#b7d433;}.cls-8{fill:#00ce7c;}.cls-9{fill:#009abf;}.cls-10{stroke:#ffd43c;stroke-miterlimit:10;stroke-width:5.04px;}</style>
    <linearGradient
       id="linear-gradient"
       x1="720"
       x2="720"
       y2="556.09003"
       gradientUnits="userSpaceOnUse">
      <stop
         offset="0"
         stop-color="#9ecee0"
         id="stop4" />
      <stop
         offset="0.01"
         stop-color="#9bcddf"
         id="stop6" />
      <stop
         offset="0.36"
         stop-color="#59b7d2"
         id="stop8" />
      <stop
         offset="0.65"
         stop-color="#29a7c8"
         id="stop10" />
      <stop
         offset="0.87"
         stop-color="#0b9ec1"
         id="stop12" />
      <stop
         offset="1"
         stop-color="#009abf"
         id="stop14" />
    </linearGradient>
    <clipPath
       id="clip-path">
      <rect
         class="cls-1"
         y="40.529999"
         width="1440.6801"
         height="567.08002"
         id="rect17"
         x="0"
         style="fill:none" />
    </clipPath>
  </defs>
  <title
     id="title22">Pycon Logo 2019 FINAL</title>
  <rect
     class="cls-5"
     y="17.000004"
     width="1440.08"
     height="54.210007"
     id="rect28"
     x="-4.7050855e-07"
     style="fill:#306a99;stroke-width:0.66483277" />
  <path
     class="cls-9"
     d="m 521,16.13 c -10.29,0 -15,-2.92 -21,-6.6099997 C 493.13,5.28 484.59,0 468.76,0 452.93,0 444.39,5.28 437.52,9.5200003 431.52,13.21 426.82,16.13 416.52,16.13 c -10.3,0 -15,-2.92 -21,-6.6099997 C 388.66,5.28 380.12,0 364.3,0 348.48,0 339.95,5.28 333.09,9.5200003 327.09,13.21 322.42,16.13 312.15,16.13 c -10.27,0 -15,-2.92 -20.94,-6.6099997 C 284.35,5.28 275.81,0 260.01,0 244.21,0 235.66,5.28 228.8,9.5200003 222.8,13.21 218.12,16.13 207.85,16.13 c -10.27,0 -15,-2.92 -21,-6.6099997 C 179.99,5.28 171.46,0 155.65,0 139.84,0 131.3,5.28 124.44,9.5200003 118.44,13.21 113.76,16.13 103.49,16.13 93.22,16.13 88.49,13.21 82.55,9.5200003 75.7,5.28 67.16,0 51.36,0 35.56,0 27.03,5.28 20.17,9.5200003 14.47,13.13 9.8199995,15.95 -4.7050855e-7,16.06 v 18.2 C 15.4,34.12 23.81,28.94 30.57,24.75 c 6,-3.69 10.67,-6.6 20.92,-6.6 10.25,0 15,2.91 20.94,6.6 6.85,4.25 15.39,9.52 31.19,9.52 15.8,0 24.35,-5.27 31.21,-9.51 6,-3.69 10.68,-6.61 20.95,-6.61 10.27,0 15,2.91 20.95,6.61 6.86,4.24 15.39,9.51 31.2,9.51 15.81,0 24.35,-5.27 31.21,-9.51 6,-3.69 10.68,-6.61 20.95,-6.61 10.27,0 15,2.91 20.94,6.6 6.86,4.25 15.39,9.52 31.2,9.52 15.81,0 24.34,-5.27 31.2,-9.51 6,-3.7 10.68,-6.61 20.95,-6.61 10.27,0 15,2.92 21,6.61 6.86,4.24 15.4,9.51 31.22,9.51 15.82,0 24.37,-5.27 31.24,-9.51 6,-3.69 10.7,-6.61 21,-6.61 10.3,0 15,2.92 21,6.61 6.87,4.24 15.42,9.51 31.24,9.51 h 919 V 16.13 Z"
     id="path36"
     inkscape:connector-curvature="0"
     style="fill:#009abf" />
  <path
     class="cls-5"
     d="m 519.44109,44.27 c -10.25921,0 -14.95512,-2.91 -20.93716,-6.6 -6.84945,-4.24 -15.36389,-9.52 -31.14653,-9.52 -15.78263,0 -24.29708,5.28 -31.14652,9.52 -5.98205,3.69 -10.66799,6.6 -20.93717,6.6 -10.26918,0 -14.95512,-2.91 -20.93716,-6.6 -6.83948,-4.24 -15.35393,-9.52 -31.12659,-9.52 -15.77266,0 -24.27714,5.28 -31.11661,9.52 -5.98205,3.69 -10.63808,6.6 -20.87735,6.6 -10.23927,0 -14.95512,-2.91 -20.87734,-6.6 -6.83948,-4.24 -15.35392,-9.52 -31.10665,-9.52 -15.75272,0 -24.27714,5.28 -31.11661,9.52 -5.98205,3.69 -10.64805,6.6 -20.88732,6.6 -10.23927,0 -14.95512,-2.91 -20.93716,-6.6 -6.83948,-4.24 -15.34395,-9.52 -31.10665,-9.52 -15.76269,0 -24.27714,5.28 -31.11661,9.52 -5.98205,3.69 -10.64805,6.6 -20.88732,6.6 -10.239268,0 -14.955115,-2.91 -20.877342,-6.6 -6.699893,-4.24 -15.21434,-9.54 -30.967064,-9.54 -15.752724,0 -24.257201,5.28 -31.096675,9.52 C 14.426704,41.28 9.7906166,44.13 -4.7050855e-7,44.26 v 18.2 C 15.353921,62.32 23.738757,57.14 30.47853,52.95 c 5.982047,-3.69 10.638074,-6.6 20.857404,-6.6 10.219331,0 14.955118,2.91 20.877345,6.6 6.829504,4.24 15.343951,9.52 31.096671,9.52 15.75273,0 24.27714,-5.28 31.11662,-9.52 5.98205,-3.68 10.64804,-6.6 20.88731,-6.6 10.23927,0 14.95512,2.91 20.88732,6.6 6.83947,4.24 15.34395,9.52 31.10664,9.52 15.7627,0 24.27714,-5.28 31.11662,-9.52 5.98204,-3.68 10.64804,-6.6 20.88731,-6.6 10.23927,0 14.95512,2.91 20.87735,6.6 6.83947,4.24 15.34395,9.52 31.10664,9.52 15.7627,0 24.26717,-5.28 31.10665,-9.52 5.98204,-3.69 10.64804,-6.6 20.88731,-6.6 10.23927,0 14.95512,2.92 20.93717,6.61 6.83947,4.24 15.35392,9.51 31.12658,9.51 15.77267,0 24.29708,-5.27 31.14653,-9.51 5.98204,-3.69 10.66798,-6.61 20.93716,-6.61 10.26918,0 14.95512,2.92 20.93717,6.61 6.84944,4.24 15.37386,9.51 31.14652,9.51 h 916.25025 v -18.2 z"
     id="path38"
     inkscape:connector-curvature="0"
     style="fill:#306a99;stroke-width:0.99850279" />
</svg>
