<?xml version="1.0" encoding="UTF-8" standalone="no"?>
<svg
   xmlns:dc="http://purl.org/dc/elements/1.1/"
   xmlns:cc="http://creativecommons.org/ns#"
   xmlns:rdf="http://www.w3.org/1999/02/22-rdf-syntax-ns#"
   xmlns:svg="http://www.w3.org/2000/svg"
   xmlns="http://www.w3.org/2000/svg"
   xmlns:sodipodi="http://sodipodi.sourceforge.net/DTD/sodipodi-0.dtd"
   xmlns:inkscape="http://www.inkscape.org/namespaces/inkscape"
   viewBox="0 0 2354.0376 366.63001"
   version="1.1"
   id="svg283"
   sodipodi:docname="web-site-header-skyline.svg"
   width="2354.0376"
   height="366.63"
   preserveAspectRatio="none">
  <metadata
     id="metadata287">
    <rdf:RDF>
      <cc:Work
         rdf:about="">
        <dc:format>image/svg+xml</dc:format>
        <dc:type
           rdf:resource="http://purl.org/dc/dcmitype/StillImage" />
        <dc:title>Pycon Logo 2019 FINAL</dc:title>
      </cc:Work>
    </rdf:RDF>
  </metadata>
  <sodipodi:namedview
     pagecolor="#ffffff"
     bordercolor="#666666"
     borderopacity="1"
     objecttolerance="10"
     gridtolerance="10"
     guidetolerance="10"
     inkscape:pageopacity="0"
     inkscape:pageshadow="2"
     inkscape:window-width="1920"
     inkscape:window-height="1016"
     id="namedview285"
     showgrid="false"
     inkscape:snap-nodes="true"
     fit-margin-top="0"
     fit-margin-left="0"
     fit-margin-right="0"
     fit-margin-bottom="0"
     inkscape:zoom="0.28284271"
     inkscape:cx="823.77933"
     inkscape:cy="-327.89949"
     inkscape:window-x="0"
     inkscape:window-y="27"
     inkscape:window-maximized="0"
     inkscape:current-layer="svg283" />
  <defs
     id="defs20">
    <style
       id="style2">.cls-1,.cls-10{fill:none;}.cls-2{fill:#fff;}.cls-3{fill:url(#linear-gradient);}.cls-4{clip-path:url(#clip-path);}.cls-5{fill:#306a99;}.cls-6{fill:#ffd43c;}.cls-7{fill:#b7d433;}.cls-8{fill:#00ce7c;}.cls-9{fill:#009abf;}.cls-10{stroke:#ffd43c;stroke-miterlimit:10;stroke-width:5.04px;}</style>
    <linearGradient
       id="linear-gradient"
       x1="720"
       x2="720"
       y2="556.09003"
       gradientUnits="userSpaceOnUse">
      <stop
         offset="0"
         stop-color="#9ecee0"
         id="stop4" />
      <stop
         offset="0.01"
         stop-color="#9bcddf"
         id="stop6" />
      <stop
         offset="0.36"
         stop-color="#59b7d2"
         id="stop8" />
      <stop
         offset="0.65"
         stop-color="#29a7c8"
         id="stop10" />
      <stop
         offset="0.87"
         stop-color="#0b9ec1"
         id="stop12" />
      <stop
         offset="1"
         stop-color="#009abf"
         id="stop14" />
    </linearGradient>
    <clipPath
       id="clip-path">
      <rect
         class="cls-1"
         y="40.529999"
         width="1440.6801"
         height="567.08002"
         id="rect17"
         x="0"
         style="fill:none" />
    </clipPath>
  </defs>
  <title
     id="title22">Pycon Logo 2019 FINAL</title>
  <rect
     style="fill:#306a99;stroke-width:0.85019398"
     x="-856"
     id="rect839"
     height="54.210007"
     width="2355.0376"
     y="321.16"
     class="cls-5" />
  <g
     id="g856"
     transform="translate(464,6)">
    <path
       style="fill:#ffd43c"
       d="m 331.61914,0 -22.91992,30.220703 v 5.21875 l -10,17.470703 v 5.179688 L 288.69922,72 v 40.16016 H 282 v 61.30078 l -9,-3.43164 -8.83008,1.57031 V 112.2793 112.08984 L 250,110.16016 V 97.970703 l -45.67969,-6.259765 -20.14062,6.759765 h 0.17969 v 9.509767 l -14.29883,4.79883 h 0.26953 v 48.62109 L 151.69922,155.5293 120,160.83984 v 56.88672 c -11.72899,4.62591 -24.658041,9.87869 -39.050781,15.89258 L 81.080078,258.91992 61.5,258.17969 44.080078,264.7793 44,275.64062 h -882 v 20.29883 H 99.929688 V 290.75 L 120,294.82617 v 0.0137 h 0.0664 l 36.93359,7.5 c -0.61675,-2.41078 -0.70507,-5.0257 -0.36133,-7.79882 L 622.07031,290.75 v 5.18945 H 1560 V 275.64062 H 678 l -0.0801,-10.86132 -17.41992,-6.59961 -19.58008,0.74023 0.13086,-25.30078 -21.4707,-14.46875 -23.66016,2.65039 -0.14062,-87.37109 6.13086,-5.73047 c -7,-4.05 -23.35008,-8.23828 -46.33008,-8.23828 -20.84,0 -38.66938,3.65969 -46.85938,7.42968 l 6.12891,6.53907 0.23047,59.08008 -11.13086,-3.91016 -15.06836,4.32031 v -37.48047 l 2.79883,-4.78906 v -3.23047 H 480 v -27.65039 l -6,-10 -5.2207,9.74024 h -0.75 V 82.109375 c 0,0 -4.27,-4.18 -7,-5 V 62.769531 c 0,-3 -9.86914,-11.21875 -9.86914,-11.21875 v -22.75 l -4.64063,-4.839843 -1.18945,-0.541016 V 8.0390625 h -2.44922 V 23.419922 l -1.18164,0.541016 -4.63867,4.839843 v 22.75 c 0,0 -9.88086,8.22875 -9.88086,11.21875 v 14.38086 c -2.71,0.78 -7,5 -7,5 v 38.439449 h -0.75 l -5.86914,-9.74023 -5.32032,10 V 148.5 h -11.57031 v 3.23047 l 2.80078,4.78906 v 36.66016 l -18.15039,-6.33008 v -74.68945 h -6.70117 V 72 l -10,-13.910156 v -5.179688 l -10,-17.470703 v -5.21875 z"
       transform="translate(0,-6)"
       id="path832"
       inkscape:connector-curvature="0" />
    <path
       style="fill:#b7d433"
       d="m 158.57031,174.60938 -25.74023,12.23046 -0.01,36.10938 L 120,222.17969 v 14.57422 l -21.240234,8.03515 v 34.32032 l -10.75,-3.26954 -20.369141,6.65039 v 11.34961 H -838 v 37.75977 l 937.929688,-0.95899 v -2.17968 c 9.757132,-0.10744 18.797362,-0.29898 27.187502,-0.5625 l 494.95312,0.5625 v 2.17968 L 1560,331.59961 V 293.83984 H 654.35938 v -11.34961 l -20.36915,-6.65039 -10.75,3.26954 v -34.32032 l -38.33007,-14.5 -29.05078,6.26172 v 24.5586 L 540.75,260.5 540.6504,237.33984 505.4297,230.24023 V 205.05078 L 467.33984,200.75 433.06055,209.34961 V 198.5 l -8.22071,-1.43945 -15.11914,5.83984 -6.36132,2.44922 v 15.61133 l -35.53907,-8.31055 -25.90039,5.23047 v 22.09961 l -17.09961,-3.14063 -0.16992,-43.31054 -58.25977,-11.00977 -27.54101,8.46094 v 41.53906 l -18.31055,-5.68945 v -39.16016 z"
       transform="translate(0,-6)"
       id="polygon834"
       inkscape:connector-curvature="0" />
  </g>
  <rect
     class="cls-5"
     y="321.16"
     width="2355.0376"
     height="54.210007"
     id="rect28"
     x="584"
     style="fill:#306a99;stroke-width:0.85019398" />
  <path
     style="fill:#00ce7c"
     d="m -799.6602,197.85156 a 18.73,18.73 0 0 0 -17.83,12.19922 17.28,17.28 0 0 0 -15,17.19922 16.89,16.89 0 0 0 0.8593,5.35938 19.49,19.49 0 0 0 25.8614,28.67968 c 0,22 -10.9205,50.82032 -46.2305,50.82032 v 22.4414 l 536.25,-4.26172 H 584 v 4.26172 l 536.25,-4.26172 H 2024 v -18.25 h -911.7695 c -31,-0.76 -54.541,-7.57929 -54.541,-29.52929 a 10,10 0 0 0 3.3711,0.64062 10.29,10.29 0 0 0 10.2792,-10.28125 10.18,10.18 0 0 0 -2,-6.13867 9.34,9.34 0 0 0 0.2696,-2.24024 9.22,9.22 0 0 0 -7.2988,-9.05078 9.9,9.9 0 0 0 -18.0001,0 9.22,9.22 0 0 0 -7.33,9.05078 9.37,9.37 0 0 0 0.2793,2.25 10.29,10.29 0 0 0 8.2597,16.41016 9.91,9.91 0 0 0 3.3008,-0.62109 c 0,25.3 -19.0794,29.58008 -47.6094,29.58008 -28.52996,0 -47.85153,-7.43032 -47.85152,-35.57032 a 14.64,14.64 0 0 0 4.57031,0.78125 12.47,12.47 0 0 0 10,-19.91992 11.23,11.23 0 0 0 -8.5293,-13.67969 12,12 0 0 0 -21.88086,0 11.17,11.17 0 0 0 -8.87891,11 11.31,11.31 0 0 0 0.33008,2.71875 12.48,12.48 0 0 0 10,19.90039 14.65,14.65 0 0 0 4.47852,-0.75 c 0,27.92 -18.29016,35.54102 -47.16016,35.54102 -28.87,0 -46.33984,-12.73149 -46.33984,-40.77148 a 14.17,14.17 0 0 0 6.4414,1.56054 14.33,14.33 0 0 0 14.3086,-14.31054 14.1,14.1 0 0 0 -3,-8.8086 12.8,12.8 0 0 0 -10,-16 13.75,13.75 0 0 0 -25.34961,0 12.82,12.82 0 0 0 -10,16.04883 14.18,14.18 0 0 0 -3,8.79101 14.33,14.33 0 0 0 14.32031,14.3086 14.1,14.1 0 0 0 6.07031,-1.38867 c 0,27.87 -16.61992,40.59961 -47.66992,40.59961 -31.05,0 -46.54101,-10.05016 -46.54101,-47.91016 a 16,16 0 0 0 8,2.19922 A 16.15,16.15 0 0 0 766,240.0293 a 14.38,14.38 0 0 0 -11.49023,-18.37891 15.51,15.51 0 0 0 -28.84961,0 14.41,14.41 0 0 0 -11.51954,18.41016 16.12,16.12 0 0 0 20.71876,24.07031 c 0,37.75 -17.29946,48 -47.18946,48 -34.58,0 -46.36914,-19.54024 -46.36914,-51.24024 a 19.51,19.51 0 0 0 26.46875,-28.32031 16.94,16.94 0 0 0 0.84961,-5.33008 17.29,17.29 0 0 0 -15,-17.18945 18.73,18.73 0 0 0 -35.10937,0 17.28,17.28 0 0 0 -15,17.19922 16.89,16.89 0 0 0 0.85937,5.35938 19.49,19.49 0 0 0 25.86133,28.67968 c 0,21.41072 -10.35113,49.27232 -43.45313,50.75 h -910.54687 c -31,-0.76 -54.54102,-7.57929 -54.54102,-29.52929 a 10,10 0 0 0 3.3711,0.64062 10.29,10.29 0 0 0 10.27929,-10.28125 10.18,10.18 0 0 0 -2,-6.13867 9.34,9.34 0 0 0 0.26954,-2.24024 9.22,9.22 0 0 0 -7.29883,-9.05078 9.9,9.9 0 0 0 -18,0 9.22,9.22 0 0 0 -7.33008,9.05078 9.37,9.37 0 0 0 0.2793,2.25 10.29,10.29 0 0 0 8.25976,16.41016 9.91,9.91 0 0 0 3.30078,-0.62109 c 0,25.3 -19.07937,29.58008 -47.60937,29.58008 -28.53,0 -47.85157,-7.43032 -47.85156,-35.57032 a 14.64,14.64 0 0 0 4.57031,0.78125 12.47,12.47 0 0 0 10,-19.91992 11.23,11.23 0 0 0 -8.5293,-13.67969 12,12 0 0 0 -21.88086,0 11.17,11.17 0 0 0 -8.87893,11 11.31,11.31 0 0 0 0.3301,2.71875 12.48,12.48 0 0 0 10,19.90039 14.65,14.65 0 0 0 4.47852,-0.75 c 0,27.92 -18.29012,35.54102 -47.16012,35.54102 -28.87,0 -46.3399,-12.73149 -46.3399,-40.77148 a 14.17,14.17 0 0 0 6.4414,1.56054 14.33,14.33 0 0 0 14.3086,-14.31054 14.1,14.1 0 0 0 -3,-8.8086 12.8,12.8 0 0 0 -10,-16 13.75,13.75 0 0 0 -25.3496,0 12.82,12.82 0 0 0 -10,16.04883 14.18,14.18 0 0 0 -3,8.79101 14.33,14.33 0 0 0 14.3203,14.3086 14.1,14.1 0 0 0 6.0703,-1.38867 c 0,27.87 -16.6199,40.59961 -47.6699,40.59961 -31.05,0 -46.541,-10.05016 -46.541,-47.91016 a 16,16 0 0 0 8,2.19922 16.15,16.15 0 0 0 12.4707,-26.41992 14.38,14.38 0 0 0 -11.4902,-18.37891 15.51,15.51 0 0 0 -28.8496,0 14.41,14.41 0 0 0 -11.5196,18.41016 16.12,16.12 0 0 0 20.7188,24.07031 c 0,37.75 -17.2995,48 -47.1895,48 -34.58,0 -46.3691,-19.54024 -46.3691,-51.24024 a 19.51,19.51 0 0 0 26.4687,-28.32031 16.94,16.94 0 0 0 0.8496,-5.33008 17.29,17.29 0 0 0 -15,-17.18945 18.73,18.73 0 0 0 -17.2793,-12.19922 z"
     id="path34"
     inkscape:connector-curvature="0" />
  <rect
     style="opacity:1;fill:#ffd43c;fill-opacity:1;stroke:none;stroke-opacity:1"
     id="rect4924"
     width="914.1001"
     height="67.51001"
     x="2024"
     y="275.64001" />
  <rect
     style="opacity:1;fill:#b7d433;fill-opacity:1;stroke:none;stroke-opacity:1"
     id="rect4946"
     width="914.1001"
     height="49.309998"
     x="2024"
     y="293.84" />
  <rect
     style="opacity:1;fill:#00ce7c;fill-opacity:1;stroke:none;stroke-width:1.5322181;stroke-opacity:1"
     id="rect4948"
     width="953.75"
     height="34.109985"
     x="1984"
     y="312.04001" />
  <rect
     style="opacity:1;fill:#009abf;fill-opacity:1;stroke:none;stroke-width:2.59178948;stroke-opacity:1"
     id="rect4952"
     width="963.125"
     height="18.125"
     x="1975.25"
     y="330.29001"
     ry="0" />
  <path
     style="fill:#009abf"
     d="m -800.6406,314.16016 c -15.8,0 -24.3295,5.27953 -31.1895,9.51953 -5.7,3.61 -10.3499,6.43101 -20.1699,6.54101 v 18.19922 c 15.4,-0.14 23.8103,-5.31976 30.5703,-9.50976 6,-3.69 10.6699,-6.59961 20.9199,-6.59961 10.25,0 14.9995,2.90961 20.9395,6.59961 6.85,4.25 15.3894,9.51953 31.1894,9.51953 15.8,0 24.351,-5.26977 31.211,-9.50977 6,-3.69 10.6792,-6.60937 20.9492,-6.60937 10.27,0 15.0012,2.90937 20.9512,6.60937 6.86,4.24 15.3892,9.50977 31.1992,9.50977 15.81,0 24.3509,-5.26977 31.2109,-9.50977 6,-3.69 10.6792,-6.60937 20.9492,-6.60937 10.27,0 14.9995,2.90961 20.9395,6.59961 6.86,4.25 15.3912,9.51953 31.2012,9.51953 15.81,0 24.3392,-5.26977 31.1992,-9.50977 6,-3.7 10.68116,-6.60937 20.95116,-6.60937 10.27,0 15,2.91937 21,6.60937 6.86,4.24 15.39875,9.50977 31.21875,9.50977 15.82,0 24.37023,-5.26977 31.24023,-9.50977 6,-3.69 10.7,-6.60937 21,-6.60937 10.3,0 15,2.91937 21,6.60937 6.87,4.24 15.42024,9.50977 31.24024,9.50977 306.24166,-1.40353 613.09341,2.04153 919,-0.1875 12.84263,-0.9266 20.35574,-5.52974 26.49023,-9.33203 6,-3.69 10.66992,-6.59961 20.91992,-6.59961 10.25,0 14.99946,2.90961 20.93946,6.59961 6.85,4.25 15.38945,9.51953 31.18945,9.51953 15.8,0 24.35094,-5.26977 31.21094,-9.50977 6,-3.69 10.67922,-6.60937 20.94922,-6.60937 10.27,0 15.00117,2.90937 20.95117,6.60937 6.86,4.24 15.38922,9.50977 31.19922,9.50977 15.81,0 24.35094,-5.26977 31.21093,-9.50977 6,-3.69 10.67922,-6.60937 20.94922,-6.60937 10.27,0 14.99946,2.90961 20.93946,6.59961 6.86,4.25 15.39117,9.51953 31.20117,9.51953 15.81,0 24.33922,-5.26977 31.19922,-9.50977 6,-3.7 10.68117,-6.60937 20.95117,-6.60937 10.27,0 15,2.91937 21,6.60937 6.86,4.24 15.39875,9.50977 31.21874,9.50977 15.82,0 24.3702,-5.26977 31.2402,-9.50977 6,-3.69 10.7,-6.60937 21,-6.60937 10.3,0 15,2.91937 21,6.60937 6.87,4.24 15.4203,9.50977 31.2403,9.50977 h 919 V 330.28906 H 1105 c -10.29,0 -15,-2.91937 -21,-6.60937 -6.87,-4.24 -15.4102,-9.51953 -31.2402,-9.51953 -15.83,0 -24.3703,5.27953 -31.2403,9.51953 -6,3.69 -10.7,6.60937 -21,6.60937 -10.29997,0 -14.99997,-2.91937 -20.99997,-6.60937 -6.86,-4.24 -15.39875,-9.51953 -31.21875,-9.51953 -15.82,0 -24.35094,5.27953 -31.21094,9.51953 -6,3.69 -10.66945,6.60937 -20.93945,6.60937 -10.27,0 -14.99945,-2.91937 -20.93945,-6.60937 -6.86,-4.24 -15.40117,-9.51953 -31.20117,-9.51953 -15.8,0 -24.34899,5.27953 -31.20899,9.51953 -6,3.69 -10.68117,6.60937 -20.95117,6.60937 -10.27,0 -15,-2.91937 -21,-6.60937 -6.86,-4.24 -15.38922,-9.51953 -31.19922,-9.51953 -15.81,0 -24.35094,5.27953 -31.21094,9.51953 -6,3.69 -10.67922,6.60937 -20.94922,6.60937 -10.27,0 -14.99945,-2.91937 -20.93945,-6.60937 -6.85,-4.24 -15.39141,-9.51953 -31.1914,-9.51953 -15.80001,0 -24.32946,5.27953 -31.18946,9.51953 -5.7,3.61 -10.34992,6.43101 -20.16992,6.54101 -304.84945,0.13557 -610.02981,0.0684 -915,0.0684 -10.29,0 -15,-2.91937 -21,-6.60937 -6.87,-4.24 -15.41023,-9.51953 -31.24023,-9.51953 -15.83,0 -24.37024,5.27953 -31.24024,9.51953 -6,3.69 -10.7,6.60937 -21,6.60937 -10.3,0 -15,-2.91937 -21,-6.60937 -6.86,-4.24 -15.39875,-9.51953 -31.21875,-9.51953 -15.81998,0 -24.35098,5.27953 -31.21098,9.51953 -6,3.69 -10.6694,6.60937 -20.9394,6.60937 -10.27,0 -14.9995,-2.91937 -20.9395,-6.60937 -6.86,-4.24 -15.4011,-9.51953 -31.2011,-9.51953 -15.8,0 -24.349,5.27953 -31.209,9.51953 -6,3.69 -10.6812,6.60937 -20.9512,6.60937 -10.27,0 -15,-2.91937 -21,-6.60937 -6.86,-4.24 -15.3892,-9.51953 -31.1992,-9.51953 -15.81,0 -24.3509,5.27953 -31.2109,9.51953 -6,3.69 -10.6793,6.60937 -20.9493,6.60937 -10.27,0 -14.9994,-2.91937 -20.9394,-6.60937 -6.85,-4.24 -15.3914,-9.51953 -31.1914,-9.51953 z"
     id="path841"
     inkscape:connector-curvature="0"
     sodipodi:nodetypes="sccccscscscscscscscscsccccscscscscscscscscscsccscscscscscscscscscsccccscscscscscscscscs" />
  <path
     style="fill:#306a99"
     d="m -800.5098,332.28906 c -15.8,0 -24.3294,5.28149 -31.1894,9.52149 -5.83,3.63 -10.4808,6.47937 -20.3008,6.60937 v 18.19922 c 15.4,-0.14 23.8103,-5.31976 30.5703,-9.50976 6,-3.69 10.6699,-6.59961 20.9199,-6.59961 10.25,0 14.9995,2.9096 20.9395,6.59961 6.85,4.24 15.3894,9.52148 31.1894,9.52148 15.8,0 24.351,-5.28148 31.211,-9.52148 6,-3.68001 10.6792,-6.59961 20.9492,-6.59961 10.27,0 15.0012,2.9096 20.9512,6.59961 6.86,4.24 15.3892,9.52148 31.1992,9.52148 15.81,0 24.3509,-5.28148 31.2109,-9.52148 6,-3.68001 10.6792,-6.59961 20.9492,-6.59961 10.27,0 14.9995,2.9096 20.9395,6.59961 6.86,4.24 15.3912,9.52148 31.2012,9.52148 15.81,0 24.3392,-5.28148 31.1992,-9.52148 6,-3.69 10.68116,-6.59961 20.95116,-6.59961 10.27,0 15,2.91937 21,6.60937 6.86,4.24 15.39875,9.51172 31.21875,9.51172 15.82,0 24.37023,-5.27172 31.24023,-9.51172 6,-3.69 10.7,-6.60937 21,-6.60937 10.3,0 15,2.91937 21,6.60937 6.87,4.24 15.42024,9.51172 31.24024,9.51172 h 919 c 9.33607,-1.14355 18.98256,-4.88114 26.49023,-9.52148 6,-3.69 10.66992,-6.59961 20.91992,-6.59961 10.25,0 14.99946,2.9096 20.93946,6.59961 6.85,4.24 15.38945,9.52148 31.18945,9.52148 15.8,0 24.35094,-5.28148 31.21094,-9.52148 6,-3.68001 10.67922,-6.59961 20.94922,-6.59961 10.27,0 15.00117,2.9096 20.95117,6.59961 6.86,4.24 15.38922,9.52148 31.19922,9.52148 15.81,0 24.35094,-5.28148 31.21093,-9.52148 6,-3.68001 10.67922,-6.59961 20.94922,-6.59961 10.27,0 14.99946,2.9096 20.93946,6.59961 6.86,4.24 15.39117,9.52148 31.20117,9.52148 15.81,0 24.33922,-5.28148 31.19922,-9.52148 6,-3.69 10.68117,-6.59961 20.95117,-6.59961 10.27,0 15,2.91937 21,6.60937 6.86,4.24 15.39875,9.51172 31.21874,9.51172 15.82,0 24.3702,-5.27172 31.2402,-9.51172 6,-3.69 10.7,-6.60937 21,-6.60937 10.3,0 15,2.91937 21,6.60937 6.87,4.24 15.4203,9.51172 31.2403,9.51172 h 919 V 348.42969 H 1105 c -10.29,0 -15,-2.90961 -21,-6.59961 -6.87,-4.24 -15.4102,-9.51953 -31.2402,-9.51953 -15.83,0 -24.3703,5.27953 -31.2403,9.51953 -6,3.69 -10.7,6.59961 -21,6.59961 -10.29997,0 -14.99997,-2.90961 -20.99997,-6.59961 -6.86,-4.24 -15.39875,-9.51953 -31.21875,-9.51953 -15.82,0 -24.35094,5.27953 -31.21094,9.51953 -6,3.69 -10.66945,6.59961 -20.93945,6.59961 -10.27,0 -14.99945,-2.90961 -20.93945,-6.59961 -6.86,-4.24 -15.40117,-9.51953 -31.20117,-9.51953 -15.8,0 -24.34899,5.27953 -31.20899,9.51953 -6,3.69 -10.68117,6.59961 -20.95117,6.59961 -10.27,0 -15,-2.90961 -21,-6.59961 -6.86,-4.24 -15.38922,-9.51953 -31.19922,-9.51953 -15.81,0 -24.35094,5.27953 -31.21094,9.51953 -6,3.69 -10.67922,6.59961 -20.94922,6.59961 -10.27,0 -14.99945,-2.90961 -20.93945,-6.59961 -6.72,-4.24 -15.26055,-9.54102 -31.06055,-9.54102 -15.8,0 -24.32945,5.28149 -31.18945,9.52149 -5.83,3.63 -10.48078,6.47937 -20.30078,6.60937 -304.97851,0.0194 -610.00424,0.01 -915,0.01 -10.29,0 -15,-2.90961 -21,-6.59961 -6.87,-4.24 -15.41023,-9.51953 -31.24023,-9.51953 -15.83,0 -24.37024,5.27953 -31.24024,9.51953 -6,3.69 -10.7,6.59961 -21,6.59961 -10.3,0 -15,-2.90961 -21,-6.59961 -6.86,-4.24 -15.39875,-9.51953 -31.21875,-9.51953 -15.81998,0 -24.35098,5.27953 -31.21098,9.51953 -6,3.69 -10.6694,6.59961 -20.9394,6.59961 -10.27,0 -14.9995,-2.90961 -20.9395,-6.59961 -6.86,-4.24 -15.4011,-9.51953 -31.2011,-9.51953 -15.8,0 -24.349,5.27953 -31.209,9.51953 -6,3.69 -10.6812,6.59961 -20.9512,6.59961 -10.27,0 -15,-2.90961 -21,-6.59961 -6.86,-4.24 -15.3892,-9.51953 -31.1992,-9.51953 -15.81,0 -24.3509,5.27953 -31.2109,9.51953 -6,3.69 -10.6793,6.59961 -20.9493,6.59961 -10.27,0 -14.9994,-2.90961 -20.9394,-6.59961 -6.72,-4.24 -15.2606,-9.54102 -31.0606,-9.54102 z"
     id="path843"
     inkscape:connector-curvature="0"
     sodipodi:nodetypes="sccccscscscscscscscscscsccscscscscscscscscscsccscscscscscscscscscsccccscscscscscscscscs" />
</svg>
