<svg xmlns="http://www.w3.org/2000/svg" width="100" height="40" viewBox="0 0 100 40">
  <path fill="#FFFFFF" fill-rule="evenodd" d="M99.7802198,40 C99.9097691,39.2872265 99.999748,38.562103 99.999748,37.8125315 C99.999748,31.0820143 94.5430487,25.625063 87.8122795,25.625063 C86.8404073,25.625063 85.9076016,25.7662063 85.0022684,25.9809457 C82.949138,18.2273919 75.9033169,12.5 67.499748,12.5 C65.5272709,12.5 63.6351951,12.8241254 61.8577982,13.4091138 C59.7802198,5.68832544 52.748765,0 44.374937,0 C34.3648553,0 26.250126,8.11548543 26.250126,18.125063 C26.250126,19.0339248 26.3375844,19.9221192 26.4694022,20.7959472 C23.9694022,19.496169 21.1374635,18.749874 18.125063,18.749874 C8.11498135,18.749874 0,26.8656115 0,36.874937 C0,37.9446013 0.10989011,38.9842726 0.288083476,40 L99.7802198,40 Z"/>
</svg>
