<svg xmlns="http://www.w3.org/2000/svg" width="100" height="54" viewBox="0 0 100 54">
  <g fill="none" fill-rule="evenodd">
    <path fill="#FEFEFE" d="M100.001838,41.293647 C100.001838,34.2773029 94.2251935,28.587294 87.0990811,28.587294 C85.2020764,28.587294 83.4163293,29.0131984 81.7937183,29.7394515 C79.4366822,24.3904124 74.0369379,20.6477467 67.7440076,20.6477467 C66.7283131,20.6477467 65.7426207,20.7554537 64.7844302,20.9419408 C62.3111361,8.99076797 51.5779021,0 38.7095221,0 C24.962332,0 13.6521836,10.2678657 12.2483376,23.4401286 C5.24223348,25.0028038 0,31.1445668 0,38.51419 C0,46.6574574 6.4079382,53.2620529 14.5159927,53.8793681 L14.5159927,54 L87.9047612,54 L87.9047612,53.9193736 C94.6477223,53.5039322 100.001838,48.0385694 100.001838,41.293647"/>
  </g>
</svg>
