<?xml version="1.0" encoding="UTF-8" standalone="no"?>
<!-- Created with Inkscape (http://www.inkscape.org/) -->

<svg
   xmlns:dc="http://purl.org/dc/elements/1.1/"
   xmlns:cc="http://creativecommons.org/ns#"
   xmlns:rdf="http://www.w3.org/1999/02/22-rdf-syntax-ns#"
   xmlns:svg="http://www.w3.org/2000/svg"
   xmlns="http://www.w3.org/2000/svg"
   xmlns:sodipodi="http://sodipodi.sourceforge.net/DTD/sodipodi-0.dtd"
   xmlns:inkscape="http://www.inkscape.org/namespaces/inkscape"
   id="svg3336"
   version="1.1"
   inkscape:version="0.91 r13725"
   xml:space="preserve"
   width="800"
   height="385.70499"
   viewBox="0 0 800 385.70498"
   sodipodi:docname="pycon2017.svg"><metadata
     id="metadata3342"><rdf:RDF><cc:Work
         rdf:about=""><dc:format>image/svg+xml</dc:format><dc:type
           rdf:resource="http://purl.org/dc/dcmitype/StillImage" /><dc:title></dc:title></cc:Work></rdf:RDF></metadata><defs
     id="defs3340"><clipPath
       clipPathUnits="userSpaceOnUse"
       id="clipPath3350"><path
         d="M 0,800 1280,800 1280,0 0,0 0,800 Z"
         id="path3352"
         inkscape:connector-curvature="0" /></clipPath></defs><sodipodi:namedview
     pagecolor="#ffffff"
     bordercolor="#666666"
     borderopacity="1"
     objecttolerance="10"
     gridtolerance="10"
     guidetolerance="10"
     inkscape:pageopacity="0"
     inkscape:pageshadow="2"
     inkscape:window-width="1920"
     inkscape:window-height="1017"
     id="namedview3338"
     showgrid="false"
     inkscape:zoom="0.848"
     inkscape:cx="800"
     inkscape:cy="28.301887"
     inkscape:window-x="-8"
     inkscape:window-y="-8"
     inkscape:window-maximized="1"
     inkscape:current-layer="g3344" /><g
     id="g3344"
     inkscape:groupmode="layer"
     inkscape:label="bridge-logo"
     transform="matrix(1.25,0,0,-1.25,0,385.70502)"><g
       id="g3346"
       transform="matrix(2.2225695,0,0,2.2225695,-1090.281,-780.00942)"><g
         id="g3348"
         clip-path="url(#clipPath3350)"><g
           id="g3354"
           transform="translate(566.54,376.6311)"><path
             d="m 0,0 c 0,1.261 -0.21,3.613 -2.73,3.613 l -0.294,0 c -0.966,0 -1.387,-0.588 -1.555,-1.26 l 0,-1.68 0,-6.05 c 0,-1.176 1.177,-1.512 2.52,-1.302 0.673,0.168 1.387,0.84 1.723,1.513 C -0.168,-4.83 0,-4.158 0,-3.486 L 0,0 Z M 3.696,-3.99 C 3.36,-6.217 2.814,-7.225 2.017,-8.191 1.092,-9.241 -0.336,-10.628 -2.73,-10.586 l -0.294,0 c -0.756,0 -1.555,-0.756 -1.555,-1.932 l 0,-5.922 0,-2.521 c 0,-0.925 -0.798,-1.639 -1.764,-1.681 -0.462,0 -0.967,0.21 -1.261,0.504 -0.335,0.294 -0.545,0.756 -0.545,1.177 l 0,0.042 0,25.75 c 0,2.395 1.175,3.024 3.738,3.024 0.841,0 1.681,0.042 2.436,-0.042 C -0.63,7.687 0.378,7.268 1.176,6.764 1.975,6.26 2.646,5.251 3.192,3.781 3.738,2.353 3.991,-1.134 3.696,-3.99"
             style="fill:#000000;fill-opacity:1;fill-rule:nonzero;stroke:none"
             id="path3356"
             inkscape:connector-curvature="0" /></g><g
           id="g3358"
           transform="translate(587.1416,382.261)"><path
             d="m 0,0 0,-0.042 c -0.168,-0.631 -0.378,-1.261 -0.547,-1.891 -0.378,-1.302 -0.756,-2.604 -1.134,-3.907 -0.462,-1.512 -0.923,-3.024 -1.343,-4.536 -0.169,-0.547 -0.463,-1.513 -0.715,-2.437 -0.546,-1.806 -0.798,-3.655 -0.798,-5.502 l 0,-3.151 0,-3.613 0,-1.512 c 0,-1.009 -0.84,-1.764 -1.807,-1.806 -0.42,0 -0.924,0.251 -1.26,0.545 -0.335,0.336 -0.503,0.798 -0.503,1.261 l 0,0.042 c -0.042,0.588 0,1.218 0,1.806 l 0,3.823 0,2.773 c 0,1.847 -0.294,3.696 -0.799,5.502 -0.336,1.092 -0.672,2.227 -0.84,2.815 -0.42,1.512 -0.882,3.024 -1.344,4.537 -0.337,1.26 -0.715,2.478 -1.093,3.738 -0.126,0.504 -0.294,1.008 -0.462,1.555 -0.251,0.966 0.378,1.89 1.26,2.184 0.421,0.126 1.009,0.042 1.387,-0.168 0.378,-0.252 0.672,-0.63 0.798,-1.092 l 0.042,0 c 0.168,-0.63 0.336,-1.261 0.546,-1.891 0.379,-1.302 0.757,-2.604 1.134,-3.906 0.252,-0.799 0.462,-1.597 0.714,-2.395 0.126,-0.461 0.798,-0.461 0.924,0 0.295,1.008 0.589,1.975 0.841,2.941 0.378,1.218 0.756,2.478 1.134,3.696 0.126,0.546 0.294,1.051 0.42,1.555 0.294,0.966 1.26,1.47 2.226,1.26 C -0.799,2.1 -0.378,1.722 -0.168,1.386 0.084,0.966 0.126,0.42 0,0"
             style="fill:#000000;fill-opacity:1;fill-rule:nonzero;stroke:none"
             id="path3360"
             inkscape:connector-curvature="0" /></g><g
           id="g3362"
           transform="translate(601.6895,362.8528)"><path
             d="m 0,0 c 0.966,0 1.764,-0.756 1.764,-1.722 l 0,-1.386 c 0,-1.176 -0.252,-2.311 -0.966,-3.277 -0.714,-1.008 -1.723,-1.764 -2.983,-2.184 -0.797,-0.294 -1.68,-0.336 -2.562,-0.294 -0.546,0 -1.176,0.126 -1.723,0.336 -0.714,0.252 -1.259,0.546 -1.847,1.008 -0.841,0.672 -1.513,1.68 -1.807,2.773 -0.168,0.63 -0.168,1.302 -0.168,1.974 l 0,18.609 c 0,1.177 0.252,2.31 0.966,3.276 0.715,1.009 1.722,1.765 2.982,2.185 0.799,0.294 1.681,0.336 2.563,0.294 0.547,0 1.177,-0.126 1.722,-0.336 0.714,-0.252 1.261,-0.546 1.849,-1.008 0.84,-0.672 1.512,-1.681 1.806,-2.772 0.168,-0.63 0.168,-1.303 0.168,-1.975 l 0,-1.05 c 0,-0.841 -0.798,-1.638 -1.68,-1.638 l -0.294,0 c -0.841,0 -1.723,0.797 -1.723,1.638 l 0,0.714 c 0,0.84 -0.504,2.269 -2.31,2.269 -1.722,0 -2.353,-1.429 -2.353,-2.395 l 0,-17.476 c 0,-0.881 0.547,-2.267 2.311,-2.267 1.764,0 2.352,1.428 2.352,2.351 l 0,0.631 C -1.933,-0.798 -1.261,0 -0.252,0 L 0,0 Z"
             style="fill:#000000;fill-opacity:1;fill-rule:nonzero;stroke:none"
             id="path3364"
             inkscape:connector-curvature="0" /></g><g
           id="g3366"
           transform="translate(616.3926,378.0598)"><path
             d="m 0,0 c 0,0.84 -0.504,2.269 -2.311,2.269 -1.721,0 -2.352,-1.429 -2.352,-2.395 l 0,-1.135 0,-15.542 0,-0.883 c 0,-0.881 0.547,-2.267 2.31,-2.267 1.765,0 2.353,1.428 2.353,2.351 L 0,-16.425 0,-0.882 0,0 Z m 3.697,0.336 0,-18.693 c 0,-1.176 -0.253,-2.311 -0.967,-3.277 -0.713,-1.008 -1.721,-1.764 -2.982,-2.184 -0.798,-0.294 -1.681,-0.336 -2.562,-0.294 -0.546,0 -1.176,0.126 -1.723,0.336 -0.714,0.252 -1.26,0.546 -1.848,1.007 -0.841,0.673 -1.512,1.681 -1.806,2.774 -0.168,0.63 -0.168,1.302 -0.168,1.974 l 0,18.693 c 0,1.177 0.252,2.31 0.965,3.276 0.715,1.009 1.723,1.765 2.983,2.185 0.799,0.294 1.681,0.336 2.562,0.294 0.547,0 1.177,-0.126 1.723,-0.336 C 0.588,5.839 1.135,5.545 1.723,5.083 2.563,4.411 3.234,3.402 3.528,2.311 3.697,1.681 3.697,1.008 3.697,0.336"
             style="fill:#000000;fill-opacity:1;fill-rule:nonzero;stroke:none"
             id="path3368"
             inkscape:connector-curvature="0" /></g><g
           id="g3370"
           transform="translate(637.54,379.4036)"><path
             d="m 0,0 0,-6.721 0,-7.771 0,-6.385 0,-2.688 c 0,-1.009 -0.799,-1.597 -1.765,-1.765 -0.42,-0.084 -0.881,0 -1.259,0.21 -0.337,0.168 -0.757,0.882 -0.841,1.093 -0.336,1.091 -0.672,2.183 -1.008,3.234 -0.672,2.227 -1.387,4.452 -2.059,6.679 -0.462,1.47 -0.923,2.982 -1.385,4.453 -0.126,0.462 -0.841,0.336 -0.841,-0.126 l 0,-4.705 0,-6.385 0,-2.688 c 0,-1.009 -0.798,-1.765 -1.764,-1.807 -0.462,0 -0.967,0.252 -1.261,0.546 -0.336,0.336 -0.546,0.799 -0.546,1.261 l 0,0.042 0,3.234 0,6.763 0,7.729 0,6.386 0,2.688 c 0,1.008 0.84,1.764 1.807,1.806 1.008,0 1.806,-0.63 2.227,-1.554 0.336,-1.05 0.672,-2.142 1.008,-3.234 0.713,-2.227 1.385,-4.453 2.1,-6.68 0.378,-1.26 0.798,-2.562 1.176,-3.864 0.168,-0.463 0.84,-0.336 0.84,0.126 l 0,4.326 0,6.386 0,2.688 c 0,1.008 0.799,1.764 1.764,1.806 0.462,0 0.966,-0.21 1.26,-0.504 C -0.211,4.243 0,3.739 0,3.277 L 0,3.235 0,0 Z"
             style="fill:#000000;fill-opacity:1;fill-rule:nonzero;stroke:none"
             id="path3372"
             inkscape:connector-curvature="0" /></g><g
           id="g3374"
           transform="translate(666.2236,354.5354)"><path
             d="m 0,0 c -0.378,-0.378 -0.967,-0.588 -1.513,-0.588 l -0.84,0 -5.796,0 c -1.051,0 -2.227,0.882 -2.227,2.101 0,1.05 0.168,2.142 0.42,3.192 0.504,1.933 1.303,3.738 2.143,5.545 0.839,1.765 1.679,3.486 2.478,5.293 0.84,2.017 1.512,4.075 1.848,6.259 0.042,0.462 0.085,0.883 0.085,2.142 -0.127,0.924 -0.421,1.807 -1.891,1.807 -1.261,0 -1.597,-0.883 -1.807,-1.681 l 0,-0.798 C -7.142,22.307 -7.687,21.55 -8.569,21.55 l -0.505,0 c -0.882,0 -1.638,1.345 -1.596,2.352 l 0,0.84 c 0,2.479 2.185,5.167 4.957,5.167 4.074,0.21 5.965,-2.225 6.133,-6.343 C 0.378,22.18 0.21,20.794 -0.084,19.449 -0.63,17.014 -1.555,14.745 -2.604,12.477 -3.445,10.544 -4.411,8.653 -5.251,6.722 -5.419,6.344 -5.545,5.965 -5.713,5.629 -6.049,4.621 -5.335,3.613 -4.285,3.613 l 2.772,0 C -0.925,3.613 -0.42,3.36 0,2.982 0.378,2.604 0.588,2.059 0.588,1.513 0.63,0.967 0.336,0.378 0,0"
             style="fill:#000000;fill-opacity:1;fill-rule:nonzero;stroke:none"
             id="path3376"
             inkscape:connector-curvature="0" /></g><g
           id="g3378"
           transform="translate(680.4854,370.7923)"><path
             d="m 0,0 c 0,0.294 -0.378,0.378 -0.504,0.126 l -3.613,-7.604 c -0.336,-0.755 -0.546,-1.553 -0.546,-2.393 l 0,-0.463 c 0,-0.882 0.546,-2.268 2.31,-2.268 1.765,0 2.353,1.428 2.353,2.352 L 0,0 Z m -4.663,-3.864 c 0,-0.294 0.42,-0.378 0.546,-0.126 l 3.613,7.603 C -0.168,4.327 0,5.167 0,6.007 L 0,7.352 C 0,8.191 -0.504,9.62 -2.311,9.62 -4.033,9.62 -4.663,8.191 -4.663,7.226 l 0,-11.09 z M 5.671,13.064 4.2,9.956 C 3.864,9.326 3.696,8.569 3.696,7.855 l 0,-0.168 0,-18.693 c 0,-1.176 -0.252,-2.31 -0.966,-3.276 -0.713,-1.008 -1.722,-1.765 -2.982,-2.185 -0.798,-0.294 -1.681,-0.336 -2.562,-0.294 -0.546,0 -1.177,0.126 -1.723,0.336 -0.714,0.252 -1.26,0.546 -1.848,1.009 -0.169,0.126 -0.337,0.294 -0.505,0.462 -0.252,0.252 -0.672,0.21 -0.839,-0.126 l -1.05,-2.185 c -0.168,-0.378 -0.631,-0.546 -1.009,-0.378 -0.378,0.168 -0.546,0.63 -0.336,1.008 l 1.345,2.815 c 0.336,0.756 0.462,1.554 0.462,2.352 0,0.252 -0.042,0.504 -0.042,0.798 l 0,18.693 c 0,1.177 0.252,2.311 0.965,3.277 0.714,1.009 1.723,1.764 2.983,2.184 0.799,0.294 1.681,0.336 2.562,0.294 0.546,0 1.177,-0.126 1.723,-0.336 0.714,-0.252 1.26,-0.546 1.849,-1.007 0.294,-0.252 0.546,-0.504 0.798,-0.756 0.209,-0.295 0.671,-0.252 0.839,0.084 l 0.925,1.973 c 0.21,0.379 0.63,0.547 1.008,0.337 0.378,-0.169 0.546,-0.631 0.378,-1.009"
             style="fill:#000000;fill-opacity:1;fill-rule:nonzero;stroke:none"
             id="path3380"
             inkscape:connector-curvature="0" /></g><g
           id="g3382"
           transform="translate(695.9414,355.7122)"><path
             d="m 0,0 c 0,-1.009 -0.84,-1.765 -1.806,-1.807 -0.462,0 -0.966,0.252 -1.26,0.546 C -3.402,-0.925 -3.57,-0.463 -3.57,0 l 0,0.042 0,22.18 c 0,0.546 -0.672,0.882 -1.092,0.546 l -1.219,-0.966 c -0.672,-0.462 -1.554,-0.378 -1.554,0.84 l 0,0.587 c 0,1.849 0.924,3.067 2.941,4.454 l 1.05,0.713 c 0.42,0.252 1.134,0.378 1.764,0.336 0.42,-0.042 0.84,-0.252 1.134,-0.545 C -0.21,27.893 0,27.389 0,26.927 L 0,26.885 0,0 Z"
             style="fill:#000000;fill-opacity:1;fill-rule:nonzero;stroke:none"
             id="path3384"
             inkscape:connector-curvature="0" /></g><g
           id="g3386"
           transform="translate(703.2568,353.9475)"><path
             d="m 0,0 c -0.966,0 -1.681,0.924 -1.471,1.849 l 5.545,23.902 c 0.168,0.672 -0.336,1.302 -1.008,1.302 l -1.764,0 c -0.588,0 -1.05,-0.462 -1.05,-1.05 l 0,-1.471 c 0,-0.924 -0.756,-1.68 -1.681,-1.68 l -0.168,0 c -0.924,0 -1.679,0.756 -1.679,1.68 l 0,4.579 c 0,0.84 0.672,1.47 1.469,1.47 l 9.285,0 c 0.713,0 1.217,-0.63 1.049,-1.302 L 2.017,1.176 C 1.849,0.462 1.218,0 0.504,0 L 0,0 Z"
             style="fill:#000000;fill-opacity:1;fill-rule:nonzero;stroke:none"
             id="path3388"
             inkscape:connector-curvature="0" /></g><g
           id="g3390"
           transform="translate(568.5039,465.0032)"><path
             d="m 0,0 c 1.187,-2.182 1.768,-4.372 1.688,-6.472 -0.074,-1.872 -0.643,-3.66 -1.684,-5.35 -0.943,-1.574 -2.211,-2.907 -3.5,-3.961 -0.982,-0.856 -1.249,-2.254 -0.628,-3.395 l 2.616,-4.809 c 0.297,-0.546 0.08,-1.21 -0.466,-1.507 l -0.024,-0.014 c -0.546,-0.297 -1.196,-0.104 -1.493,0.441 l -4.168,7.662 c -0.323,0.595 -0.148,1.334 0.434,1.682 1.658,1.031 3.91,2.738 5.307,5.072 0.837,1.355 1.28,2.785 1.343,4.265 0.067,1.707 -0.411,3.472 -1.409,5.307 -1.335,2.455 -3.21,4.07 -5.457,4.775 -2.181,0.581 -4.536,0.362 -6.618,-0.772 -3.967,-2.158 -6.148,-6.654 -3.774,-11.019 1.443,-2.652 4.912,-4.364 7.863,-2.759 1.587,0.864 2.905,2.577 2.52,4.584 -0.229,1.129 -0.953,1.988 -1.888,2.347 -0.462,0.199 -0.767,0.644 -0.722,1.151 l 0.011,0.038 c 0.065,0.709 0.83,1.19 1.522,0.923 0.615,-0.244 1.209,-0.627 1.717,-1.089 0.786,-0.794 1.326,-1.787 1.554,-2.915 0.616,-2.846 -1.056,-5.62 -3.635,-7.022 -3.892,-2.118 -8.795,-0.254 -10.926,3.663 -2.846,5.233 -0.627,11.195 4.679,14.082 2.653,1.444 5.636,1.748 8.329,0.932 C -5.431,5.434 -4.143,4.72 -2.997,3.736 -1.813,2.741 -0.823,1.513 0,0"
             style="fill:#000000;fill-opacity:1;fill-rule:nonzero;stroke:none"
             id="path3392"
             inkscape:connector-curvature="0" /></g><g
           id="g3394"
           transform="translate(577.3564,467.8108)"><path
             d="M 0,0 C -0.212,0.523 -0.886,1.286 -2.011,0.831 -3.084,0.397 -3.116,-0.651 -2.873,-1.254 -2.81,-1.41 -2.587,-1.96 -2.587,-1.96 l 3.918,-9.683 c 0.074,-0.182 0.148,-0.366 0.223,-0.549 0.222,-0.549 0.912,-1.276 2.01,-0.83 1.1,0.444 1.106,1.482 0.873,2.058 -0.074,0.183 -0.296,0.733 -0.296,0.733 L 0.223,-0.549 C 0.148,-0.366 0.074,-0.183 0,0 m 2.218,1.142 4.713,-11.645 c 0.297,-0.733 0.425,-1.503 0.223,-2.285 -0.19,-0.809 -0.628,-1.533 -1.306,-2.112 -0.423,-0.385 -0.962,-0.634 -1.523,-0.829 -0.34,-0.138 -0.764,-0.219 -1.157,-0.226 -0.509,-0.023 -0.923,0.022 -1.406,0.162 -0.693,0.207 -1.366,0.666 -1.824,1.272 -0.263,0.35 -0.433,0.769 -0.603,1.188 l -4.712,11.645 c -0.297,0.733 -0.426,1.502 -0.224,2.285 0.191,0.807 0.628,1.533 1.307,2.112 0.423,0.385 0.962,0.633 1.523,0.829 0.339,0.138 0.764,0.219 1.157,0.226 C -1.105,3.786 -0.691,3.74 -0.208,3.602 0.484,3.395 1.157,2.936 1.616,2.329 1.879,1.979 2.049,1.561 2.218,1.142"
             style="fill:#000000;fill-opacity:1;fill-rule:nonzero;stroke:none"
             id="path3396"
             inkscape:connector-curvature="0" /></g><g
           id="g3398"
           transform="translate(588.625,470.8831)"><path
             d="M 0,0 C -0.344,1.075 -1.021,1.896 -2.364,1.644 L -3.063,1.42 C -3.682,1.222 -3.83,0.76 -3.8,0.295 l 1.377,-4.302 c 0.198,-0.618 0.795,-0.723 1.432,-0.49 l 0.009,-0.027 c 0.233,0.104 0.771,0.277 0.87,0.337 0.404,0.219 0.732,0.769 0.818,1.241 0.038,0.25 0.017,0.687 -0.103,1.063 L 0,0 Z m 6.412,-14.014 c -0.243,-0.166 -0.609,-0.224 -0.903,-0.14 -0.312,0.049 -0.586,0.257 -0.753,0.5 -0.184,0.297 -0.395,0.585 -0.57,0.855 -0.851,1.269 -1.666,2.52 -2.508,3.762 -0.395,0.585 -0.474,0.737 -0.86,1.296 -0.175,0.269 -0.668,0.883 -1.286,0.684 L -0.495,-7.065 C -0.979,-7.22 -1.2,-7.824 -0.96,-8.577 l 1.937,-6.05 c 0.189,-0.591 -0.175,-1.212 -0.786,-1.436 -0.295,-0.095 -0.661,-0.064 -0.909,0.064 -0.275,0.119 -0.505,0.372 -0.591,0.641 L -6.593,1.149 c -0.49,1.534 0.134,2.177 1.774,2.703 l 1.559,0.499 c 0.161,0.051 0.296,0.094 0.439,0.11 0.886,0.195 1.609,0.16 2.215,0.027 C -0.001,4.356 0.627,3.876 1.252,3.127 1.877,2.379 2.7,0.36 3.063,-1.421 3.187,-2.271 3.266,-3.164 2.997,-3.991 2.608,-5.094 2.736,-6.327 3.395,-7.272 c 0.631,-0.955 1.368,-2.052 1.78,-2.691 0.517,-0.783 1.07,-1.584 1.588,-2.367 0.385,-0.559 0.18,-1.306 -0.351,-1.684"
             style="fill:#000000;fill-opacity:1;fill-rule:nonzero;stroke:none"
             id="path3400"
             inkscape:connector-curvature="0" /></g><g
           id="g3402"
           transform="translate(598.2021,480.5921)"><path
             d="m 0,0 c -0.065,-0.309 -0.289,-0.571 -0.541,-0.724 -0.401,-0.251 -0.838,-0.481 -1.254,-0.676 -0.784,-0.35 -1.181,-1.183 -0.967,-2.002 0.498,-1.913 3.449,-13.255 4.636,-17.819 0.171,-0.656 -0.186,-1.303 -0.842,-1.473 -0.601,-0.158 -1.317,0.24 -1.48,0.869 0,0 0.07,-0.274 -4.523,17.381 -0.292,1.12 -1.286,1.912 -2.464,1.956 -2.486,0.023 -4.921,1.083 -7.802,0.829 -1.225,-0.114 -2.122,-0.815 -2.955,-1.761 -0.475,-0.532 -1.203,-0.43 -1.693,-0.003 -0.227,0.203 -0.354,0.579 -0.344,0.873 0.004,0.322 0.146,0.564 0.342,0.819 0.548,0.697 1.269,1.293 2.032,1.725 1.281,0.684 2.751,0.861 4.184,0.738 1.673,-0.148 3.327,-0.564 5.007,-0.74 2.358,-0.203 4.788,-0.009 6.911,1.362 0.579,0.354 1.315,0.108 1.662,-0.444 C 0.062,0.658 0.1,0.289 0,0"
             style="fill:#000000;fill-opacity:1;fill-rule:nonzero;stroke:none"
             id="path3404"
             inkscape:connector-curvature="0" /></g><g
           id="g3406"
           transform="translate(610.1875,460.7054)"><path
             d="m 0,0 c -0.182,-0.238 -0.485,-0.444 -0.763,-0.5 l -4.924,-1 -0.166,-0.033 c -0.276,-0.057 -0.642,0.042 -0.903,0.191 -0.288,0.143 -0.438,0.458 -0.5,0.762 l -0.006,0.028 c -0.174,0.714 -0.292,1.439 -0.431,2.13 l -0.905,4.454 c -0.342,1.688 -0.685,3.375 -1.033,5.09 -0.286,1.411 -0.573,2.822 -0.853,4.205 -0.124,0.609 -0.242,1.19 -0.36,1.771 -0.135,0.664 0.318,1.274 0.948,1.43 0.304,0.063 0.665,-0.008 0.898,-0.163 0.266,-0.177 0.443,-0.486 0.506,-0.79 l 0.005,-0.027 c 0.169,-0.687 0.287,-1.411 0.432,-2.131 0.298,-1.466 0.601,-2.96 0.899,-4.426 0.348,-1.716 0.69,-3.403 1.039,-5.118 0.202,-0.996 0.404,-1.992 0.612,-3.016 0.207,-0.878 1.1,-1.447 1.985,-1.267 l 2.241,0.455 C -0.643,2.174 -0.021,1.667 0.142,1.008 0.226,0.737 0.149,0.261 0,0"
             style="fill:#000000;fill-opacity:1;fill-rule:nonzero;stroke:none"
             id="path3408"
             inkscape:connector-curvature="0" /></g><g
           id="g3410"
           transform="translate(614.6494,474.4192)"><path
             d="m 0,0 c -0.053,0.191 -0.302,0.131 -0.308,-0.041 l -0.051,-4.847 c 0.019,-0.368 0.024,-0.624 0.07,-0.759 0.046,-0.137 0.144,-0.238 0.243,-0.339 0.215,-0.115 0.449,-0.169 0.65,-0.172 0.199,-0.002 0.416,0.083 0.597,0.221 0.174,0.193 0.236,0.372 0.218,0.512 -0.019,0.14 -0.048,0.363 -0.115,0.668 L 0,0 Z m 6.099,-12.276 c -0.171,-0.222 -0.384,-0.335 -0.605,-0.392 -0.469,-0.118 -0.868,-0.113 -1.141,0.022 -0.274,0.135 -0.494,0.505 -0.658,1.111 l -0.338,1.066 C 3.289,-10.165 3.161,-9.84 2.978,-9.522 2.724,-9.1 2.435,-8.853 2.137,-8.749 1.866,-8.642 1.491,-8.605 1.016,-8.667 0.68,-8.711 0.406,-8.804 0.173,-8.976 -0.036,-9.117 -0.231,-9.37 -0.439,-9.739 c -0.115,-0.214 -0.205,-0.624 -0.247,-1.171 -0.014,-0.543 -0.016,-0.971 0.003,-1.338 0.016,-0.995 -0.427,-1.309 -1.127,-1.399 -0.252,-0.034 -0.48,-0.035 -0.627,0.002 -0.179,0.063 -0.337,0.185 -0.439,0.314 -0.103,0.129 -0.148,0.266 -0.195,0.401 -0.068,0.305 -0.087,0.672 -0.107,1.04 l 0.394,8.566 0.427,8.312 c 0.042,0.547 0.155,0.99 0.339,1.326 0.184,0.337 0.53,0.525 1.005,0.587 C -0.536,6.963 -0.154,6.87 0.082,6.588 0.318,6.306 0.506,5.96 0.651,5.494 0.815,4.89 2.65,-0.452 6.097,-10.511 c 0.386,-1.004 0.29,-1.357 0.002,-1.765"
             style="fill:#000000;fill-opacity:1;fill-rule:nonzero;stroke:none"
             id="path3412"
             inkscape:connector-curvature="0" /></g><g
           id="g3414"
           transform="translate(636.7305,486.9983)"><path
             d="m 0,0 c -0.067,-0.315 -0.279,-0.581 -0.523,-0.764 -0.246,-0.183 -0.611,-0.231 -0.897,-0.162 -0.315,0.069 -0.551,0.253 -0.764,0.525 -0.297,0.266 -0.563,0.478 -0.94,0.656 -1.7,0.587 -3.275,-0.63 -3.492,-2.366 -0.028,-0.539 0.03,-1.074 0.058,-1.61 l 1.064,-19.654 c 0.037,-0.677 -0.478,-1.101 -1.12,-1.248 -0.279,-0.071 -0.592,-0.032 -0.854,0.095 -0.231,0.1 -0.54,0.565 -0.603,0.703 l -3.511,9.482 c -0.102,0.306 -0.576,0.195 -0.56,-0.115 l 0.501,-9.249 c 0.037,-0.677 -0.472,-1.214 -1.119,-1.277 -0.31,-0.017 -0.658,0.134 -0.866,0.321 -0.237,0.213 -0.395,0.516 -0.412,0.826 l -10e-4,0.028 -0.974,17.991 c -0.037,0.676 0.5,1.214 1.147,1.278 0.677,0.036 1.235,-0.357 1.551,-0.963 l 3.377,-9.093 c 0.129,-0.304 0.576,-0.195 0.559,0.116 l -0.618,11.419 c -0.04,0.734 -0.023,1.469 0.192,2.188 0.215,0.747 0.573,1.445 1.107,2.04 0.507,0.564 1.135,0.966 1.826,1.258 0.582,0.229 1.224,0.378 1.876,0.356 C -3.26,2.765 -2.546,2.634 -1.878,2.302 -1.183,2 -0.618,1.493 -0.161,0.896 0.021,0.651 0.041,0.285 0,0"
             style="fill:#000000;fill-opacity:1;fill-rule:nonzero;stroke:none"
             id="path3416"
             inkscape:connector-curvature="0" /></g><g
           id="g3418"
           transform="translate(639.3154,467.7659)"><path
             d="m 0,0 0.189,9.768 c 0.019,0.959 -0.348,2.378 -1.534,2.401 -1.185,0.023 -1.571,-0.901 -1.582,-1.494 L -3.152,-0.898 c -0.013,-0.65 0.391,-1.619 1.549,-1.641 C -0.276,-2.564 -0.023,-1.186 0,0 M 2.432,-1.262 C 2.401,-2.843 1.704,-3.846 1.07,-4.482 0.725,-4.843 0.298,-4.976 -0.185,-5.136 c -0.37,-0.135 -1.247,-0.202 -1.359,-0.2 -0.227,-0.023 -0.48,-0.018 -0.791,-0.013 l -0.848,0.017 c -0.536,0.011 -2.516,-0.177 -2.481,1.63 l 0.329,16.909 c 0.031,1.608 0.83,2.017 2.552,1.983 0.565,-0.01 1.13,0.006 1.637,-0.06 0.902,-0.102 1.574,-0.398 2.103,-0.746 0.419,-0.263 0.89,-0.752 1.136,-1.153 C 2.56,12.573 2.702,11.158 2.671,9.577 L 2.432,-1.262 Z"
             style="fill:#000000;fill-opacity:1;fill-rule:nonzero;stroke:none"
             id="path3420"
             inkscape:connector-curvature="0" /></g><g
           id="g3422"
           transform="translate(643.5664,463.8255)"><path
             d="M 0,0 C 0.024,0.338 0.326,0.6 0.664,0.575 L 1.734,0.499 C 2.072,0.476 2.334,0.174 2.311,-0.164 L 2.236,-1.206 C 2.196,-1.77 1.904,-2.287 1.456,-2.623 L 0.322,-3.448 C 0.083,-3.63 -0.243,-3.437 -0.224,-3.155 L 0,0 Z"
             style="fill:#000000;fill-opacity:1;fill-rule:nonzero;stroke:none"
             id="path3424"
             inkscape:connector-curvature="0" /></g><g
           id="g3426"
           transform="translate(664.5352,475.6087)"><path
             d="M 0,0 C 0.102,0.551 -0.058,1.548 -1.242,1.765 -2.371,1.972 -2.956,1.111 -3.072,0.478 -3.103,0.312 -3.208,-0.266 -3.208,-0.266 l -1.869,-10.19 c -0.035,-0.193 -0.07,-0.386 -0.107,-0.579 -0.105,-0.578 0.086,-1.553 1.243,-1.765 1.157,-0.212 1.713,0.654 1.825,1.26 0.035,0.192 0.141,0.77 0.141,0.77 l 1.87,10.192 C -0.07,-0.386 -0.035,-0.193 0,0 M 2.464,-0.225 0.217,-12.48 c -0.142,-0.772 -0.444,-1.485 -1.028,-2.033 -0.589,-0.575 -1.341,-0.949 -2.217,-1.073 -0.56,-0.097 -1.143,-0.018 -1.716,0.115 -0.359,0.066 -0.756,0.224 -1.089,0.427 -0.438,0.252 -0.761,0.51 -1.091,0.884 -0.47,0.542 -0.789,1.283 -0.85,2.035 -0.035,0.433 0.045,0.874 0.127,1.314 l 2.248,12.256 c 0.14,0.772 0.442,1.485 1.027,2.033 0.589,0.575 1.341,0.95 2.218,1.074 0.558,0.096 1.142,0.017 1.716,-0.116 C -0.081,4.37 0.317,4.212 0.65,4.009 1.088,3.758 1.41,3.499 1.74,3.125 2.211,2.584 2.53,1.842 2.592,1.091 2.626,0.657 2.545,0.217 2.464,-0.225"
             style="fill:#000000;fill-opacity:1;fill-rule:nonzero;stroke:none"
             id="path3428"
             inkscape:connector-curvature="0" /></g><g
           id="g3430"
           transform="translate(674.6709,469.305)"><path
             d="M 0,0 C 0.165,0.187 0.38,0.565 0.479,0.945 L 0.976,2.841 C 1.26,3.924 1.129,4.972 -0.129,5.475 L -0.833,5.659 C -1.456,5.822 -1.956,5.461 -2.069,5.027 L -3.177,0.803 C -3.34,0.18 -2.896,-0.226 -2.246,-0.396 -2.002,-0.46 -1.46,-0.602 -1.345,-0.604 -0.891,-0.636 -0.323,-0.35 0,0 m 5.794,-17.987 c -0.078,-0.298 -0.291,-0.561 -0.538,-0.728 -0.129,-0.053 -0.239,-0.139 -0.368,-0.192 -0.629,-0.299 -1.255,-0.482 -1.936,-0.535 -0.326,-0.031 -0.658,0.027 -0.997,0.058 -0.224,0.03 -0.44,0.087 -0.677,0.178 -0.629,0.251 -1.202,0.604 -1.678,1.105 -0.544,0.577 -0.924,1.226 -1.221,1.97 -0.429,1.125 -0.537,2.369 -0.599,3.571 -0.102,1.706 -0.172,3.432 -0.237,8.486 -0.003,0.318 -0.09,1.094 -0.712,1.257 L -3.196,-2.81 C -3.684,-2.683 -4.19,-3.07 -4.39,-3.829 l -1.596,-6.094 c -0.157,-0.596 -0.791,-0.922 -1.421,-0.785 -0.298,0.078 -0.588,0.299 -0.728,0.538 -0.167,0.246 -0.224,0.579 -0.153,0.851 l 4.356,16.63 c 0.405,1.543 1.27,1.751 2.921,1.318 L 0.561,8.217 C 0.723,8.175 0.858,8.139 0.987,8.076 1.832,7.769 2.418,7.354 2.854,6.922 3.292,6.488 3.562,5.752 3.687,4.793 3.812,3.834 3.428,1.706 2.784,0.022 2.436,-0.755 2.026,-1.545 1.361,-2.094 0.45,-2.811 -0.099,-3.911 -0.05,-5.053 0.025,-7.967 -0.104,-11.001 0.298,-14 c 0.068,-0.51 0.199,-1.008 0.39,-1.492 0.106,-0.259 0.273,-0.505 0.44,-0.752 0.134,-0.151 0.268,-0.302 0.409,-0.425 0.149,-0.097 0.297,-0.194 0.452,-0.264 0.136,-0.035 0.298,-0.078 0.461,-0.12 0.169,-0.015 0.373,-0.011 0.55,0 0.218,0.059 0.463,0.111 0.661,0.203 0.129,0.053 0.259,0.107 0.368,0.194 0.581,0.34 1.306,0.121 1.653,-0.434 0.14,-0.239 0.183,-0.626 0.112,-0.897"
             style="fill:#000000;fill-opacity:1;fill-rule:nonzero;stroke:none"
             id="path3432"
             inkscape:connector-curvature="0" /></g><g
           id="g3434"
           transform="translate(684.0264,454.9241)"><path
             d="m 0,0 c -0.063,-0.273 -0.367,-0.644 -0.625,-0.793 -0.274,-0.113 -0.638,-0.138 -0.903,-0.047 -0.212,0.071 -0.398,0.135 -0.583,0.198 -0.848,0.288 -1.697,0.578 -2.544,0.866 -0.531,0.18 -1.061,0.361 -1.591,0.541 l -0.159,0.054 c -0.265,0.09 -0.529,0.358 -0.678,0.616 -0.14,0.284 -0.146,0.611 -0.047,0.903 l 0.009,0.026 c 0.208,0.699 0.469,1.378 0.694,2.041 0.488,1.431 0.965,2.836 1.452,4.267 0.55,1.617 1.1,3.233 1.66,4.877 0.46,1.351 0.919,2.703 1.37,4.028 0.198,0.584 0.387,1.141 0.577,1.696 0.217,0.637 0.883,0.943 1.501,0.762 0.026,-0.01 0.08,-0.027 0.106,-0.036 C 0.266,19.99 0.292,19.98 0.292,19.98 0.504,19.908 0.689,19.846 0.875,19.782 1.724,19.494 2.571,19.205 3.42,18.917 3.95,18.736 4.479,18.556 5.01,18.376 5.619,18.168 5.898,17.423 5.718,16.804 5.653,16.53 5.342,16.134 5.084,15.984 4.809,15.871 4.445,15.847 4.181,15.938 3.969,16.009 3.783,16.072 3.598,16.136 L 2.033,16.668 C 1.159,16.965 0.199,16.493 -0.098,15.618 -0.396,14.744 -0.702,13.843 -1,12.968 -1.297,12.094 -0.825,11.134 0.05,10.837 L 1.48,10.35 C 2.091,10.143 2.396,9.477 2.215,8.857 2.151,8.584 1.83,8.16 1.572,8.012 1.297,7.898 0.935,7.874 0.669,7.964 0.483,8.027 0.324,8.081 0.166,8.136 L -0.762,8.451 C -1.637,8.749 -2.596,8.276 -2.894,7.402 L -3.895,4.46 C -4.192,3.585 -3.72,2.626 -2.846,2.329 l 2.148,-0.73 C -0.089,1.391 0.189,0.646 0,0"
             style="fill:#000000;fill-opacity:1;fill-rule:nonzero;stroke:none"
             id="path3436"
             inkscape:connector-curvature="0" /></g><g
           id="g3438"
           transform="translate(694.3711,453.388)"><path
             d="m 0,0 c -0.304,-0.723 -0.751,-1.355 -1.439,-1.765 -0.7,-0.434 -1.515,-0.639 -2.398,-0.572 -0.566,0.025 -1.12,0.228 -1.651,0.482 -0.335,0.14 -0.69,0.38 -0.972,0.651 -0.373,0.339 -0.633,0.661 -0.875,1.097 -0.343,0.629 -0.496,1.423 -0.394,2.17 0.059,0.431 0.233,0.844 0.407,1.257 l 4.816,11.463 c 0.304,0.723 0.752,1.355 1.441,1.765 0.699,0.434 1.513,0.639 2.396,0.572 0.567,-0.025 1.12,-0.227 1.651,-0.481 C 3.318,16.498 3.673,16.258 3.954,15.987 4.328,15.647 4.588,15.326 4.83,14.891 5.173,14.26 5.325,13.467 5.224,12.72 5.164,12.289 4.991,11.876 4.817,11.463 L 4.546,10.817 C 4.329,10.301 3.632,10.017 3.09,10.244 l -0.233,0.098 c -0.542,0.228 -0.822,0.862 -0.583,1.43 l 0.184,0.439 c 0.218,0.517 0.276,1.524 -0.834,1.991 -1.059,0.444 -1.814,-0.27 -2.063,-0.864 -0.066,-0.155 -0.293,-0.697 -0.293,-0.697 L -4.964,2.572 c -0.227,-0.543 -0.25,-1.535 0.834,-1.991 1.084,-0.456 1.815,0.271 2.054,0.838 0.184,0.439 0.264,0.558 1.653,3.862 0.13,0.31 -0.005,0.64 -0.293,0.822 -0.542,0.228 -0.708,0.844 -0.517,1.372 0.119,0.284 0.411,0.617 0.705,0.736 0.257,0.105 0.62,0.103 0.904,-0.016 C 0.866,7.989 1.383,7.772 1.899,7.556 2.493,7.306 2.788,6.635 2.55,6.067 2.523,6.078 0.25,0.594 0,0"
             style="fill:#000000;fill-opacity:1;fill-rule:nonzero;stroke:none"
             id="path3440"
             inkscape:connector-curvature="0" /></g><g
           id="g3442"
           transform="translate(706.9512,460.7932)"><path
             d="M 0,0 C 0.252,0.5 0.382,1.501 -0.693,2.044 -1.718,2.562 -2.521,1.9 -2.813,1.326 -2.888,1.176 -3.153,0.651 -3.153,0.651 l -4.669,-9.248 c -0.088,-0.174 -0.177,-0.349 -0.265,-0.524 -0.265,-0.525 -0.356,-1.514 0.693,-2.044 1.05,-0.53 1.829,0.143 2.107,0.692 0.088,0.176 0.353,0.701 0.353,0.701 l 4.669,9.248 C -0.177,-0.35 -0.088,-0.175 0,0 m 2.301,-0.91 -5.616,-11.122 c -0.353,-0.7 -0.844,-1.299 -1.559,-1.659 -0.728,-0.386 -1.555,-0.534 -2.431,-0.405 -0.563,0.065 -1.1,0.305 -1.613,0.595 -0.325,0.164 -0.662,0.429 -0.924,0.718 -0.348,0.364 -0.586,0.703 -0.797,1.155 -0.298,0.652 -0.394,1.454 -0.242,2.191 0.09,0.426 0.292,0.826 0.493,1.226 l 5.617,11.122 c 0.352,0.7 0.843,1.299 1.558,1.659 0.728,0.386 1.555,0.533 2.431,0.405 C -0.219,4.909 0.318,4.67 0.831,4.38 1.156,4.216 1.493,3.951 1.755,3.662 2.104,3.298 2.341,2.959 2.552,2.507 2.85,1.854 2.946,1.053 2.794,0.314 2.704,-0.11 2.502,-0.511 2.301,-0.91"
             style="fill:#000000;fill-opacity:1;fill-rule:nonzero;stroke:none"
             id="path3444"
             inkscape:connector-curvature="0" /></g><g
           id="g3446"
           transform="translate(719.7422,454.5325)"><path
             d="m 0,0 c -0.762,-1.273 -1.538,-2.571 -2.3,-3.845 -0.891,-1.49 -1.767,-2.956 -2.659,-4.446 -0.719,-1.201 -1.451,-2.427 -2.185,-3.653 -0.301,-0.504 -0.618,-1.034 -0.919,-1.538 -0.345,-0.577 -1.003,-0.64 -1.614,-0.406 -0.268,0.096 -0.505,0.302 -0.649,0.552 -0.135,0.211 -0.131,0.763 -0.107,0.912 0.182,0.739 0.363,1.48 0.531,2.195 0.377,1.504 0.73,3.022 1.107,4.526 0.238,0.999 0.492,2.022 0.731,3.021 0.085,0.308 -0.366,0.481 -0.524,0.216 l -1.61,-2.691 c -0.719,-1.202 -1.451,-2.428 -2.185,-3.654 -0.302,-0.504 -0.618,-1.033 -0.92,-1.538 -0.344,-0.577 -1.06,-0.736 -1.627,-0.429 -0.264,0.158 -0.466,0.474 -0.534,0.744 -0.078,0.306 -0.04,0.642 0.118,0.907 l 0.015,0.024 c 0.374,0.625 0.747,1.25 1.106,1.851 0.777,1.298 1.538,2.571 2.315,3.869 0.877,1.466 1.754,2.932 2.644,4.422 0.734,1.226 1.467,2.451 2.185,3.653 0.316,0.529 0.618,1.034 0.92,1.538 0.346,0.577 1.085,0.722 1.652,0.416 0.576,-0.345 0.818,-0.979 0.741,-1.652 -0.167,-0.716 -0.348,-1.455 -0.529,-2.195 -0.353,-1.518 -0.73,-3.022 -1.084,-4.54 -0.215,-0.85 -0.42,-1.739 -0.649,-2.613 -0.063,-0.323 0.365,-0.48 0.523,-0.215 l 1.481,2.474 c 0.733,1.226 1.465,2.451 2.184,3.654 0.317,0.528 0.618,1.033 0.92,1.538 0.346,0.577 1.061,0.736 1.628,0.429 C 0.971,3.368 1.187,3.075 1.254,2.807 1.332,2.499 1.279,2.14 1.121,1.875 L 1.106,1.851 C 0.747,1.25 0.374,0.625 0,0"
             style="fill:#000000;fill-opacity:1;fill-rule:nonzero;stroke:none"
             id="path3448"
             inkscape:connector-curvature="0" /></g><path
           d="m 635.443,404.95 -6,0 0,38 6,0 0,-38 z"
           style="fill:#ea684e;fill-opacity:1;fill-rule:nonzero;stroke:none"
           id="path3450"
           inkscape:connector-curvature="0" /><path
           d="m 581.443,402.95 -6,0 0,27 6,0 0,-27 z"
           style="fill:#ea684e;fill-opacity:1;fill-rule:nonzero;stroke:none"
           id="path3452"
           inkscape:connector-curvature="0" /><path
           d="m 599.443,403.95 -6,0 0,33 6,0 0,-33 z"
           style="fill:#ea684e;fill-opacity:1;fill-rule:nonzero;stroke:none"
           id="path3454"
           inkscape:connector-curvature="0" /><path
           d="m 617.443,404.95 -6,0 0,37 6,0 0,-37 z"
           style="fill:#ea684e;fill-opacity:1;fill-rule:nonzero;stroke:none"
           id="path3456"
           inkscape:connector-curvature="0" /><path
           d="m 654.443,404.95 -6,0 0,37 6,0 0,-37 z"
           style="fill:#ea684e;fill-opacity:1;fill-rule:nonzero;stroke:none"
           id="path3458"
           inkscape:connector-curvature="0" /><path
           d="m 672.443,403.95 -6,0 0,33 6,0 0,-33 z"
           style="fill:#ea684e;fill-opacity:1;fill-rule:nonzero;stroke:none"
           id="path3460"
           inkscape:connector-curvature="0" /><path
           d="m 690.443,402.95 -6,0 0,27 6,0 0,-27 z"
           style="fill:#ea684e;fill-opacity:1;fill-rule:nonzero;stroke:none"
           id="path3462"
           inkscape:connector-curvature="0" /><g
           id="g3464"
           transform="translate(528.0273,351.3518)"><path
             d="m 0,0 -6,0.049 0.396,48.078 6,-0.049 L 0,0 Z"
             style="fill:#ea684e;fill-opacity:1;fill-rule:nonzero;stroke:none"
             id="path3466"
             inkscape:connector-curvature="0" /></g><g
           id="g3468"
           transform="translate(741.4238,351.3518)"><path
             d="m 0,0 -0.396,48.078 6,0.049 L 6,0.049 0,0 Z"
             style="fill:#ea684e;fill-opacity:1;fill-rule:nonzero;stroke:none"
             id="path3470"
             inkscape:connector-curvature="0" /></g><g
           id="g3472"
           transform="translate(634.5273,409.6858)"><path
             d="M 0,0 C 25.337,0 50.866,-0.93 76.048,-2.766 56.057,17.606 28.895,29.098 0,29.098 -28.895,29.098 -56.057,17.606 -76.048,-2.765 -50.862,-0.929 -25.335,0 0,0 M 86.431,-12.607 C 57.909,-10.214 28.83,-9 0,-9 c -28.825,0 -57.905,-1.213 -86.431,-3.606 l -3.888,7.297 C -68.224,22.276 -35.304,38.098 0,38.098 c 35.304,0 68.224,-15.822 90.319,-43.408 l -3.888,-7.297 z"
             style="fill:#136e8e;fill-opacity:1;fill-rule:nonzero;stroke:none"
             id="path3474"
             inkscape:connector-curvature="0" /></g><g
           id="g3476"
           transform="translate(513.5156,393.5764)"><path
             d="m 0,0 c 4.75,-7.574 8.62,-15.708 11.508,-24.16 3.221,9.439 7.665,18.459 13.209,26.786 C 16.45,1.851 8.185,0.973 0,0 m 15.944,-42.627 -8.865,0 c -2.748,15 -9.165,30.741 -18.557,43.739 l 3.083,7.014 c 13.903,1.757 28.109,3.205 42.224,4.389 L 37.718,5.369 C 26.537,-8.589 19.009,-25.627 15.944,-42.627"
             style="fill:#136e8e;fill-opacity:1;fill-rule:nonzero;stroke:none"
             id="path3478"
             inkscape:connector-curvature="0" /></g><g
           id="g3480"
           transform="translate(730.8223,396.2024)"><path
             d="m 0,0 c 5.545,-8.327 9.988,-17.347 13.209,-26.786 2.888,8.452 6.758,16.586 11.508,24.16 C 16.528,-1.653 8.264,-0.775 0,0 M 8.772,-45.253 C 5.708,-28.253 -1.821,-11.235 -13,2.721 l 3.888,7.211 C 4.993,8.749 19.199,7.214 33.111,5.457 l 3.083,-6.949 C 26.802,-14.49 20.386,-30.253 17.638,-45.253 l -8.866,0 z"
             style="fill:#136e8e;fill-opacity:1;fill-rule:nonzero;stroke:none"
             id="path3482"
             inkscape:connector-curvature="0" /></g><g
           id="g3484"
           transform="translate(776.5498,388.3362)"><path
             d="M 0,0 C -46.347,6.536 -94.13,9.85 -142.022,9.85 -189.915,9.85 -237.698,6.536 -284.045,0 L -286,13.863 c 46.992,6.626 95.433,9.987 143.978,9.987 48.544,0 96.985,-3.361 143.977,-9.987 L 0,0 Z"
             style="fill:#0b88aa;fill-opacity:1;fill-rule:nonzero;stroke:none"
             id="path3486"
             inkscape:connector-curvature="0" /></g></g></g></g></svg>