<?xml version="1.0" encoding="UTF-8" standalone="no"?>
<svg
   xmlns:dc="http://purl.org/dc/elements/1.1/"
   xmlns:cc="http://creativecommons.org/ns#"
   xmlns:rdf="http://www.w3.org/1999/02/22-rdf-syntax-ns#"
   xmlns:svg="http://www.w3.org/2000/svg"
   xmlns="http://www.w3.org/2000/svg"
   xmlns:sodipodi="http://sodipodi.sourceforge.net/DTD/sodipodi-0.dtd"
   xmlns:inkscape="http://www.inkscape.org/namespaces/inkscape"
   viewBox="0 0 2354.0376 366.63001"
   version="1.1"
   id="svg283"
   sodipodi:docname="web-site-header-skyline.svg"
   width="2354.0376"
   height="366.63"
   inkscape:version="0.92.3 (2405546, 2018-03-11)">
  <metadata
     id="metadata287">
    <rdf:RDF>
      <cc:Work
         rdf:about="">
        <dc:format>image/svg+xml</dc:format>
        <dc:type
           rdf:resource="http://purl.org/dc/dcmitype/StillImage" />
        <dc:title>Pycon Logo 2019 FINAL</dc:title>
      </cc:Work>
    </rdf:RDF>
  </metadata>
  <sodipodi:namedview
     pagecolor="#ffffff"
     bordercolor="#666666"
     borderopacity="1"
     objecttolerance="10"
     gridtolerance="10"
     guidetolerance="10"
     inkscape:pageopacity="0"
     inkscape:pageshadow="2"
     inkscape:window-width="1920"
     inkscape:window-height="1016"
     id="namedview285"
     showgrid="false"
     inkscape:snap-nodes="true"
     fit-margin-top="0"
     fit-margin-left="0"
     fit-margin-right="0"
     fit-margin-bottom="0"
     inkscape:zoom="0.8"
     inkscape:cx="621.08333"
     inkscape:cy="88.150015"
     inkscape:window-x="0"
     inkscape:window-y="27"
     inkscape:window-maximized="0"
     inkscape:current-layer="svg283" />
  <defs
     id="defs20">
    <style
       id="style2">.cls-1,.cls-10{fill:none;}.cls-2{fill:#fff;}.cls-3{fill:url(#linear-gradient);}.cls-4{clip-path:url(#clip-path);}.cls-5{fill:#306a99;}.cls-6{fill:#ffd43c;}.cls-7{fill:#b7d433;}.cls-8{fill:#00ce7c;}.cls-9{fill:#009abf;}.cls-10{stroke:#ffd43c;stroke-miterlimit:10;stroke-width:5.04px;}</style>
    <linearGradient
       id="linear-gradient"
       x1="720"
       x2="720"
       y2="556.09003"
       gradientUnits="userSpaceOnUse">
      <stop
         offset="0"
         stop-color="#9ecee0"
         id="stop4" />
      <stop
         offset="0.01"
         stop-color="#9bcddf"
         id="stop6" />
      <stop
         offset="0.36"
         stop-color="#59b7d2"
         id="stop8" />
      <stop
         offset="0.65"
         stop-color="#29a7c8"
         id="stop10" />
      <stop
         offset="0.87"
         stop-color="#0b9ec1"
         id="stop12" />
      <stop
         offset="1"
         stop-color="#009abf"
         id="stop14" />
    </linearGradient>
    <clipPath
       id="clip-path">
      <rect
         class="cls-1"
         y="40.529999"
         width="1440.6801"
         height="567.08002"
         id="rect17"
         x="0"
         style="fill:none" />
    </clipPath>
  </defs>
  <title
     id="title22">Pycon Logo 2019 FINAL</title>
  <rect
     class="cls-5"
     y="321.16"
     width="2355.0376"
     height="54.210007"
     id="rect28"
     x="7.8159701e-14"
     style="fill:#306a99;stroke-width:0.85019398" />
  <path
     class="cls-6"
     d="m 558,275.64 -0.08,-10.86 -17.42,-6.6 -19.58,0.74 0.13,-25.3 -21.47,-14.47 -23.66,2.65 -0.14,-87.37 6.13,-5.73 c -7,-4.05 -23.35,-8.24 -46.33,-8.24 -20.84,0 -38.67,3.66 -46.86,7.43 l 6.13,6.54 0.23,59.08 -11.13,-3.91 -15.07,4.32 v -37.48 l 2.8,-4.79 v -3.23 H 360 v -27.65 l -6,-10 -5.22,9.74 h -0.75 v -38.4 c 0,0 -4.27,-4.18 -7,-5 V 62.77 c 0,-3 -9.87,-11.22 -9.87,-11.22 V 28.8 l -4.64,-4.84 -1.19,-0.54 V 8.04 h -2.45 v 15.38 l -1.18,0.54 -4.64,4.84 v 22.75 c 0,0 -9.88,8.23 -9.88,11.22 v 14.38 c -2.71,0.78 -7,5 -7,5 v 38.44 h -0.75 l -5.87,-9.74 -5.32,10 v 27.65 h -11.57 v 3.23 l 2.8,4.79 v 36.66 l -18.15,-6.33 v -74.69 h -6.7 V 72 l -10,-13.91 v -5.18 l -10,-17.47 V 30.22 L 211.62,0 188.7,30.22 v 5.22 l -10,17.47 v 5.18 L 168.7,72 v 40.16 H 162 v 61.3 l -9,-3.43 -8.83,1.57 v -59.32 -0.19 L 130,110.16 V 97.97 L 84.32,91.71 64.18,98.47 h 0.18 v 0 9.51 l -14.3,4.8 h 0.27 V 161.4 L 31.7,155.53 0,160.84 v 134 l 502.07,-4.09 v 5.19 H 1440 v -20.3 z"
     id="path30"
     inkscape:connector-curvature="0"
     style="fill:#ffd43c" />
  <polygon
     class="cls-7"
     points="385.43,421.95 385.43,396.76 347.34,392.46 313.06,401.06 313.06,390.21 304.84,388.77 289.72,394.61 283.36,397.06 283.36,412.67 247.82,404.36 221.92,409.59 221.92,431.69 204.82,428.55 204.65,385.24 146.39,374.23 118.85,382.69 118.85,424.23 100.54,418.54 100.54,379.38 38.57,366.32 12.83,378.55 12.82,414.66 0,413.89 0,519.6 502.07,520.17 502.07,522.35 1440,523.31 1440,485.55 534.36,485.55 534.36,474.2 513.99,467.55 503.24,470.82 503.24,436.5 464.91,422 435.86,428.26 435.86,452.82 420.75,452.21 420.65,429.05 "
     id="polygon32"
     style="fill:#b7d433"
     transform="translate(0,-191.71)" />
  <path
     class="cls-8"
     d="M 1440,312.04 H 528.23 c -31,-0.76 -54.54,-7.58 -54.54,-29.53 a 10,10 0 0 0 3.37,0.64 10.29,10.29 0 0 0 10.28,-10.28 10.18,10.18 0 0 0 -2,-6.14 9.34,9.34 0 0 0 0.27,-2.24 9.22,9.22 0 0 0 -7.3,-9.05 9.9,9.9 0 0 0 -18,0 9.22,9.22 0 0 0 -7.33,9.05 9.37,9.37 0 0 0 0.28,2.25 10.29,10.29 0 0 0 8.26,16.41 9.91,9.91 0 0 0 3.3,-0.62 c 0,25.3 -19.08,29.58 -47.61,29.58 -28.53,0 -47.85,-7.43 -47.85,-35.57 a 14.64,14.64 0 0 0 4.57,0.78 12.47,12.47 0 0 0 10,-19.92 11.23,11.23 0 0 0 -8.53,-13.68 12,12 0 0 0 -21.88,0 11.17,11.17 0 0 0 -8.88,11 11.31,11.31 0 0 0 0.33,2.72 12.48,12.48 0 0 0 10,19.9 14.65,14.65 0 0 0 4.48,-0.75 c 0,27.92 -18.29,35.54 -47.16,35.54 -28.87,0 -46.34,-12.73 -46.34,-40.77 a 14.17,14.17 0 0 0 6.44,1.56 14.33,14.33 0 0 0 14.31,-14.31 14.1,14.1 0 0 0 -3,-8.81 12.8,12.8 0 0 0 -10,-16 13.75,13.75 0 0 0 -25.35,0 12.82,12.82 0 0 0 -10,16.05 14.18,14.18 0 0 0 -3,8.79 14.33,14.33 0 0 0 14.32,14.31 14.1,14.1 0 0 0 6.07,-1.39 c 0,27.87 -16.62,40.6 -47.67,40.6 -31.05,0 -46.54,-10.05 -46.54,-47.91 a 16,16 0 0 0 8,2.2 16.15,16.15 0 0 0 12.47,-26.42 14.38,14.38 0 0 0 -11.49,-18.38 15.51,15.51 0 0 0 -28.85,0 14.41,14.41 0 0 0 -11.52,18.41 16.12,16.12 0 0 0 20.72,24.07 c 0,37.75 -17.3,48 -47.19,48 -34.58,0 -46.37,-19.54 -46.37,-51.24 a 19.51,19.51 0 0 0 26.47,-28.32 16.94,16.94 0 0 0 0.85,-5.33 17.29,17.29 0 0 0 -15,-17.19 18.73,18.73 0 0 0 -35.11,0 17.28,17.28 0 0 0 -15,17.2 16.89,16.89 0 0 0 0.86,5.36 19.49,19.49 0 0 0 25.86,28.68 c 0,22 -10.92,50.82 -46.23,50.82 v 22.44 l 536.25,-4.26 H 1440 Z"
     id="path34"
     inkscape:connector-curvature="0"
     style="fill:#00ce7c" />
  <path
     class="cls-9"
     d="m 521,330.29 c -10.29,0 -15,-2.92 -21,-6.61 -6.87,-4.24 -15.41,-9.52 -31.24,-9.52 -15.83,0 -24.37,5.28 -31.24,9.52 -6,3.69 -10.7,6.61 -21,6.61 -10.3,0 -15,-2.92 -21,-6.61 -6.86,-4.24 -15.4,-9.52 -31.22,-9.52 -15.82,0 -24.35,5.28 -31.21,9.52 -6,3.69 -10.67,6.61 -20.94,6.61 -10.27,0 -15,-2.92 -20.94,-6.61 -6.86,-4.24 -15.4,-9.52 -31.2,-9.52 -15.8,0 -24.35,5.28 -31.21,9.52 -6,3.69 -10.68,6.61 -20.95,6.61 -10.27,0 -15,-2.92 -21,-6.61 -6.86,-4.24 -15.39,-9.52 -31.2,-9.52 -15.81,0 -24.35,5.28 -31.21,9.52 -6,3.69 -10.68,6.61 -20.95,6.61 -10.27,0 -15,-2.92 -20.94,-6.61 -6.85,-4.24 -15.39,-9.52 -31.19,-9.52 -15.8,0 -24.33,5.28 -31.19,9.52 -5.7,3.61 -10.35,6.43 -20.17,6.54 v 18.2 c 15.4,-0.14 23.81,-5.32 30.57,-9.51 6,-3.69 10.67,-6.6 20.92,-6.6 10.25,0 15,2.91 20.94,6.6 6.85,4.25 15.39,9.52 31.19,9.52 15.8,0 24.35,-5.27 31.21,-9.51 6,-3.69 10.68,-6.61 20.95,-6.61 10.27,0 15,2.91 20.95,6.61 6.86,4.24 15.39,9.51 31.2,9.51 15.81,0 24.35,-5.27 31.21,-9.51 6,-3.69 10.68,-6.61 20.95,-6.61 10.27,0 15,2.91 20.94,6.6 6.86,4.25 15.39,9.52 31.2,9.52 15.81,0 24.34,-5.27 31.2,-9.51 6,-3.7 10.68,-6.61 20.95,-6.61 10.27,0 15,2.92 21,6.61 6.86,4.24 15.4,9.51 31.22,9.51 15.82,0 24.37,-5.27 31.24,-9.51 6,-3.69 10.7,-6.61 21,-6.61 10.3,0 15,2.92 21,6.61 6.87,4.24 15.42,9.51 31.24,9.51 h 919 v -18.14 z"
     id="path36"
     inkscape:connector-curvature="0"
     style="fill:#009abf" />
  <path
     class="cls-5"
     d="m 521,348.43 c -10.29,0 -15,-2.91 -21,-6.6 -6.87,-4.24 -15.41,-9.52 -31.24,-9.52 -15.83,0 -24.37,5.28 -31.24,9.52 -6,3.69 -10.7,6.6 -21,6.6 -10.3,0 -15,-2.91 -21,-6.6 -6.86,-4.24 -15.4,-9.52 -31.22,-9.52 -15.82,0 -24.35,5.28 -31.21,9.52 -6,3.69 -10.67,6.6 -20.94,6.6 -10.27,0 -15,-2.91 -20.94,-6.6 -6.86,-4.24 -15.4,-9.52 -31.2,-9.52 -15.8,0 -24.35,5.28 -31.21,9.52 -6,3.69 -10.68,6.6 -20.95,6.6 -10.27,0 -15,-2.91 -21,-6.6 -6.86,-4.24 -15.39,-9.52 -31.2,-9.52 -15.81,0 -24.35,5.28 -31.21,9.52 -6,3.69 -10.68,6.6 -20.95,6.6 -10.27,0 -15,-2.91 -20.94,-6.6 -6.72,-4.24 -15.26,-9.54 -31.06,-9.54 -15.8,0 -24.33,5.28 -31.19,9.52 -5.83,3.63 -10.48,6.48 -20.3,6.61 v 18.2 c 15.4,-0.14 23.81,-5.32 30.57,-9.51 6,-3.69 10.67,-6.6 20.92,-6.6 10.25,0 15,2.91 20.94,6.6 6.85,4.24 15.39,9.52 31.19,9.52 15.8,0 24.35,-5.28 31.21,-9.52 6,-3.68 10.68,-6.6 20.95,-6.6 10.27,0 15,2.91 20.95,6.6 6.86,4.24 15.39,9.52 31.2,9.52 15.81,0 24.35,-5.28 31.21,-9.52 6,-3.68 10.68,-6.6 20.95,-6.6 10.27,0 15,2.91 20.94,6.6 6.86,4.24 15.39,9.52 31.2,9.52 15.81,0 24.34,-5.28 31.2,-9.52 6,-3.69 10.68,-6.6 20.95,-6.6 10.27,0 15,2.92 21,6.61 6.86,4.24 15.4,9.51 31.22,9.51 15.82,0 24.37,-5.27 31.24,-9.51 6,-3.69 10.7,-6.61 21,-6.61 10.3,0 15,2.92 21,6.61 6.87,4.24 15.42,9.51 31.24,9.51 h 919 v -18.2 z"
     id="path38"
     inkscape:connector-curvature="0"
     style="fill:#306a99" />
  <rect
     style="opacity:1;fill:#ffd43c;fill-opacity:1;stroke:none;stroke-opacity:1"
     id="rect4924"
     width="914.1001"
     height="67.51001"
     x="1440"
     y="275.64001" />
  <rect
     style="opacity:1;fill:#b7d433;fill-opacity:1;stroke:none;stroke-opacity:1"
     id="rect4946"
     width="914.1001"
     height="49.309998"
     x="1440"
     y="293.84" />
  <rect
     style="opacity:1;fill:#00ce7c;fill-opacity:1;stroke:none;stroke-width:1.5322181;stroke-opacity:1"
     id="rect4948"
     width="953.75"
     height="34.109985"
     x="1400"
     y="312.04001" />
  <rect
     style="opacity:1;fill:#009abf;fill-opacity:1;stroke:none;stroke-width:2.59178948;stroke-opacity:1"
     id="rect4952"
     width="963.125"
     height="18.125"
     x="1391.25"
     y="330.29001"
     ry="0" />
</svg>
