<?xml version="1.0" encoding="UTF-8" standalone="no"?>
<svg
   xmlns:dc="http://purl.org/dc/elements/1.1/"
   xmlns:cc="http://creativecommons.org/ns#"
   xmlns:rdf="http://www.w3.org/1999/02/22-rdf-syntax-ns#"
   xmlns:svg="http://www.w3.org/2000/svg"
   xmlns="http://www.w3.org/2000/svg"
   xmlns:sodipodi="http://sodipodi.sourceforge.net/DTD/sodipodi-0.dtd"
   xmlns:inkscape="http://www.inkscape.org/namespaces/inkscape"
   viewBox="0 0 464.50351 250.44001"
   version="1.1"
   id="svg283"
   sodipodi:docname="website-header-wordmark.svg"
   width="464.50351"
   height="250.44"
   inkscape:version="0.92.2 5c3e80d, 2017-08-06">
  <metadata
     id="metadata287">
    <rdf:RDF>
      <cc:Work
         rdf:about="">
        <dc:format>image/svg+xml</dc:format>
        <dc:type
           rdf:resource="http://purl.org/dc/dcmitype/StillImage" />
        <dc:title>Pycon Logo 2019 FINAL</dc:title>
      </cc:Work>
    </rdf:RDF>
  </metadata>
  <sodipodi:namedview
     pagecolor="#ffffff"
     bordercolor="#666666"
     borderopacity="1"
     objecttolerance="10"
     gridtolerance="10"
     guidetolerance="10"
     inkscape:pageopacity="0"
     inkscape:pageshadow="2"
     inkscape:window-width="2303"
     inkscape:window-height="1341"
     id="namedview285"
     showgrid="false"
     fit-margin-top="0"
     fit-margin-left="0"
     fit-margin-right="0"
     fit-margin-bottom="0"
     inkscape:zoom="0.56568542"
     inkscape:cx="-698.2259"
     inkscape:cy="-16.594881"
     inkscape:window-x="0"
     inkscape:window-y="0"
     inkscape:window-maximized="0"
     inkscape:current-layer="svg283" />
  <defs
     id="defs20">
    <style
       id="style2">.cls-1,.cls-10{fill:none;}.cls-2{fill:#fff;}.cls-3{fill:url(#linear-gradient);}.cls-4{clip-path:url(#clip-path);}.cls-5{fill:#306a99;}.cls-6{fill:#ffd43c;}.cls-7{fill:#b7d433;}.cls-8{fill:#00ce7c;}.cls-9{fill:#009abf;}.cls-10{stroke:#ffd43c;stroke-miterlimit:10;stroke-width:5.04px;}</style>
    <linearGradient
       id="linear-gradient"
       x1="720"
       x2="720"
       y2="556.09003"
       gradientUnits="userSpaceOnUse"
       gradientTransform="matrix(1,0,0,1.0930964,84.852814,1583.9192)">
      <stop
         offset="0"
         stop-color="#9ecee0"
         id="stop4" />
      <stop
         offset="0.01"
         stop-color="#9bcddf"
         id="stop6" />
      <stop
         offset="0.36"
         stop-color="#59b7d2"
         id="stop8" />
      <stop
         offset="0.65"
         stop-color="#29a7c8"
         id="stop10" />
      <stop
         offset="0.87"
         stop-color="#0b9ec1"
         id="stop12" />
      <stop
         offset="1"
         stop-color="#009abf"
         id="stop14" />
    </linearGradient>
    <clipPath
       id="clip-path">
      <rect
         class="cls-1"
         y="40.529999"
         width="1440.6801"
         height="567.08002"
         id="rect17"
         x="0"
         style="fill:none" />
    </clipPath>
  </defs>
  <title
     id="title22">Pycon Logo 2019 FINAL</title>
  <g
     id="ARTWORK"
     transform="translate(-867.56649,-92)">
    <rect
       class="cls-3"
       width="1440"
       height="607.85999"
       id="rect26"
       style="fill:url(#linear-gradient);stroke-width:1.04551244"
       x="84.852814"
       y="1583.9192" />
    <g
       id="g142">
      <path
         style="fill:#306a99"
         inkscape:connector-curvature="0"
         id="path166"
         d="m 869.33,93.64 h 37.36 c 22.06,0 36,12.59 36,31.68 v 0.27 c 0,21.25 -17.05,32.35 -37.9,32.35 H 886 v 30.46 h -16.67 z m 36,49.28 c 12.59,0 20.44,-7 20.44,-16.92 v -0.27 c 0,-11.1 -8,-16.93 -20.44,-16.93 H 886 v 34.12 z"
         class="cls-5" />
      <path
         style="fill:#306a99"
         inkscape:connector-curvature="0"
         id="path168"
         d="M 983.58,151 946,93.64 h 19.62 l 26.53,42 26.8,-42 H 1038 l -37.63,57 v 37.76 h -16.79 z"
         class="cls-5" />
      <path
         style="fill:#306a99"
         inkscape:connector-curvature="0"
         id="path170"
         d="M 1037.59,141.29 V 141 c 0,-26.94 20.16,-49 48.86,-49 17.46,0 28,6.09 37.09,14.75 l -10.69,12.32 c -7.58,-7 -15.71,-11.77 -26.53,-11.77 -18.14,0 -31.27,14.89 -31.27,33.43 V 141 c 0,18.55 13.13,33.71 31.27,33.71 11.64,0 19.08,-4.74 27.2,-12.32 l 10.7,10.83 c -9.88,10.28 -20.71,16.78 -38.45,16.78 -27.61,0 -48.18,-21.5 -48.18,-48.71 z"
         class="cls-5" />
      <path
         style="fill:#306a99"
         inkscape:connector-curvature="0"
         id="path172"
         d="M 1132.07,141.29 V 141 c 0,-26.67 20.57,-49 49.68,-49 29.11,0 49.4,22.06 49.4,48.73 V 141 c 0,26.67 -20.57,49 -49.67,49 -29.1,0 -49.41,-22 -49.41,-48.71 z m 81.62,0 V 141 c 0,-18.41 -13.4,-33.7 -32.21,-33.7 -18.81,0 -32,15 -32,33.43 V 141 c 0,18.41 13.4,33.71 32.22,33.71 18.82,0 31.99,-15.01 31.99,-33.42 z"
         class="cls-5" />
      <path
         style="fill:#306a99"
         inkscape:connector-curvature="0"
         id="path174"
         d="m 1248.62,93.64 h 15.43 l 50.76,65.52 V 93.64 h 16.38 v 94.76 h -13.94 L 1265,121 v 67.4 h -16.38 z"
         class="cls-5" />
      <path
         style="fill:#ffffff"
         inkscape:connector-curvature="0"
         id="path176"
         d="m 867.57,221.71 v -0.08 a 13.86,13.86 0 0 1 14.12,-14.15 14.27,14.27 0 0 1 10.71,4.26 l -3.09,3.56 c -2.19,-2 -4.53,-3.4 -7.66,-3.4 -5.24,0 -9,4.3 -9,9.66 v 0.07 c 0,5.36 3.79,9.74 9,9.74 3.36,0 5.51,-1.37 7.86,-3.56 l 3.08,3.13 a 14.12,14.12 0 0 1 -11.1,4.85 13.77,13.77 0 0 1 -13.92,-14.08 z"
         class="cls-2" />
      <path
         style="fill:#ffffff"
         inkscape:connector-curvature="0"
         id="path178"
         d="m 906.24,208 h 4.81 v 23 h 14.39 v 4.38 h -19.2 z"
         class="cls-2" />
      <path
         style="fill:#ffffff"
         inkscape:connector-curvature="0"
         id="path180"
         d="m 939.05,208 h 20.29 v 4.3 h -15.48 v 7.12 h 13.72 v 4.3 H 943.86 V 231 h 15.67 v 4.3 h -20.48 z"
         class="cls-2" />
      <path
         style="fill:#ffffff"
         inkscape:connector-curvature="0"
         id="path182"
         d="m 971.5,208 h 5.32 l 8.25,21 8.21,-21 h 5.2 l -11.38,27.51 h -4.22 z"
         class="cls-2" />
      <path
         style="fill:#ffffff"
         inkscape:connector-curvature="0"
         id="path184"
         d="m 1011.78,208 h 20.29 v 4.3 h -15.49 v 7.12 h 13.73 v 4.3 h -13.73 V 231 h 15.68 v 4.3 h -20.48 z"
         class="cls-2" />
      <path
         style="fill:#ffffff"
         inkscape:connector-curvature="0"
         id="path186"
         d="m 1046.58,208 h 4.8 v 23 h 14.39 v 4.38 h -19.19 z"
         class="cls-2" />
      <path
         style="fill:#ffffff"
         inkscape:connector-curvature="0"
         id="path188"
         d="m 1089.08,207.76 h 4.45 l 12,27.56 h -5.08 l -2.78,-6.61 h -12.93 l -2.82,6.61 H 1077 Z m 6.88,16.69 -4.73,-10.95 -4.7,10.95 z"
         class="cls-2" />
      <path
         style="fill:#ffffff"
         inkscape:connector-curvature="0"
         id="path190"
         d="m 1118.87,208 h 4.46 L 1138,226.87 V 208 h 4.73 v 27.37 h -4 l -15.09,-19.47 v 19.47 h -4.73 z"
         class="cls-2" />
      <path
         style="fill:#ffffff"
         inkscape:connector-curvature="0"
         id="path192"
         d="m 1158.36,208 h 10.21 c 8.6,0 14.54,5.91 14.54,13.61 v 0.07 c 0,7.71 -5.94,13.69 -14.54,13.69 h -10.21 z m 10.21,23 c 5.74,0 9.5,-3.87 9.5,-9.23 v -0.08 c 0,-5.35 -3.76,-9.3 -9.5,-9.3 h -5.4 V 231 Z"
         class="cls-2" />
      <path
         style="fill:#ffffff"
         inkscape:connector-curvature="0"
         id="path194"
         d="m 1216.27,231.53 9.42,-8 c 3.75,-3.17 5.12,-4.92 5.12,-7.39 a 4.1,4.1 0 0 0 -4.41,-4.26 c -2.51,0 -4.23,1.37 -6.34,4.11 l -3.4,-2.66 c 2.62,-3.68 5.2,-5.75 10.09,-5.75 5.35,0 9,3.29 9,8.17 v 0.08 c 0,4.3 -2.27,6.65 -7.12,10.59 l -5.63,4.7 h 13 v 4.22 h -19.78 z"
         class="cls-2" />
      <path
         style="fill:#ffffff"
         inkscape:connector-curvature="0"
         id="path196"
         d="m 1249.15,221.71 v -0.08 c 0,-7.81 4.77,-14.15 12,-14.15 7.23,0 11.88,6.26 11.88,14.08 v 0.07 c 0,7.82 -4.77,14.16 -12,14.16 -7.23,0 -11.88,-6.26 -11.88,-14.08 z m 18.89,0 v -0.08 c 0,-5.39 -2.78,-9.81 -7,-9.81 -4.22,0 -6.92,4.3 -6.92,9.74 v 0.07 c 0,5.4 2.74,9.82 7,9.82 4.26,0 6.88,-4.34 6.88,-9.74 z"
         class="cls-2" />
      <path
         style="fill:#ffffff"
         inkscape:connector-curvature="0"
         id="path198"
         d="m 1290.6,212.64 -4.93,1.37 -1,-3.91 7.35,-2.34 h 3.36 v 27.56 h -4.77 z"
         class="cls-2" />
      <path
         style="fill:#ffffff"
         inkscape:connector-curvature="0"
         id="path200"
         d="m 1310.66,232.5 2.62,-3.67 a 9.12,9.12 0 0 0 6.25,2.58 c 4,0 6.45,-3.56 6.61,-8.6 a 8.07,8.07 0 0 1 -6.41,2.89 c -5.83,0 -9.7,-3.4 -9.7,-8.68 v -0.08 c 0,-5.35 4.15,-9.46 10.21,-9.46 a 9.78,9.78 0 0 1 7.58,2.9 c 2,2 3.32,5 3.32,10.43 v 0.08 c 0,8.8 -4.37,14.9 -11.72,14.9 a 13,13 0 0 1 -8.76,-3.29 z M 1326,216.75 v -0.08 c 0,-2.85 -2.22,-5 -5.7,-5 -3.48,0 -5.44,2.26 -5.44,5.08 v 0.08 c 0,2.85 2.19,4.88 5.59,4.88 3.4,0 5.55,-2.3 5.55,-4.96 z"
         class="cls-2" />
      <path
         style="fill:#306a99"
         inkscape:connector-curvature="0"
         id="path202"
         d="m 886.63,341.45 v -14.83 l -6.4,9.71 h -0.12 l -6.33,-9.61 v 14.73 h -4.9 v -22.71 h 5.38 l 6,9.6 6,-9.6 h 5.38 v 22.71 z"
         class="cls-5" />
      <path
         style="fill:#306a99"
         inkscape:connector-curvature="0"
         id="path204"
         d="m 916.88,341.45 -2.08,-5.09 h -9.61 l -2.08,5.09 H 898 l 9.73,-22.88 h 4.61 l 9.74,22.88 z m -6.88,-16.87 -3,7.36 h 6 z"
         class="cls-5" />
      <path
         style="fill:#306a99"
         inkscape:connector-curvature="0"
         id="path206"
         d="m 936.34,332.4 v 9.05 h -5 v -8.95 l -8.74,-13.76 h 5.85 l 5.42,9.12 5.51,-9.12 h 5.68 z"
         class="cls-5" />
      <path
         style="fill:#306a99"
         inkscape:connector-curvature="0"
         id="path208"
         d="m 968.34,318.57 h 3.41 v 22.88 h -4.93 v -17.81 l -4,1 -1,-4.09 z"
         class="cls-5" />
      <path
         style="fill:#306a99"
         inkscape:connector-curvature="0"
         id="path210"
         d="m 978,333.7 v -4.61 h 13.89 v 4.61 z"
         class="cls-5" />
      <path
         style="fill:#306a99"
         inkscape:connector-curvature="0"
         id="path212"
         d="m 1004.27,341.84 a 11,11 0 0 1 -7.47,-2.69 l 2.63,-3.8 a 7.37,7.37 0 0 0 5,1.95 c 2.79,0 4.28,-2.11 4.61,-5.16 a 6.93,6.93 0 0 1 -4.61,1.56 c -4.94,0 -8.12,-2.73 -8.12,-7.37 0,-4.64 3.54,-8 8.67,-8 3,0 4.84,0.74 6.56,2.46 1.72,1.72 2.69,4.09 2.69,8.6 -0.03,7.42 -3.5,12.45 -9.96,12.45 z m 0.84,-19.21 c -2.46,0 -3.86,1.43 -3.86,3.47 0,2.04 1.49,3.44 4,3.44 2.51,0 3.89,-1.43 3.89,-3.41 0,-1.98 -1.53,-3.5 -4.03,-3.5 z"
         class="cls-5" />
      <polygon
         style="fill:#306a99"
         id="polygon214"
         points="1027.73,318 1332.07,318 1324.53,329.71 1332.07,342.44 1027.73,342.44 "
         class="cls-5" />
      <path
         style="fill:#ffffff"
         inkscape:connector-curvature="0"
         id="path216"
         d="m 1036.43,326.74 h 2.85 a 2.31,2.31 0 0 1 1.66,0.56 1.44,1.44 0 0 1 0.43,1.06 v 0 a 1.52,1.52 0 0 1 -0.91,1.42 1.56,1.56 0 0 1 1.26,1.54 v 0 c 0,1.14 -0.93,1.74 -2.35,1.74 h -2.94 z m 2.62,2.68 c 0.72,0 1.2,-0.28 1.2,-0.87 v 0 c 0,-0.5 -0.4,-0.81 -1.12,-0.81 h -1.6 v 1.69 z m 0.33,2.68 c 0.76,0 1.22,-0.29 1.22,-0.87 v 0 c 0,-0.54 -0.42,-0.86 -1.3,-0.86 h -1.77 v 1.74 z"
         class="cls-2" />
      <path
         style="fill:#ffffff"
         inkscape:connector-curvature="0"
         id="path218"
         d="m 1046.57,330.59 -2.52,-3.85 h 1.32 l 1.78,2.81 1.79,-2.81 h 1.28 l -2.52,3.82 v 2.53 h -1.13 z"
         class="cls-2" />
      <path
         style="fill:#ffffff"
         inkscape:connector-curvature="0"
         id="path220"
         d="m 1059.48,327.77 h -2 v -1 h 5.16 v 1 h -2 v 5.32 h -1.12 z"
         class="cls-2" />
      <path
         style="fill:#ffffff"
         inkscape:connector-curvature="0"
         id="path222"
         d="m 1065.79,326.74 h 1.12 v 2.64 h 3 v -2.64 h 1.12 v 6.35 h -1.12 v -2.67 h -3 v 2.67 h -1.12 z"
         class="cls-2" />
      <path
         style="fill:#ffffff"
         inkscape:connector-curvature="0"
         id="path224"
         d="m 1074.69,326.74 h 4.71 v 1 h -3.6 v 1.65 h 3.2 v 1 h -3.19 v 1.71 h 3.65 v 1 h -4.76 z"
         class="cls-2" />
      <path
         style="fill:#ffffff"
         inkscape:connector-curvature="0"
         id="path226"
         d="m 1087.2,329.93 v 0 a 3.22,3.22 0 0 1 3.28,-3.29 3.33,3.33 0 0 1 2.49,1 l -0.72,0.83 a 2.49,2.49 0 0 0 -1.78,-0.79 2.13,2.13 0 0 0 -2.1,2.24 v 0 a 2.15,2.15 0 0 0 2.1,2.26 2.51,2.51 0 0 0 1.83,-0.83 l 0.71,0.73 a 3.27,3.27 0 0 1 -2.58,1.12 3.19,3.19 0 0 1 -3.23,-3.27 z"
         class="cls-2" />
      <path
         style="fill:#ffffff"
         inkscape:connector-curvature="0"
         id="path228"
         d="m 1095.71,329.93 v 0 a 3.26,3.26 0 0 1 3.34,-3.29 3.22,3.22 0 0 1 3.31,3.27 v 0 a 3.33,3.33 0 0 1 -6.65,0 z m 5.48,0 v 0 a 2.17,2.17 0 0 0 -2.16,-2.26 2.14,2.14 0 0 0 -2.14,2.24 v 0 a 2.17,2.17 0 0 0 2.16,2.26 2.15,2.15 0 0 0 2.14,-2.24 z"
         class="cls-2" />
      <path
         style="fill:#ffffff"
         inkscape:connector-curvature="0"
         id="path230"
         d="m 1105.71,326.74 h 1.19 l 1.93,3 1.93,-3 h 1.24 v 6.35 h -1.11 v -4.55 l -2,3 v 0 l -2,-3 v 4.54 h -1.1 z"
         class="cls-2" />
      <path
         style="fill:#ffffff"
         inkscape:connector-curvature="0"
         id="path232"
         d="m 1115.58,326.74 h 1.19 l 1.93,3 1.94,-3 h 1.19 v 6.35 h -1.12 v -4.55 l -2,3 v 0 l -2,-3 v 4.54 h -1.1 z"
         class="cls-2" />
      <path
         style="fill:#ffffff"
         inkscape:connector-curvature="0"
         id="path234"
         d="m 1125.35,330.4 v -3.66 h 1.12 v 3.61 c 0,1.18 0.61,1.82 1.61,1.82 1,0 1.6,-0.6 1.6,-1.77 v -3.66 h 1.11 v 3.6 a 2.53,2.53 0 0 1 -2.73,2.85 2.51,2.51 0 0 1 -2.71,-2.79 z"
         class="cls-2" />
      <path
         style="fill:#ffffff"
         inkscape:connector-curvature="0"
         id="path236"
         d="m 1134.32,326.74 h 1 l 3.4,4.39 v -4.39 h 1.1 v 6.35 h -0.94 l -3.5,-4.52 v 4.52 h -1.1 z"
         class="cls-2" />
      <path
         style="fill:#ffffff"
         inkscape:connector-curvature="0"
         id="path238"
         d="m 1143.55,326.74 h 1.12 v 6.35 h -1.12 z"
         class="cls-2" />
      <path
         style="fill:#ffffff"
         inkscape:connector-curvature="0"
         id="path240"
         d="m 1149.92,327.77 h -2 v -1 h 5.15 v 1 h -2 v 5.32 h -1.13 z"
         class="cls-2" />
      <path
         style="fill:#ffffff"
         inkscape:connector-curvature="0"
         id="path242"
         d="m 1158.11,330.59 -2.53,-3.85 h 1.32 l 1.78,2.81 1.8,-2.81 h 1.28 l -2.53,3.82 v 2.53 h -1.12 z"
         class="cls-2" />
      <path
         style="fill:#ffffff"
         inkscape:connector-curvature="0"
         id="path244"
         d="m 1169.69,325.85 h 0.89 v 8.41 h -0.89 z"
         class="cls-2" />
      <path
         style="fill:#ffffff"
         inkscape:connector-curvature="0"
         id="path246"
         d="m 1179.17,326.74 h 4.73 v 1 h -3.61 v 1.73 h 3.2 v 1 h -3.2 v 2.58 h -1.12 z"
         class="cls-2" />
      <path
         style="fill:#ffffff"
         inkscape:connector-curvature="0"
         id="path248"
         d="m 1186.78,329.93 v 0 a 3.33,3.33 0 0 1 6.65,0 v 0 a 3.33,3.33 0 0 1 -6.65,0 z m 5.48,0 v 0 a 2.17,2.17 0 0 0 -2.16,-2.26 2.14,2.14 0 0 0 -2.15,2.24 v 0 a 2.18,2.18 0 0 0 2.16,2.26 2.15,2.15 0 0 0 2.15,-2.24 z"
         class="cls-2" />
      <path
         style="fill:#ffffff"
         inkscape:connector-curvature="0"
         id="path250"
         d="m 1196.77,326.74 h 2.84 a 2.59,2.59 0 0 1 1.83,0.63 1.93,1.93 0 0 1 0.53,1.38 v 0 a 1.92,1.92 0 0 1 -1.52,1.93 l 1.72,2.4 h -1.32 l -1.56,-2.21 h -1.4 v 2.21 h -1.12 z m 2.76,3.15 c 0.79,0 1.3,-0.42 1.3,-1.06 v 0 c 0,-0.68 -0.49,-1.05 -1.31,-1.05 h -1.63 v 2.13 z"
         class="cls-2" />
      <path
         style="fill:#ffffff"
         inkscape:connector-curvature="0"
         id="path252"
         d="m 1211.61,327.77 h -2 v -1 h 5.15 v 1 h -2 v 5.32 h -1.13 z"
         class="cls-2" />
      <path
         style="fill:#ffffff"
         inkscape:connector-curvature="0"
         id="path254"
         d="m 1217.93,326.74 h 1.07 v 2.64 h 3 v -2.64 h 1.11 v 6.35 H 1222 v -2.67 h -3 v 2.67 h -1.11 z"
         class="cls-2" />
      <path
         style="fill:#ffffff"
         inkscape:connector-curvature="0"
         id="path256"
         d="m 1226.82,326.74 h 4.71 v 1 h -3.59 v 1.65 h 3.18 v 1 h -3.18 v 1.71 h 3.64 v 1 h -4.76 z"
         class="cls-2" />
      <path
         style="fill:#ffffff"
         inkscape:connector-curvature="0"
         id="path258"
         d="m 1239.34,329.93 v 0 a 3.21,3.21 0 0 1 3.27,-3.29 3.33,3.33 0 0 1 2.49,1 l -0.72,0.83 a 2.48,2.48 0 0 0 -1.78,-0.79 2.13,2.13 0 0 0 -2.09,2.24 v 0 a 2.15,2.15 0 0 0 2.09,2.26 2.49,2.49 0 0 0 1.83,-0.83 l 0.72,0.73 a 3.29,3.29 0 0 1 -2.58,1.12 3.19,3.19 0 0 1 -3.23,-3.27 z"
         class="cls-2" />
      <path
         style="fill:#ffffff"
         inkscape:connector-curvature="0"
         id="path260"
         d="m 1247.85,329.93 v 0 a 3.26,3.26 0 0 1 3.33,-3.29 3.22,3.22 0 0 1 3.31,3.27 v 0 a 3.32,3.32 0 0 1 -6.64,0 z m 5.47,0 v 0 a 2.17,2.17 0 0 0 -2.16,-2.26 2.14,2.14 0 0 0 -2.14,2.24 v 0 a 2.18,2.18 0 0 0 2.16,2.26 2.15,2.15 0 0 0 2.14,-2.24 z"
         class="cls-2" />
      <path
         style="fill:#ffffff"
         inkscape:connector-curvature="0"
         id="path262"
         d="m 1257.84,326.74 h 1.16 l 1.93,3 1.94,-3 h 1.19 v 6.35 H 1263 v -4.55 l -2,3 v 0 l -2,-3 v 4.54 h -1.1 z"
         class="cls-2" />
      <path
         style="fill:#ffffff"
         inkscape:connector-curvature="0"
         id="path264"
         d="m 1267.71,326.74 h 1.19 l 1.94,3 1.93,-3 h 1.23 v 6.35 h -1.12 v -4.55 l -2,3 v 0 l -2,-3 v 4.54 h -1.1 z"
         class="cls-2" />
      <path
         style="fill:#ffffff"
         inkscape:connector-curvature="0"
         id="path266"
         d="m 1277.49,330.4 v -3.66 h 1.11 v 3.61 c 0,1.18 0.61,1.82 1.61,1.82 1,0 1.6,-0.6 1.6,-1.77 v -3.66 h 1.12 v 3.6 a 2.54,2.54 0 0 1 -2.74,2.85 2.5,2.5 0 0 1 -2.7,-2.79 z"
         class="cls-2" />
      <path
         style="fill:#ffffff"
         inkscape:connector-curvature="0"
         id="path268"
         d="m 1286.45,326.74 h 1 l 3.4,4.39 v -4.39 h 1.1 v 6.35 h -0.93 l -3.51,-4.52 v 4.52 h -1.1 z"
         class="cls-2" />
      <path
         style="fill:#ffffff"
         inkscape:connector-curvature="0"
         id="path270"
         d="m 1295.68,326.74 h 1.12 v 6.35 h -1.12 z"
         class="cls-2" />
      <path
         style="fill:#ffffff"
         inkscape:connector-curvature="0"
         id="path272"
         d="m 1302.05,327.77 h -2 v -1 h 5.15 v 1 h -2 v 5.32 h -1.13 z"
         class="cls-2" />
      <path
         style="fill:#ffffff"
         inkscape:connector-curvature="0"
         id="path274"
         d="m 1310.24,330.59 -2.52,-3.85 h 1.28 l 1.78,2.81 1.8,-2.81 h 1.28 l -2.52,3.82 v 2.53 h -1.13 z"
         class="cls-2" />
      <path
         style="fill:none;stroke:#ffd43c;stroke-width:5.03999996px;stroke-miterlimit:10"
         inkscape:connector-curvature="0"
         id="path276"
         d="m 868.83,253.51 c 12.85,0 12.85,10.44 25.7,10.44 12.85,0 12.85,-10.44 25.69,-10.44 12.84,0 12.85,10.49 25.7,10.49 12.85,0 12.85,-10.44 25.7,-10.44 12.85,0 12.85,10.44 25.7,10.44 12.85,0 12.85,-10.44 25.69,-10.44 12.84,0 12.85,10.44 25.7,10.44 12.85,0 12.85,-10.44 25.7,-10.44 12.85,0 12.85,10.44 25.7,10.44 12.85,0 12.85,-10.44 25.69,-10.44 12.84,0 12.85,10.44 25.7,10.44 12.85,0 12.85,-10.44 25.7,-10.44 12.85,0 12.85,10.44 25.7,10.44 12.85,0 12.85,-10.44 25.7,-10.44 12.85,0 12.85,10.44 25.7,10.44 12.85,0 12.85,-10.44 25.7,-10.44 12.85,0 12.85,10.44 25.71,10.44 12.86,0 12.85,-10.44 25.7,-10.44"
         class="cls-10" />
      <path
         style="fill:none;stroke:#ffd43c;stroke-width:5.03999996px;stroke-miterlimit:10"
         inkscape:connector-curvature="0"
         id="path278"
         d="m 868.83,271.89 c 12.85,0 12.85,10.44 25.7,10.44 12.85,0 12.85,-10.44 25.69,-10.44 12.84,0 12.85,10.44 25.7,10.44 12.85,0 12.85,-10.44 25.7,-10.44 12.85,0 12.85,10.44 25.7,10.44 12.85,0 12.85,-10.44 25.69,-10.44 12.84,0 12.85,10.44 25.7,10.44 12.85,0 12.85,-10.44 25.7,-10.44 12.85,0 12.85,10.44 25.7,10.44 12.85,0 12.85,-10.44 25.69,-10.44 12.84,0 12.85,10.44 25.7,10.44 12.85,0 12.85,-10.44 25.7,-10.44 12.85,0 12.85,10.44 25.7,10.44 12.85,0 12.85,-10.44 25.7,-10.44 12.85,0 12.85,10.44 25.7,10.44 12.85,0 12.85,-10.44 25.7,-10.44 12.85,0 12.85,10.44 25.71,10.44 12.86,0 12.85,-10.44 25.7,-10.44"
         class="cls-10" />
      <path
         style="fill:none;stroke:#ffd43c;stroke-width:5.03999996px;stroke-miterlimit:10"
         inkscape:connector-curvature="0"
         id="path280"
         d="m 868.83,290.27 c 12.85,0 12.85,10.44 25.7,10.44 12.85,0 12.85,-10.44 25.69,-10.44 12.84,0 12.85,10.44 25.7,10.44 12.85,0 12.85,-10.44 25.7,-10.44 12.85,0 12.85,10.44 25.7,10.44 12.85,0 12.85,-10.44 25.69,-10.44 12.84,0 12.85,10.44 25.7,10.44 12.85,0 12.85,-10.44 25.7,-10.44 12.85,0 12.85,10.44 25.7,10.44 12.85,0 12.85,-10.44 25.69,-10.44 12.84,0 12.85,10.44 25.7,10.44 12.85,0 12.85,-10.44 25.7,-10.44 12.85,0 12.85,10.44 25.7,10.44 12.85,0 12.85,-10.44 25.7,-10.44 12.85,0 12.85,10.44 25.7,10.44 12.85,0 12.85,-10.44 25.7,-10.44 12.85,0 12.85,10.44 25.71,10.44 12.86,0 12.85,-10.44 25.7,-10.44"
         class="cls-10" />
    </g>
  </g>
</svg>
