<?xml version="1.0" encoding="UTF-8" standalone="no"?>
<!-- Created with Inkscape (http://www.inkscape.org/) -->

<svg
   xmlns:dc="http://purl.org/dc/elements/1.1/"
   xmlns:cc="http://creativecommons.org/ns#"
   xmlns:rdf="http://www.w3.org/1999/02/22-rdf-syntax-ns#"
   xmlns:svg="http://www.w3.org/2000/svg"
   xmlns="http://www.w3.org/2000/svg"
   xmlns:sodipodi="http://sodipodi.sourceforge.net/DTD/sodipodi-0.dtd"
   xmlns:inkscape="http://www.inkscape.org/namespaces/inkscape"
   width="122.39096mm"
   height="4.0957499mm"
   viewBox="0 0 122.39096 4.0957499"
   version="1.1"
   id="svg93"
   inkscape:version="0.92.3 (2405546, 2018-03-11)"
   sodipodi:docname="yellow-squiggle.svg"
   preserveAspectRatio="none">
  <defs
     id="defs87" />
  <sodipodi:namedview
     id="base"
     pagecolor="#ffffff"
     bordercolor="#666666"
     borderopacity="1.0"
     inkscape:pageopacity="0.0"
     inkscape:pageshadow="2"
     inkscape:zoom="0.35"
     inkscape:cx="-1188.71"
     inkscape:cy="-123.68857"
     inkscape:document-units="mm"
     inkscape:current-layer="layer1"
     showgrid="false"
     fit-margin-top="0"
     fit-margin-left="0"
     fit-margin-right="0"
     fit-margin-bottom="0"
     inkscape:window-width="1920"
     inkscape:window-height="1016"
     inkscape:window-x="0"
     inkscape:window-y="27"
     inkscape:window-maximized="1" />
  <metadata
     id="metadata90">
    <rdf:RDF>
      <cc:Work
         rdf:about="">
        <dc:format>image/svg+xml</dc:format>
        <dc:type
           rdf:resource="http://purl.org/dc/dcmitype/StillImage" />
        <dc:title></dc:title>
      </cc:Work>
    </rdf:RDF>
  </metadata>
  <g
     inkscape:label="Layer 1"
     inkscape:groupmode="layer"
     id="layer1"
     transform="translate(-420.34619,-112.01165)">
    <path
       style="fill:none;stroke:#ffd43c;stroke-width:1.33350003px;stroke-miterlimit:10"
       inkscape:connector-curvature="0"
       id="path278"
       d="m 420.34619,112.6784 c 3.39989,0 3.39989,2.76225 6.79979,2.76225 3.39989,0 3.39989,-2.76225 6.79714,-2.76225 3.39725,0 3.3999,2.76225 6.7998,2.76225 3.39989,0 3.39989,-2.76225 6.79979,-2.76225 3.39989,0 3.39989,2.76225 6.79979,2.76225 3.39989,0 3.39989,-2.76225 6.79714,-2.76225 3.39725,0 3.3999,2.76225 6.7998,2.76225 3.39989,0 3.39989,-2.76225 6.79979,-2.76225 3.39989,0 3.39989,2.76225 6.79979,2.76225 3.3999,0 3.3999,-2.76225 6.79715,-2.76225 3.39725,0 3.39989,2.76225 6.79979,2.76225 3.39989,0 3.39989,-2.76225 6.79979,-2.76225 3.39989,0 3.39989,2.76225 6.79979,2.76225 3.3999,0 3.3999,-2.76225 6.79979,-2.76225 3.3999,0 3.3999,2.76225 6.7998,2.76225 3.39989,0 3.39989,-2.76225 6.79979,-2.76225 3.39989,0 3.39989,2.76225 6.80244,2.76225 3.40254,0 3.39989,-2.76225 6.79979,-2.76225"
       class="cls-10" />
  </g>
</svg>
