<?xml version="1.0" encoding="utf-8"?>
<!-- Generator: Adobe Illustrator 19.1.0, SVG Export Plug-In . SVG Version: 6.00 Build 0)  -->
<svg version="1.1" id="Layer_1" xmlns="http://www.w3.org/2000/svg" xmlns:xlink="http://www.w3.org/1999/xlink" x="0px" y="0px"
	 viewBox="0 0 339.9 652.4" style="enable-background:new 0 0 339.9 652.4;" xml:space="preserve">
<style type="text/css">
	.st0{fill:#A41E22;}
</style>
<polygon id="XMLID_9502_" class="st0" points="338.6,1.1 338.3,24.9 338.7,49 339.4,73.1 339.3,97.2 338.7,121.4 339.3,145.5 
	338.3,169.6 338.1,193.7 339.6,217.9 338.6,242 339.4,266.1 339.8,290.3 338.5,314.4 338.6,338.5 339,362.6 338.6,386.8 
	338.9,410.9 339.2,435 338.3,459.2 338.7,483.3 339.9,507.4 338.1,531.5 338.4,555.7 339,579.8 338.1,603.9 338.2,628.1 
	339.1,652.4 314.7,646.3 290.6,639.4 266.1,634.1 241.9,627.7 217.9,620.6 193.7,614 169.3,608.6 145.1,614 121.3,621.2 97.2,627.2 
	73.4,634.4 49.3,640.5 24.9,645.6 1.4,651.6 1.2,628.1 0.2,604 0.6,579.8 1.5,555.7 0.6,531.6 1.5,507.5 0,483.3 1,459.2 1.1,435.1 
	0.9,411 1.3,386.8 0.2,362.7 1.5,338.6 1,314.4 0.1,290.3 0.7,266.2 1.6,242.1 0.9,217.9 0,193.8 0.8,169.7 1.1,145.5 0.3,121.4 
	0.9,97.3 0.5,73.1 1.4,49 1.7,24.9 0.3,0.1 25.1,0 49.3,0.9 73.4,1.6 97.6,0.4 121.7,1.3 145.8,1.1 170,1.4 194.1,0.9 218.3,1.5 
	242.4,0.9 266.6,1.3 290.7,1.6 314.9,1.4 "/>
</svg>
