<?xml version="1.0" encoding="utf-8"?>
<!-- Generator: Adobe Illustrator 19.0.0, SVG Export Plug-In . SVG Version: 6.00 Build 0)  -->
<svg version="1.1" id="Layer_1" xmlns="http://www.w3.org/2000/svg" xmlns:xlink="http://www.w3.org/1999/xlink" x="0px" y="0px"
	 viewBox="0 0 658 348" style="enable-background:new 0 0 658 348;" xml:space="preserve">
<style type="text/css">
	.st0{fill:#A31E22;}
</style>
<polygon id="XMLID_9502_" class="st0" points="654.1,342.8 630.5,342.5 606.4,342.8 582.2,343.5 558.1,343.5 534,343 509.9,342.7 
	485.7,343 461.6,344.1 437.5,342.8 413.4,343.6 389.2,343.5 365.1,342.5 341,342.8 316.8,343.7 292.7,343.5 268.6,344.2 244.5,344 
	220.3,343.9 196.2,343.7 172.1,343.6 147.9,342.4 123.8,343.5 99.7,343.4 75.5,343.5 51.4,343.2 27.3,343.2 3,343.3 10,319.2 
	15,294.6 22.6,270.7 28.8,246.5 34.6,222.1 41.6,198 47,173.6 41.5,149.3 35.2,125.3 28.1,101.4 22.6,77.2 16.1,53.2 10.2,29.1 
	2.8,4.9 27.3,5.1 51.4,6 75.5,6.1 99.6,6 123.8,4.7 147.9,4.3 172,4.7 196.1,5.5 220.3,4.5 244.4,4.4 268.5,6 292.7,5.8 316.8,5.7 
	340.9,6.2 365,6.1 389.2,5 413.3,5.8 437.4,5.4 461.6,6.1 485.7,4.6 509.8,4.2 534,4.5 558.1,4.5 582.2,5 606.3,4.5 630.5,4.6 
	654.5,5.4 655.4,29.3 655.1,53.5 653.9,77.6 654.8,101.8 653.9,125.9 653.7,150.1 655.3,174.2 653.8,198.4 654.6,222.5 655.4,246.7 
	655.2,270.8 655.5,295 655.6,319.1 "/>
</svg>
