<?xml version="1.0" encoding="utf-8"?>
<!-- Generator: Adobe Illustrator 19.1.0, SVG Export Plug-In . SVG Version: 6.00 Build 0)  -->
<svg version="1.1" id="Layer_1" xmlns="http://www.w3.org/2000/svg" xmlns:xlink="http://www.w3.org/1999/xlink" x="0px" y="0px"
	 viewBox="179 -24 658 348" style="enable-background:new 179 -24 658 348;" xml:space="preserve">
<style type="text/css">
	.st0{fill:#A31E22;}
</style>
<polygon id="XMLID_9502_" class="st0" points="833.1,318.8 809.5,318.5 785.4,318.8 761.2,319.5 737.1,319.5 713,319 688.9,318.7 
	664.7,319 640.6,320.1 616.5,318.8 592.4,319.6 568.2,319.5 544.1,318.5 520,318.8 495.8,319.7 471.7,319.5 447.6,320.2 423.5,320 
	399.3,319.9 375.2,319.7 351.1,319.6 326.9,318.4 302.8,319.5 278.7,319.4 254.5,319.5 230.4,319.2 206.3,319.2 182,319.3 
	189,295.2 194,270.6 201.6,246.7 207.8,222.5 213.6,198.1 220.6,174 226,149.6 220.5,125.3 214.2,101.3 207.1,77.4 201.6,53.2 
	195.1,29.2 189.2,5.1 181.8,-19.1 206.3,-18.9 230.4,-18 254.5,-17.9 278.6,-18 302.8,-19.3 326.9,-19.7 351,-19.3 375.1,-18.5 
	399.3,-19.5 423.4,-19.6 447.5,-18 471.7,-18.2 495.8,-18.3 519.9,-17.8 544,-17.9 568.2,-19 592.3,-18.2 616.4,-18.6 640.6,-17.9 
	664.7,-19.4 688.8,-19.8 713,-19.5 737.1,-19.5 761.2,-19 785.3,-19.5 809.5,-19.4 833.5,-18.6 834.4,5.3 834.1,29.5 832.9,53.6 
	833.8,77.8 832.9,101.9 832.7,126.1 834.3,150.2 832.8,174.4 833.6,198.5 834.4,222.7 834.2,246.8 834.5,271 834.6,295.1 "/>
</svg>
