<?xml version="1.0" encoding="utf-8"?>
<!-- Generator: Adobe Illustrator 19.1.0, SVG Export Plug-In . SVG Version: 6.00 Build 0)  -->
<svg version="1.1" id="Layer_1" xmlns="http://www.w3.org/2000/svg" xmlns:xlink="http://www.w3.org/1999/xlink" x="0px" y="0px"
	 viewBox="20 -176.4 339.9 652.4" style="enable-background:new 20 -176.4 339.9 652.4;" xml:space="preserve">
<style type="text/css">
	.st0{fill:#A41E22;}
</style>
<polygon id="XMLID_9502_" class="st0" points="358.6,-175.3 358.3,-151.5 358.7,-127.4 359.4,-103.3 359.3,-79.2 358.7,-55 
	359.3,-30.9 358.3,-6.8 358.1,17.3 359.6,41.5 358.6,65.6 359.4,89.7 359.8,113.9 358.5,138 358.6,162.1 359,186.2 358.6,210.4 
	358.9,234.5 359.2,258.6 358.3,282.8 358.7,306.9 359.9,331 358.1,355.1 358.4,379.3 359,403.4 358.1,427.5 358.2,451.7 359.1,476 
	334.7,469.9 310.6,463 286.1,457.7 261.9,451.3 237.9,444.2 213.7,437.6 189.3,432.2 165.1,437.6 141.3,444.8 117.2,450.8 93.4,458 
	69.3,464.1 44.9,469.2 21.4,475.2 21.2,451.7 20.2,427.6 20.6,403.4 21.5,379.3 20.6,355.2 21.5,331.1 20,306.9 21,282.8 
	21.1,258.7 20.9,234.6 21.3,210.4 20.2,186.3 21.5,162.2 21,138 20.1,113.9 20.7,89.8 21.6,65.7 20.9,41.5 20,17.4 20.8,-6.7 
	21.1,-30.9 20.3,-55 20.9,-79.1 20.5,-103.3 21.4,-127.4 21.7,-151.5 20.3,-176.3 45.1,-176.4 69.3,-175.5 93.4,-174.8 117.6,-176 
	141.7,-175.1 165.8,-175.3 190,-175 214.1,-175.5 238.3,-174.9 262.4,-175.5 286.6,-175.1 310.7,-174.8 334.9,-175 "/>
</svg>
