<?xml version="1.0" encoding="utf-8"?>
<!-- Generator: Adobe Illustrator 19.0.0, SVG Export Plug-In . SVG Version: 6.00 Build 0)  -->
<svg version="1.1" id="Layer_1" xmlns="http://www.w3.org/2000/svg" xmlns:xlink="http://www.w3.org/1999/xlink" x="0px" y="0px"
	 viewBox="0 0 314 59" style="enable-background:new 0 0 314 59;" xml:space="preserve">
<style type="text/css">
	.st0{fill:#358696;}
	.st1{fill:#315A5A;}
</style>
<g id="XMLID_211_">
	<path id="XMLID_216_" class="st0" d="M304.3,22c-0.4-0.4-1.9,0-2-0.3c-0.2,0.1,0.9,0.7,0.3,0.8c-0.4,0-1.2-1.1-1.7-1.1
		c-0.4,0-0.8,0.5-1.2,0.5c-0.4,0-0.9,0.4-1.3,0.4c-0.5,0-0.9,0.5-1.3,0.5c-0.5,0-0.9-0.6-1.3-0.6c-0.6,0-1-0.1-1.3-0.1
		c-0.5,0-1.1-0.7-1.5-0.7c-0.5,0-0.6,1.6-1,1.6c-0.5,0-1.1-0.7-1.5-0.6c-0.5,0-1.1-0.7-1.5-0.6c-0.5,0-0.6,1.3-1.1,1.3
		c-0.5,0-0.9,0.2-1.3,0.2c-0.5,0-0.9,0.1-1.4,0.1c-0.5,0-0.9,0-1.4,0c-0.5,0-0.9,0.1-1.4,0.1c-0.5,0-1-0.5-1.5-0.5
		c-0.5,0-0.8,0.4-1.3,0.4c-0.5,0-1.1-0.8-1.5-0.7c-0.5,0-0.9,0-1.4,0c-0.5,0-0.9,0.1-1.4,0.1c-0.5,0-0.8,0.3-1.3,0.3
		c-0.5,0-0.9-0.1-1.4-0.1c-0.5,0-1-0.2-1.4-0.2c-0.5,0-0.9,0-1.4,0c-0.5,0-0.7,1.1-1.1,1.1c-0.5,0-1.2-1.4-1.7-1.3
		c-0.5,0-0.8,0.5-1.3,0.5c-0.5,0-0.9,0-1.4,0c-0.5,0-0.7,0.9-1.2,0.9c-0.5,0-1.2-1.2-1.7-1.2c-0.5,0-0.7,1.3-1.1,1.3
		c-0.5,0-1-0.2-1.5-0.1c-0.5,0-1-0.2-1.5-0.2c-0.5,0-0.8,0.6-1.3,0.7c-0.5,0-1-0.2-1.5-0.2c-0.5,0-1.1-0.9-1.6-0.9
		c-0.5,0-0.9,0.1-1.4,0.2c-0.5,0-0.8,1.1-1.3,1.1c-0.5,0-1.1-1.1-1.6-1.1c-0.5,0-0.9,0.4-1.4,0.4c-0.5,0-0.9,0.4-1.4,0.4
		c-0.5,0-0.9,0.5-1.4,0.5c-0.5,0-1-1.6-1.5-1.6c-0.5,0-0.9,1.1-1.4,1c-0.5,0-0.9-1-1.4-1c-0.5,0-0.9,0.6-1.4,0.6
		c-0.5,0-0.9-0.2-1.4-0.2c-0.5,0-0.9-0.2-1.3-0.2c-0.5,0-1,0.7-1.5,0.6c-0.5,0-0.9-0.4-1.3-0.5c-0.5,0-1.1,0.7-1.5,0.7
		c-0.5,0-0.7-1.3-1.1-1.4c-0.5,0-1,0.2-1.4,0.1c-0.5,0-1,0.6-1.5,0.5c-0.5,0-0.7-1.2-1.1-1.2c-0.5,0-0.9-0.3-1.3-0.3
		c-0.5,0-1,0.4-1.5,0.4c-0.5,0-0.9-0.3-1.3-0.4c-0.5,0-1.2,1.1-1.6,1c-0.5,0-0.9-0.1-1.4-0.2c-0.5,0-0.8-0.7-1.3-0.7
		c-0.5,0-0.8-0.7-1.2-0.8c-0.5,0-1.1,0.9-1.6,0.9c-0.5,0-0.8-0.6-1.3-0.6c-0.5,0-0.9,0-1.4-0.1c-0.5,0-0.9-0.4-1.3-0.4
		c-0.5,0-0.8-0.5-1.3-0.5c-0.5,0-1.3,1.4-1.7,1.3c-0.5,0-0.9-0.3-1.3-0.3c-0.5,0-0.8-0.7-1.2-0.7c-0.5,0-0.9-0.1-1.4-0.2
		c-0.5,0-0.8-0.6-1.3-0.7c-0.5,0-0.9-0.1-1.4-0.2c-0.5,0-0.9-0.1-1.4-0.1c-0.5,0-1,0-1.4,0c-0.5,0-0.9-0.2-1.4-0.3
		c-0.5,0-0.9,0-1.4,0c-0.5,0-1.2,0.9-1.6,0.9c-0.5,0-0.8-0.7-1.2-0.8c-0.5,0-1,0.2-1.5,0.2c-0.5,0-0.8-0.7-1.2-0.7
		c-0.5,0-0.9-0.4-1.3-0.4c-0.5,0-1.1,0.7-1.6,0.6c-0.5-0.1-0.8-0.5-1.3-0.5c-0.5,0-1,0.2-1.5,0.2c-0.5-0.1-1.1,0.5-1.5,0.5
		c-0.5-0.1-0.8-0.6-1.3-0.7c-0.5-0.1-0.9-0.3-1.3-0.4c-0.5-0.1-1.1,0.8-1.6,0.7c-0.5-0.1-0.7-1-1.2-1c-0.5-0.1-1,0.3-1.5,0.2
		c-0.5-0.1-0.9-0.4-1.3-0.4c-0.5,0-0.9,0-1.4-0.1c-0.5,0-0.8-0.7-1.3-0.7c-0.5,0-1.2,1.1-1.6,1c-0.5,0-0.9-0.1-1.4-0.2
		c-0.5,0-0.7-1.3-1.2-1.3c-0.5,0-1,0-1.4,0c-0.5,0-1,0.5-1.5,0.5c-0.5,0-1,0.4-1.5,0.4c-0.5,0-0.9-0.7-1.3-0.8c-0.5,0-1,0.6-1.5,0.5
		c-0.5,0-0.9-0.3-1.4-0.4c-0.5,0-0.9-1-1.4-1c-0.5,0-1,0.8-1.4,0.8c-0.5,0-0.9,0.2-1.4,0.2c-0.5,0-0.9-0.9-1.4-0.9
		c-0.5,0-0.9,0.1-1.4,0c-0.5,0-0.9,0.1-1.4,0c-0.5,0-0.8,0.7-1.3,0.7c-0.5,0-1-1-1.5-1.1c-0.5,0-0.8,1.1-1.2,1.1
		c-0.5,0-1-0.5-1.4-0.5c-0.5,0-0.9,0.2-1.3,0.2c-0.5,0-0.9,0.2-1.3,0.2c-0.5,0-1-0.3-1.4-0.3c-0.5,0-0.9,0.2-1.3,0.2
		c-0.5,0-0.8,0.3-1.3,0.3c-0.5,0-1.3-1.6-1.8-1.6c-0.5,0-0.5,1.5-1,1.5c-0.5,0-1.2-1.1-1.7-1.1c-0.5,0-0.6,1-1.1,1
		c-0.5,0-1.2-1.1-1.7-1.1c-0.5,0-0.8,0.5-1.2,0.5c-0.5,0-0.9,0.1-1.3,0.2c-0.5,0-0.8,0.5-1.2,0.5c-0.5,0-0.8,0.3-1.3,0.3
		c-0.5,0-1.2-1.1-1.7-1.1c-0.5,0-1-0.4-1.5-0.4c-0.5,0-0.6,1-1.1,1c-0.5,0-1.1-0.8-1.6-0.8c-0.5,0-0.6,1.1-1,1.1
		c-0.5,0-1.3-1.2-1.7-1.2c-0.5,0-0.8,0.3-1.3,0.3c-0.5,0-0.9,0-1.4,0c-0.5,0-0.9,0.2-1.3,0.2c-0.5,0-0.9,0.1-1.3,0.1
		c-0.5,0-0.8,0.5-1.2,0.5c-0.5,0-1-0.5-1.5-0.5c-0.5,0-0.8,0.4-1.3,0.4c-0.5,0-0.9,0.2-1.3,0.2c-0.5,0-1-0.3-1.4-0.3
		c-0.5,0-0.8,0.4-1.3,0.4c-0.5,0-1.1-1.1-1.6-1.1c-0.5,0-0.9,0.1-1.3,0.1c-0.5,0-0.9,0.4-1.3,0.4c-0.5,0-0.9,0.3-1.3,0.3
		c-0.5,0-0.9,0-1.4,0c-0.5,0-0.9,0.4-1.3,0.4c-0.5,0-1-1.3-1.4-1.3c-0.5,0-0.9,0.6-1.3,0.6c-0.5,0-0.9-0.5-1.4-0.5
		c-0.5,0-0.9,0.5-1.4,0.5c-0.5,0-0.9-0.7-1.3-0.7c-0.5,0-1,0.6-1.4,0.5c-0.5,0-0.9-0.1-1.4-0.1c-0.5,0-0.9-0.4-1.3-0.5
		c-0.5-0.1-1.1,0.7-1.5,0.6c-0.5-0.1-0.8-0.6-1.3-0.7c-0.5-0.1-0.7-0.8-1.2-0.8c-0.5-0.1-1,0.3-1.5,0.2c-0.5-0.1-0.9-0.3-1.3-0.3
		c-0.4-0.1-0.8-0.3-1.3-0.4c-0.4-0.1-0.9-0.2-1.3-0.3c-0.4-0.1-1.5,1-1.9,0.9c-0.4-0.1-0.5-1-0.9-1.1c-0.4-0.1-0.9-0.2-1.3-0.3
		c-0.4-0.1-1,0-1.4-0.1c-0.4-0.1-0.4-0.9-0.8-1c-0.4-0.1-0.9-0.1-1.3-0.2c-0.4-0.1-1.7,0.8-2.1,0.7c-0.4-0.1-0.4-0.6-0.9-0.7
		c-0.4-0.1-0.6-0.7-1.1-0.8c-0.4-0.1-0.9-0.5-1.3-0.5c-0.4-0.1-1,1-1.5,1c-0.4,0-0.9-0.3-1.3-0.3c-0.4,0-0.9-0.5-1.4-0.5
		c-0.4,0-0.9-0.3-1.4-0.3c-0.4,0-0.9,0.2-1.3,0.2c-0.4,0-0.9-0.3-1.4-0.3c-0.4,0-0.8,1.2-1.2,1.2c-0.5,0-0.9-1.3-1.4-1.3
		c-0.5,0-0.8,0-1.3-0.1c-0.4,0-0.7-0.5-1.2-0.5c-0.5-0.1-1.3,1.1-1.8,1.1c-0.5-0.1-0.6-0.9-1.1-1c-0.5-0.1-0.9-0.2-1.4-0.2
		c-0.5-0.1-0.9-0.3-1.3-0.3c-0.5-0.1-0.8-0.3-1.3-0.4c-0.5-0.1-1.1,0.3-1.6,0.2c-0.5-0.1-0.7-0.6-1.1-0.7c-0.5-0.1-1.5,0.9-1.9,0.8
		c-0.4-0.1-1,0-1.4-0.1c-0.4-0.1-0.9-0.2-1.3-0.3c-0.4-0.1-0.6-0.7-1-0.8c-0.4-0.1-0.4-1-0.8-1.1c-0.4-0.1-1,0-1.5-0.1
		C32.6,6,32,6,31.6,5.9c-0.4-0.1-1.2,0.3-1.6,0.2c-0.4-0.1-1.1,0.1-1.5,0C28,6,28,5.2,27.5,5.1C27.1,5,26.4,5.3,26,5.2
		C25.5,5.1,25,5.1,24.6,5c-0.4-0.1-1-0.1-1.4-0.2c-0.4-0.1-0.6-0.7-1-0.8c-0.4-0.1-0.5-0.8-1-0.9C20.7,3,19.5,4.3,19,4.2
		c-0.5-0.1-0.5-1-0.9-1.1c-0.5-0.1-1.3,0.6-1.8,0.5c-0.5-0.1-0.7-0.5-1.2-0.6c-0.5-0.1-0.8-0.3-1.3-0.4c-0.5-0.1-1,0-1.4-0.1
		c-0.5-0.1-1,0-1.4-0.1c-0.5-0.1-0.8-0.3-1.3-0.4c-0.5-0.1-1,0.1-1.4,0c-0.5-0.1-1,0.1-1.4,0.1C6.4,2.2,6.1,1.2,5.7,1.1
		C5.2,1.1,4.7,1.1,4.3,1C3.8,1,3.4,0.3,2.9,0.3c-0.5,0-1,0.1-1.4,0c-0.5,0-0.9,1.2-1.4,1.2c0,0-0.1,0-0.1,0c0,10,0,19.9,0,29.9
		c101.4,6.1,202.8,14.3,304.3,14.3C304.3,37.8,304.3,29.9,304.3,22z"/>
	<path id="XMLID_1418_" class="st1" d="M309.2,6l-2.3,0.4l-1.1-0.3L303,6.2l-0.9,0.4L300.9,7L298,6.6l-1.1,0.4l-1.3,0.6l-5.3-0.4
		l-2.6-0.2l-1.5-0.2l-3.2,0.5l-1.6,0.3l-1.6-0.1l-2.6,0.3l-1.6-0.4l-2.3,1.4l-3.2,0l-1.5,1.1L267,9.2l-1.7,0l-1.5,0.5l-1.5,1.1
		l-1.6-0.3l-1.7-1l-1.5,0.8l-1.6,0.3l-1.6,1.2l-1.6-0.8l-1.6-0.2l-1.5,2.5l-1.5-0.8l-1.7,0.9l-1.4-0.6l-1.8,1.4l-1.4,0.8l-1.5-0.9
		l-1.9,1.9l-1.5-1.1l-1.6,2.2l-1.5,0.8l-1.5-0.5l-1.5-0.6l-1.8,1.8l-1.4-1.2l-1.4-1.6l-1.6,2.2l-1.7,1.1l-1.4-1.4l-1.6-0.8l-1.8,3.5
		l-1.4-1.9l-1.6,1.6l-1.6-0.1l-1.6,1.6l-1.5-1.7l-1.6,0.1l-1.6,2l-1.5-2.4l-1.6,0.9l-1.6-0.6l-1.6,1l-1.6,0.9l-1.6,1.2l-1.6-0.8
		l-1.6,0.3l-1.5-1l-1.6,0.5l-1.6,0.5l-1.6-0.7l-1.6,1.3l-1.6-1.1l-1.5-1.3l-1.5,1.1l-1.6,2.2l-1.6-0.8l-1.6,0.5l-1.6,2.6l-1.6-2.1
		l-1.5,1.3l-1.6-0.9l-1.6-0.3l-1.6,0l-1.5,1.5l-1.6,2.3l-1.6,0l-1.6-2l-1.6,1.2l-1.6-0.7l-1.6-0.5l-1.5,1.4l-1.6-1.4l-1.6,1.2
		l-1.6-0.4l-1.6,1.5L147,27l-1,0.8c-0.2-0.2-0.3-0.3-0.5-0.3c-0.6,0-1.2-1.2-1.8-1.2c-0.4,0-0.9,0.5-1.4,0.7l-0.1,0l-0.7,0.1
		c-0.5-0.4-0.8-2-1.4-2.1c-0.6,0-1.5,2.5-2.1,2.4c-0.6-0.1-1-1.3-1.6-1.4c-0.3,0-0.8,0.9-1.3,1.7l-0.8,0.5l-0.9-0.5
		c-0.1-1.2-0.2-2.6-0.6-2.6c-0.4,0-1.1,1.3-1.7,2.3l-1.5-0.1l-0.4,0c-0.2-0.2-0.4,1.6-0.6,1.5c-0.3,0-0.6,0.2-1,0.5l-1.2-1.3l-0.6,0
		c-0.2-0.8-0.3-2-0.7-2c-0.4-0.1-1,0.8-1.6,1.4l-0.3-0.2l-1,0.2c-0.2-0.9-0.3-2.3-0.7-2.4c-0.6-0.1-1.7,1.3-2.3,1.1
		c-0.6-0.1-1.6,2-2.2,1.9c-0.6-0.1-1.2-0.2-1.8-0.3c-0.6-0.1-0.4-2.7-1-2.9c-0.6-0.1-2.2,1.7-2.8,1.6c-0.6-0.1-1.3,2.1-2,2
		c-0.6-0.1,0-4.2-0.6-4.3c-0.6-0.1-2.1,2.8-2.7,2.7c-0.6-0.1-0.7-2.1-1.3-2.2c-0.6-0.1-1.5,0.9-2.1,0.8c-0.6-0.1-0.8-1.6-1.5-1.7
		c-0.6-0.1-1.1-0.5-1.8-0.6c-0.6-0.1-1.5,3.9-2.2,3.7c-0.6-0.1-0.7-1.8-1.3-1.9c-0.6-0.1-1.5,0.6-2.1,0.4c-0.6-0.1-1.8,1.4-2.4,1.2
		c-0.6-0.1-1.8-1.1-2.4-1.3c-0.6-0.2-0.3-2.2-1-2.4c-0.6-0.1-0.7-1.7-1.3-1.9c-0.6-0.1-2.1,2.6-2.7,2.5c-0.6-0.1-0.9-1.5-1.5-1.6
		c-0.6-0.1-1.3,3.1-1.9,3c-0.6-0.1-1.3,0.5-2,0.4c-0.6-0.1-0.9-3.8-1.6-3.8c-0.6,0-1.3-0.3-1.9-0.3c-0.6,0-1.4,4-2.1,4
		c-0.6,0-1.3-2.4-1.9-2.4c-0.6,0-1.2-1.6-1.9-1.6c-0.6,0-1.3-0.1-2-0.1c-0.6,0-1.2,2.1-1.8,2.2c-0.6,0-1.3-0.1-1.9,0
		c-0.6,0-1.4-1.9-2-1.9c-0.6,0-1.3-0.4-1.9-0.3c-0.6,0-0.9,3.8-1.5,3.8c-0.6,0-1.7-4.1-2.3-4.1c-0.6,0-1.3-0.3-1.9-0.2
		c-0.6,0-1.1,1.9-1.7,1.9c-0.6,0-1.1,1.4-1.8,1.4c-0.6,0-1.5-5.7-2.1-5.7c-0.6,0-1,3.4-1.6,3.5c-0.6,0-1.2,0.6-1.9,0.6
		c-0.6,0-1.5-2.9-2.2-2.9c-0.6,0-1.1,3.2-1.7,3.2c-0.6,0-1.4-2-2-2c-0.6,0-1.2,0-1.9,0.1c-0.6,0-1.3-1.3-1.9-1.3
		c-0.6,0-1.1,0.1-1.8,0.2c-0.6,0-1.3-1.3-1.9-1.2c-0.6,0-1.3,0.2-1.9,0.2c-0.6,0-1.3-1.5-1.9-1.5c-0.6,0-1.2,1.2-1.9,1.2
		c-0.6,0-1.3,0.5-1.9,0.5c-0.6,0-1.2-2.2-1.9-2.2c-0.6,0-1.2-1.4-1.9-1.4c-0.6,0-1.3,3.4-2,3.4c-0.6,0-1.3-1.2-1.9-1.2
		c-0.6,0-1.2,1-1.9,0.9S13.4,16,12.8,16c-0.6,0-1.2-1.5-1.9-1.5c-0.6,0-1.3,0.2-2,0.1c-0.6,0-1.1-3.8-1.7-3.9c-0.6,0-1.4,1.7-2,1.7
		c-0.6,0-1.4,0.3-2,0.2c-0.6,0-1.3,0-1.9,0c-0.5,0-0.9-0.9-1.4-1.2v47.9h314V6.5L309.2,6z"/>
</g>
</svg>
