<?xml version="1.0" encoding="utf-8"?>
<!-- Generator: Adobe Illustrator 19.1.0, SVG Export Plug-In . SVG Version: 6.00 Build 0)  -->
<svg version="1.1" id="Layer_1" xmlns="http://www.w3.org/2000/svg" xmlns:xlink="http://www.w3.org/1999/xlink" x="0px" y="0px"
	 viewBox="206 -346 387 206.1" style="enable-background:new 206 -346 387 206.1;" xml:space="preserve">
<style type="text/css">
	.st0{fill:#FFFFFF;}
</style>
<g>
	<g>
		<path class="st0" d="M206-202.9c0-17.6,12.2-31.4,31.4-31.4H250v15.5h-11.2c-10.2,0-16.6,7-16.6,15.9s6.5,15.9,16.6,15.9H250v15.7
			h-12.6C218.3-171.4,206-185.3,206-202.9z"/>
		<path class="st0" d="M287.4-171.4c-17.6,0-30.8-14.2-30.8-31.8c0-17.9,13.3-32.8,32.4-32.8c19,0,32.3,14.9,32.3,33.3v31.3h-16.1
			v-31.3c0-9.7-7.2-17.6-16.1-17.6s-16.1,7.7-16.1,17.1c0,9.3,7.2,16.1,16.5,16.1h9.3v15.7H287.4L287.4-171.4z"/>
		<path class="st0" d="M351.6-189.5v18.1h-16.1v-91h16.1v50.9l20.6-22.9h22.3L371-209.8l24.8,38.4h-20.5l-15.7-26.5L351.6-189.5z"/>
		<path class="st0" d="M458.2-197.6c0,15.8-10.9,27.6-27.8,27.6c-16.9,0-27.6-11.9-27.6-27.6v-52.7h16.1v15.9h28.6v15.5h-28.6v21.8
			c0,5.7,3.5,11.5,11.5,11.5c8.1,0,11.6-5.8,11.6-11.5v-5.7h16.2V-197.6L458.2-197.6z"/>
		<path class="st0" d="M497.1-169.9c-17.6,0-28-11.6-28-28.1v-36.4h16.1v36.8c0,3.5,1.2,12,11.9,12c7.1,0,12.2-5,12.2-12v-36.8h16.1
			v36.3C525.5-182,514.2-169.9,497.1-169.9z"/>
		<path class="st0" d="M565.2-169.9c-16,0-27.9-8.4-29.8-22h16.4c2.2,5.4,8.7,7.3,13.5,7.3c6.5,0,11.4-2,11.4-5.6
			c0-3.5-2.2-5-13.2-6.7c-11.2-1.7-26.3-4.8-26.3-18.8c0-9.9,8.7-20.2,26.9-20.2c14.4,0,25.2,7.8,27.3,19.7h-16.8
			c-1-2.9-4.5-5.3-10.5-5.3c-7.5,0-10.5,2.7-10.5,5c0,3.3,4.6,4.4,12.5,5.6c15.6,2.6,26.9,6,26.9,19.7
			C592.9-178.7,581.4-169.9,565.2-169.9z"/>
	</g>
	<g>
		<g>
			<path class="st0" d="M509.4-319v38.9c4-5.2,9.4-9.2,15.7-11.5v-27.1c0-16-10.1-27.3-27.2-27.3c-16.5,0-27.4,11.6-27.5,27.1
				c6.2,2.2,11.6,6.1,15.7,11.1V-319c0-6.9,5-11.6,11.9-11.6C508.2-330.6,509.4-322.5,509.4-319z"/>
			<path class="st0" d="M458.9-313.7c17.1,0,27.2,11.3,27.2,27.3v44.4h-15.7v-44.7c0-3.4-1.2-11.6-11.5-11.6
				c-6.9,0-11.9,4.7-11.9,11.6v44.8h-15.7v-44.4C431.4-301.9,442.3-313.7,458.9-313.7z"/>
			<path class="st0" d="M537.3-272c10.3,0,11.5,8.2,11.5,11.6v20.3c4.3-1.6,9.4-2.6,15.2-2.6c0.2,0,0.3,0,0.5,0V-260
				c0-16-10.1-27.3-27.2-27.3c-16.6,0-27.5,11.8-27.5,27.3v18h15.7v-18.3C525.4-267.2,530.4-272,537.3-272z"/>
		</g>
		<g>
			<path class="st0" d="M445-148.1h-4.8v-4.8h9.6v12.5h-1.5l-0.7-1.3c-1.8,1.2-4,1.8-6.2,1.8c-6.2,0-11.4-5.3-11.4-11.7
				s5.1-11.7,11.4-11.7c3.4,0,6.7,1.6,8.6,4.1l-2.4,3c-1.2-1.3-3.5-2.3-5.3-2.3c-3.9,0-7,3.1-7,6.9s3.1,6.9,7,6.9
				c0.8,0,1.7-0.2,2.6-0.5L445-148.1L445-148.1z"/>
			<path class="st0" d="M480.9-140.4h-6.7l-5.3-5.3c-1.9,0-4.7,0-4.7,0v5.3h-4.8v-22.5c0,0,9.9,0,11.1,0c4.8,0,8.6,3.9,8.6,8.6
				c0,3.2-1.9,6.1-4.5,7.6L480.9-140.4z M474.3-154.3c0-2.1-1.7-3.8-3.8-3.8c-0.6,0-6.3,0-6.3,0v7.7c0,0,5.2,0,6.3,0
				C472.5-150.5,474.3-152.2,474.3-154.3z"/>
			<path class="st0" d="M508.4-151.7c0,6.5-4.8,11.7-10.8,11.7c-5.9,0-10.8-5.2-10.8-11.7s4.8-11.7,10.8-11.7
				C503.6-163.5,508.4-158.2,508.4-151.7z M492-151.7c0,4,2.5,7.3,5.7,7.3s5.7-3.3,5.7-7.3s-2.6-7.3-5.7-7.3
				C494.5-159,492-155.7,492-151.7z"/>
			<path class="st0" d="M521.6-163v13.4c0,2.6,2.2,4.8,4.8,4.8s4.8-2.2,4.8-4.8V-163h4.8v13.4c0,5.3-4.3,9.6-9.6,9.6
				s-9.6-4.3-9.6-9.6V-163H521.6z"/>
			<path class="st0" d="M565.2-154.3c0,4.7-3.9,8.6-8.6,8.6c-1.2,0-6.3,0-6.3,0v5.3h-4.8v-22.5c0,0,9.9,0,11.1,0
				C561.4-163,565.2-159.1,565.2-154.3z M560.4-154.3c0-2.1-1.7-3.8-3.8-3.8c-0.6,0-6.3,0-6.3,0v7.7c0,0,5.2,0,6.3,0
				C558.7-150.5,560.4-152.2,560.4-154.3z"/>
		</g>
	</g>
</g>
</svg>
