<?xml version="1.0" encoding="utf-8"?>
<!-- Generator: Adobe Illustrator 15.1.0, SVG Export Plug-In . SVG Version: 6.00 Build 0)  -->
<!DOCTYPE svg PUBLIC "-//W3C//DTD SVG 1.1//EN" "http://www.w3.org/Graphics/SVG/1.1/DTD/svg11.dtd">
<svg version="1.1" id="Layer_1" xmlns="http://www.w3.org/2000/svg" xmlns:xlink="http://www.w3.org/1999/xlink" x="0px" y="0px"
	 width="612px" height="792px" viewBox="0 0 612 792" enable-background="new 0 0 612 792" xml:space="preserve">
<g>
	<g>
		<path d="M112.837,418.762c0-17.607,12.229-31.428,31.431-31.428h12.593v15.53h-11.249c-10.151,0-16.632,6.973-16.632,15.897
			c0,8.929,6.481,15.898,16.632,15.898h11.249v15.657h-12.593C125.065,450.317,112.837,436.371,112.837,418.762z"/>
		<path d="M194.16,450.317c-17.609,0-30.812-14.188-30.812-31.796c0-17.857,13.327-32.778,32.403-32.778
			c18.951,0,32.286,14.92,32.286,33.262v31.312h-16.145v-31.312c0-9.66-7.213-17.609-16.141-17.609
			c-8.925,0-16.141,7.704-16.141,17.125c0,9.294,7.215,16.14,16.509,16.14h9.29v15.657H194.16z"/>
		<path d="M258.364,432.217v18.102h-16.14v-90.99h16.14v50.874l20.667-22.868h22.261l-23.479,24.583l24.825,38.401h-20.544
			l-15.654-26.54L258.364,432.217z"/>
		<path d="M365.008,424.146c0,15.775-10.883,27.631-27.761,27.631c-16.882,0-27.642-11.854-27.642-27.631v-52.708h16.144v15.894
			h28.649v15.53h-28.649v21.769c0,5.747,3.547,11.497,11.498,11.497c8.071,0,11.618-5.75,11.618-11.497v-5.747h16.143V424.146
			L365.008,424.146z"/>
		<path d="M403.898,451.777c-17.609,0-28.008-11.616-28.008-28.123v-36.321h16.143v36.813c0,3.543,1.224,11.981,11.865,11.981
			c7.09,0,12.229-5.014,12.229-11.981v-36.813h16.143v36.321C432.27,439.674,421.016,451.777,403.898,451.777z"/>
		<path d="M472.018,451.777c-16.021,0-27.885-8.438-29.843-22.009h16.389c2.206,5.382,8.683,7.339,13.454,7.339
			c6.478,0,11.365-1.957,11.365-5.629c0-3.541-2.196-5.013-13.2-6.726c-11.25-1.711-26.295-4.768-26.295-18.828
			c0-9.91,8.686-20.182,26.903-20.182c14.431,0,25.195,7.827,27.271,19.69H481.31c-0.979-2.935-4.522-5.261-10.52-5.261
			c-7.46,0-10.514,2.689-10.514,5.015c0,3.303,4.646,4.401,12.474,5.627c15.649,2.565,26.904,5.991,26.904,19.688
			C499.655,442.975,488.16,451.777,472.018,451.777z"/>
	</g>
	<g>
		<g>
			<path d="M416.222,302.691v38.911c3.995-5.175,9.408-9.197,15.664-11.47v-27.088c0-16.02-10.08-27.3-27.183-27.3
				c-16.524,0-27.417,11.626-27.529,27.052c6.216,2.179,11.627,6.075,15.661,11.128v-11.231c0-6.887,4.983-11.634,11.868-11.634
				C415.03,291.057,416.222,299.247,416.222,302.691z"/>
			<path d="M365.743,308.009c17.099,0,27.187,11.276,27.187,27.296v44.42h-15.669v-44.771c0-3.443-1.188-11.635-11.518-11.635
				c-6.891,0-11.867,4.749-11.867,11.635v44.771h-15.673v-44.42C338.203,319.756,349.127,308.009,365.743,308.009z"/>
			<path d="M444.062,349.715c10.325,0,11.516,8.189,11.516,11.634v20.27c4.33-1.627,9.402-2.572,15.213-2.572
				c0.152,0,0.302,0.005,0.456,0.009v-17.351c0-16.025-10.091-27.302-27.185-27.302c-16.619,0-27.536,11.75-27.536,27.302v18.02
				h15.669V361.35C432.195,354.459,437.175,349.715,444.062,349.715z"/>
		</g>
		<g>
			<path d="M351.833,473.579h-4.792v-4.792h9.628v12.481h-1.468l-0.692-1.34c-1.809,1.167-3.973,1.812-6.17,1.812
				c-6.224,0-11.362-5.269-11.362-11.745s5.14-11.747,11.362-11.747c3.449,0,6.69,1.598,8.632,4.146l-2.416,3.024
				c-1.211-1.339-3.5-2.332-5.312-2.332c-3.886,0-6.997,3.065-6.997,6.909s3.111,6.911,6.997,6.911c0.818,0,1.728-0.219,2.592-0.523
				L351.833,473.579L351.833,473.579z"/>
			<path d="M387.683,481.27h-6.734l-5.271-5.27c-1.898,0-4.708,0-4.708,0v5.27h-4.791v-22.543c0,0,9.933,0,11.055,0
				c4.75,0,8.638,3.886,8.638,8.638c0,3.235-1.856,6.09-4.534,7.556L387.683,481.27z M381.077,467.363
				c0-2.117-1.731-3.845-3.846-3.845c-0.605,0-6.264,0-6.264,0v7.689c0,0,5.227,0,6.264,0
				C379.346,471.209,381.077,469.479,381.077,467.363z"/>
			<path d="M415.242,469.997c0,6.521-4.796,11.745-10.752,11.745c-5.917,0-10.756-5.226-10.756-11.745
				c0-6.521,4.839-11.747,10.756-11.747C410.446,458.25,415.242,463.477,415.242,469.997z M398.786,469.997
				c0,3.975,2.549,7.255,5.704,7.255c3.191,0,5.744-3.28,5.744-7.255c0-3.972-2.553-7.256-5.744-7.256
				C401.335,462.741,398.786,466.025,398.786,469.997z"/>
			<path d="M428.419,458.727v13.43c0,2.634,2.16,4.795,4.795,4.795c2.634,0,4.792-2.161,4.792-4.795v-13.43h4.837v13.43
				c0,5.269-4.318,9.587-9.629,9.587c-5.269,0-9.59-4.318-9.59-9.587v-13.43H428.419z"/>
			<path d="M472.044,467.363c0,4.749-3.889,8.637-8.637,8.637c-1.211,0-6.264,0-6.264,0v5.27h-4.793v-22.543c0,0,9.934,0,11.057,0
				C468.155,458.727,472.044,462.611,472.044,467.363z M467.249,467.363c0-2.117-1.728-3.845-3.842-3.845c-0.607,0-6.264,0-6.264,0
				v7.689c0,0,5.226,0,6.264,0C465.521,471.209,467.249,469.479,467.249,467.363z"/>
		</g>
	</g>
</g>
</svg>
