<?xml version="1.0" encoding="UTF-8" standalone="no"?>
<!-- Generator: Adobe Illustrator 19.0.0, SVG Export Plug-In . SVG Version: 6.00 Build 0)  -->

<svg
   xmlns:dc="http://purl.org/dc/elements/1.1/"
   xmlns:cc="http://creativecommons.org/ns#"
   xmlns:rdf="http://www.w3.org/1999/02/22-rdf-syntax-ns#"
   xmlns:svg="http://www.w3.org/2000/svg"
   xmlns="http://www.w3.org/2000/svg"
   xmlns:sodipodi="http://sodipodi.sourceforge.net/DTD/sodipodi-0.dtd"
   xmlns:inkscape="http://www.inkscape.org/namespaces/inkscape"
   version="1.1"
   id="Layer_1"
   x="0px"
   y="0px"
   viewBox="0 0 200 200"
   style="enable-background:new 0 0 200 200;"
   xml:space="preserve"
   sodipodi:docname="conference-icon.svg"
   inkscape:version="0.92.2 5c3e80d, 2017-08-06"
   inkscape:export-filename="/Users/ernestd/ernestd/pycon/pycon/static/img/SVG/conference-icon.png"
   inkscape:export-xdpi="96"
   inkscape:export-ydpi="96"><metadata
     id="metadata4759"><rdf:RDF><cc:Work
         rdf:about=""><dc:format>image/svg+xml</dc:format><dc:type
           rdf:resource="http://purl.org/dc/dcmitype/StillImage" /></cc:Work></rdf:RDF></metadata><defs
     id="defs4757" /><sodipodi:namedview
     pagecolor="#ffffff"
     bordercolor="#666666"
     borderopacity="1"
     objecttolerance="10"
     gridtolerance="10"
     guidetolerance="10"
     inkscape:pageopacity="0"
     inkscape:pageshadow="2"
     inkscape:window-width="1226"
     inkscape:window-height="907"
     id="namedview4755"
     showgrid="true"
     inkscape:zoom="2"
     inkscape:cx="18.439296"
     inkscape:cy="102.23393"
     inkscape:window-x="15"
     inkscape:window-y="172"
     inkscape:window-maximized="0"
     inkscape:current-layer="XMLID_502_"><inkscape:grid
       type="xygrid"
       id="grid4763" /></sodipodi:namedview><style
     type="text/css"
     id="style4739">
	.st0{fill:#BA9F6F;}
	.st1{fill:#FFFFFF;}
</style><g
     id="XMLID_502_"
     transform="translate(1,1)"><circle
       style="opacity:1;fill:#77aba7;fill-opacity:1;stroke-width:1.25788641"
       id="path4761"
       cx="99"
       cy="99"
       r="100"
       inkscape:export-xdpi="96"
       inkscape:export-ydpi="96" /><g
       id="XMLID_1_"
       transform="matrix(1.0336013,0,0,0.99320331,-2.5741482,-0.2916079)"><path
         id="XMLID_18_"
         class="st1"
         d="m 69.5,99.3 c 6.8,0 12.3,-5.5 12.3,-12.3 0,-6.8 -5.5,-12.3 -12.3,-12.3 -6.8,0 -12.3,5.5 -12.3,12.3 0,6.8 5.5,12.3 12.3,12.3 z m 0,-21.7 c 5.2,0 9.4,4.2 9.4,9.4 0,5.2 -4.2,9.4 -9.4,9.4 -5.2,0 -9.4,-4.2 -9.4,-9.4 0,-5.2 4.2,-9.4 9.4,-9.4 z"
         inkscape:connector-curvature="0"
         style="fill:#ffffff" /><path
         id="XMLID_21_"
         class="st1"
         d="m 106.8,85.9 c -1.3,-1.3 -3,-1.9 -4.7,-1.9 -1.8,0 -3.4,0.7 -4.7,2 l -16.7,17 c -0.8,0.8 -1.9,1.2 -3,1.2 H 59.2 c -2.4,0 -4.6,0.9 -6.2,2.5 L 31.7,128 c -2.6,2.6 -2.6,6.9 0,9.4 1.3,1.3 2.9,1.9 4.7,1.9 1.9,0 3.5,-0.6 4.7,-1.8 l 10.1,-10.1 c 0.2,-0.2 0.3,-0.1 0.5,-0.1 0.1,0.1 0.3,0.2 0.3,0.4 v 24.4 c 0,2.9 2.3,5.2 5.2,5.2 h 24.6 c 2.9,0 5.2,-2.3 5.2,-5.2 v -35 c 0,-1.1 0.4,-2.2 1.2,-2.9 l 18.6,-18.9 c 2.6,-2.6 2.6,-6.8 0,-9.4 z m -2,7.4 -18.6,18.9 c -1.3,1.3 -2,3.1 -2,5 v 35 c 0,1.3 -1,2.3 -2.3,2.3 H 57.2 c -1.3,0 -2.3,-1 -2.3,-2.3 v -24.4 c 0,-1.4 -0.8,-2.6 -2.1,-3.1 -0.4,-0.2 -0.8,-0.3 -1.3,-0.3 -0.9,0 -1.7,0.3 -2.4,1 L 39,135.5 c -0.7,0.7 -1.5,1 -2.6,1 -1,0 -1.9,-0.4 -2.7,-1.1 -1.5,-1.5 -1.5,-3.9 0,-5.3 L 55,108.8 c 1.1,-1.1 2.6,-1.7 4.2,-1.7 h 18.5 c 1.9,0 3.7,-0.8 5.1,-2.1 L 99.5,88 c 0.7,-0.7 1.7,-1.1 2.7,-1.1 1,0 1.9,0.4 2.7,1.1 1.4,1.5 1.4,3.8 -0.1,5.3 z"
         inkscape:connector-curvature="0"
         style="fill:#ffffff" /><path
         id="XMLID_22_"
         class="st1"
         d="m 98.4,76.3 c 0.8,0 1.5,-0.7 1.5,-1.5 V 63.4 c 0,-4.4 3.6,-8 8,-8 h 53.5 c 0.8,0 1.5,-0.7 1.5,-1.5 0,-0.8 -0.7,-1.5 -1.5,-1.5 h -53.5 c -6,0 -10.9,4.9 -10.9,10.9 v 11.5 c -0.1,0.9 0.6,1.5 1.4,1.5 z"
         inkscape:connector-curvature="0"
         style="fill:#ffffff" /><path
         id="XMLID_23_"
         class="st1"
         d="m 161.3,138.8 h -53.5 c -4.4,0 -8,-3.6 -8,-8 v -16.7 c 0,-0.8 -0.7,-1.5 -1.5,-1.5 -0.8,0 -1.5,0.7 -1.5,1.5 v 16.7 c 0,6 4.9,10.9 10.9,10.9 h 53.5 c 0.8,0 1.5,-0.7 1.5,-1.5 0,-0.8 -0.6,-1.4 -1.4,-1.4 z"
         inkscape:connector-curvature="0"
         style="fill:#ffffff" /><path
         id="XMLID_24_"
         class="st1"
         d="m 159.6,66.6 h -45.5 c -1.4,0 -2.5,1.1 -2.5,2.5 0,1.4 1.1,2.5 2.5,2.5 h 45.5 c 1.4,0 2.5,-1.1 2.5,-2.5 0,-1.4 -1.2,-2.5 -2.5,-2.5 z"
         inkscape:connector-curvature="0"
         style="fill:#ffffff" /><path
         id="XMLID_25_"
         class="st1"
         d="m 114.1,86.4 h 23.7 c 1.4,0 2.5,-1.1 2.5,-2.5 0,-1.4 -1.1,-2.5 -2.5,-2.5 h -23.7 c -1.4,0 -2.5,1.1 -2.5,2.5 0,1.4 1.2,2.5 2.5,2.5 z"
         inkscape:connector-curvature="0"
         style="fill:#ffffff" /><path
         id="XMLID_26_"
         class="st1"
         d="m 162,83.9 c 0,-1.4 -1.1,-2.5 -2.5,-2.5 h -14.8 c -1.4,0 -2.5,1.1 -2.5,2.5 0,1.4 1.1,2.5 2.5,2.5 h 14.8 c 1.4,0 2.5,-1.1 2.5,-2.5 z"
         inkscape:connector-curvature="0"
         style="fill:#ffffff" /><path
         id="XMLID_27_"
         class="st1"
         d="m 114.1,98.2 h 33.6 c 1.4,0 2.5,-1.1 2.5,-2.5 0,-1.4 -1.1,-2.5 -2.5,-2.5 h -33.6 c -1.4,0 -2.5,1.1 -2.5,2.5 0,1.4 1.2,2.5 2.5,2.5 z"
         inkscape:connector-curvature="0"
         style="fill:#ffffff" /><path
         id="XMLID_28_"
         class="st1"
         d="m 157.1,105.7 c 0,-1.4 -1.1,-2.5 -2.5,-2.5 h -40.5 c -1.4,0 -2.5,1.1 -2.5,2.5 0,1.4 1.1,2.5 2.5,2.5 h 40.5 c 1.4,-0.1 2.5,-1.2 2.5,-2.5 z"
         inkscape:connector-curvature="0"
         style="fill:#ffffff" /><path
         id="XMLID_29_"
         class="st1"
         d="m 114.1,120 c -1.4,0 -2.5,1.1 -2.5,2.5 0,1.4 1.1,2.5 2.5,2.5 h 33.6 c 1.4,0 2.5,-1.1 2.5,-2.5 0,-1.4 -1.1,-2.5 -2.5,-2.5 z"
         inkscape:connector-curvature="0"
         style="fill:#ffffff" /></g></g></svg>