<?xml version="1.0" encoding="utf-8"?>
<!-- Generator: Adobe Illustrator 19.0.0, SVG Export Plug-In . SVG Version: 6.00 Build 0)  -->
<svg version="1.1" id="Layer_1" xmlns="http://www.w3.org/2000/svg" xmlns:xlink="http://www.w3.org/1999/xlink" x="0px" y="0px"
	 viewBox="0 0 200 200" style="enable-background:new 0 0 200 200;" xml:space="preserve">
<style type="text/css">
	.st0{fill:#BA9F6F;}
	.st1{fill:#FFFFFF;}
</style>
<g id="XMLID_502_">
	<path id="XMLID_583_" class="st0" d="M199.1,99.9c0,13.4-0.7,26.6-5.5,38.2c-5,12.1-12.5,23.4-21.6,32.5
		c-9.1,9.1-20.4,16.7-32.5,21.7c-11.7,4.8-24.9,7.7-38.3,7.7c-13.4,0-25.6-5.3-37.2-10.1c-12.1-5-23.2-11.2-32.3-20.3
		c-9.1-9.1-17.4-19.4-22.4-31.5c-4.8-11.7-8.4-24.7-8.4-38.1c0-13.4,5.1-25.8,9.9-37.5c5-12.1,12.3-22.5,21.4-31.6
		c9.1-9.1,19.7-15.8,31.8-20.8C75.7,5.3,87.9,0,101.3,0c13.4,0,26.4,3.3,38,8.1c12.1,5,23.6,12,32.7,21.1
		c9.1,9.1,14.6,21.2,19.6,33.3C196.5,74.2,199.1,86.5,199.1,99.9z"/>
	<g id="XMLID_1_">
		<path id="XMLID_18_" class="st1" d="M69.5,99.3c6.8,0,12.3-5.5,12.3-12.3s-5.5-12.3-12.3-12.3S57.2,80.2,57.2,87
			S62.7,99.3,69.5,99.3z M69.5,77.6c5.2,0,9.4,4.2,9.4,9.4c0,5.2-4.2,9.4-9.4,9.4c-5.2,0-9.4-4.2-9.4-9.4
			C60.1,81.8,64.3,77.6,69.5,77.6z"/>
		<path id="XMLID_21_" class="st1" d="M106.8,85.9c-1.3-1.3-3-1.9-4.7-1.9c-1.8,0-3.4,0.7-4.7,2l-16.7,17c-0.8,0.8-1.9,1.2-3,1.2
			H59.2c-2.4,0-4.6,0.9-6.2,2.5L31.7,128c-2.6,2.6-2.6,6.9,0,9.4c1.3,1.3,2.9,1.9,4.7,1.9c1.9,0,3.5-0.6,4.7-1.8l10.1-10.1
			c0.2-0.2,0.3-0.1,0.5-0.1c0.1,0.1,0.3,0.2,0.3,0.4v24.4c0,2.9,2.3,5.2,5.2,5.2h24.6c2.9,0,5.2-2.3,5.2-5.2v-35
			c0-1.1,0.4-2.2,1.2-2.9l18.6-18.9C109.4,92.7,109.4,88.5,106.8,85.9z M104.8,93.3l-18.6,18.9c-1.3,1.3-2,3.1-2,5v35
			c0,1.3-1,2.3-2.3,2.3H57.2c-1.3,0-2.3-1-2.3-2.3v-24.4c0-1.4-0.8-2.6-2.1-3.1c-0.4-0.2-0.8-0.3-1.3-0.3c-0.9,0-1.7,0.3-2.4,1
			l-10.1,10.1c-0.7,0.7-1.5,1-2.6,1c-1,0-1.9-0.4-2.7-1.1c-1.5-1.5-1.5-3.9,0-5.3L55,108.8c1.1-1.1,2.6-1.7,4.2-1.7h18.5
			c1.9,0,3.7-0.8,5.1-2.1l16.7-17c0.7-0.7,1.7-1.1,2.7-1.1c1,0,1.9,0.4,2.7,1.1C106.3,89.5,106.3,91.8,104.8,93.3z"/>
		<path id="XMLID_22_" class="st1" d="M98.4,76.3c0.8,0,1.5-0.7,1.5-1.5V63.4c0-4.4,3.6-8,8-8h53.5c0.8,0,1.5-0.7,1.5-1.5
			s-0.7-1.5-1.5-1.5h-53.5c-6,0-10.9,4.9-10.9,10.9v11.5C96.9,75.7,97.6,76.3,98.4,76.3z"/>
		<path id="XMLID_23_" class="st1" d="M161.3,138.8h-53.5c-4.4,0-8-3.6-8-8v-16.7c0-0.8-0.7-1.5-1.5-1.5c-0.8,0-1.5,0.7-1.5,1.5
			v16.7c0,6,4.9,10.9,10.9,10.9h53.5c0.8,0,1.5-0.7,1.5-1.5C162.7,139.4,162.1,138.8,161.3,138.8z"/>
		<path id="XMLID_24_" class="st1" d="M159.6,66.6h-45.5c-1.4,0-2.5,1.1-2.5,2.5s1.1,2.5,2.5,2.5h45.5c1.4,0,2.5-1.1,2.5-2.5
			S160.9,66.6,159.6,66.6z"/>
		<path id="XMLID_25_" class="st1" d="M114.1,86.4h23.7c1.4,0,2.5-1.1,2.5-2.5s-1.1-2.5-2.5-2.5h-23.7c-1.4,0-2.5,1.1-2.5,2.5
			S112.8,86.4,114.1,86.4z"/>
		<path id="XMLID_26_" class="st1" d="M162,83.9c0-1.4-1.1-2.5-2.5-2.5h-14.8c-1.4,0-2.5,1.1-2.5,2.5s1.1,2.5,2.5,2.5h14.8
			C160.9,86.4,162,85.3,162,83.9z"/>
		<path id="XMLID_27_" class="st1" d="M114.1,98.2h33.6c1.4,0,2.5-1.1,2.5-2.5s-1.1-2.5-2.5-2.5h-33.6c-1.4,0-2.5,1.1-2.5,2.5
			S112.8,98.2,114.1,98.2z"/>
		<path id="XMLID_28_" class="st1" d="M157.1,105.7c0-1.4-1.1-2.5-2.5-2.5h-40.5c-1.4,0-2.5,1.1-2.5,2.5s1.1,2.5,2.5,2.5h40.5
			C156,108.1,157.1,107,157.1,105.7z"/>
		<path id="XMLID_29_" class="st1" d="M114.1,120c-1.4,0-2.5,1.1-2.5,2.5s1.1,2.5,2.5,2.5h33.6c1.4,0,2.5-1.1,2.5-2.5
			s-1.1-2.5-2.5-2.5H114.1z"/>
	</g>
</g>
</svg>
