<?xml version="1.0" encoding="utf-8"?>
<!-- Generator: Adobe Illustrator 19.0.0, SVG Export Plug-In . SVG Version: 6.00 Build 0)  -->
<svg version="1.1" id="Layer_1" xmlns="http://www.w3.org/2000/svg" xmlns:xlink="http://www.w3.org/1999/xlink" x="0px" y="0px"
	 viewBox="0 0 1400 180" style="enable-background:new 0 0 1400 180;" xml:space="preserve">
<style type="text/css">
	.st0{fill:#A5DCE5;}
	.st1{fill:#90CAD3;}
	.st2{fill:#5FBACB;}
	.st3{fill:#4EA8B3;}
	.st4{fill:#358696;}
	.st5{fill:#315A5A;}
</style>
<g id="XMLID_60_">
	<rect id="XMLID_855_" x="-0.3" y="-0.1" class="st0" width="1400" height="150"/>
	<g id="XMLID_852_">
		
			<image style="overflow:visible;opacity:5.000000e-02;" width="5959" height="683" id="XMLID_47_" xlink:href="987191CC1D0202A5.png"  transform="matrix(0.24 0 0 0.24 -15.2918 14.4398)">
		</image>
		<g id="XMLID_27_">
			<path id="XMLID_33_" class="st1" d="M1399.7,64.1c-0.6,0.1-1.1,0.6-1.7,0.7s-1.4-0.7-2-0.6c-0.6,0.1-1.2,0.4-1.8,0.5
				c-0.6,0.1-1.2,0.3-1.8,0.4c-0.6,0.1-1.2,0.5-1.8,0.6c-0.6,0.1-1.3,0.1-1.9,0.2c-0.6,0.1-1.2,0.4-1.8,0.5
				c-0.8,0.1-1.5,0.6-2.3,0.7c-0.8,0.1-1.6,0.3-2.4,0.3c-0.7,0-1.4-0.8-2.1-0.8c-0.7,0-1.4,0-2-0.1c-0.7-0.1-1.3-0.3-2-0.4
				c-0.7-0.2-1.5,0.2-2.2,0c-0.7-0.2-1.1-1-1.7-1.3c-0.6-0.2-1.4,0.3-2,0.1c-0.6-0.2-0.9-1.1-1.5-1.2c-0.6-0.1-1.3-0.1-1.9,0
				c-0.7,0.2-1.4,0.7-2,1.1c-0.6,0.4-1.2,1-1.8,1.4c-0.6,0.4-1.1,0.8-1.7,1.1c-0.6,0.3-1.4,0.2-2,0.3c-0.7,0.1-1.3,0.4-2,0.4
				c-0.7,0-1.3-0.3-2-0.4c-0.7,0-1.4,0.2-2,0.1c-0.7-0.1-1.2-0.8-1.9-0.9c-0.7-0.1-1.4,0.2-2.1,0.1c-0.6-0.2-1.2-0.9-1.8-1.1
				c-0.7-0.2-1.3-0.3-2-0.4c-0.7-0.2-1.5,0.4-2.1,0.3c-0.7-0.1-1.3-0.4-1.9-0.5c-0.7-0.1-1.3-0.5-2-0.5c-0.7,0-1.3,0.3-2,0.4
				c-0.7,0-1.3,0.3-2,0.4c-0.7,0.1-1.4-0.1-2.1,0c-0.7,0.1-1.3,0.2-2,0.4c-0.7,0.1-1.4,0-2.1,0.2c-0.7,0.2-1.3,0.6-1.9,0.7
				c-0.7,0.2-1.4-0.1-2.1,0c-0.7,0.1-1.2,1-1.9,1.1c-0.7,0.1-1.4,0-2.1,0.1c-0.7,0.1-1.4,0-2.1-0.1c-0.7,0-1.4,0.3-2.1,0.2
				c-0.7-0.1-1.2-1-1.8-1.2c-0.6-0.2-1.6,0.3-2.2,0c-0.6-0.3-1.1-0.8-1.7-1.1c-0.6-0.3-1.1-0.8-1.7-1c-0.6-0.2-1.3-0.2-1.9-0.2
				c-0.6,0-1.2-0.1-1.8,0.1c-0.6,0.2-1.2,0.2-1.8,0.5c-0.6,0.3-1.2,0.4-1.7,0.7c-0.6,0.3-1.2,0.4-1.8,0.5c-0.7,0.2-1.3,0.2-2,0.1
				c-0.7,0-1.5,0.6-2.2,0.4c-0.7-0.2-1.2-1-1.9-1.2c-0.7-0.2-1.3-0.7-2-0.9c-0.7-0.2-1.4-0.1-2.1-0.2c-0.7-0.2-1.4,0-2.1-0.1
				c-0.7-0.1-1.3-0.2-2-0.3c-0.7-0.1-1.3-0.8-1.9-0.9c-0.7-0.1-1.4,0.1-2.1,0c-0.7-0.1-1.3-0.6-2-0.6c-0.7-0.1-1.3-0.1-2-0.1
				c-0.7-0.1-1.2-0.6-1.9-0.7c-0.7-0.1-1.4,0.5-2,0.4c-0.7-0.1-1.3-0.6-1.9-0.7s-1.4,0.4-2,0.3c-0.7-0.1-1.3-0.2-2-0.3
				c-0.7-0.1-1.3-0.1-2-0.2s-1.3-0.5-1.9-0.6s-1.3-0.2-1.9-0.3c-0.7-0.1-1.3-0.1-2-0.2s-1.3,0.2-2,0.1c-0.7-0.1-1.3-0.2-2-0.2
				c-0.7-0.1-1.3-0.3-1.9-0.4c-0.7-0.1-1.3-0.3-1.9-0.4c-0.7-0.1-1.3-0.3-1.9-0.4c-0.7-0.1-1.4,0.2-2,0.2c-0.7-0.1-1.2-0.7-1.9-0.8
				c-0.7-0.1-1.3-0.1-2-0.2c-0.7-0.1-1.3-0.3-1.9-0.3c-0.7-0.1-1.4,0.2-2,0.2c-0.7-0.1-1.2-0.7-1.9-0.7c-0.7-0.1-1.4,0.2-2,0.1
				c-0.7-0.1-1.4,0.3-2,0.2c-0.7-0.1-1.3-0.4-1.9-0.5c-0.7-0.1-1.3,0.1-2,0.1c-0.7-0.1-1.3-0.4-1.9-0.4c-0.7-0.1-1.3-0.5-1.9-0.6
				c-0.7-0.1-1.3-0.1-2-0.2c-0.7-0.1-1.3,0-2,0c-0.7-0.1-1.3-0.5-2-0.6c-0.7-0.1-1.4,0-2.1,0c-0.7-0.1-1.4-0.5-2.1-0.5
				c-0.7,0-1.4,0.6-2.1,0.6c-0.7,0-1.4-0.4-2.1-0.4c-0.7,0.1-1.4,0.4-2,0.5c-0.7,0.1-1.4,0.1-2.1,0.3c-0.6,0.2-1.2,0.4-1.9,0.6
				c-0.6,0.2-1.2,0.5-1.8,0.7c-0.6,0.2-1.1,0.8-1.7,1c-0.6,0.2-1.4-0.1-2,0c-0.6,0.1-1.2,0.6-1.9,0.6c-0.6,0-1.3-0.3-2-0.4
				c-0.6-0.1-1.3-0.2-1.9-0.3c-0.6-0.1-1.2-0.4-1.9-0.6c-0.6-0.1-1.3,0.1-2-0.1c-0.6-0.1-1.3-0.2-1.9-0.3c-0.7-0.1-1.3,0-2,0
				c-0.7-0.1-1.3,0.1-1.9,0.1c-0.7,0-1.3-0.2-1.9,0c-0.6,0.1-1.4,0.4-1.9,0.7c-0.5-0.6-1-1.3-1.6-1.7c-0.7-0.4-1.4-0.2-2.1-0.3
				c-0.7-0.1-1.5-0.8-2.2-0.7c-0.7,0.1-1.5,0.3-2.2,0.5c-0.7,0.2-1.2,0.9-1.9,1.2c-0.7,0.2-1.4,0.4-2.1,0.5
				c-0.7,0.2-1.5,0.6-2.2,0.6c-0.7,0-1.3-0.8-2-1c-0.6-0.2-1.4,0-2-0.4c-0.5-0.4-1-0.8-1.6-1.3c-0.5-0.4-0.9-1.1-1.4-1.4
				c-0.6-0.4-1-1-1.6-1.3c-0.6-0.3-1.4-0.3-2.1-0.3c-0.7,0-1.4-0.1-2,0.2c-0.6,0.2-0.9,1.2-1.5,1.5c-0.6,0.3-1.2,0.6-1.8,0.9
				c-0.6,0.3-1.3,0.4-2,0.6c-0.7,0.2-1.4-0.2-2.1-0.1c-0.7,0.1-1.3,0.3-2,0.3c-0.7,0-1.4,0.2-2,0.1c-0.7-0.1-1.4-0.1-2-0.2
				c-0.7-0.1-1.2-0.9-1.8-1c-0.6-0.2-1.4,0.1-2-0.1c-0.6-0.2-1-0.3-1.6-0.5c0.2,0.6-0.2,0.9-0.5,1.4c-0.3,0.5-0.9,0.8-1.3,1
				c-0.6,0.3-1.2,1-1.8,1.1c-0.7,0.1-1.4-0.4-2.1-0.5c-0.7,0-1.2-0.4-1.9-0.6c-0.6-0.2-1.3-0.3-1.9-0.5c-0.6-0.2-1.2-0.5-1.9-0.7
				c-0.6-0.3-1.3-0.3-1.9-0.6c-0.6-0.3-1.5,0-2.1-0.3c-0.6-0.3-1-1-1.7-1.3c-0.6-0.3-1.4-0.1-2-0.3c-0.7-0.2-1.2-0.6-1.9-0.8
				c-0.7-0.1-1.3-0.4-2-0.4c-0.7,0-1.4,0.1-2,0.3c-0.6,0.2-1.5,0.1-2.1,0.5c-0.7,0.4-0.8,1.7-1.4,2.2c-0.6,0.5-1.5,0.8-2.2,1.1
				c-0.6,0.3-1.4,0.3-2,0.4c-0.7,0.1-1.3,0.3-2,0.3c-0.7,0-1.4,0-2,0c-0.6,0-1.3-0.2-1.9-0.2c-0.6,0-1.2,0.5-1.8,0.6
				c-0.6,0.1-1.3,0-1.9,0.1c-0.6,0.1-1.3,0.1-1.9,0.2c-0.6,0.2-1.1,0.6-1.7,0.9c-0.6,0.2-1.3,0.1-1.9,0.3c-0.6,0.3-1,0.8-1.6,1.1
				c-0.9,0.5-1.8,1.2-2.7,0.9c-0.5-0.1-1.1-0.5-1.5-0.9c-0.4-0.4-0.9-0.6-1.3-1c-0.5-0.4-0.6-1.5-1.1-1.7c-0.6-0.2-1.4,0.3-2,0.2
				c-0.6-0.1-1.2-0.9-1.8-0.9c-0.6,0-1.3,0.4-1.9,0.3c-0.6-0.1-1.2-0.2-1.8-0.4c-0.6-0.2-1-0.6-1.5-1c-0.6-0.4-1.3-0.7-1.9-1.2
				c-0.6-0.5-1.1-1.3-1.8-1.5c-0.7-0.3-1.5,0.1-2.2,0.2c-0.7,0.1-1.4,0.4-2,0.6c-0.7,0.2-1.4,0-2.1,0.1c-0.7,0.1-1.4,0-2.1,0
				c-0.7-0.1-1.5,0.8-2.3,0.7c-0.7-0.1-1.4-0.4-2.2-0.4c-0.7,0.1-1.5,0.1-2.1,0.5c-0.6,0.4-1.1,1.1-1.6,1.6
				c-0.5,0.5-0.9,1.4-1.5,1.8c-0.6,0.4-1.5,0.1-2.1,0.3c-0.6,0.2-1.2,0.5-1.9,0.5c-0.7,0-1.3,0-2-0.2c-0.6-0.1-1.3-0.2-2-0.4
				c-0.6-0.2-1.3-0.4-1.9-0.6c-0.6-0.2-1.3-0.4-1.9-0.6c-0.6-0.2-1.3-0.3-1.9-0.4c-0.7-0.1-1.3-0.6-1.9-0.6c-0.6,0-1.3-0.2-1.9-0.1
				c-0.6,0.1-1.1,1-1.7,1.1c-0.6,0.2-1.3-0.2-1.9,0c-0.6,0.2-1.1,0.5-1.7,0.7c-0.6,0.2-1.2,0.1-1.8,0.2c-0.6,0.1-1.1,0.7-1.8,0.7
				c-0.6,0.1-1.3,0.3-1.9,0.3c-0.7-0.1-1.3-0.8-2-0.9c-0.7-0.1-1.4,0.3-2.1,0.4c-0.7,0.1-1.6,0-2.2,0.6c-0.5,0.6-1,1.2-1,2.1
				c-0.7,0-1-0.5-1.6-0.9c-0.7-0.4-1.5-0.6-2.2-0.6c-0.6-0.4-1.1-1-1.7-1.1c-0.6,0-1.4,0.1-2,0.3c-0.6,0.2-1.2,0.5-1.8,0.8
				c-0.5,0.3-1,0.8-1.5,1.1c-0.5,0.3-0.9,1.1-1.4,1.3c-0.6,0.3-1.2,0.7-1.8,0.8c-0.6,0.2-1.4-0.1-2-0.2c-0.6-0.1-1-0.9-1.6-1.2
				c-0.6-0.3-1.2-0.6-1.7-0.9c-0.6-0.3-1.5,0.2-2.2,0.1c-0.7-0.2-1.2-0.6-1.9-0.7c-0.7-0.1-1.4-0.4-2-0.3c-0.7,0-1.3,0.3-2,0.4
				c-0.7,0.1-1.3,0.4-2,0.5c-0.7,0.1-1.3,0.1-2,0.2c-0.7,0.1-1.4-0.3-2-0.3c-0.7,0-1.3,0.2-2,0.2c-0.7-0.1-1.3-0.2-2-0.4
				c-0.7-0.2-1.6-0.1-2.3-0.4c-0.7-0.3-1.3-0.9-2-1.3c-0.7-0.3-1.4-0.8-2.1-1c-0.7-0.2-1.5,0.3-2.2,0.2c-0.7-0.1-1.3-0.5-2-0.5
				c-0.7-0.1-1.3,0.1-2,0.1c-0.7,0-1.3,0.1-2,0.1c-0.7,0-1.4-0.7-2.1-0.6c-0.7,0.1-1.3,0.7-2,0.7c-0.7,0.1-1.4,0.1-2,0.1
				c-0.7,0.1-1.4,0-2,0.1c-0.7,0.1-1.4-0.1-2-0.1c-0.7,0-1.4,0.1-2,0.1c-0.7,0-1.3-0.3-2-0.4c-0.7-0.1-1.4,0-2-0.1
				c-0.6-0.2-1.3-0.3-1.9-0.5c-0.6-0.2-1.1-0.8-1.7-1c-0.6-0.3-1.6,0.3-2.2,0c-0.6-0.3-0.8-1.3-1.4-1.6c-0.6-0.3-1.2-0.6-1.8-0.9
				c-0.6-0.3-1.4-0.2-2-0.6c-0.6-0.3-1.1-0.7-1.7-1c-0.6-0.3-1-0.9-1.6-1.2c-0.6-0.3-1.1-0.8-1.7-1.1c-0.6-0.3-1.3-0.3-1.9-0.5
				c-0.6-0.2-1.4-0.1-2-0.2c-0.7-0.1-1.3-0.3-1.9-0.3c-0.7,0-1.4-0.6-2-0.6c-0.6,0.1-1.2,1-1.8,1.2c-0.6,0.2-1.1,0.5-1.7,0.8
				c-0.6,0.3-1.4,0-1.9,0.3c-0.6,0.3-1,0.9-1.5,1.2c-0.6,0.3-1.2,0.5-1.8,0.7c-0.6,0.2-1.2,0.6-1.8,0.7c-0.7,0.1-1.5-0.1-2.2-0.1
				c-0.7,0-1.4-0.4-2.1-0.5c-0.7-0.1-1.5,0.4-2.2,0.3c-0.7-0.1-1.3-1-2-1.1c-0.6-0.1-1.3,0.5-2,0.5c-0.6,0-1.3-0.1-1.9-0.1
				c-0.6,0-1.3,0.2-1.9,0.2c-0.6,0-1.3-0.4-2-0.4c-0.6,0.1-1.3,0.1-1.9,0.2s-1.2,0.8-1.9,0.9c-0.6,0.1-1.3-0.6-2-0.5
				c-0.6,0-1.3,0.1-1.9,0.1c-0.6,0-1.3,0.6-1.9,0.6c-0.6,0-1.3-0.5-1.9-0.6c-0.6-0.1-1.3,0-1.9-0.1c-0.7-0.1-1.4-0.5-2.1-0.7
				c-0.7-0.2-1.5,0.1-2.2,0c-0.7-0.1-1.4-1.1-2.1-1c-0.7,0-1.4,0.2-2.1,0.4c-0.6,0.2-1.1,1-1.7,1.3c-0.6,0.2-1.3,0.5-1.9,0.8
				c-0.6,0.2-1.3,0.6-1.9,0.8c-0.7,0.2-1.5,0.2-2.2,0.2c-0.7,0-1.4-0.5-2-0.8c-0.6-0.3-1.3-0.5-1.8-1.1c-0.5-0.5-0.8-1.1-1.1-1.8
				c-0.7,0-1.4-0.1-2.1-0.1c-0.7,0-1.3,0.3-2,0.3c-0.7,0-1.3,0.4-2,0.4c-0.7,0-1.4-0.7-2-0.7c-0.7,0-1.3-0.1-2,0
				c-0.7,0-1.3,0.6-2,0.6c-0.7,0-1.4-0.5-2-0.4c-0.7,0-1.3,0.7-2,0.7c-0.7,0-1.4-0.4-2-0.3c-0.7,0-1.3-0.2-2-0.2
				c-0.7,0-1.3,0.8-2,0.8c-0.7,0-1.3,0-2,0.1c-0.7,0-1.3,0-2,0c-0.7,0-1.4-0.6-2-0.6c-0.7,0-1.3,0.2-2,0.2c-0.6,0-1.3,0-2,0
				s-1.3,0.7-1.9,0.7c-0.7,0-1.3-0.4-2-0.4c-0.7,0-1.3,0.2-2,0.2c-0.7,0-1.3-0.5-1.9-0.6c-0.7,0-1.3,0.2-2,0.2
				c-0.6,0-1.3-0.4-1.9-0.4c-0.6-0.1-1.3-0.3-1.9-0.4c-0.6-0.1-1.4,0.5-2,0.4c-0.6-0.1-1.2-0.5-1.8-0.7c-0.6-0.1-1.3-0.1-1.9-0.2
				c-0.6-0.1-1.2-0.2-1.9-0.3c-0.6-0.1-1.2-0.4-1.8-0.5c-0.6-0.1-1.3,0.3-1.9,0.3c-0.6,0-1.3-0.7-2-0.6c-0.6,0.1-1.1,0.8-1.7,1
				c-0.7,0.2-1.5,0.1-2.2,0.4c-0.6,0.3-1.2,0.8-1.8,1.2c-0.6,0.4-1.1,0.9-1.7,1.3c-0.6,0.4-1.2,0.7-1.8,1.1
				c-0.6,0.3-1.1,1.2-1.7,1.4c-0.6,0.2-1.3,0.4-2,0.5c-0.6,0.1-1.4-0.2-2.1-0.2c-0.7,0.1-1.3,0.3-2,0.3c-0.7,0-1.3-0.5-2-0.5
				c-0.7,0-1.3-0.1-2-0.1c-0.7,0-1.3,0.3-2,0.3c-0.7,0-1.3-0.1-2-0.1c-0.7,0-1.3,0-2,0c-0.7,0-1.3,0.4-2,0.4c-0.7,0-1.3-0.1-2-0.1
				c-0.7,0-1.3-0.5-2-0.5c-0.7,0-1.3,0.6-2,0.6c-0.7,0-1.3-0.7-2-0.7c-0.7,0-1.3,0.1-2,0.1c-0.7,0-1.3,0-2,0c-0.7,0-1.3,0.2-2,0.3
				c-0.7,0-1.4-0.5-2-0.4c-0.7,0.1-1.2,1-1.9,1.1c-0.7,0.1-1.4-0.2-2-0.1c-0.7,0.1-1.3,0.3-1.9,0.5c-0.6,0.1-1.3,0.2-1.9,0.4
				c-0.6,0.1-1.3-0.1-2,0.1c-0.6,0.1-1.3,0-2,0.1c-0.6,0.1-1.2,0.6-1.8,0.7c-0.6,0.1-1.2,0.4-1.9,0.5c-0.6,0.1-1.2,0.5-1.9,0.7
				c-0.6,0.1-1.3,0.2-1.9,0.3c-0.6,0.1-1.4-0.4-2.1-0.3c-0.7,0.1-1.3,0.8-2,0.8c-0.7,0-1.5,0-2.2-0.3c-0.9-0.4-1.6-1.3-2.4-1.8
				c-0.6-0.4-1.3-0.5-2-0.7c-0.7-0.1-1.4-0.5-2.2-0.5c-0.7,0-1.5,0-2.2,0.1c-0.6,0.1-1.2,0.9-1.9,0.9c-0.6,0.1-1.3-0.3-2-0.3
				c-0.7,0.1-1.3,0.1-1.9,0.2c-0.7,0-1.3,0.7-1.9,0.7c-0.7,0-1.3-0.4-2-0.4c-0.7,0-1.3,0.4-2,0.4c-0.7,0-1.3-0.7-2-0.7
				c-0.7,0-1.3,0.2-2,0.1c-0.7,0-1.3,0.3-2,0.3s-1.3-0.1-2-0.1c-0.7,0-1.3-0.2-1.9-0.3c-0.7,0-1.3-0.4-1.9-0.4c-0.7-0.1-1.3,0.1-2,0
				c-0.6-0.1-1.3,0.3-2,0.2c-0.6-0.1-1.3-0.1-2-0.2c-0.6-0.1-1.3-0.1-2-0.2c-0.6-0.1-1.2-0.9-1.8-1c-0.6-0.1-1.4,0.4-2,0.2
				c-0.6-0.1-1.1-1.1-1.7-1.2c-0.6-0.1-1.4,0.2-2,0.1c-0.7-0.2-1.3-0.5-2-0.7c-0.7-0.2-1.4,0-2.1-0.1c-0.7-0.2-1.2-0.8-1.9-0.9
				c-0.7-0.1-1.4,0.1-2.1,0c-0.7-0.1-1.4-0.3-2-0.3c-0.7,0-1.4-0.2-2.1-0.1c-0.7,0.1-1.2,0.8-1.9,1c-0.7,0.2-1.6-0.5-2.3-0.1
				c-0.6,0.3-1.1,1.1-1.7,1.5c-0.6,0.4-0.9,1.3-1.6,1.6c-0.6,0.3-1.6-0.2-2.3,0c-0.6,0.2-1.2,0.4-1.8,0.4c-0.6,0-1.2-0.2-1.9-0.3
				c-0.6-0.1-1.3,0.1-1.9,0.1c-0.7,0-1.3,0.1-2,0.2c-0.7,0.1-1.4,0-2,0.2c-0.6,0.2-1.4,0.1-2,0.3c-0.6,0.2-1.2,0.7-1.8,0.9
				c-0.6,0.2-1.1,0.9-1.8,1.1c-0.6,0.2-1.3,0.5-1.9,0.7c-0.6,0.2-1.4-0.3-2.1-0.2c-0.6,0.1-1.3-0.1-2,0c-0.7,0.1-1.3,0.1-1.9,0.2
				c-0.7,0-1.3,0-1.9,0c-0.7,0-1.3,0.7-2,0.7c-0.7,0-1.3-0.8-1.9-0.8c-0.7-0.1-1.4,0.4-2,0.3c-0.6-0.1-1.2-0.8-1.9-0.9
				c-0.6-0.1-1.4,0.7-2.1,0.6c-0.6-0.1-1.1-1.1-1.8-1.2c-0.6-0.1-1.4,0.2-2,0c-0.6-0.1-1.2-0.5-1.8-0.6c-0.6-0.1-1.2-0.2-1.8-0.4
				c-0.6-0.1-1.3,0.3-1.9,0.1c-0.7-0.1-1.3-0.4-2-0.4c-0.7,0-1.4,0.3-2.1,0.3c-0.7,0-1.4-0.4-2.1-0.3c-0.7,0.1-1.4,0.1-2.1,0.1
				c-0.7,0-1.4,0.3-2.1,0.3c-0.7,0-1.4,0-2.1-0.1c-0.7-0.1-1.4,0-2.1-0.2c-0.6-0.2-1.1-1-1.7-1.3c-0.6-0.3-1.6,0-2.2-0.3
				c-0.6-0.3-1.2-0.6-1.9-0.9c-0.6-0.3-0.8-1.4-1.5-1.7c-0.6-0.3-1.5,0-2.2-0.3c-0.6-0.3-1.3-0.4-2-0.7c-0.6-0.3-1-1.1-1.7-1.3
				c-0.6-0.3-1.2-0.7-1.9-1c-0.7-0.2-1.3-0.6-1.9-0.8c-0.7-0.2-1.5,0.1-2.2-0.1c-0.7-0.2-1.2-0.9-1.9-1.1c-0.7-0.2-1.5,0.3-2.2,0.2
				c-0.7-0.1-1.3-0.4-2-0.4c-0.6-0.1-1.3,0.2-2,0.2c-0.6,0-1.3-0.4-1.9-0.4c-0.6,0-1.3-0.5-1.9-0.5c-0.6,0-1.3,0.3-1.9,0.3
				c-0.6,0-1.3,0-1.9,0c-0.6,0-1.3,0-1.9,0c-0.6,0-1.3-0.4-1.9-0.4c-0.6-0.1-1.4,0.4-2,0.3c-0.7-0.1-1.3-0.6-2-0.7
				c-0.7-0.2-1.4,0-2.1-0.2c-0.7-0.2-1.3-0.5-2-0.6c-0.7-0.1-1.3-0.4-2-0.5c-0.7-0.1-1.4,0-2.1,0c-0.7,0-1.3,0.6-2,0.7
				c-0.6,0.1-1.3-0.2-1.9,0c-0.6,0.2-1.1,0.5-1.7,0.7c-0.6,0.3-1.2,0.3-1.8,0.5c-0.6,0.3-0.9,1.1-1.4,1.3c-0.6,0.2-1.3-0.3-1.9-0.2
				c-0.7,0.1-1.3,0.4-2,0.4c-0.7,0-1.3-0.4-2-0.6c-0.7-0.1-1.4,0.2-2.1-0.1c-0.6-0.2-1.3-0.4-2-0.7c-0.6-0.2-1.3-0.4-2-0.6
				c-0.6-0.2-1.1-1-1.7-1.3c-0.7-0.2-1.4,0-2.1-0.2c-0.6-0.1-1.2-0.7-1.8-0.8c-0.6-0.1-1.3,0.2-2,0.2c-0.6,0-1.3,0.4-1.9,0.5
				c-0.6,0.1-1.3,0.2-1.9,0.3c-0.6,0.1-1.3,0-1.9,0.1c-0.6,0.1-1.3,0.2-1.9,0.3c-0.6,0.1-1.2,0.6-1.8,0.8c-0.6,0.2-1.2,0.3-1.9,0.5
				c-0.6,0.2-1.4-0.5-2.1-0.4c-0.6,0.1-1.2,0.6-1.8,0.7c-0.6,0.1-1.2,0.6-1.9,0.7c-0.6,0.1-1.3,0.2-1.9,0.2c-0.6,0-1.3-0.5-1.9-0.5
				c-0.6,0-1.4,0.6-2,0.5c-0.7-0.1-1.3-0.3-2-0.5c-0.6-0.2-1.3-0.4-1.9-0.6c-0.6-0.2-1.2-0.7-1.8-0.9c-0.6-0.2-1.2-0.6-1.8-0.9
				c-0.6-0.2-1.4,0-2-0.2c-0.6-0.2-1.1-0.9-1.8-1.1c-0.7-0.2-1.4,0.4-2.1,0.3c-0.7-0.1-1.3-0.6-1.9-0.6c-0.7,0-1.3,0.6-1.9,0.7
				c-0.6,0.1-1.2,0.3-1.8,0.5c-0.7,0.3-1.3,0.7-2,1.1c-0.7,0.3-1.7,0-2.4,0.1c-0.7,0.1-1.4,0.8-2,0.6c-0.6-0.2-1-1.1-1.6-1.4
				c-0.6-0.3-1.2-0.5-1.8-0.8c-0.6-0.3-1.4-0.2-2-0.5c-0.6-0.2-1.2-1-1.9-1c-0.7,0-1.7,0.2-2.3,0.5c-0.2,0.6,0.3,1.7,0.1,2.3
				c-0.2,0.6-1,0.8-1.2,1.4c-0.6-0.4-0.9-0.6-1.5-1c-0.6-0.3-1.3-0.4-1.9-0.7c-0.6-0.3-1.4-0.2-2-0.4c-0.6-0.2-1.1-0.8-1.8-1
				c-0.6-0.2-1.4-0.1-2-0.3c-0.7-0.2-1.3-0.5-1.9-0.6c-0.7-0.1-1.4,0-2,0c-0.7-0.1-1.3-0.5-2-0.6c-0.7,0-1.3,0.6-2,0.7
				c-0.7,0-1.4-0.5-2.1-0.4c-0.7,0.1-1.3,0.2-2,0.3c-0.7,0.1-1.2,0.6-1.9,0.8c-0.6,0.2-1.3,0.2-1.9,0.5c-0.1,0.7-0.6,1-1,1.4
				c-0.4,0.4-0.8,0.6-1.4,0.9c-0.6,0.2-1.1,0.5-1.6,0.6c-0.6,0.1-1.3,0-2,0c-0.6,0.1-1.3,0.3-1.9,0.3c-0.6,0.1-1.3,0.4-1.9,0.4
				c-0.6,0.1-1.3-0.4-2-0.3c-0.7,0-1.3,0.9-1.9,0.9c-0.7,0-1.3-0.8-2-0.7c-0.7,0-1.3,0.4-1.9,0.4c-0.7,0-1.3-0.3-2-0.3
				c-0.7,0-1.3,0-1.9,0c-0.7,0-1.3-0.1-1.9-0.1c-0.7,0-1.3,0.3-2,0.3c-0.7,0-1.3,0.4-2,0.4c-0.6,0-1.3-0.1-2-0.2
				c-0.6-0.1-1.3-0.3-1.9-0.3c-0.6-0.1-1.2-0.6-1.9-0.6c-0.6-0.1-1.2-0.5-1.9-0.6c-0.7-0.1-1.3,0-2-0.1c-0.7-0.1-1.3-0.4-2-0.4
				c-0.7-0.1-1.4,0.7-2.1,0.6c-0.7-0.1-1.3-0.8-1.9-0.8c-0.7,0-1.3,0.2-2,0.3c-0.7,0-1.4,0-2,0.1c-0.6,0.1-1.2,0.5-1.9,0.7
				c-0.7,0.2-1.5,0.2-2.2,0.5c-0.7,0.3-1,1.2-1.7,1.6c-0.7,0.3-1.4,0.4-2.1,0.7c-0.7,0.3-1.3,0.7-2,0.9c-0.7,0.2-1.5,0.2-2.2,0.2
				c-0.6,0-1.2,0.2-1.8,0c-0.6-0.1-1.1-0.6-1.7-0.7c-0.6-0.2-1-0.6-1.6-0.8c-0.6-0.2-1.4-0.2-2-0.4c-0.6-0.2-1.2-0.7-1.8-0.9
				c-0.6-0.2-1.3-0.4-2-0.6c-0.6-0.2-1.3-0.3-2-0.5c-0.7-0.2-1.4,0-2.1-0.2c-0.7-0.2-1.3-0.5-1.9-0.7c-0.7-0.1-1.3-0.3-2-0.4
				c-0.7-0.1-1.3-0.1-2-0.2c-0.7-0.1-1.3-0.7-2-0.8c-0.7-0.1-1.4-0.1-2-0.1c-0.7,0-1.4-0.1-2.1-0.1c-0.7,0-1.4,0.2-2,0.2
				c-0.7,0.1-1.4,0.1-2,0.3c-0.7,0.1-1.2,0.9-1.8,1.1c-0.7,0.2-1.3,0.4-1.9,0.6c-0.6,0.2-1.5-0.3-2.2,0c-0.7,0.3-1.3,0.6-1.9,0.8
				c-0.7,0.2-1.2,1-1.9,1.1c-0.7,0.1-1.4,0.1-2.1,0.2c-0.7,0.1-1.4-0.1-2.1,0c-0.7,0-1.4,0.4-2.1,0.4c-0.7,0-1.4-0.6-2.1-0.6
				c-0.7,0-1.4,0.6-2.1,0.5c-0.7,0-1.4-0.6-2.1-0.7c-0.7-0.1-1.5,0.4-2.1,0.3c-0.7-0.1-1.3-0.1-2-0.2c-0.7-0.1-1.3-0.2-2-0.3
				c-0.7-0.1-1.2-0.8-1.9-0.9c-0.7-0.1-1.4,0.6-2.1,0.5c-0.7-0.1-1.3-0.6-1.9-0.7c-0.7-0.1-1.3-0.3-2-0.4c-0.7-0.1-1.3-0.1-2-0.2
				c-0.7-0.1-1.3-0.5-1.9-0.6c-0.7-0.1-1.3-0.2-2-0.3c-0.7-0.1-1.3-0.3-2-0.4c-0.7-0.1-1.5,0.7-2.1,0.6c-0.7-0.1-1.3-0.3-2-0.4
				c-0.7-0.1-1.2-0.8-1.9-1c-0.7-0.1-1.4,0.2-2,0c-0.7-0.1-1.3-0.1-2-0.3c-0.7-0.1-1.2-0.6-1.9-0.8c-0.7-0.1-1.4,0.1-2-0.1
				c-0.7-0.1-1.2-0.6-1.9-0.7c-0.7-0.1-1.4,0-2-0.2c-0.7-0.2-1.2-0.6-1.9-0.8c-0.6-0.1-1.2-0.2-1.8-0.3c-0.6-0.1-1.1-0.3-1.7-0.4
				c-0.6-0.1-1.2,0.1-1.8,0.1c-0.6,0-1.1,0.2-1.7,0.3c-0.6,0.1-1.2,0.1-1.8,0.3c-0.6,0.2-1.3,0-1.9,0.2c-0.6,0.2-1.1,0.5-1.7,0.8
				c-0.6,0.2-1.2,0.3-1.8,0.5c-0.6,0.2-1.3,0.1-2,0.3c-0.6,0.2-1.1,1.1-1.8,1.2c-0.7,0.1-1.4-0.7-2.1-0.6c-0.7,0-1.3,0.7-2,0.7
				c-0.7,0-1.3-0.7-2-0.7c-0.7,0-1.3,0.2-2,0.2c-0.7-0.1-1.3-0.2-2-0.3c-0.7-0.1-1.3,0-2-0.1c-0.7-0.1-1.3-0.2-2-0.3
				c-0.6-0.1-1.3-0.1-2-0.3c-0.6-0.1-1.3-0.3-1.9-0.4c-0.6-0.1-1.2-0.9-1.8-1.1c-0.6-0.1-1.3-0.1-2-0.2c-0.7-0.1-1.3-0.4-1.9-0.5
				c-0.7-0.1-1.4,0.3-2.1,0.2c-0.7-0.1-1.2-1-1.9-1c-0.7-0.1-1.4,0.4-2.1,0.3c-0.7,0-1.3-0.1-2-0.1c-0.7,0-1.3,0-2,0
				c-0.7,0-1.3-0.1-2-0.1c-0.7,0-1.3,0.6-2,0.6c-0.7,0-1.4-0.6-2-0.6c-0.7,0-1.3-0.1-2-0.1c-0.7,0-1.3,0.8-2,0.8
				c-0.7,0-1.4-0.5-2-0.5c-0.7,0-1.3,0.3-2,0.3c-0.7,0-1.3,0.2-2,0.2c-0.7,0-1.3,0.2-2,0.1c-0.7,0-1.3-0.5-2-0.6c-0.7,0-1.3,0-2-0.1
				c-0.7-0.1-1.3-0.1-2-0.2c-0.7-0.1-1.3-0.2-2-0.3c-0.7-0.1-1.3-0.4-1.9-0.6c-0.7-0.2-1.3-0.6-1.9-0.9c-0.7-0.2-1.4-0.1-2.1-0.4
				c-0.7-0.2-1.2-0.7-1.9-1c-0.7-0.3-1.3-0.6-1.9-0.9c-0.6-0.3-1.5,0-2.2-0.2c-0.7-0.3-1.1-1-1.8-1.2c-0.7-0.3-1.5,0-2.2-0.2
				c-0.7-0.2-1.4-0.3-2-0.4c-0.6-0.2-1.3-0.3-1.9-0.4c-0.6-0.2-1.1-1.1-1.8-1.2c-0.6-0.1-1.4,0.3-2,0.2c-0.7-0.1-1.3-0.6-1.9-0.7
				c-0.7-0.1-1.4,0.3-2,0.2c-0.7,0-1.3-0.7-2-0.7c-0.7,0-1.3,0.7-2,0.7c-0.7,0-1.3-0.1-2-0.1c-0.7,0-1.3-0.5-2-0.5
				c-0.7,0-1.3,0.3-2,0.4c-0.7,0-1.3,0.1-2,0.2c-0.7,0.1-1.3,0.2-2,0.3c-0.7,0.1-1.3,0.3-1.9,0.4c-0.7,0.1-1.4-0.4-2-0.4
				c-0.7,0.1-1.2,1-1.9,1.1c-0.7,0.1-1.3,0.1-2,0.2c-0.7,0.1-1.4-0.6-2.1-0.5c-0.7,0.1-1.3,0.3-2,0.4c-0.7,0.1-1.3,0.6-1.9,0.7
				s-1.4-0.1-2-0.1c-0.7,0.1-1.3,0.6-2,0.7c-0.7,0.1-1.4-0.3-2.1-0.2c-0.7,0.1-1.3,0.8-1.9,0.9c-0.7,0.1-1.4-0.3-2.1-0.2
				c-0.7,0.1-1.4-0.2-2.1-0.2c-0.7,0.1-1.3,0.2-2,0.2c-0.7,0.1-1.4,0-2,0.1c-0.7,0.1-1.3,0.2-2,0.3c-0.7,0.1-1.3,0.9-1.9,0.9
				c-0.7,0.1-1.3,0.2-2,0.2c-0.7,0.1-1.4-0.2-2-0.1c-0.7,0.1-1.3,0.2-2,0.3c-0.7,0.1-1.4-0.4-2.1-0.3c-0.7,0.1-1.3,0.5-2,0.5
				c-0.7,0.1-1.3,0.1-2,0.1c-0.7,0.1-1.3,0.5-2,0.5c-0.7,0.1-1.4-0.4-2.1-0.3c-0.7,0.1-1.4,0-2,0c-0.7,0.1-1.3,0.5-2,0.6
				c-0.7,0.1-1.3,0.2-2,0.3c-0.7,0.1-1.3,0.1-2,0.2c-0.7,0.1-1.3,0.4-2,0.4c-0.7,0-1.4-0.4-2.1-0.4c-0.7,0-1.3,0.1-2,0.2
				c-0.7,0-1.3,0.1-2,0.1c-0.7,0-1.4-0.3-2-0.2c-0.7,0-1.3,1-2,1c-0.7,0-1.4-0.2-2.1-0.2c-0.7,0-1.4,0.4-2.1,0.4
				c-0.7,0-1.4-0.8-2.1-0.8c-0.7,0-1.4,0-2.1,0c-0.7,0-1.4,0.6-2.1,0.5c-0.7-0.1-1.3-0.9-2-1c-0.7-0.1-1.5,0.3-2.1,0.1
				c-0.6-0.1-1.2-0.5-1.9-0.7c-0.6-0.2-1.4,0.1-2-0.1c-0.6-0.2-1.1-0.9-1.7-1.1c-0.6-0.2-1.2-0.4-1.8-0.7c-0.6-0.2-1.4,0-2-0.2
				c-0.6-0.2-1.2-0.5-1.8-0.7c-0.6-0.2-1.3-0.3-1.9-0.6c-0.6-0.2-1.1-0.8-1.7-1c-0.6-0.2-1.1-0.8-1.7-1.1c-0.6-0.2-1.5,0.2-2.1,0
				c-0.6-0.2-1.2-0.8-1.8-1c-0.6-0.2-1.3-0.3-1.9-0.5c-0.6-0.2-1.2-0.5-1.9-0.7c-0.7-0.1-1.3-0.5-1.9-0.6c-0.7-0.1-1.4,0-2-0.1
				c-0.7-0.1-1.4,0-2,0c-0.7-0.1-1.3-0.6-1.9-0.6c-0.7-0.1-1.4,0.6-2,0.5c-0.7,0-1.3-0.9-1.9-0.9c-0.7,0-1.4,0.3-2,0.3
				c-0.7,0-1.3-0.2-2-0.2c-0.7,0-1.3,0.5-2,0.5c-0.7,0-1.3-0.2-2-0.2c-0.7,0-1.3,0.1-2,0.1c-0.7,0-1.3-0.6-2-0.6
				c-0.7,0-1.3,0.7-2,0.7c-0.7,0-1.3-0.4-2-0.3c-0.7,0-1.3,0.4-2,0.4c-0.6,0-1.3,0.2-1.9,0.3c-0.6,0-1.3-0.4-2-0.4
				c-0.7,0-1.3,0.5-1.9,0.5c-0.6,0-1.3-0.3-2-0.3c-0.7,0-1.3-0.2-2-0.2c-0.7,0-1.3-0.1-2-0.1c-0.7,0-1.3,0.5-1.9,0.5
				c-0.7,0-1.3,0-2,0.1c-0.7,0-1.3-0.3-2-0.3c-0.7,0-1.3,0.8-1.9,0.9c-0.7,0-1.3-0.2-2-0.2c-0.7,0-1.3,0.3-1.9,0.3
				c-0.7,0-1.3,0-1.9,0c-0.7,0-1-0.2-1.7-0.2c-0.3,1-0.4,1-0.4,1.9v130h1400V64.1z"/>
		</g>
	</g>
	<g id="XMLID_847_">
		
			<image style="overflow:visible;opacity:5.000000e-02;" width="6009" height="729" id="XMLID_46_" xlink:href="987191CC1D0202AB.png"  transform="matrix(0.24 0 0 0.24 -21.2917 33.7845)">
		</image>
		<g id="XMLID_30_">
			<path id="XMLID_45_" class="st2" d="M-0.3,123.5c0-1-0.1-2,0.6-2.7c0.7-0.7,1.8,1.6,2.8,1.5c1,0,1-0.2,2-0.2c1,0,1-1.7,2-1.8
				c1,0,1,0.9,2,0.9c1,0,1,0.9,2,0.9c1,0,1,0.6,2,0.5c1,0,1-1.5,2-1.5c1,0,1,0.2,2,0.2c1,0,1,0.7,2,0.7c1,0,1-0.9,2-0.9
				c1,0,1-0.9,2-0.9c1,0,1,2,2,2c1,0,1-1.4,2-1.5c1,0,1-0.3,2-0.3c1,0,1,0.1,2,0.1c1,0,1,1.6,2,1.6c1,0,1-1.6,2-1.6c1,0,1,0.9,2,0.9
				c1,0,1-0.1,2-0.1c1,0,1,0.2,2,0.1c1,0,1-0.6,2-0.6c1,0,1-1,2-1c1,0,1,0.8,2,0.8c1,0,1,0.6,2,0.6c1,0,1,0.2,2,0.2c1,0,1-0.5,2-0.5
				c1,0,1-0.5,2-0.5c1,0,1,1.5,2,1.5c1,0,1-0.4,2-0.4c1,0,1-1.4,2-1.4c1,0,1-0.7,2-0.8s1,2.5,2,2.4c1,0,1-1.1,2-1.2c1,0,1-0.5,2-0.6
				c1,0,1,1.7,2,1.7c1,0,1-1.2,2-1.2c1,0,1,0.9,2,0.9c1,0,1,0,2,0c1,0,1-2,2-2c1,0,1,0.6,2,0.6c1,0,1,0.7,2,0.7c1,0,1-1.6,2-1.6
				c1,0,1,0.9,2,0.9c1,0,1,0.6,2,0.6c1,0,1-0.8,2-0.8c1,0,1-0.7,2-0.7c1,0,1,1.6,2,1.6c1,0,1,0,2-0.1c1,0,1,0.3,2,0.3
				c1,0,1-1.4,2-1.5c1,0,1,0.5,2,0.5c1,0,1,0.2,2,0.2c1,0,1,0.6,2,0.5c1,0,1-1.7,2-1.7c1,0,1,1,2,0.9c1,0,1-1.3,2-1.4
				c1,0,1,0.2,2,0.1c1,0,1,1.2,2,1.2c1,0,1-1.2,2-1.2c1,0,1,1.2,2,1.2c1,0,1-1.5,2-1.5c1,0,1,0.6,2,0.5c1,0,1,0.3,2,0.2
				c1,0,1-0.1,2-0.1c1,0,1,0.4,2,0.4c1,0,1,0.3,2,0.3c1,0,1-1.6,2-1.6c1,0,1,1.8,2,1.7c1,0,1-1.2,2-1.2c1,0,1-0.4,2-0.4
				c1,0,1,1.5,2,1.4c1,0,1-0.5,2-0.5c1,0,1,0.8,2,0.8c1,0,1-1.7,2-1.7c1,0,1,0.7,2,0.7c1,0,1-0.3,2-0.3c1,0,1-0.8,2-0.8c1,0,1,1,2,1
				c1,0,1-0.9,2-0.9c1,0,1,0.4,2,0.4c1,0,1,2,2,2c1,0,1-1.2,2-1.2c1,0,1,1.1,2,1.1c1,0,1-0.4,2-0.4c1,0,1,0,2,0c1,0,1-1,2-1
				c1,0,1-0.2,2-0.2c1,0,1,0.8,2,0.7c1,0,1-1,2-1c1,0,1-0.8,2-0.8c1,0,1,0.9,2,0.9c1,0,1,0.8,2,0.8c1,0,1-1.4,2-1.4c1,0,1,1.2,2,1.2
				c1,0,1-0.5,2-0.5c1,0,1-0.7,2-0.7c1,0,1-0.2,2-0.3c1,0,1,1.6,2,1.5c1,0,1-0.6,2-0.6c1,0,1,1.5,2,1.5c1,0,1-0.4,2-0.4
				c1,0,1-0.2,2-0.2c1,0,1,0.3,2,0.3c1,0,1-2.3,2-2.3c1,0,1,1.3,2,1.2c1,0,1-1.4,2-1.4c1,0,1-0.1,2-0.1c1,0,1,1.2,2,1.2
				c1,0,1,0.5,2,0.5c1,0,1-1.1,2-1.1c1,0,1,1.9,2,1.9c1,0,1-1.8,2-1.8c1,0,1-0.7,2-0.8c1,0,1,2.3,2,2.3c1,0,1-0.7,2-0.8
				c1,0,1-0.9,2-0.9c1,0,1-0.4,2-0.4c1,0,1,0.3,2,0.3c1,0,1,1.3,2,1.3c1,0,1-0.9,2-0.9c1,0,1-0.6,2-0.6c1,0,1,1,2,1c1,0,1-0.5,2-0.5
				c1,0,1-0.3,2-0.4c1,0,1,1.5,2,1.5c1,0,1-0.8,2-0.8c1,0,1-1.5,2-1.5c1,0,1,1.6,2,1.6c1,0,1,0.9,2,0.8c1,0,1-0.4,2-0.4
				c1,0,1,0.3,2,0.3c1,0,1-1.2,2-1.2c1,0,1-1.2,2-1.2c1,0,1,1.5,2,1.5c1,0,1-0.7,2-0.7c1,0,1-0.5,2-0.5c1,0,1,1.3,2,1.3
				c1,0,1-0.5,2-0.5c1,0,1-1.1,2-1.1c1,0,1,1.6,2,1.6c1,0,1-1.6,2-1.6c1,0,1,1.9,2,1.9c1,0,1-2.1,2-2.1c1,0,1,0.3,2,0.3
				c1,0,1,1.2,2,1.2c1,0,1-1.6,2-1.6c1,0,1,0.1,2,0.1c1,0,1-0.3,2-0.3c1,0,1-0.1,2-0.1c1,0,1,2,2,2c1,0,1-0.4,2-0.4c1,0,1,1,2,1
				c1,0,1-2.8,2-2.8c1,0,0.7,2.3,1.7,2.6c1.1,0.3,1.4-0.4,2.4-0.4c0.7,0.1,1.2,0.4,1.8,0.5c0.7,0.1,1.4-0.6,2.1-0.6
				c0.7,0.1,1.3,0.9,1.9,1c0.7,0.1,1.5-2.2,2.2-2.2c0.7,0,1.3,1.1,1.9,1.2c0.7,0,1.3,0.1,2,0.1c0.7,0,1.3-1.4,2-1.4
				c0.7,0,1.3,0.4,2,0.3c0.7,0,1.3,0.6,2,0.6c0.7,0,1.4,1.1,2.1,1c0.7,0,1.2-1.4,1.9-1.5c0.7-0.1,1.5,1.2,2.1,1.2
				c0.7-0.1,1.3-0.7,1.9-0.8c0.7-0.1,1.2-1.2,1.8-1.3c0.7-0.1,1.5,1,2.2,0.9c0.7-0.1,0.9-2.1,1.6-2.2c0.6-0.1,1.7,1.6,2.4,1.5
				c0.6-0.2,1.2-0.6,1.9-0.8c0.6-0.2,1.5,0.3,2.1,0.1c0.6-0.2,0.8-1.8,1.5-2c0.6-0.2,1.4,0,2-0.2c0.6-0.2,0.9-1.5,1.5-1.8
				c0.6-0.2,2,1.8,2.7,1.5c0.6-0.2,0.5-2.4,1.1-2.7c0.6-0.2,1.7,0.7,2.3,0.5c0.6-0.3,0.9-1.2,1.5-1.4c0.6-0.3,0.9-1.3,1.5-1.5
				c0.6-0.3,1.5,0,2.1-0.3c0.6-0.3,1.5,0,2.1-0.3c0.6-0.3,1.1-0.7,1.7-1c0.6-0.3,1.8,0.4,2.3,0.1c0.6-0.3,0.1-2.4,0.7-2.8
				c0.6-0.3,1.8,0.4,2.3,0c0.6-0.3,1.7,0.2,2.3-0.2c0.6-0.3,0.9-1.1,1.4-1.5c0.6-0.4,1.1-0.8,1.6-1.1c0.6-0.4,0.3-2.1,0.8-2.4
				c0.6-0.4,1.1-0.7,1.7-1c0.6-0.4,2,0.7,2.6,0.3c0.6-0.4,0.4-1.8,1-2.2s1.5-0.1,2.1-0.4c0.6-0.4,0.4-2,0.9-2.4
				c0.6-0.4,2.3,1.2,2.9,0.9c0.6-0.3,0.2-2.3,0.8-2.7c0.6-0.3,1.1-0.9,1.6-1.2c0.6-0.3,2.4,1.5,3,1.2c0.6-0.3,0.6-1.6,1.2-1.9
				c0.6-0.3,1.6,0.2,2.2-0.1c0.6-0.3-0.1-3,0.5-3.3c0.6-0.3,1.7,0.3,2.3,0c0.6-0.3,1.3-0.5,1.9-0.8c0.6-0.3,1.2-0.7,1.8-1
				c0.6-0.3,1.9,0.8,2.5,0.5c0.6-0.3,0.8-1.4,1.4-1.7c0.6-0.3,1.2-0.6,1.8-0.9c0.6-0.3,1.1-0.9,1.7-1.2c0.6-0.3,0.7-1.8,1.3-2
				c0.6-0.3,1.4-0.2,2-0.4c0.6-0.3,1.9,0.9,2.5,0.6c0.6-0.3,0.8-1.5,1.5-1.7c0.6-0.3,1.3-0.4,1.9-0.7c0.6-0.3,0.9-1.4,1.5-1.7
				c0.6-0.2,1.8,0.9,2.4,0.7c0.6-0.2,1.2-0.7,1.8-0.9c0.6-0.2,1.6,0.5,2.2,0.3c0.6-0.2,1.2-0.5,1.8-0.8c0.6-0.2,0.5-2.5,1.2-2.7
				c0.6-0.2,1.2-0.6,1.8-0.8c0.6-0.2,1.4-0.1,2-0.3c0.6-0.2,1.3-0.4,1.9-0.6c0.6-0.2,1.6,0.7,2.3,0.5c0.6-0.2,1.6,0.8,2.3,0.6
				c0.6-0.2,0.8-2.2,1.4-2.4c0.6-0.2,1.6,0.9,2.3,0.7c0.6-0.2,1-1.5,1.6-1.7c0.6-0.2,1.5,0.6,2.2,0.5c0.6-0.2,1-1.7,1.6-1.8
				c0.7-0.1,1.3-0.6,1.9-0.7c0.7-0.1,1.7,2,2.4,1.8c0.7-0.1,1.3,0,2-0.1c0.7-0.1,0.9-2.6,1.6-2.7c0.7-0.1,1.6,1.6,2.2,1.5
				c0.7-0.1,1.2-0.7,1.9-0.8c0.7-0.1,1.3-0.4,2-0.5c0.7-0.1,1.3-0.3,2-0.3c0.7-0.1,1.3-0.9,1.9-0.9c0.7,0,1.4,1.5,2.1,1.5
				c0.7,0,1.3,0.3,2,0.3c0.7,0,1.3-2.2,2-2.2c0.7,0,1.3,1.8,2,1.8c0.7,0,1.4-1.2,2-1.2c0.7,0,1.3,1.4,1.9,1.4c0.7,0,1.4-1.4,2.1-1.4
				c0.7,0.1,1.1,2.5,1.8,2.6c0.7,0.1,1.3-0.1,2,0c0.7,0.1,1.4-0.4,2.1-0.4c0.7,0.1,1.6-1.5,2.3-1.4c0.7,0.1,1.1,1.7,1.8,1.8
				c0.7,0.1,1.6-1.5,2.3-1.4c0.7,0.1,1.3,0.6,1.9,0.7c0.7,0.1,1.2,1,1.9,1.1c0.7,0.1,1.5-0.7,2.2-0.5c0.7,0.1,1.1,1.1,1.8,1.3
				c0.7,0.1,1.2,0.8,1.9,0.9c0.7,0.2,1.3,0.2,2,0.4c0.7,0.2,1.3,0.2,2,0.4c0.7,0.2,1.4,0.1,2,0.3c0.7,0.2,1,1.8,1.6,1.9
				c0.7,0.2,1.4-0.2,2.1,0c0.7,0.2,1.4-0.2,2.1-0.1c0.7,0.2,1.5-0.4,2.1-0.2c0.7,0.1,1,1.9,1.6,2.1c0.7,0.1,1.8-1.8,2.4-1.7
				c0.7,0.1,1.2,0.8,1.9,0.9c0.7,0.1,1,2.2,1.6,2.3c0.7,0.1,1.7-1.5,2.3-1.4c0.7,0.1,1.3,0.6,1.9,0.7c0.7,0.1,1.3,0.2,2,0.3
				c0.7,0.1,1.3,0.2,2,0.3c0.7,0.1,1.5-1.3,2.2-1.2c0.7,0.1,1.1,2.5,1.8,2.5c0.7,0.1,1.5-1.6,2.1-1.5c0.7,0,1.3,0.5,2,0.5
				c0.7,0,1.4-0.5,2-0.5c0.7,0,1.3,1.9,2,2c0.7,0,1.4,0,2,0c0.7,0,1.4-0.4,2-0.5c0.7,0,1.3-0.3,2-0.3c0.7,0,1.3-0.7,2-0.8
				c0.7,0,1.3,0,2-0.1c0.7-0.1,1.2-1.1,1.9-1.2c0.7-0.1,1.6,1.9,2.2,1.8c0.7-0.1,1.1-2.1,1.8-2.2c0.7-0.1,1.7,2.4,2.3,2.3
				c0.7-0.1,1-2.7,1.7-2.8c0.7-0.1,1.5,0.7,2.1,0.6c0.7-0.1,1.4,0.3,2.1,0.2c0.7-0.1,1.3-0.4,2-0.5c0.7-0.1,1.5,1,2.2,0.9
				c0.7-0.1,1.4,0,2-0.1c0.7-0.1,1.2-0.8,1.9-0.9c0.7-0.1,1.2-1.1,1.9-1.2c0.7-0.1,1.4,0.1,2,0c0.7-0.1,1.3-0.5,2-0.6
				s1.5,0.8,2.2,0.7c0.7-0.1,1.2-1.1,1.9-1.2c0.7-0.1,1.5,0.7,2.1,0.6c0.7-0.1,1.2-1.2,1.9-1.3c0.7-0.1,1.5,0.9,2.2,0.8
				c0.7-0.1,1.3-0.5,2-0.6c0.7-0.1,1.2-1.4,1.9-1.5c0.7-0.1,1.5,1.6,2.2,1.5c0.7-0.1,1.4,0.1,2,0.1c0.7-0.1,1.1-3,1.8-3.1
				c0.7-0.1,1.4,0.2,2.1,0.1c0.7,0,1.4-0.3,2-0.3c0.7,0,1.4,0.7,2.1,0.7c0.7,0,1.4-0.4,2-0.4c0.7,0,1.4,0.4,2,0.4
				c0.7,0,1.3,1.5,2,1.5c0.7,0,1.4-2.2,2.1-2.2c0.7,0,1.2,2.1,1.9,2.2c0.7,0,1.3,0.2,2,0.3c0.7,0.1,1.3,0,2,0.1
				c0.7,0.1,1.6-1.5,2.2-1.4c0.7,0.1,1.1,1.8,1.7,1.9c0.7,0.1,1.7-1.6,2.3-1.5c0.7,0.1,1,1.9,1.6,2.1c0.7,0.1,1.5-0.7,2.2-0.5
				c0.7,0.1,1.1,1.1,1.8,1.2c0.7,0.2,1.2,0.9,1.8,1.1c0.7,0.2,1.7-1.5,2.4-1.3c0.7,0.2,1.4,0,2,0.2c0.7,0.2,0.8,2.5,1.4,2.7
				c0.7,0.1,1.3,0.2,2,0.4c0.7,0.1,1.8-1.8,2.4-1.7c0.7,0.1,1.3,0.3,1.9,0.4c0.7,0.1,1.4-0.1,2,0c0.7,0.1,1.2,0.6,1.9,0.7
				c0.7,0.1,1.3,0.2,1.9,0.3c0.7,0.1,1.2,1.8,1.8,1.9c0.7,0.1,1.4-0.3,2-0.2c0.7,0,1.3,0.2,2,0.2c0.7,0,1.3,0.7,2,0.7
				c0.7,0,1.3-1.1,2-1.1c0.7,0,1.3-0.3,2-0.3c0.7,0,1.3-0.2,2-0.2c0.7,0,1.4,0.6,2,0.6c0.7,0,1.3-1.1,1.9-1.1c0.7,0,1.4,0.7,2,0.6
				c0.7-0.1,1.4,0.7,2.1,0.6c0.7-0.1,1.3-0.9,1.9-0.9c0.7-0.1,1.4,0.3,2,0.2c0.7-0.1,1.3-0.5,1.9-0.6c0.7-0.1,1.4,0.6,2.1,0.5
				c0.7-0.1,1.1-2.1,1.7-2.2c0.7-0.1,1.5,0.9,2.1,0.8c0.7-0.1,1.2-0.8,1.9-0.9c0.7-0.1,1.4,0.2,2,0.1c0.7-0.1,1.3-0.9,2-1
				c0.7,0,1.5,2.1,2.2,2.1c0.7,0,1.3-2.6,2-2.6c0.7,0,1.4,0.5,2.1,0.5c0.7,0,1.3-0.6,2-0.6c0.7,0,1.4,0.8,2.1,0.8
				c0.7-0.1,1.5,1.1,2.2,0.9c0.7-0.1,1.5,0.1,2.2-0.1c0.7-0.2,1.3-0.4,2-0.5c0.7-0.2,0.9-1.8,1.6-2c0.7-0.2,1-1.4,1.7-1.6
				c0.7-0.2,1.4-0.1,2-0.3c0.7-0.2,1.3-0.3,2-0.5c0.7-0.2,1.6,0.6,2.2,0.4c0.7-0.2,1.1-1.4,1.7-1.5c0.7-0.2,1.9,2,2.6,1.9
				c0.7-0.2,0.7-2.7,1.4-2.8c0.7-0.2,1.7,1.1,2.3,0.9c0.7-0.2,1.1-1.1,1.8-1.2c0.7-0.2,1.2-0.7,1.9-0.8c0.7-0.2,1.5,0.3,2.1,0.2
				c0.7-0.1,1.2-0.9,1.9-1.1c0.7-0.1,1.4-0.1,2-0.3c0.6-0.1,1.4,0.7,2,0.6c0.6-0.1,1.2,0.1,1.8-0.1c0.6-0.1,1-1.3,1.6-1.4
				c0.6-0.1,1.2-0.3,1.8-0.3c0.6-0.1,1.3,1.7,1.9,1.6c0.7,0,1.3-2,2-2c0.7,0,1.3,1.4,2,1.4c0.7,0,1.4-0.6,2.1-0.5
				c0.7,0.1,1.2,0.8,1.9,1c0.7,0.1,1.5-0.5,2.1-0.3c0.7,0.1,1.1,1.4,1.7,1.5c0.7,0.2,1.6-0.6,2.2-0.4c0.6,0.2,1.5-0.4,2.2-0.2
				c0.6,0.2,1.3,0.4,2,0.6c0.6,0.2,0.5,2.6,1.2,2.8c0.6,0.2,2.2-2,2.8-1.7c0.6,0.2,1.3,0.5,1.9,0.7c0.6,0.2,0.6,2.1,1.3,2.4
				c0.6,0.2,1.7-0.6,2.4-0.3c0.6,0.3,1.4,0.4,2,0.7c0.6,0.3,0.1,2.6,0.7,3c0.6,0.3,2.5-1.2,3-0.8c0.6,0.5-0.2,2.7,0.4,3.3
				c0.6,0.5,1.4,1,2,1.5c0.5,0.4,1.1,0.9,1.7,1.3c0.6,0.4,1.9-0.6,2.5-0.3c0.6,0.3,0.7,1.9,1.3,2.1c0.6,0.2,1.8-1.5,2.5-1.4
				c0.6,0.2,1,2,1.6,2.1c0.7,0.1,1.5-1.3,2.1-1.2c0.7,0.1,1.3,0.7,1.9,0.7c0.7,0,1.3,0.9,2,0.9c0.7,0,1.4,0,2,0c0.7,0,1.4,0.1,2,0.1
				c0.7,0,1.2-2.2,1.9-2.2c0.7,0,1.4,1.5,2.1,1.4c0.7,0,1.3-0.1,2-0.2c0.7,0,1.3-1.1,1.9-1.1c0.7,0,1.3-0.9,2-0.9
				c0.7,0,1.2,2.5,1.9,2.5c0.7,0,1.3,0,1.9,0c0.7,0.1,1.4-0.9,2-0.8c0.7,0.1,1.3,0.5,1.9,0.6c0.7,0.1,1.2,0.9,1.8,1
				c0.6,0.1,1.3,0.1,1.9,0.2c0.6,0.1,1.5-1,2.1-0.9c0.6,0.1,1.5-0.5,2.1-0.4c0.6,0.1,1,1.6,1.6,1.8c0.6,0.1,1.6-0.9,2.2-0.7
				c0.6,0.2,0.8,2,1.5,2.2c0.6,0.2,1.4-0.1,2,0.1c0.6,0.2,1.3,0.2,1.9,0.4c0.6,0.2,1.7-1.1,2.3-1c0.6,0.2,1,1.2,1.6,1.4
				c0.6,0.2,1.5-0.5,2.1-0.3c0.6,0.2,0.7,2.2,1.3,2.4c0.6,0.2,1.9-1.5,2.5-1.3c0.6,0.2,1,1.2,1.6,1.4c0.6,0.2,1.2,0.5,1.9,0.7
				s0.7,1.9,1.4,2.1c0.6,0.2,1.7-0.9,2.3-0.7c0.6,0.2,1.4,0.1,2,0.3c0.6,0.2,1.1,0.9,1.7,1.1c0.6,0.2,1.1,0.9,1.7,1.2
				c0.6,0.2,1.6-0.5,2.2-0.2c0.6,0.2,1,1.3,1.6,1.5c0.6,0.2,1.8-1.3,2.4-1c0.6,0.2,1,1.2,1.6,1.4c0.6,0.2,1.3,0.2,2,0.4
				c0.6,0.2,1.2,0.5,1.9,0.7c0.6,0.2,1.5-0.4,2.2-0.2c0.6,0.2,0.8,1.7,1.5,1.9c0.6,0.2,0.9,1.4,1.6,1.7c0.6,0.2,1.6-0.6,2.2-0.4
				c0.7,0.2,1.2,0.8,1.8,1c0.7,0.2,1.9-1.3,2.5-1.1c0.6,0.2,0.8,2,1.4,2.2c0.6,0.2,1.8-1.1,2.5-0.9c0.6,0.2,1.2,0.9,1.8,1.1
				c0.6,0.2,1.1,1.1,1.7,1.3c0.6,0.2,0.7,2,1.4,2.3c0.6,0.2,1.5-0.2,2.1,0.1c0.6,0.2,2-1.4,2.6-1.1c0.6,0.2,0.3,3,0.9,3.2
				c0.6,0.2,1.3,0.5,1.9,0.7c0.6,0.3,2.1-1.6,2.8-1.3c0.6,0.3,0.6,2.1,1.2,2.4c0.6,0.3,1.5,0.1,2.1,0.3c0.6,0.3,1.3,0.5,1.9,0.8
				c0.6,0.3,1.5,0,2.1,0.3c0.6,0.3,1.2,0.7,1.8,1c0.6,0.3,0.6,1.8,1.2,2.1c0.6,0.3,1.7-0.3,2.3,0c0.6,0.3,0.9,1.1,1.5,1.5
				c0.6,0.3,1.9-0.6,2.5-0.3c0.6,0.3,1.1,0.7,1.7,1c0.6,0.3,0.7,1.4,1.2,1.7c0.6,0.3,1.7-0.4,2.3-0.1c0.6,0.3-0.2,3,0.4,3.3
				c0.6,0.3,2.5-1.8,3.1-1.5s0.2,2.3,0.7,2.6c0.6,0.3,1.9-0.8,2.5-0.5c0.6,0.3,0.1,2.4,0.6,2.8c0.6,0.3,2.3-1.4,2.8-1.1
				c0.6,0.3,1,0.8,1.6,1.1c0.6,0.3,1.2,0.6,1.7,1s0.7,1.4,1.3,1.7c0.6,0.3,0.3,2.2,0.8,2.5c0.6,0.3,1.3,0.4,1.9,0.7
				c0.6,0.3,1.9-0.7,2.5-0.4c0.6,0.3,1.6-0.1,2.1,0.3c0.6,0.3,0.8,1.2,1.4,1.6s0.8,1.2,1.4,1.5c0.6,0.3,1.3,0.4,1.9,0.7
				c0.6,0.3,1.5,0,2.1,0.4s0.9,1.1,1.5,1.4s1.4,0.2,2,0.5c0.6,0.3-0.1,2.9,0.4,3.2s2-0.8,2.5-0.4c0.6,0.3,1.8-0.4,2.3-0.1
				c0.6,0.3-0.3,3.2,0.3,3.5s2.1-1,2.7-0.7s0.9,1.1,1.5,1.4s0.9,1.2,1.4,1.5c0.6,0.3,1.7-0.3,2.3,0s0.5,1.8,1,2.2s1.7-0.3,2.3,0
				c0.6,0.3,0.9,1.2,1.4,1.5c0.6,0.3,2-0.8,2.5-0.4s0,2.7,0.5,3.1c0.6,0.3,2.1-1,2.7-0.7c0.6,0.3,0.1,2.4,0.7,2.7
				c0.6,0.3,1.3,0.4,1.9,0.7s1.3,0.4,1.9,0.7s1.7-0.4,2.3-0.1c0.6,0.3,1.5,0.1,2,0.4c0.6,0.3,0.8,1.3,1.3,1.7c0.5,0.3,0.8,1,1.4,1.3
				c0.5,0.3,1.1,0.6,1.6,0.9c0.5,0.3,1.5-0.2,2,0c0.5,0.3,1.3,0.1,1.8,0.4c0.6,0.3,0.2,2.6,0.8,2.8c0.6,0.2,1.6-0.4,2.2-0.2
				c0.6,0.2,0.9,1.7,1.5,1.9c0.6,0.2,1.7-1.3,2.3-1.2c0.6,0.2,1.3,0.2,1.9,0.4c0.6,0.1,0.9,1.7,1.6,1.8c0.7,0.1,1.8-1.8,2.5-1.7
				c0.7,0.1,1.3,0.5,1.9,0.7c0.7,0.1,1.1,1.5,1.7,1.6c0.7,0.1,1.4,0.2,2,0.3c0.7,0.1,1.2,0.8,1.9,0.9c0.7,0.1,1.4,0,2.1,0.1
				c0.7,0.1,1.7-1.1,2.3-1s0.9,2.4,1.5,2.5s1.3,0.5,2,0.6c0.7,0.1,1.5-0.5,2.2-0.4s1.4-0.1,2.1,0c0.7,0.1,1.6-0.8,2.2-0.6
				c0.7,0.1,1.2,1.1,1.8,1.3c0.7,0.1,1.1,1.2,1.8,1.4s1.3,0.3,2,0.5c0.7,0.1,1.4-0.1,2.1,0.1c0.7,0.1,1.1,1.3,1.7,1.4
				c0.7,0.1,1.9-2.3,2.5-2.2c0.7,0.1,1,1.8,1.6,2c0.7,0.1,1.4-0.2,2.1-0.1c0.7,0.1,1.3,0.3,2,0.4c0.7,0.1,1.4-0.1,2,0
				c0.7,0.1,1,2.2,1.6,2.3c0.7,0.1,1.6-1.7,2.3-1.5c0.7,0.1,1.1,1.5,1.8,1.6c0.7,0.1,1.3,0.3,2,0.4c0.7,0.1,1.5-1.1,2.2-1.1
				c0.7,0.1,1.3,0,2,0.1c0.7,0.1,1.3,0.4,2,0.4c0.7,0.1,1.4-0.7,2.1-0.6s1.3,0.3,2,0.4c0.7,0.1,1.2,1.6,1.8,1.6
				c0.7,0.1,1.4-0.5,2.1-0.4s1.2,1.6,1.9,1.6c0.7,0.1,1.3,0.2,2,0.3c0.7,0.1,1.5-1.5,2.1-1.5c0.7,0.1,1.3,0.1,2,0.2
				c0.7,0,1.4-0.3,2-0.3c0.7,0,1.4-0.4,2-0.3c0.7,0,1.2,1.6,1.9,1.7c0.7,0,1.4-1.5,2.1-1.5c0.7,0,1.2,2.4,1.9,2.4
				c0.7,0,1.4-1.2,2.1-1.1c0.7,0,1.3,0.8,2,0.8c0.7,0,1.3-0.1,2-0.1c0.7,0,1.3-0.5,2-0.5c0.7,0,1.3,0.9,2,1c0.7,0,1.4-2.2,2-2.2
				c0.7,0,1.3,0.6,2,0.6c0.7,0,1.3,0.9,2,0.9c0.7,0,1.3-0.8,2-0.8c0.7,0,1.3,1.6,2,1.5c0.7,0,1.3-0.5,2-0.5c0.7,0,1.4,1.2,2,1.2
				c0.7,0,1.3-2.1,2-2.1c0.7,0,1.3,0,2,0c0.7,0,1.3-0.5,2-0.5c0.7,0,1.4,1.9,2.1,1.8c0.7,0,1.3,0.2,2,0.2c0.7,0,1.3,0,2-0.1
				c0.7,0,1.2-2.3,1.9-2.3c0.7,0,1.4,0.7,2,0.6c0.7,0,1.4,1.1,2.1,1.1c0.7,0,1.2-1.9,1.9-1.9c0.7,0,1.4,1.4,2.1,1.4
				c0.7,0,1.2-1.7,1.9-1.8c0.7,0,1.3,0.2,2,0.2c0.7,0,1.5,2.3,2.1,2.2c0.7,0,1.3-1.2,1.9-1.3c0.7,0,1.3-1,1.9-1c0.7,0,1.4,0.3,2,0.2
				c0.7,0,1.4,0.3,2,0.2c0.7,0,1.3-0.4,2-0.4c0.7,0,1.4,1.1,2.1,1c0.7,0,1.3,0.1,2,0c0.7,0,1.3-0.6,2-0.7c0.7-0.1,1.3-0.1,2-0.2
				c0.7-0.1,1.2-2,1.9-2c0.7-0.1,1.3-0.1,2-0.1c0.7-0.1,1.5,2.6,2.2,2.5c0.7-0.1,1.2-1.5,1.9-1.6c0.7-0.1,1.4,0.5,2,0.4
				c0.7-0.1,1.3-0.7,2-0.7c0.7-0.1,1.4,1.2,2.1,1.2c0.7-0.1,1.2-2,1.8-2c0.7-0.1,1.3-0.3,2-0.3c0.7-0.1,1.5,2,2.2,1.9
				c0.7-0.1,1.2-2.1,1.8-2.2c0.7-0.1,1.3-0.1,2-0.2s1.5,1.4,2.1,1.3s1.3-0.5,2-0.6c0.7-0.1,1.3,0,2,0c0.7-0.1,1.2-1.9,1.8-2
				c0.7-0.1,1.5,2.2,2.2,2.2c0.7-0.1,1.2-2.1,1.8-2.2c0.7-0.1,1.4,0.9,2.1,0.8c0.7-0.1,1.4,0.8,2.1,0.7c0.7-0.1,1.3-0.5,2-0.6
				c0.7-0.1,1.4,0.2,2,0.1c0.7-0.1,1.2-1.2,1.9-1.3c0.7-0.1,1.5,1.6,2.1,1.6c0.7-0.1,1.3-0.5,2-0.5c0.7,0,1.2-2.4,1.8-2.5
				c0.7,0,1.5,1.7,2.1,1.6c0.7,0,1.3,0.1,2,0.1c0.7,0,1.3-1.1,1.9-1.2c0.7,0,1.3-0.7,2-0.8c0.7,0,1.4,0.7,2.1,0.7
				c0.7,0,1.4,0.9,2.1,0.8c0.7,0,1.3,0,2,0c0.7,0,1.2-1.5,1.9-1.6c0.7,0,1.3-0.4,2-0.4c0.7,0,1.5,2.2,2.1,2.1c0.7,0,1.2-2.8,1.9-2.9
				c0.7,0,1.4,0.9,2.1,0.9c0.7,0,1.3-0.2,2-0.2c0.7,0,1.3-0.7,2-0.7c0.7,0,1.4,0.7,2,0.6c0.7,0,1.3-0.2,2-0.2c0.7,0,1.4,0.5,2,0.5
				c0.7,0,1.3,0.3,2,0.3c0.7,0,1.3,0.2,2,0.2c0.7,0,1.3-1.7,2-1.7c0.7,0,1.4,2.4,2,2.3c0.7,0,1.3-0.2,2-0.2c0.7,0,1.3-0.6,2-0.6
				c0.7,0,1.3,0.7,2,0.7c0.7,0,1.3-2.2,2-2.2c0.7,0,1.3,0.5,2,0.5c0.7,0,1.3,1.1,2,1.1c0.7,0,1.3-1.2,2-1.2s1.3,0.2,2,0.2
				c0.7,0,1.3-0.7,2-0.7c0.7,0,1.3,1.2,2,1.2c0.7,0,1.3,0.2,2,0.2c0.7,0,1.3-0.7,2-0.7c0.7,0,1.3-0.8,2-0.8c0.7,0,1.3,0.9,2,0.9
				c0.7,0,1.3,1.1,2,1.1c0.7,0,1.3-2.3,2-2.3s1.3,0,2,0c0.7,0,1.3,1.8,2,1.8c0.7,0,1.3,0.9,2,0.9c0.7,0,1.3-0.4,2-0.4
				c0.7,0,1.4-1.4,2-1.4c0.7,0,1.3-0.6,2-0.6s1.3,0.1,2,0.1c0.7,0,1.3,0.1,2,0.1s1.3,1.2,2,1.3c0.7,0,1.4-0.9,2-0.8
				c0.7,0,1.3,0.1,2,0.1s1.3,0.7,2,0.7s1.3,1.7,1.9,1.7c0.7,0,1.4-1.6,2.1-1.5c0.7,0,1.2,1.6,1.9,1.6c0.7,0,1.4-0.8,2-0.7
				c0.7,0,1.4-1.3,2.1-1.2c0.7,0,1.3,0.8,1.9,0.9c0.7,0,1.4-0.4,2-0.4c0.7,0,1.2,1.8,1.9,1.8c0.7,0.1,1.5-2.2,2.2-2.1
				c0.7,0.1,1.3,0.8,1.9,0.8c0.7,0.1,1.2,1.2,1.9,1.2s1.3-0.2,2-0.1s1.3,0.1,2,0.1c0.7,0.1,1.3,0.1,2,0.2s1.4-0.3,2-0.2s1.3,0,2,0
				c0.7,0.1,1.4-0.5,2-0.4c0.7,0.1,1.1,2.3,1.8,2.4c0.7,0.1,1.4-1,2.1-0.9c0.7,0,1.4-0.4,2-0.4c0.7,0,1.3,0.7,1.9,0.7
				c0.7,0,1.3,1.1,1.9,1.2c0.7,0,1.5-2.6,2.1-2.6c0.7,0,1.3,0.3,2,0.4c0.7,0,1.3,1.4,1.9,1.4c0.7,0,1.3,0,2,0c0.7,0,1.4-1.1,2-1.1
				c0.7,0,1.3,0.8,2,0.8c0.7,0,1.3-0.8,2-0.8c0.7,0,1.3,0.8,2,0.8c0.7,0,1.3,0.3,2,0.2c0.7,0,1.3-1.3,2-1.3s1.4,2.2,2,2.2
				s1.2-2.2,1.9-2.2c0.7,0,1.5,2.6,2.1,2.6c0.7,0,1.3-0.8,2-0.8c0.7,0,1.3-0.4,2-0.4c0.7-0.1,1.3-0.7,1.9-0.8c0.7-0.1,1.2-0.9,1.9-1
				c0.7-0.1,1.5,1.1,2.1,1c0.7-0.1,1.8-0.6,2.4-0.7v5.7H-0.3V123.5z"/>
			<path id="XMLID_38_" class="st2" d="M1.9,193.6"/>
		</g>
	</g>
	<g id="XMLID_836_">
		
			<image style="overflow:visible;opacity:7.000000e-02;" width="6084" height="689" id="XMLID_43_" xlink:href="987191CC1D0202AF.png"  transform="matrix(0.24 0 0 0.24 -30.2918 33.3001)">
		</image>
		<g id="XMLID_28_">
			<path id="XMLID_39_" class="st3" d="M1399.6,163.4c0-1,0.1-1,0.1-2c0-1-0.8-1-1.1-2c-0.7-0.2-1.2,0.3-1.9,0.2
				c-0.7-0.1-1.2-0.9-1.8-1.1c-0.7-0.1-1.5,0.8-2.2,0.7c-0.7-0.1-1-1.8-1.7-1.9c-0.7-0.1-1.3-0.5-2-0.6c-0.7-0.1-1.6,1.9-2.2,1.8
				c-0.7-0.1-1.3-0.5-1.9-0.6c-0.7-0.1-1.2-1.7-1.9-1.7c-0.7-0.1-1.3-0.6-2-0.6c-0.7,0-1.4-0.1-2-0.2c-0.7,0-1.4,1.2-2.1,1.2
				c-0.7,0-1.3-1-2-1c-0.7,0-1.3-0.1-2-0.1c-0.7,0-1.3,1.3-2,1.3c-0.7,0-1.3-0.8-2-0.8c-0.7,0-1.4-0.3-2-0.3s-1.3,1-2,1
				c-0.7,0-1.3,1-2,1c-0.7,0-1.4-1.5-2.1-1.5c-0.7,0-1.4-0.8-2-0.7c-0.7,0-1.3,0.3-2,0.3c-0.7,0-1.2,2.1-1.9,2.1
				c-0.7,0-1.3,0.4-2,0.4c-0.7,0-1.5-2.8-2.1-2.7c-0.7,0-1.2,2.9-1.9,3c-0.7,0-1.4-0.2-2-0.2c-0.7,0-1.4-0.9-2.1-0.9s-1.3,0.6-2,0.6
				c-0.7,0-1.4-1.4-2-1.4c-0.7,0-1.3-0.4-2-0.4c-0.7,0-1.3,2.1-1.9,2.1c-0.7,0-1.3,0.1-2,0.1c-0.7,0-1.3-0.9-2-0.9
				c-0.7,0-1.3-0.8-2-0.8s-1.3,0.6-2,0.6c-0.7,0-1.3,1.5-2,1.5c-0.7,0-1.3-0.7-2-0.7c-0.7,0-1.3-1.5-2-1.5c-0.7,0-1.3,0.4-2,0.4
				c-0.7,0-1.4,1.8-2,1.8c-0.7,0-1.2-2.7-1.9-2.7c-0.7,0-1.4,1.9-2,1.8c-0.7,0-1.3-0.4-2-0.4c-0.7,0-1.3-0.6-2-0.6
				c-0.7,0-1.4,1.4-2,1.4c-0.7,0-1.2-2.6-1.9-2.6c-0.7,0-1.3,0.1-2,0.1c-0.7,0-1.4,1.8-2.1,1.8s-1.3,0.1-2,0c-0.7,0-1.3-0.8-1.9-0.8
				c-0.7,0-1.3-0.3-2-0.3c-0.7,0-1.4,0.6-2,0.6c-0.7,0-1.3-1-1.9-1.1c-0.7,0-1.4,0.5-2,0.5s-1.3-0.2-2-0.3c-0.7,0-1.3,0.4-2,0.3
				c-0.7,0-1.3-0.2-2-0.3s-1.2-2-1.8-2.1c-0.7,0-1.4,1.7-2.1,1.7s-1.2-1.1-1.9-1.2c-0.7,0-1.5,1.8-2.1,1.7c-0.7,0-1.3-0.3-2-0.4
				c-0.7,0-1.2-2-1.8-2.1c-0.7,0-1.3-0.2-2-0.3c-0.7,0-1.4,0.3-2,0.3c-0.7,0-1.4,0.8-2,0.7c-0.7,0-1.4,0.4-2,0.4
				c-0.7,0-1.3-0.2-2-0.2c-0.7,0-1.2-2-1.9-2c-0.7,0-1.4,0.9-2,0.9c-0.7,0-1.4,1.4-2.1,1.4c-0.7,0-1.2-1.3-1.9-1.3s-1.3,0.3-2,0.3
				c-0.7,0-1.3,0-2,0c-0.7,0-1.4,0.8-2,0.8c-0.7,0-1.2-2.9-1.8-2.9c-0.7,0-1.4,0.6-2,0.6s-1.3,0.2-2,0.1c-0.7,0-1.3-0.5-2-0.6
				c-0.7,0-1.3-0.3-2-0.3c-0.7,0-1.3,0.6-2,0.5c-0.7,0-1.3-0.3-2-0.3c-0.7,0-1.3,0.3-2,0.3c-0.7,0-1.3-0.6-2-0.6
				c-0.7,0-1.4,1.9-2,1.9c-0.7,0-1.3-1.6-1.9-1.6c-0.7,0-1.4,1.1-2,1.1c-0.7,0-1.3,0.7-2,0.6c-0.7,0-1.3-1.6-1.9-1.6
				c-0.7,0-1.3,0.4-2,0.4s-1.3-0.7-2-0.7c-0.7,0-1.3,0.6-2,0.6c-0.7,0-1.3-0.9-2-1c-0.7,0-1.3,0.7-2,0.7c-0.7,0-1.3,0.6-2,0.6
				c-0.7,0-1.3-0.9-2-0.9c-0.7,0-1.3,1.4-2,1.4c-0.7,0-1.3-2.1-2-2.1c-0.7,0-1.3,0.6-2,0.6c-0.7,0-1.3,1.3-2,1.3s-1.3-1.7-2-1.7
				c-0.7,0-1.3,2-2,2s-1.3-2.5-2-2.5c-0.7,0-1.3,1.4-2,1.4c-0.7,0-1.3,1.3-2,1.3c-0.7,0-1.3-2.8-2-2.8s-1.3,2.4-2,2.4
				c-0.7,0-1.3-0.8-2-0.8c-0.7,0-1.3,0-2,0c-0.7,0-1.3,1.1-2,1s-1.3-0.2-2-0.2c-0.7,0-1.3-2.4-2-2.4c-0.7,0-1.4,2-2,2
				s-1.3-0.6-2-0.6c-0.7,0-1.3-1.7-2-1.7s-1.4,2-2,2s-1.3-0.6-2-0.6s-1.3,0.5-2,0.5s-1.3,0-2,0s-1.3,0.2-2,0.2s-1.3-0.3-2-0.3
				s-1.3-1.6-2-1.6s-1.4,2-2,2s-1.3,0-2,0s-1.3-1.9-2-1.9c-0.7,0-1.3,0.3-2,0.3s-1.3-0.8-2-0.8s-1.4,1.3-2,1.3s-1.3-1.2-2-1.2
				c-0.7,0-1.3-0.2-2-0.2s-1.3,0.3-2,0.3c-0.7,0-1.3-0.4-2-0.4c-0.7,0-1.4,2.3-2,2.2s-1.3-1.5-2-1.5c-0.7,0-1.3,0.3-2,0.3
				s-1.3-0.6-2-0.6s-1.3,0.9-2,0.9c-0.7,0-1.3,0.1-2,0.1s-1.3-1.4-2-1.4s-1.4,2.1-2,2.1s-1.3-1.5-2-1.5s-1.4,1.4-2,1.4
				s-1.3,0.4-2,0.4s-1.3-2.1-2-2.1s-1.3,1-2,0.9c-0.7,0-1.3-0.4-2-0.4s-1.3,0.3-2,0.3c-0.7,0-1.3-1.5-2-1.5s-1.4,2.1-2,2.1
				s-1.3-1.8-2-1.9s-1.3,0.8-2,0.8s-1.3-0.4-2-0.4s-1.4,1.5-2,1.5s-1.3-0.6-2-0.7c-0.7,0-1.3-0.4-2-0.4s-1.4,1.4-2,1.4
				s-1.3-2.1-2-2.1c-0.7,0-1.3,0.6-2,0.6s-1.3,0.1-2,0s-1.3-0.8-2-0.8s-1.3,0.4-2,0.4s-1.3-0.5-2-0.5s-1.4,1.6-2,1.6s-1.3-1.2-2-1.2
				s-1.3-0.2-2-0.2s-1.3-0.1-2-0.1s-1.3,1-2,0.9s-1.3-1.6-2-1.6s-1.3-0.1-2-0.1s-1.4,1.9-2,1.9s-1.3,0.7-2,0.7s-1.3-2.5-2-2.5
				c-0.7,0-1.3,0.7-2,0.7s-1.3,0.8-2,0.8c-0.7,0-1.3,0.2-2,0.2c-0.7,0-1.3-1.6-2-1.6s-1.4,2.2-2,2.2c-0.7,0-1.3-0.5-2-0.5
				c-0.7,0-1.3-2.2-2-2.2s-1.4,0.8-2,0.8c-0.7,0-1.3-0.1-2-0.1c-0.7,0-1.4,1.5-2,1.5c-0.7,0-1.3-1.2-2-1.2c-0.7,0-1.4,0.5-2,0.5
				s-1.3-1.6-2-1.7c-0.7,0-1.3-0.1-2-0.2s-1.4,1.8-2.1,1.8c-0.7,0-1.3-1.5-2-1.5c-0.7,0-1.3-0.1-2-0.2s-1.4,1.5-2.1,1.5
				c-0.7,0-1.4,0.5-2,0.5c-0.7,0-1.3-1.7-1.9-1.7c-0.7,0-1.3-0.6-2-0.7c-0.7,0-1.3-0.2-2-0.3c-0.7,0-1.4,0.4-2,0.3s-1.4,0.8-2.1,0.7
				s-1.4,1-2.1,0.9c-0.7-0.1-1.3-0.7-2-0.8c-0.7-0.1-1.2-1.4-1.9-1.4c-0.7-0.1-1.5,1.8-2.2,1.7c-0.7-0.1-1.2-1.7-1.8-1.8
				c-0.7-0.1-1.3-0.3-2-0.3c-0.7-0.1-1.3-0.6-1.9-0.7c-0.7-0.1-1.6,1.6-2.2,1.5c-0.7-0.1-1.2-1.1-1.9-1.2c-0.7-0.1-1.3-0.1-2-0.2
				c-0.7-0.1-1.4,0.5-2.1,0.4c-0.7-0.1-1-2.2-1.6-2.4c-0.6-0.1-1.5,1.2-2.1,1.1c-0.6-0.1-1.2-0.5-1.8-0.6c-0.6-0.1-1.2-0.5-1.8-0.6
				c-0.6-0.1-1.5,1-2.1,0.9c-0.6-0.1-1.2-0.3-1.9-0.4c-0.6-0.1-1.1-1.7-1.7-1.7c-0.6-0.1-1.3,0.5-2,0.4c-0.6,0-1.3-0.2-1.9-0.2
				c-0.6,0-1.3-0.9-2-0.8c-0.6,0-1.3,0.8-1.9,0.9c-0.6,0.1-1.2,0.7-1.9,0.8c-0.6,0.1-1.1,1.2-1.7,1.3c-0.6,0.1-1.4-0.5-2-0.4
				c-0.6,0.1-1.5-1.1-2.1-1c-0.6,0.1-1.2,0.8-1.8,0.9c-0.6,0.1-1.3-0.2-2-0.1c-0.6,0.1-1.3,0.2-1.9,0.2c-0.6,0.1-1.1,1.8-1.8,1.9
				c-0.6,0.1-1.4-1.9-2.1-1.9c-0.6,0-1.3,0.3-1.9,0.3c-0.6,0-1.2,1.4-1.9,1.4c-0.6,0-1.3-0.2-2-0.2c-0.6,0-1.3-1.4-2-1.4
				c-0.6,0-1.3,0.2-1.9,0.2c-0.7,0-1.4,2-2,2c-0.7,0-1.3-1.8-2-1.8c-0.7,0-1.4-0.2-2-0.2c-0.7,0-1.4,0-2,0c-0.7,0-1.4,0.3-2,0.3
				c-0.7,0-1.4,0.7-2.1,0.7c-0.7,0-1.4,0.1-2,0.1c-0.7,0-1.3-0.7-2-0.8c-0.7,0-1.4-0.1-2-0.1c-0.7,0-1.3-1.3-2-1.4
				c-0.7,0-1.5,2.5-2.2,2.5c-0.7,0-1.3-1-2-1c-0.7-0.1-1.3-0.4-2-0.4c-0.7-0.1-1.5,1-2.2,1c-0.7-0.1-1-2.6-1.7-2.7
				c-0.7-0.1-1.5,1.3-2.2,1.2c-0.7-0.1-1.4,0.3-2.1,0.1c-0.7-0.1-0.9-2.3-1.6-2.4c-0.7-0.1-1.7,1.7-2.4,1.5
				c-0.7-0.1-1.1-1.4-1.7-1.6c-0.7-0.2-1.2-0.7-1.9-0.8c-0.7-0.2-1.3-0.3-2-0.5c-0.6-0.2-1.2-0.7-1.8-0.9c-0.6-0.2-2,1.5-2.6,1.3
				c-0.6-0.2-0.3-2.9-1-3.1c-0.6-0.3-1.8,0.8-2.4,0.6c-0.6-0.3-1.6,0.3-2.2,0.1c-0.6-0.3-0.4-2.2-1-2.5c-0.6-0.3-1.6,0.3-2.2,0
				c-0.6-0.3-0.9-1.2-1.5-1.5c-0.6-0.3-0.8-1.3-1.4-1.6c-0.6-0.3-2.1,1.1-2.7,0.8c-0.6-0.3-0.5-1.8-1.1-2.1
				c-0.6-0.3-0.8-1.2-1.4-1.6c-0.6-0.3-1.2-0.6-1.7-0.9c-0.6-0.3-2.1,0.9-2.6,0.5c-0.6-0.3-0.7-1.4-1.3-1.7
				c-0.6-0.4-1.1-0.7-1.7-1.1c-0.6-0.4-0.7-1.3-1.3-1.7c-0.6-0.4-1.4-0.3-2-0.6c-0.5-0.4-2,0.5-2.5,0.1c-0.5-0.4-0.6-1.4-1.2-1.8
				c-0.5-0.4-1.1-0.8-1.6-1.2c-0.5-0.4-1.5-0.2-2-0.6c-0.5-0.4-1.1-0.8-1.6-1.2c-0.5-0.4-0.8-1.1-1.4-1.5c-0.5-0.4-0.1-2-0.6-2.5
				c-0.5-0.4-2,0.3-2.5-0.1c-0.5-0.4-0.2-1.8-0.7-2.2c-0.5-0.4-1.1-0.8-1.6-1.2c-0.5-0.4-1-0.9-1.5-1.3c-0.5-0.4-1.4-0.3-1.9-0.7
				c-0.5-0.4,0.1-2-0.4-2.4c-0.5-0.4-1.2-0.6-1.6-1c-0.5-0.4-0.9-1-1.3-1.3c-0.5-0.4-0.9-0.9-1.4-1.3c-0.5-0.4-1.6,0.2-2.1-0.2
				c-0.6-0.4-0.9-1.3-1.6-1.7c-0.6-0.3-1.8,0.5-2.5,0.2c-0.7-0.3-1.4-0.4-2-0.6c-0.7-0.2-1.5,0-2.2-0.2c-0.7-0.2-0.6-2.9-1.3-3.1
				c-0.7-0.2-1.8,1.3-2.5,1.2c-0.7-0.2-1.2-0.7-1.8-0.9c-0.7-0.2-1.1-1.2-1.7-1.4c-0.7-0.2-1.5,0.4-2.2,0.2c-0.7-0.2-1-1.6-1.6-1.8
				c-0.7-0.2-1.4,0.1-2.1-0.1c-0.7-0.2-1.7,1.3-2.4,1.1c-0.7-0.2-1-1.5-1.7-1.7c-0.7-0.2-1.7,1.1-2.4,1c-0.7-0.2-0.8-2.2-1.5-2.4
				c-0.7-0.2-1.5,0.4-2.1,0.2c-0.7-0.2-1.1-1.2-1.7-1.4c-0.7-0.2-1.9,2-2.6,1.8c-0.7-0.2-1-1.5-1.7-1.6c-0.7-0.2-1.5,0.5-2.2,0.3
				c-0.7-0.2-1.2-0.7-1.9-0.9c-0.7-0.2-1.3-0.3-2-0.5c-0.7-0.2-1.4-0.1-2-0.3c-0.7-0.2-1-1.5-1.7-1.6c-0.7-0.2-1.3-0.6-1.9-0.7
				c-0.7-0.2-1.4-0.1-2-0.3c-0.7-0.2-1.8,1.6-2.4,1.5c-0.7-0.1-1-1.6-1.7-1.7c-0.7-0.1-1.6,0.8-2.2,0.7c-0.7-0.1-1.3-0.5-1.9-0.7
				c-0.7-0.1-1.3-0.3-2-0.4c-0.6-0.1-1.2-0.8-1.8-0.9c-0.6-0.1-1.2-0.8-1.8-0.9c-0.6-0.1-1.1-1.4-1.7-1.5c-0.6-0.1-1.4,0.6-2.1,0.5
				c-0.6-0.1-1.2-0.7-1.8-0.8c-0.6-0.1-1.3,0-2-0.1c-0.6-0.1-1.5,1.2-2.1,1.1c-0.6-0.1-1.1-2-1.7-2c-0.6-0.1-1.5,1.9-2.1,1.8
				c-0.7-0.1-1.2-1.8-1.8-1.8c-0.7,0-1.3-0.6-2-0.7c-0.7,0-1.4,1.8-2,1.8c-0.7,0-1.3-1.3-2-1.2c-0.7,0-1.3,2.3-1.9,2.3
				c-0.7,0-1.4-1.9-2-1.9c-0.7,0-1.3,0.8-1.9,0.9c-0.7,0-1.3,0.7-1.9,0.7c-0.7,0-1.3,0.3-1.9,0.4c-0.7,0.1-1.3-0.2-2-0.2
				c-0.7,0.1-1.4-1-2.1-0.9c-0.7,0.1-1.1,1.8-1.8,1.9c-0.7,0.1-1.4-0.9-2-0.8c-0.7,0.1-1.5-1.4-2.1-1.4c-0.7,0.1-1.1,1.8-1.8,1.9
				c-0.7,0.1-1.4-0.8-2-0.7c-0.7,0.1-1.2,1.9-1.8,1.9c-0.7,0.1-1.4-1.2-2.1-1.2c-0.7,0-1.4-1.1-2-1.1c-0.7,0-1.3-0.1-2-0.1
				c-0.7,0-1.2,2.3-1.9,2.3c-0.7,0-1.4-2-2-2c-0.7,0-1.3,2-1.9,2c-0.7,0-1.3-1.5-2-1.5c-0.7,0-1.5,1.5-2.1,1.5
				c-0.7-0.1-1.3-0.5-2-0.6c-0.7-0.1-1.2-1.1-1.9-1.2c-0.7-0.1-1.4,0.4-2.1,0.3c-0.7-0.1-1.4,0.2-2.1,0.1c-0.7-0.1-1.1-1.8-1.7-1.9
				c-0.7-0.1-1.5,0.8-2.2,0.7c-0.7-0.1-1.3-0.2-2-0.3c-0.7-0.1-1.4,0.3-2.1,0.2c-0.7-0.1-1.3-0.4-2-0.5c-0.7-0.1-1.2-1.6-1.9-1.7
				c-0.7-0.1-1.5,1.4-2.1,1.4c-0.7,0-1.3-1.1-2-1.1c-0.6,0-1.3,0.3-1.9,0.3c-0.6,0-1.2,1.4-1.9,1.5c-0.6,0-1.5-1.9-2.1-1.9
				c-0.6,0.1-1.3,0-2,0c-0.6,0.1-1.1,1.8-1.7,1.9c-0.6,0.1-1.5-0.9-2.1-0.8c-0.6,0.1-0.8,2.4-1.4,2.5c-0.6,0.1-1.2,0.3-1.8,0.4
				c-0.6,0.2-1.6-1.1-2.3-0.9c-0.6,0.2-1.4,0.1-2,0.3c-0.7,0.2-1.1,1.2-1.7,1.5c-0.7,0.2-1,1.2-1.7,1.5c-0.6,0.3-1.3,0.6-1.9,0.9
				c-0.6,0.3-1.2,0.8-1.8,1.1c-0.6,0.3-2-1.2-2.6-0.9c-0.7,0.2-0.8,1.8-1.5,2.1c-0.7,0.2-1.9-1.3-2.6-1.1c-0.7,0.2-1.2,0.7-1.9,0.9
				c-0.7,0.2-1.2,1-1.9,1.1c-0.7,0.1-1.3,0.6-2,0.7c-0.7,0.1-1.5,0.2-2.2,0.2c-0.7,0-1.5,0.5-2.2,0.5c-0.7,0-1.5,0.1-2.2,0
				c-0.7,0-1.3-2.3-2-2.4c-0.7-0.1-1.6,1.7-2.3,1.6c-0.7-0.1-1.5,0.7-2.3,0.6c-0.6-0.1-1.3-0.4-1.9-0.5c-0.6-0.1-1.3-0.6-1.9-0.7
				c-0.6-0.1-1.3-0.4-1.9-0.5c-0.6-0.1-1.1-1.5-1.7-1.6c-0.6-0.1-1.3,0.1-2,0c-0.6-0.1-1.1-1.2-1.7-1.3c-0.6-0.1-1.6,1.4-2.2,1.2
				c-0.6-0.1-1.1-0.9-1.8-1c-0.6-0.1-1.5,0.7-2.1,0.5c-0.6-0.1-1.1-1.3-1.7-1.4c-0.6-0.1-1.3-0.1-1.9-0.3c-0.6-0.2-1.4,0.2-2,0
				c-0.6-0.2-1.5,0.7-2.2,0.5c-0.6-0.2-1.2-0.6-1.8-0.8c-0.6-0.2-0.9-1.6-1.5-1.8c-0.6-0.2-1.4,0.1-2-0.1c-0.6-0.2-0.9-1.5-1.5-1.7
				c-0.6-0.2-1.6,0.7-2.2,0.5c-0.6-0.2-1.3-0.3-1.9-0.5c-0.6-0.2-1-1.1-1.6-1.3c-0.7-0.2-1.8,1-2.4,0.7c-0.7-0.2-0.6-2.4-1.3-2.7
				c-0.7-0.2-1.7,0.6-2.3,0.4c-0.7-0.2-1.2-0.8-1.9-1c-0.7-0.2-1.2-1.1-1.8-1.3c-0.7-0.2-1.5,0.2-2.2,0c-0.7-0.1-1.7,1.7-2.3,1.6
				c-0.7-0.1-1.1-2.8-1.8-2.9c-0.7,0-1.4,2.4-2.1,2.4c-0.7,0-1.4-1.1-2.1-1.1c-0.6,0.1-1.3,0-1.9,0.1c-0.6,0.1-1.2,0.4-1.8,0.6
				c-0.6,0.2-1.5-0.6-2.1-0.4c-0.6,0.2-1.1,0.8-1.7,0.9c-0.6,0.2-0.7,2.4-1.3,2.5c-0.6,0.2-1.3,0.2-1.9,0.3c-0.6,0.1-1.4,0-2,0.1
				c-0.6,0.1-1.4-0.7-2-0.6c-0.6,0-1.3,1.2-1.9,1.1c-0.6,0-1.2-1.7-1.9-1.8c-0.6,0-1.2-0.2-1.9-0.3c-0.6-0.1-1.2-0.2-1.9-0.3
				c-0.6-0.1-1.6,1.3-2.2,1.2c-0.6-0.1-0.8-2.1-1.4-2.3c-0.6-0.2-1.1-0.4-1.7-0.7c-0.6-0.2-0.9-0.8-1.5-1.1c-0.6-0.3-1-0.5-1.5-0.9
				c-0.5-0.4-1.1-0.8-1.6-1.1c-0.5-0.4-2.3,1.3-2.9,0.9c-0.6-0.3-0.9-1-1.4-1.4c-0.6-0.3-0.9-1-1.5-1.3c-0.6-0.3-1.6,0.3-2.1,0
				c-0.6-0.3-0.9-1-1.5-1.3c-0.6-0.3-1.3-0.1-1.9-0.3c-0.6-0.2-0.6-2.1-1.2-2.3c-0.6-0.2-1.1-1-1.7-1.2c-0.6-0.2-1.8,1.4-2.4,1.2
				c-0.6-0.2-1-1.4-1.6-1.5c-0.6-0.1-1.5,1.1-2.2,1c-0.6-0.1-1.3,0.2-1.9,0.1c-0.6-0.1-1-2.7-1.7-2.8c-0.7-0.1-1.5,2.4-2.1,2.4
				c-0.7,0-1.3-2.6-1.9-2.6c-0.7,0-1.2,2.7-1.9,2.7c-0.7,0-1.4-1.9-2.1-1.9c-0.7,0.1-1.3,0.4-1.9,0.4c-0.6,0.1-1.3,0.5-1.9,0.6
				c-0.6,0.1-1.1,1-1.8,1.1c-0.6,0.1-1.7-1.7-2.3-1.6c-0.6,0.1-1.3,0.4-1.9,0.5c-0.6,0.2-1.2,0.5-1.9,0.7c-0.6,0.2-1.3,0.3-1.9,0.5
				c-0.6,0.2-0.7,2.4-1.3,2.6c-0.6,0.2-2-2-2.6-1.8c-0.6,0.2-1.2,0.4-1.9,0.7c-0.6,0.2-0.7,2-1.3,2.2c-0.6,0.2-1.2,0.4-1.9,0.6
				c-0.6,0.2-1.5-0.4-2.1-0.2c-0.6,0.2-1.1,0.8-1.7,1s-0.9,1.3-1.5,1.5c-0.6,0.2-1.4,0.1-2.1,0.3s-1.4,0.1-2.1,0.3s-1.6-0.3-2.2-0.1
				s-1.2,0.7-1.8,1c-0.6,0.2-0.6,2.3-1.3,2.5c-0.6,0.2-1.8-0.8-2.4-0.6s-0.9,1.5-1.6,1.7s-2-1.6-2.7-1.4s-0.9,1.5-1.6,1.7
				c-0.6,0.2-1.5,0-2.1,0.3s-1.5,0-2.1,0.3s-0.9,1.6-1.5,1.9c-0.6,0.2-1.1,1-1.7,1.2c-0.6,0.2-1.2,0.6-1.9,0.8
				c-0.6,0.2-1.4,0.2-2,0.4c-0.6,0.2-1.7-0.9-2.4-0.7c-0.6,0.2-0.5,2.6-1.2,2.8c-0.6,0.2-2.1-2.1-2.7-1.9c-0.6,0.2-0.6,2.4-1.3,2.6
				c-0.6,0.2-1.8-1.2-2.4-1.1c-0.6,0.2-0.8,2.2-1.5,2.4c-0.7,0.2-1.9-2-2.5-1.9c-0.7,0.1-1.3,0.3-1.9,0.4c-0.7,0.1-1.2,1.7-1.9,1.8
				c-0.7,0.1-1.5,0.4-2.2,0.5c-0.7,0.1-1.7-0.9-2.4-0.8c-0.7,0.1-1.3,1.2-2,1.4c-0.7,0.1-1.7-1-2.4-0.8c-0.7,0.2-0.8,2.3-1.5,2.5
				c-0.7,0.2-1.7-0.7-2.4-0.5c-0.7,0.2-1.4,0.3-2.1,0.5c-0.7,0.2-1,1.6-1.6,1.8s-1.6-0.4-2.3-0.2c-0.6,0.2-1.2,0.7-1.8,0.9
				c-0.6,0.2-1.5-0.4-2.2-0.2c-0.6,0.2-0.7,2.3-1.3,2.5c-0.6,0.2-1.9-1.6-2.5-1.4c-0.6,0.2-1.1,1-1.8,1.2c-0.6,0.2-1.2,0.6-1.9,0.8
				c-0.6,0.2-1.4-0.1-2.1,0.1c-0.6,0.2-1.1,1.3-1.7,1.4c-0.7,0.2-1.6-1-2.3-0.9c-0.7,0.2-1.3,0.5-1.9,0.6c-0.7,0.2-1,1.4-1.7,1.6
				c-0.7,0.2-1.1,1.1-1.8,1.2c-0.7,0.1-1.6-1-2.3-0.9c-0.7,0.1-1.4-0.3-2.1-0.2c-0.7,0.1-1.4-0.3-2.1-0.1c-0.7,0.1-0.8,2.8-1.5,3
				c-0.7,0.1-1.3,0.3-2,0.4c-0.7,0.1-1.8-2.3-2.4-2.2c-0.7,0.1-1,2.2-1.6,2.3c-0.7,0.1-1.3,0.5-1.9,0.6c-0.7,0.1-1.7-2.2-2.4-2.1
				c-0.7,0.1-1.1,1.6-1.8,1.7c-0.7,0.1-1.2,0.8-1.9,0.9c-0.7,0.1-1.3,0.8-1.9,0.8c-0.7,0.1-1.6-1.9-2.3-1.8
				c-0.7,0.1-1.3,0.9-1.9,0.9c-0.7,0.1-1.2,1.5-1.9,1.5c-0.7,0.1-1.6-2.2-2.2-2.2c-0.7,0.1-1.3,0.5-2,0.5c-0.7,0.1-1.2,1.6-1.9,1.6
				c-0.7,0-1.3,0.1-2,0.1c-0.7,0-1.3,0.1-2,0.2c-0.7,0-1.4-1.4-2.1-1.4c-0.7,0-1.4-0.4-2-0.4c-0.7,0-1.3,0.3-2,0.3
				c-0.7,0-1.3,2.4-2,2.4c-0.7,0-1.4-1.8-2.1-1.8c-0.7,0-1.3,0.9-2,0.9c-0.7,0-1.3-1-2-1c-0.7,0-1.3-0.9-2-0.9c-0.7,0-1.4,2.2-2,2.2
				c-0.7,0-1.3-2-2-2c-0.7,0-1.4,2.5-2.1,2.4c-0.7,0-1.3-1.6-2-1.7c-0.7,0-1.4,0.2-2,0.2c-0.7,0-1.4,0.6-2.1,0.5
				c-0.7,0-1.4,0.5-2.1,0.5c-0.7,0-1.2-2-1.9-2c-0.7-0.1-1.3-0.1-2-0.1c-0.7-0.1-1.5,1.9-2.2,1.8c-0.7-0.1-1.3-0.8-2-0.8
				c-0.7-0.1-1.2-1-1.9-1.1c-0.7-0.1-1.5,0.9-2.1,0.8c-0.7-0.1-1.2-1.3-1.9-1.4c-0.7-0.1-1.3-0.4-2-0.5c-0.7,0-1.3,1.1-2,1.2
				c-0.7,0-1.4-1.5-2.1-1.5c-0.7,0-1.3,1.2-1.9,1.2c-0.7,0-1.4-0.5-2-0.5c-0.7,0-1.2,1.6-1.9,1.7c-0.7,0-1.5-2.1-2.1-2.1
				c-0.7,0-1.2,1.9-1.9,2c-0.7,0-1.3,0.5-2,0.5c-0.7,0-1.4-1.4-2.1-1.4c-0.7,0-1.3,1.4-1.9,1.5c-0.7,0-1.4-0.2-2-0.2
				c-0.7,0-1.4-1-2.1-1c-0.7,0-1.3,0.7-2,0.7c-0.7,0-1.4-1.3-2.1-1.3c-0.7,0-1.3,1.8-1.9,1.8c-0.7,0-1.3,0.2-2,0.2c-0.7,0-1.4-1-2-1
				c-0.7,0-1.3,0.1-2,0.2c-0.7,0-1.4-0.8-2-0.8c-0.7,0-1.3,0.2-2,0.2c-0.7,0-1.3,2.1-1.9,2.1c-0.7,0-1.4-0.4-2-0.3
				c-0.7,0-1.4-1.4-2.1-1.4c-0.7,0-1.3,1.4-2,1.4c-0.7,0-1.4-0.7-2-0.7c-0.7,0-1.4-1-2-1c-0.7,0-1.3,2.1-1.9,2.1
				c-0.7,0-1.4-0.8-2-0.7c-0.7,0-1.3,1.2-2,1.2c-0.7,0-1.4-1.5-2.1-1.5c-0.7,0-1.3,1.2-2,1.2c-0.7,0-1.4-0.9-2-0.8
				c-0.7,0-1.3,1.6-2,1.6c-0.7,0-1.4-0.6-2-0.6c-0.7,0-1.3,0.7-2,0.8c-0.7,0-1.4-1.5-2-1.5c-0.7,0-1.4-1.1-2-1.1
				c-0.7,0-1.3,0.8-2,0.8c-0.7,0-1.3,0.3-2,0.3c-0.7,0-1.3,0.9-2,0.9c-0.7,0-1.4-1-2-1c-0.7,0-1.4-0.7-2-0.7c-0.7,0-1.3,1.9-2,1.9
				c-0.7,0-1.3,0.2-2,0.2c-0.7,0-1.4-1.8-2-1.8c-0.7,0-1.3,1.8-2,1.8c-0.7,0-1.4-1.8-2-1.8c-0.7,0-1.3,2.4-2,2.4s-1.4-2.7-2-2.7
				c-0.7,0-1.3,0.5-2,0.5c-0.7,0-1.3,0.4-2,0.4c-0.7,0-1.3,1.6-2,1.6c-0.7,0-1.3-0.5-2-0.5c-0.7,0-1.4-1.9-2-1.9
				c-0.7,0-1.3,2.3-2,2.3c-0.7,0-1.3-0.8-2-0.8c-0.7,0-1.3,1.4-2,1.4c-0.7,0-1.3-0.4-2-0.4c-0.7,0-1.4-2-2-2c-0.7,0-1.3-0.1-2-0.1
				c-0.7,0-1.3-0.1-2-0.1c-0.7,0-1.3,1.7-2,1.7c-0.7,0-1.3-0.7-2-0.7c-0.7,0-1.3,0-2,0c-0.7,0-1.3-0.9-2-0.9c-0.7,0-1.3,0.8-2,0.8
				c-0.7,0-1.3,0.6-2,0.6c-0.7,0-1.3-0.7-2-0.7c-0.7,0-1.3,0.6-2,0.6c-0.7,0-1.3-0.3-2-0.3c-0.7,0-1.3,1.3-2,1.3
				c-0.7,0-1.3-2.2-2-2.2c-0.7,0-1.3,2.4-2,2.4c-0.7,0-1.3-1.6-2-1.6c-0.7,0-1.3,1.9-2,1.9c-0.7,0-1.3-1.4-2-1.4
				c-0.7,0-1.3,0.1-2,0.1c-0.7,0-1.3-0.3-2-0.3c-0.7,0-1.3,0-2,0c-0.7,0-1.3,0.4-2,0.4c-0.7,0-1.3-0.4-2-0.4c-0.7,0-1.3,1.1-2,1.1
				c-0.7,0-1.3-1.7-2-1.7c-0.7,0-1.3,0.8-2,0.8c-0.7,0-1.3-1.4-2-1.4c-0.7,0-1.3,1.2-2,1.2c-0.7,0-1.3,0.3-2,0.3
				c-0.7,0-1.3,1.3-2,1.3c-0.7,0-1.3-0.3-2-0.3c-0.7,0-1.3-0.2-2-0.2c-0.7,0-1.3-1.3-2-1.3s-1.3,0.7-2,0.7c-0.7,0-1.3,0.3-2,0.3
				c-0.7,0-1.3,0.6-2,0.6c-0.7,0-1.3-1.7-2-1.7c-0.7,0-1.3-0.9-2-0.9c-0.7,0-1.3,1.6-2,1.6c-0.7,0-1.3,1-2,1c-0.7,0-1.3-1.5-2-1.5
				c-0.7,0-1.3,0.8-2,0.8c-0.7,0-1.3-0.2-2-0.2c-0.7,0-1.3,0.6-2,0.6c-0.7,0-1.3-2.2-2-2.2c-0.7,0-1.3,0.6-2,0.6
				c-0.7,0-1.3,0.8-2,0.8c-0.7,0-1.3,0.2-2,0.2c-0.7,0-1.3-1.8-2-1.8c-0.7,0-1.3,1.3-2,1.3c-0.7,0-1.3-0.6-2-0.6
				c-0.7,0-1.3,0.2-2,0.2c-0.7,0-1.3-1-2-1s-1.4,1.5-2,1.5c-0.7,0-1.3-0.8-2-0.8c-0.7,0-1.3,0.6-2,0.6c-0.7,0-1.4,0.7-2,0.7
				c-0.7,0-1.3-1.3-2-1.3c-0.7,0-1.4,1.2-2,1.2c-0.7,0-1.3-2-1.9-2c-0.7,0-1.4,1.2-2,1.1c-0.7,0-1.3-1.5-1.9-1.5
				c-0.7,0-1.3,0.5-2,0.4c-0.7,0-1.4,1.5-2.1,1.5c-0.7,0-1.2-1.9-1.9-1.9c-0.7,0-1.5,2.3-2.1,2.3c-0.7,0-1.2-1.9-1.9-1.9
				c-0.7,0-1.4,0.5-2,0.5c-0.7,0-1.3,0.1-2,0.1c-0.7,0-1.3,0-2-0.1s-1.3-0.6-2-0.6c-0.7-0.1-1.3-0.8-1.9-0.9
				c-0.7-0.1-1.4,0.6-2.1,0.6c-0.7-0.1-1.3,0.1-2,0c-0.7-0.1-1.4,0.9-2.1,0.9c-0.7-0.1-1.2-1.1-1.9-1.2c-0.7-0.1-1.2-0.8-1.9-0.9
				c-0.7-0.1-1.2-0.9-1.9-1c-0.7-0.1-1.4,0.3-2,0.2c-0.7-0.1-1.5,1.2-2.2,1.1c-0.7-0.1-1.4,0.4-2.1,0.3c-0.7-0.1-1.2-0.8-1.9-0.9
				c-0.7-0.1-1.4,0.3-2.1,0.2c-0.7-0.1-0.9-2.6-1.6-2.7c-0.7-0.1-1.5,1-2.2,0.9c-0.7-0.1-1.3-0.5-1.9-0.6c-0.7-0.1-1.5,0.7-2.1,0.5
				c-0.7-0.1-1.2-1-1.8-1.1c-0.7-0.1-1.4,0.3-2.1,0.2c-0.7-0.1-1.4,0.3-2.1,0.1c-0.7-0.1-1.3-0.3-1.9-0.5c-0.6-0.1-1.1-1-1.8-1.1
				c-0.6-0.1-1-1.7-1.6-1.9c-0.6-0.1-1.4,0.3-2.1,0.2c-0.6-0.2-0.8,0.4-1.4,0.3c-0.3,0.9-0.5,0.8-0.5,1.8c0,1-1.5,1-1.5,2
				c0,1,0.5,1,0.5,2v65.5h1399.4V163.4z"/>
		</g>
	</g>
	<g id="XMLID_829_">
		
			<image style="overflow:visible;opacity:7.000000e-02;" width="6084" height="650" id="XMLID_44_" xlink:href="987191CC1D0202A2.png"  transform="matrix(0.24 0 0 0.24 -30.2918 41.633)">
		</image>
		<g id="XMLID_29_">
			<path id="XMLID_40_" class="st4" d="M1399.7,112.2c0-1,0-1,0-2c0-1-0.6-0.5-0.8-1.5c-0.6-0.2-0.2,1.4-0.8,1.2
				c-0.6-0.2,0.1-4.3-0.5-4.5c-0.6-0.2-1.6,0.7-2.2,0.5c-0.6-0.2-1.5,0.4-2.1,0.2c-0.6-0.2-0.4-2.8-1-3c-0.6-0.2-2.3,2.8-2.9,2.6
				c-0.6-0.2-0.5-2.5-1.1-2.7c-0.6-0.2-1.6,0.8-2.2,0.6c-0.6-0.2-1.5,0.3-2.1,0.1c-0.6-0.2-0.9-1.4-1.5-1.6c-0.6-0.2-1-1.2-1.6-1.4
				c-0.6-0.2-0.7-1.9-1.3-2.1c-0.6-0.2-2.3,2.8-2.9,2.6c-0.6-0.2-1.5,0.4-2.1,0.2c-0.6-0.2-0.5-3.6-1.1-3.7
				c-0.7-0.1-1.4-0.5-2.1-0.5c-0.7-0.1-1.6,1.8-2.2,1.8c-0.7,0-1.5-1.9-2.1-1.9c-0.7,0.1-1.5,0.2-2.2,0.4c-0.7,0.1-1.5,0-2.1,0.1
				c-0.7,0.1-0.9,2.1-1.6,2.2c-0.7,0.1-1.5-1.7-2.2-1.7c-0.7,0.1-1.2,0.2-1.9,0.2c-0.7,0-1.2,3.8-1.8,3.8c-0.7,0-1.3-1.9-2-1.9
				c-0.7,0-1.5,2.1-2.1,2c-0.7,0-1.2-1.9-1.9-1.9c-0.7-0.1-1.1-2-1.8-2c-0.7-0.1-1.4,0.5-2,0.4c-0.7-0.1-1.6,2.4-2.3,2.3
				c-0.6-0.1-1-2.4-1.6-2.4c-0.6-0.1-1.5,2.1-2.2,2c-0.6-0.1-1.1-1.7-1.7-1.7c-0.6-0.1-1.5,1.9-2.1,1.8c-0.6-0.1-1.3-0.2-1.9-0.2
				c-0.6-0.1-1.1-1.2-1.8-1.2c-0.6-0.1-1-1.9-1.7-2c-0.7-0.1-1.6,1.3-2.2,1.2c-0.7-0.1-0.9-3.2-1.6-3.3c-0.7-0.1-1.9,3.1-2.5,3
				c-0.7-0.1-0.9-2.5-1.6-2.7c-0.7-0.1-1.7,1.6-2.4,1.5c-0.7-0.2-1.3-0.6-2-0.8c-0.6-0.2-1.4,0.2-2,0c-0.6-0.2-0.1-3.8-0.7-4
				c-0.6-0.2-1.4,0.4-2,0.2c-0.6-0.2-1.7,1.3-2.3,1.2c-0.6-0.2-1-1.3-1.6-1.4c-0.7-0.2-1.6,0.5-2.3,0.4c-0.7-0.1-1.2-2-1.9-2.1
				c-0.7-0.1-1.7,2.3-2.4,2.2c-0.7-0.1-1.2-2.3-1.9-2.4c-0.7,0-1.4-0.3-2.1-0.3c-0.7,0-1.6,3.7-2.3,3.7s-1.3-3.6-2-3.7
				c-0.7,0-1.5,1.9-2.2,1.9c-0.7,0-1.2-1.6-1.9-1.7c-0.7-0.1-1.4,1.1-2.1,1c-0.7-0.1-1.4,0.2-2.1,0.1c-0.7-0.1-1.1-2.3-1.7-2.4
				c-0.7-0.1-1.3-0.5-1.9-0.6c-0.7-0.1-1.6,1.7-2.3,1.6c-0.7-0.1-1.8,2.2-2.4,2c-0.7-0.1-0.7-3.7-1.4-3.8c-0.7-0.1-1.6,1.3-2.3,1.2
				c-0.7-0.1-1.3-0.4-2-0.5c-0.7-0.2-1.3-0.5-1.9-0.7c-0.7-0.2-1.1-1.1-1.7-1.3c-0.7-0.2-1.9,2-2.6,1.8c-0.7-0.2-0.4-3.4-1.1-3.6
				c-0.6-0.2-2.2,2.4-2.8,2.2c-0.6-0.2-1-1.4-1.6-1.6c-0.6-0.2-2,1.5-2.6,1.3c-0.6-0.2-0.6-2.5-1.2-2.7c-0.6-0.2-0.7-2.1-1.3-2.3
				c-0.6-0.2-2,1.5-2.7,1.3c-0.6-0.2-0.8-1.8-1.5-2c-0.7-0.2-1.6,0.5-2.3,0.3c-0.7-0.2-1.5,0.2-2.1,0.1c-0.6-0.2-1.1-0.8-1.8-0.9
				c-0.6-0.1-0.9-2.7-1.6-2.8c-0.7-0.1-1.6,2.3-2.3,2.2c-0.7-0.1-1.4,1.7-2,1.6c-0.7,0-1.2-2-1.9-2c-0.7,0-1.3,1.5-2,1.5
				c-0.7,0-1.4-3.5-2-3.5c-0.7,0-1.3,0.1-2,0.2c-0.7,0-1.2,3.1-1.9,3.1c-0.7,0-1.3,0.7-2,0.7c-0.7,0-1.4-2.6-2-2.6
				c-0.7,0-1.3,1.1-2,1.1c-0.7,0-1.3-0.9-2-0.9c-0.7,0-1.5,1.5-2.1,1.4c-0.7-0.1-1.2-1.3-1.9-1.4c-0.7,0-1.3,2.3-1.9,2.3
				c-0.7,0-1.2-0.3-1.9-0.2c-0.7,0.1-1.7-3.6-2.4-3.5c-0.7,0.1-1.4,0.3-2,0.4c-0.7,0.1-1.5-0.3-2.2-0.2c-0.6,0.1-0.6,3.4-1.2,3.6
				c-0.6,0.2-1.3,0.1-2,0.2c-0.6,0.2-1,1.3-1.6,1.5c-0.6,0.2-2.2-2.4-2.8-2.2c-0.6,0.2-0.9,1.5-1.5,1.7c-0.6,0.2-1.7-0.7-2.3-0.5
				c-0.6,0.2-1.1,0.8-1.7,1.1c-0.6,0.2,0,3.5-0.6,3.8c-0.6,0.2-1.4-0.1-2.1,0.2c-0.6,0.2-2.7-3.2-3.3-2.9c-0.6,0.2,0.2,4-0.4,4.3
				c-0.6,0.2-2.7-3.1-3.3-2.8c-0.6,0.2-0.7,1.8-1.3,2.1c-0.6,0.2-1.3,0.3-1.9,0.5c-0.6,0.2-0.2,3.3-0.9,3.5c-0.6,0.2-2.4-3-3.1-2.8
				c-0.6,0.2-1,1.2-1.6,1.3c-0.6,0.2-1.5-0.6-2.1-0.4c-0.7,0.2-0.5,3.5-1.1,3.7c-0.7,0.2-2-2.9-2.7-2.7c-0.7,0.1-0.6,4.1-1.3,4.2
				c-0.7,0.1-1.9-3.3-2.6-3.2c-0.7,0.1-1.3,0.5-1.9,0.6c-0.7,0.1-1.4-1-2.1-1c-0.7,0.1-1.2,1.8-1.8,1.8c-0.7,0-1.4-0.5-2-0.5
				c-0.7,0-1.3,1.3-2,1.3c-0.7,0-1.3,0.1-2,0.1c-0.7,0-1.4,0.8-2,0.8c-0.7,0-1.3-2.9-1.9-2.9c-0.7,0-1.3,0.6-2,0.6
				c-0.7,0-1.5,1.8-2.1,1.8c-0.7,0-1.4,0.3-2,0.2c-0.7-0.1-1.2-1.2-1.9-1.3c-0.7-0.1-1.1-2-1.8-2c-0.7-0.1-1.7,3.3-2.4,3.3
				c-0.7-0.1-1.4,0.1-2.1,0.1c-0.7-0.1-0.9-3.7-1.5-3.8c-0.7-0.1-1.4,0.4-2.1,0.3c-0.7-0.1-1.7,2.8-2.4,2.7c-0.7-0.1-1.4,0-2-0.1
				c-0.7-0.1-1.1-1.7-1.8-1.8c-0.7-0.1-1.1-1.5-1.8-1.6c-0.7-0.1-1.4,0.1-2,0c-0.7-0.1-1.6,1.7-2.3,1.6c-0.7-0.1-1.4,0.3-2.1,0.2
				c-0.7-0.1-1.1-1.5-1.8-1.6c-0.7-0.1-1.2-1.3-1.8-1.4c-0.7-0.1-1.2-1.6-1.8-1.7c-0.7-0.1-1.7,2.9-2.4,2.8
				c-0.7-0.1-1.3-0.6-1.9-0.7c-0.7-0.1-1.4,0.6-2.1,0.5c-0.7-0.1-1.2-1.7-1.9-1.8c-0.7-0.1-1.5,1.5-2.1,1.4c-0.7,0-1.2-2.9-1.8-2.9
				c-0.7,0-1.4,1-2.1,1c-0.7,0-1.4,1.9-2.1,1.9c-0.7,0-1.3,0.2-2,0.2c-0.7,0-1.3-0.3-2-0.3c-0.7,0-1.4-2.4-2.1-2.4
				c-0.7,0-1.4,0.3-2,0.3c-0.7,0-1.4-0.8-2.1-0.7c-0.7,0.1-1.2,1.5-1.9,1.6c-0.7,0.1-1.3,0.2-2,0.3c-0.7,0.1-1.2,1.1-1.9,1.2
				c-0.7,0.1-1.7-1.5-2.3-1.4c-0.7,0.1-0.6,3.8-1.2,3.9c-0.7,0.1-1.9-2.3-2.6-2.1c-0.6,0.2-1.7-0.9-2.3-0.7c-0.6,0.2-0.4,3.3-1,3.5
				c-0.6,0.2-2.4-3.1-3-2.9c-0.6,0.2,0.3,4.8-0.3,5c-0.6,0.2-1.4,0.1-2,0.3c-0.6,0.2-1.2,0.8-1.8,1c-0.6,0.2-2.1-3.1-2.8-3
				c-0.7,0.2-1.3,0.3-2,0.4c-0.7,0.1-1.4-0.1-2.1-0.1c-0.7,0-1.3,1.2-2.1,1.2c-0.7,0-1.4,0-2.1,0c-0.7,0-1.5,1.6-2.2,1.6
				c-0.7,0-1.3,0.1-2,0.1c-0.7,0-1.3-0.4-2-0.4c-0.7,0-1.4,1.3-2,1.3s-1.3-3.7-1.9-3.7c-0.7,0-1.4,1.7-2,1.7c-0.7,0-1.4,1.8-2,1.8
				c-0.7,0-1.3-3.5-1.9-3.5c-0.7,0-1.3,0.1-2,0.1c-0.7,0-1.4,3.3-2.1,3.3c-0.7,0-1.3-4.3-1.9-4.4c-0.7,0-1.4,1.1-2,1.1
				c-0.7,0-1.4,1.1-2,1c-0.7,0-1.3,0.3-2,0.3c-0.7,0-1.4,1.2-2,1.2s-1.3-1-2-1s-1.3,0.5-2,0.5c-0.7,0-1.3-2.3-2-2.4
				c-0.7,0-1.3,0.3-2,0.3s-1.3,0.2-2,0.2c-0.7,0-1.4,1.7-2,1.6c-0.7,0-1.3,0.3-2,0.3c-0.7,0-1.3-3.3-1.9-3.3c-0.7,0-1.4,1.8-2,1.7
				c-0.7,0-1.3,0.2-2,0.2c-0.7,0-1.3-0.7-2-0.7c-0.7,0-1.3,0.6-2,0.6c-0.7,0-1.3,0-2,0c-0.7,0-1.4,1.3-2,1.3c-0.7,0-1.3,0.6-2,0.6
				c-0.7,0-1.3-1.9-2-2c-0.7,0-1.3-0.4-2-0.4c-0.7,0-1.4,1.4-2,1.4s-1.3-3.2-1.9-3.2s-1.4,2.9-2.1,2.9c-0.7,0-1.3-2.5-1.9-2.5
				c-0.7,0-1.4,1.6-2,1.5s-1.4,1.7-2,1.7c-0.7,0-1.3-3.2-1.9-3.2c-0.7,0-1.4,3.7-2.1,3.7c-0.7,0-1.3-2.7-1.9-2.7c-0.7,0-1.4,1-2,1
				s-1.4,1.4-2,1.4c-0.7,0-1.3-0.4-2-0.5c-0.7,0-1.3-3.4-1.9-3.4s-1.3,0.2-2,0.2c-0.7,0-1.4,1.7-2,1.7c-0.7,0-1.4,1.8-2,1.8
				c-0.7,0-1.3-0.2-2-0.2c-0.7,0-1.3-0.2-2-0.2c-0.7,0-1.3-2.6-1.9-2.6c-0.7,0-1.4,2.1-2,2.1c-0.7,0-1.3,0-2,0c-0.7,0-1.4,1-2,1
				c-0.7,0-1.3-1.1-2-1.1s-1.3-1-2-1c-0.7,0-1.3,0.5-2,0.5c-0.7,0-1.3-2-2-2c-0.7,0-1.4,2.2-2,2.2c-0.7,0-1.3-0.4-2-0.4
				c-0.7,0-1.3-0.2-2-0.3c-0.7,0-1.3-2.6-2-2.6s-1.4,1.6-2,1.6s-1.4,2.1-2,2c-0.7,0-1.3-0.9-2-0.9c-0.7,0-1.4,1.1-2,1.1
				s-1.3-2.2-2-2.2c-0.7,0-1.3-1.9-1.9-1.9c-0.7,0-1.4,4.5-2,4.5s-1.3-2.2-1.9-2.2c-0.7,0-1.3,0.4-2,0.4c-0.7,0-1.3,1.6-2,1.6
				c-0.7,0-1.3-1.5-1.9-1.5c-0.7,0-1.3-2.8-1.9-2.9c-0.7,0-1.4,3.1-2,3.1c-0.7,0-1.3,0.7-2,0.7c-0.7,0-1.3-0.9-2-0.9s-1.3,1.1-2,1.1
				c-0.7,0-1.3-1.5-1.9-1.5s-1.3,0.5-2,0.5c-0.7,0-1.3-1.5-1.9-1.5c-0.7,0-1.3-1.1-2-1.1c-0.7,0-1.3,0.7-2,0.6c-0.7,0-1.3,0.7-2,0.7
				c-0.7,0-1.3-0.4-2-0.4c-0.7,0-1.3-1.2-1.9-1.2c-0.7,0-1.3,1.2-2,1.2s-1.3,1.1-2,1.1c-0.7,0-1.4,1.3-2,1.3c-0.7,0-1.3-3.8-2-3.8
				c-0.7,0-1.4,2.7-2,2.7c-0.7,0-1.3,1.7-2,1.7c-0.7,0-1.3,0-2,0c-0.7,0-1.3-0.6-2-0.5c-0.7,0-1.5-2.8-2.2-2.7
				c-0.7,0.1-1.5-1-2.2-0.9c-0.7,0.1-1.4,0.2-2.1,0.3c-0.7,0.1-0.9,3.2-1.5,3.3c-0.7,0.1-1.8-2.3-2.4-2.2c-0.7,0.1-1.3,0.7-1.9,0.8
				c-0.7,0.1-0.8,2.7-1.4,2.9c-0.7,0.1-1.1,1.2-1.7,1.3c-0.6,0.2-2.1-3-2.7-2.8c-0.6,0.2-1.5-0.3-2.1-0.2c-0.6,0.2-0.4,3.9-1.1,4.1
				c-0.7,0.2-1.2,0.8-1.8,0.9c-0.7,0.2-2.3-4-3-3.8s-0.8,2.4-1.4,2.6c-0.7,0.2-1.7-1.5-2.4-1.4c-0.7,0.2-1.1,1.1-1.8,1.3
				c-0.7,0.2-0.5,3.7-1.2,3.8c-0.7,0.2-1.9-2.2-2.5-2.1c-0.7,0.2-1,1.8-1.6,1.9c-0.7,0.1-1.7-1.6-2.4-1.4c-0.7,0.1-1.1,1.3-1.7,1.5
				c-0.7,0.1-1.5-0.5-2.1-0.3c-0.7,0.1-0.8,2.6-1.4,2.7c-0.7,0.1-1.7-1.5-2.4-1.3c-0.7,0.1-1.5-0.4-2.1-0.2
				c-0.7,0.1-1.6-1.2-2.3-1.1c-0.7,0.1-0.8,2.5-1.5,2.7c-0.7,0.1-1.1,1.4-1.7,1.6c-0.7,0.1-1.5-0.6-2.2-0.5s-1.3,0.3-1.9,0.5
				c-0.7,0.1-1.1,1.4-1.7,1.6c-0.7,0.1-1.7-1.6-2.4-1.5c-0.7,0.1-1.6-1.2-2.3-1.1c-0.7,0.1-0.7,3.1-1.4,3.2
				c-0.7,0.1-1.5-0.8-2.2-0.6c-0.7,0.1-1.4-0.3-2.1-0.2s-1.3,0.1-2,0.3c-0.7,0.1-1.6-1-2.2-0.9c-0.6,0.1-0.9,2-1.6,2.1
				c-0.6,0.1-1.4-0.3-2.1-0.2c-0.6,0.1-0.7,3-1.3,3.1c-0.6,0.1-1.7-1.6-2.3-1.5c-0.6,0.1-1.7-1.7-2.4-1.6c-0.6,0.1-0.9,2.2-1.5,2.4
				s-0.8,2.5-1.5,2.6s-1.5-0.9-2.2-0.8c-0.7,0.1-1.8-2.2-2.5-2.1c-0.7,0.1-1.5-0.4-2.1-0.3c-0.7,0.1-0.6,3.5-1.3,3.6
				c-0.7,0.1-1,1.6-1.7,1.7s-1.6-1.2-2.3-1c-0.7,0.1-1.9-2.4-2.5-2.2c-0.7,0.1-0.6,3.8-1.2,4c-0.7,0.1-1.8-2.2-2.5-2.1
				c-0.7,0.1-1.4-0.2-2.1-0.1c-0.7,0.1-1.2,0.9-1.8,1c-0.7,0.1-1.7-1.4-2.3-1.3c-0.7,0.1-0.7,3.1-1.4,3.3c-0.7,0.1-1.7-1.7-2.3-1.5
				c-0.7,0.1-0.9,2.6-1.5,2.7c-0.7,0.1-1.8-2.3-2.5-2.2c-0.7,0.1-1.3,0.3-2,0.5c-0.7,0.1-1,2.2-1.6,2.3c-0.7,0.1-1,1.8-1.7,1.9
				c-0.7,0.1-1.4-0.3-2.1-0.2c-0.7,0.1-1.4-0.2-2-0.1c-0.7,0.1-1.3,0.1-2,0.2c-0.7,0.1-1.5-1.4-2.2-1.3c-0.7,0.1-1,2.6-1.6,2.7
				c-0.7,0.1-1.5-1.1-2.1-1.1c-0.7,0.1-1.5-1.6-2.2-1.5c-0.7,0.1-1,3.1-1.7,3.2c-0.7,0.1-1.6-3.1-2.3-3c-0.7,0.1-1.2,0.9-1.9,1
				c-0.7,0.1-1.3-0.2-2-0.1c-0.7,0.1-1.3-0.3-2-0.3c-0.7,0-1.2,2.2-1.8,2.3c-0.7,0-1.2,1.7-1.9,1.7c-0.7,0-1.6-4.4-2.3-4.4
				s-1.1,3.1-1.8,3.2s-1.4-1-2-1c-0.7,0-1.4-1.3-2-1.2c-0.7,0-1.2,3.1-1.8,3.1c-0.7,0-1.4-1.4-2-1.4c-0.7,0-1.4-1.8-2.1-1.7
				c-0.7,0-1.2,2.4-1.9,2.4c-0.7,0-1.2,1.6-1.9,1.7c-0.7,0-1.3-0.1-2-0.1c-0.7,0-1.4-2.4-2.1-2.4c-0.7,0-1.4-1-2-0.9
				c-0.7,0-1.2,1.8-1.9,1.9c-0.7,0-1.3,1.1-1.9,1.2c-0.7,0-1.4-1.6-2.1-1.5c-0.7,0-1.4-0.7-2-0.7c-0.7,0-1.3,0.4-2,0.4
				c-0.7,0-1.3,0.4-2,0.4c-0.7,0-1.3-1.8-1.9-1.8c-0.7,0-1.3,0.7-2,0.6c-0.7,0-1.4,1.3-2.1,1.3c-0.7,0-1.4,0.2-2,0.2
				c-0.7-0.1-1.6,1.9-2.2,1.8c-0.7-0.1-1.2-1.8-1.8-1.9c-0.7-0.1-0.9-2.9-1.6-3c-0.7-0.1-1.9,3.6-2.6,3.5c-0.7-0.1-1.3-0.5-2-0.6
				c-0.7-0.1-0.9-2.5-1.6-2.7c-0.7-0.1-1.8,2.1-2.5,2c-0.7-0.1-0.8-2.6-1.5-2.7c-0.7-0.1-1.9,2.5-2.6,2.4c-0.7-0.1-1.2-1-1.8-1.1
				c-0.7-0.2-1.2-0.7-1.9-0.8c-0.7-0.2-1.5,0.6-2.2,0.4c-0.7-0.2-1.4-0.1-2-0.3c-0.6-0.2-0.6-3.1-1.2-3.3c-0.6-0.2-0.9-1.7-1.6-1.9
				c-0.6-0.2-1.4,0.2-2.1,0c-0.6-0.2-2.1,2.6-2.8,2.5c-0.6-0.2-0.7-2.3-1.4-2.5c-0.7-0.2-1-1.6-1.6-1.8s-1.5,0.4-2.2,0.2
				c-0.7-0.2-1.5,0.4-2.2,0.2c-0.7-0.2-1.9,1.6-2.5,1.4c-0.7-0.2-0.5-3.4-1.2-3.5c-0.6-0.2-1.3-0.3-2-0.4c-0.6-0.2-1.7,1.5-2.4,1.4
				c-0.7-0.1-1.6,1.3-2.3,1.1c-0.7-0.1-1-1.7-1.7-1.8c-0.7-0.1-1.5,0.9-2.2,0.8c-0.7-0.1-0.8-3-1.5-3.2c-0.7-0.1-1.4,0-2-0.1
				c-0.7-0.1-1.5,1.2-2.2,1.1c-0.7-0.1-1.1-2.4-1.7-2.4c-0.7-0.1-1.3-0.4-2-0.5c-0.7-0.1-1.5,2.1-2.2,2.1c-0.7-0.1-1.2-1.7-1.9-1.8
				c-0.7,0-1.4,0.5-2,0.5c-0.7,0-1.5,2.8-2.1,2.8c-0.7,0-1.2-4.6-1.9-4.7c-0.7,0-1.4,3.9-2.1,3.9c-0.7,0-1.3-2.4-2-2.4
				c-0.7,0-1.3,1.7-2,1.7c-0.7,0-1.4-3.1-2.1-3.1c-0.7,0-1.3,2.1-1.9,2.1c-0.7,0-1.4-1.6-2.1-1.6c-0.7,0-1.2,2.1-1.9,2.2
				c-0.7,0.1-1.2,1.6-1.8,1.6c-0.7,0.1-1.6-2.4-2.2-2.3c-0.7,0.1-1.4-0.5-2.1-0.5c-0.7,0.1-1,2.4-1.7,2.4c-0.7,0.1-1.4-0.2-2.1-0.1
				c-0.7,0.1-1.3,0.1-2,0.3c-0.7,0.1-1.2,1.1-1.9,1.2c-0.7,0.1-1.8-3.2-2.5-3.1c-0.7,0.1-1.3,0.3-1.9,0.4c-0.7,0.1-1.2,0.5-1.9,0.6
				c-0.7,0-1.3-0.5-2-0.5c-0.7,0-1.4,2.5-2,2.5c-0.7,0-1.3-1.5-2-1.6c-0.7-0.1-1.7,2.9-2.4,2.8c-0.7-0.1-1.1-2.1-1.8-2.2
				c-0.7-0.1-1-2.2-1.7-2.4c-0.7-0.1-2.1,3.3-2.7,3.2c-0.7-0.1-0.7-3.1-1.4-3.3c-0.7-0.2-1.2-0.7-1.9-0.9c-0.7-0.2-1.5,0.5-2.2,0.3
				c-0.7-0.2-1.9,1.8-2.6,1.6c-0.7-0.2-1.5,0.3-2.2,0.1c-0.6-0.2-1-1.4-1.6-1.6c-0.6-0.2-0.5-3.4-1.1-3.5c-0.6-0.2-1.9,2-2.5,1.9
				c-0.6-0.2-1.6,1-2.3,0.9c-0.6-0.2-0.8-2.3-1.4-2.5c-0.6-0.2-1.3-0.2-2-0.3c-0.6-0.2-1.6,0.8-2.2,0.7c-0.6-0.2-1.1-1.1-1.8-1.3
				c-0.6-0.2-1.8,1.9-2.5,1.7c-0.6-0.2-0.9-1.8-1.6-1.9s-1-1.6-1.6-1.8c-0.6-0.2-1.6,1.1-2.3,0.9c-0.6-0.2-0.6-3.1-1.2-3.3
				c-0.6-0.2-2,2.4-2.7,2.3c-0.6-0.2-1.3-0.4-1.9-0.6c-0.6-0.2-1.1-1.1-1.7-1.3c-0.6-0.2-1-1.2-1.7-1.4c-0.6-0.2-1.9,1.6-2.5,1.4
				c-0.6-0.2-0.7-2.3-1.3-2.5c-0.6-0.2-1.1-1-1.7-1.2c-0.6-0.2-1.5,0.3-2.1,0.1c-0.6-0.2-0.9-1.4-1.5-1.6c-0.6-0.2-2.1,2.1-2.8,1.9
				c-0.6-0.2-1.3-0.1-2-0.4c-0.6-0.2-0.1-3.6-0.8-3.8c-0.6-0.2-1.9,1.3-2.5,1.1c-0.6-0.2-0.9-1.3-1.6-1.6c-0.6-0.2-1.2-0.5-1.9-0.7
				c-0.6-0.2-1.8,1.3-2.5,1.1c-0.6-0.2-1.4-0.1-2-0.3c-0.6-0.2-0.3-3.5-0.9-3.7c-0.6-0.2-2,2.1-2.7,1.9c-0.6-0.2-1.5,0.6-2.2,0.4
				c-0.6-0.2-1.5,0.5-2.1,0.4c-0.6-0.2-1.2-0.5-1.8-0.7c-0.6-0.2-0.3-4.1-1-4.2c-0.6-0.2-2.1,3.2-2.8,3.1c-0.6-0.1-1.1-1.1-1.7-1.2
				c-0.6-0.1-1.6,1.2-2.2,1.1c-0.6-0.1-0.7-3.5-1.3-3.6c-0.6-0.1-1.7,2-2.3,1.9c-0.7-0.1-1-2.4-1.6-2.5c-0.7-0.1-1.5,1.6-2.2,1.5
				c-0.7-0.1-1-2.9-1.7-3c-0.7-0.1-1.6,3.2-2.3,3.1c-0.7-0.1-1.1-2.7-1.8-2.8c-0.7,0-1.4,3.2-2.1,3.2c-0.7,0-1.3-0.4-1.9-0.4
				c-0.7,0-1.3-3.6-2-3.6c-0.7,0-1.4-0.3-2-0.3c-0.7,0-1.3,1.8-2,1.8c-0.7,0-1.4,0-2.1,0c-0.7,0.1-1,2.9-1.7,3
				c-0.7,0.1-1.4-0.5-2.1-0.4c-0.7,0.1-1.4-0.5-2.1-0.3c-0.7,0.1-1.2,0.7-1.9,0.9c-0.7,0.1-1.4-0.2-2.1,0c-0.7,0.1-1.4-0.2-2.1,0
				c-0.7,0.1-1.2,0.7-1.9,0.8c-0.7,0.2-1.1,1.3-1.7,1.5c-0.7,0.2-1.9-2-2.6-1.8c-0.7,0.2-0.7,2.6-1.3,2.8c-0.7,0.2-2.4-3.6-3.1-3.5
				c-0.7,0.2-0.8,2.3-1.4,2.5c-0.7,0.2-0.9,1.8-1.5,2c-0.6,0.2-1.4,0-2,0.2c-0.6,0.2-1.4,0.2-2,0.4c-0.6,0.2-1.7-0.8-2.3-0.6
				c-0.6,0.2-0.6,2.5-1.3,2.7c-0.6,0.2-1.6-0.5-2.2-0.3c-0.6,0.2-1.7-0.9-2.4-0.7c-0.6,0.2-1.4,0-2.1,0.2c-0.6,0.2-1.5-0.2-2.1,0
				c-0.6,0.2-0.6,2.8-1.2,3c-0.6,0.2-0.8,2-1.5,2.2c-0.7,0.2-1.3,0.5-1.9,0.7c-0.7,0.2-1.4,0-2.1,0.1c-0.7,0.2-2.2-2.7-2.8-2.6
				c-0.7,0.2-1,1.5-1.7,1.6c-0.7,0.2-1.7-1.1-2.3-1c-0.7,0.2-1.2,0.7-1.9,0.8c-0.7,0.1-1.2,0.6-1.9,0.7c-0.7,0.1-1.3,0.3-2,0.4
				c-0.7,0.1-0.9,2.5-1.6,2.6c-0.7,0.1-1.9-3.4-2.6-3.3c-0.6,0.1-1,1.2-1.7,1.2c-0.6,0-1.2,0-1.9,0c-0.7,0-1.4,3.5-2,3.5
				c-0.7,0-1.2-3.5-1.8-3.5c-0.7,0-1.3,0.7-2,0.7c-0.7,0-1.3-0.8-1.9-0.8c-0.7,0-1.4,0.7-2,0.7c-0.7,0-1.3,1.2-2,1.2
				c-0.7,0-1.2,0.6-1.9,0.6c-0.7,0-1.5-3.1-2.2-3c-0.7,0.1-1.3,1.1-1.9,1.2c-0.6,0.1-0.9,1.8-1.6,1.9c-0.6,0.2-0.7,1.6-1.3,1.8
				c-0.6,0.3-2.5-2.6-3.1-2.4c-0.6,0.2-1.3,0.2-1.9,0.4c-0.6,0.2-0.5,2.6-1.1,2.8c-0.6,0.2-1.5-0.1-2.1,0.1
				c-0.6,0.2-1.3,0.3-1.9,0.5c-0.6,0.2-0.7,2.7-1.3,2.8c-0.6,0.2-2.1-3-2.8-2.8c-0.6,0.2-1.3,0.4-1.9,0.5c-0.7,0.1-1.2,0.7-1.9,0.8
				c-0.7,0.1-1.2,0.6-1.9,0.7c-0.7,0.1-1.5-1-2.1-0.9c-0.7,0.1-1,2.1-1.7,2.2c-0.7,0.1-1.2,1.6-1.8,1.7c-0.7,0.1-1.6-2-2.2-2
				c-0.7,0.1-1.3,1.1-1.9,1.1c-0.7,0-1.3,0.1-2,0.1c-0.7,0-1.4-1.8-2.1-1.7c-0.7,0-1.3,1.7-1.9,1.7c-0.7,0-1.4-1.7-2-1.7
				c-0.7,0-1.3,1.1-2,1.1c-0.7,0-1.3-1.8-2-1.8c-0.7,0-1.4,3.5-2.1,3.4c-0.7,0-1.3-1.3-2-1.3c-0.7,0-1.3-0.1-2-0.1
				c-0.7,0-1.3-1.1-1.9-1.2c-0.7,0-1.2-1.2-1.9-1.2c-0.7-0.1-1.3-0.3-2-0.4c-0.7-0.1-1.6,2.8-2.3,2.7c-0.7-0.1-1.2-1.2-1.9-1.3
				c-0.7-0.1-1.4,0.7-2.1,0.7c-0.7-0.1-1.3-0.8-1.9-0.9c-0.7-0.1-1.2-1.2-1.9-1.3c-0.7-0.1-1.5,1.2-2.2,1.1
				c-0.7-0.1-1.1-1.6-1.8-1.7c-0.7-0.1-1.3-0.3-2-0.4c-0.7-0.1-1.2-0.7-1.9-0.8c-0.7-0.1-1.3,0-2-0.1c-0.7-0.1-1.2-0.9-1.9-1
				c-0.7-0.1-1.8,3.1-2.5,3c-0.7-0.1-0.8-3.3-1.5-3.4c-0.7-0.1-1.7,2-2.3,1.9c-0.7-0.1-0.9-2.8-1.6-2.9c-0.7-0.1-1.5,0.9-2.1,0.8
				c-0.7-0.1-1.8,2.9-2.5,2.8c-0.7-0.1-1.2-0.8-1.9-0.9c-0.7-0.1-1.1-1.5-1.8-1.6c-0.7-0.1-1.3-0.6-1.9-0.7
				c-0.7-0.1-1.1-1.5-1.8-1.6c-0.7-0.1-1.8,2.8-2.4,2.7c-0.7-0.1-0.9-2.8-1.6-2.9c-0.7-0.1-1.8,2.9-2.4,2.9
				c-0.7-0.1-0.8-4.2-1.4-4.3c-0.7-0.1-1.9,4.2-2.6,4.2c-0.7-0.1-1.2-1-1.9-1c-0.7-0.1-1.3-0.6-1.9-0.7c-0.7-0.1-1.4,0.6-2.1,0.5
				c-0.7-0.1-1.3-0.7-1.9-0.8c-0.7-0.1-1.3-0.7-1.9-0.8c-0.7-0.1-1.4,1.3-2.1,1.2c-0.7-0.1-1.1-3.1-1.8-3.2c-0.7,0-1.5,2.8-2.2,2.7
				c-0.7,0-1.2-2.2-1.9-2.2c-0.7,0-1.3-0.3-2-0.3c-0.7,0-1.3-0.3-2-0.3c-0.7,0-1.4,2.4-2,2.4c-0.7,0-1.3-0.8-2-0.8
				c-0.7,0-1.4-2.4-2.1-2.3c-0.7,0-1.3,2.5-2,2.6c-0.7,0-1.3,0.8-2,0.8c-0.7,0-1.4-1.8-2.1-1.8c-0.7,0-1.2,1.9-1.9,2
				c-0.7,0-1.4-1.3-2.1-1.2c-0.7,0-1.5-1.7-2.2-1.6c-0.7,0.1-1.4-0.1-2.1-0.1c-0.7,0.1-1,3.5-1.7,3.6c-0.7,0.1-1.3,0.3-2,0.3
				c-0.7,0.1-1.7-3.1-2.4-3.1c-0.7,0.1-1.2,1.8-1.9,1.9c-0.7,0.1-1.4-0.1-2.1,0c-0.7,0.1-1.3,0.9-1.9,0.9c-0.7,0.1-1.5-0.9-2.1-0.8
				c-0.7,0.1-1.1,2.7-1.7,2.7c-0.7,0.1-1.7-2.4-2.3-2.3c-0.7,0.1-1.3,0.8-1.9,0.8s-1.2,1.6-1.8,1.7c-0.7,0.1-1.5-1.6-2.2-1.5
				c-0.7,0.1-1.4-0.8-2.1-0.7s-1.2,1.3-1.9,1.4c-0.7,0.1-1.6-2-2.3-2c-0.7,0.1-1.2,1-1.9,1.1c-0.7,0.1-1.1,1.8-1.8,1.9
				c-0.7,0.1-1.5-0.8-2.1-0.8s-1.1,1.9-1.8,2c-0.7,0.1-1.7-2.7-2.3-2.6s-1.4-0.2-2-0.1s-1.3,0.5-2,0.6s-1.4-0.2-2.1-0.1
				s-1.3,0.1-2,0.2s-1.3,0.2-2,0.3c-0.7,0.1-1.2,1.7-1.8,1.8s-1.3,0.2-2,0.3c-0.7,0.1-1.1,1.8-1.8,1.9c-0.7,0.1-1.3,0.6-2,0.7
				c-0.7,0.1-1.8-4-2.5-3.9s-1.2,1.2-1.9,1.3s-1.2,1-1.9,1.1c-0.7,0.1-1.4-0.1-2,0c-0.7,0.1-1.2,1.6-1.8,1.7
				c-0.7,0.1-1.7-2.6-2.3-2.6c-0.7,0.1-1.1,2-1.8,2.1c-0.7,0.1-1.2,1.8-1.8,1.8c-0.7,0.1-1.3,0.3-2,0.4c-0.7,0.1-1.7-3.1-2.4-3.1
				c-0.7,0.1-1.3,0.9-1.9,0.9c-0.7,0.1-1.5-1.2-2.1-1.1c-0.7,0.1-1.2,0.8-1.9,0.9c-0.7,0.1-1,3.2-1.6,3.3c-0.7,0.1-1.5-1.7-2.2-1.6
				c-0.7,0.1-1.4-0.5-2-0.5c-0.7,0.1-1,3.6-1.6,3.7c-0.7,0.1-1.5-2.1-2.2-2.1c-0.7,0.1-1.2,1.2-1.9,1.2c-0.7,0-1.5-2-2.1-1.9
				c-0.7,0-1.3,0.4-2,0.5c-0.7,0-1.3,0.4-2,0.4c-0.7,0-1.4-1.8-2-1.8c-0.7,0-1.3,2.8-2,2.8c-0.7,0-1.3-3.1-2-3.1
				c-0.7,0-1.5,4.5-2.2,4.5c-0.7,0-1.3-1.4-2-1.5c-0.7,0-1.3-1.3-2-1.3c-0.7,0-1.3-1.3-2-1.4c-0.7,0-1.6,3-2.3,2.9
				c-0.7-0.1-1.1-3-1.8-3.1c-0.7-0.1-1.3-0.5-2-0.5c-0.7-0.1-1.6,2.5-2.3,2.5c-0.7-0.1-1.5,0.6-2.1,0.6c-0.7-0.1-1.2-1.8-1.9-1.9
				c-0.7-0.1-1.4,0.4-2.1,0.3c-0.7-0.1-1.4,0.4-2.1,0.3c-0.7-0.1-1-3.6-1.6-3.7c-0.7-0.1-1.8,3.4-2.5,3.3c-0.7-0.1-1-2.6-1.7-2.7
				s-1.3-0.1-2-0.2s-1.2-1.3-1.8-1.4s-1.8,3.8-2.5,3.7s-1-3.2-1.6-3.3c-0.7-0.1-1.3,0.1-2,0s-1.4,0.5-2.1,0.4
				c-0.7-0.1-1.4,0.3-2,0.2s-1.2-0.9-1.9-1s-1.3-0.2-2-0.3s-1.3-0.1-2-0.2s-1.6,2.1-2.2,2s-1.2-1.1-1.9-1.2s-1.5,1.4-2.2,1.3
				c-0.7-0.1-1.3-0.2-2-0.3s-1.3,0-2-0.1s-1.3-0.3-2-0.4c-0.7-0.1-1.3-0.5-1.9-0.6s-0.9-3.7-1.6-3.7s-1.6,1.9-2.2,1.8
				c-0.7-0.1-1.6,1.9-2.2,1.8c-0.7-0.1-0.8-4.5-1.5-4.6s-1.6,1.9-2.2,1.8c-0.4-0.1-1.1,0.3-1.9,0.3c-0.6,0-1.2,1.7-1.9,1.7
				c-0.6,0-1.3-1.3-1.9-1.3c-0.6,0-1.3-1-1.9-1.1c-0.7,0-1.1-1.3-1.8-1.3c-0.7-0.1-1.9,3.2-2.5,3.1c-0.8-0.2,0.8-1.8,0.5-2.1
				c-0.2,1-2.3-0.1-2.9,1v69.7h1400V112.2z"/>
		</g>
	</g>
	<g id="XMLID_826_">
		
			<image style="overflow:visible;opacity:7.000000e-02;" width="6084" height="640" id="XMLID_78_" xlink:href="987191CC1D0202A3.png"  transform="matrix(0.24 0 0 0.24 -30.2918 50.6992)">
		</image>
		<g id="XMLID_73_">
			<path id="XMLID_77_" class="st5" d="M-0.3,103.6c0.7,0,2.2,0.5,2.9,0.5c0.7,0,1.3,1.3,2,1.3c0.7,0,1.4-2.8,2.1-2.8
				c0.7,0,1.3,2.9,2,2.9c0.7,0,1.4,0.9,2,0.9c0.7,0,1.4-1,2.1-1c0.7,0,1.3,1.4,2,1.5c0.7,0,1.5-3.7,2.1-3.7c0.7,0,1.4-0.4,2.1-0.4
				c0.7,0,1.3,4.7,1.9,4.7c0.7,0,1.4-2.5,2.1-2.5c0.7,0,1.3,1.4,2,1.4c0.7,0,1.4,0.1,2,0.2c0.7,0,1.4-2.5,2.1-2.5
				c0.7,0,1.4-0.5,2.1-0.4c0.7,0,1.2,4.6,1.9,4.6c0.7,0,1.5-3.6,2.1-3.6c0.7,0,1.4-1.4,2.1-1.3c0.7,0,1.4-1.3,2.1-1.2
				c0.7,0,1.4,0.3,2.1,0.3c0.7,0,1.1,5.4,1.8,5.5c0.7,0,1.7-5,2.4-4.9c0.7,0.1,1.3,1.3,2,1.4c0.7,0.1,1.7-1.9,2.4-1.8
				c0.7,0.1,0.8,4.8,1.5,4.9c0.7,0.1,2-2.9,2.7-2.7c0.7,0.1,1,3.3,1.7,3.4c0.7,0.1,1.7-2.3,2.4-2.3c0.7,0.1,1.1,4,1.7,4
				c0.7,0,1.6-4.5,2.3-4.5c0.7,0,1.3,3.8,2,3.8c0.7,0,1.4-4.6,2.1-4.6c0.7,0,1.3,0.6,2,0.5c0.7,0,1.5,5,2.2,4.9
				c0.7,0,1.4,0.5,2.1,0.4c0.7,0,1.3-2.4,1.9-2.5c0.7,0,1.4,0.1,2.1,0.1c0.7,0,1.2-4,1.9-4c0.7,0,1.4,0.9,2.1,0.8
				c0.7,0,1.4,0.9,2.1,0.8c0.7,0,1.4-0.8,2.1-0.8c0.7,0,1.4,0.6,2.1,0.6c0.7,0,1.4,0.6,2.1,0.6c0.7,0,1.4-0.5,2.1-0.5
				c0.7,0,1.4-1.4,2.1-1.4c0.7,0,1.2,3.4,1.9,3.4c0.7,0,1.6-3.2,2.2-3.2c0.7,0,1,5.9,1.7,6c0.7,0,1.6-2.7,2.2-2.6
				c0.7,0.1,1.5-2,2.2-1.9c0.7,0.1,1.3,0.6,2,0.7c0.7,0.1,1.3,0.5,2,0.5c0.7,0.1,1.2,1.8,1.9,1.9c0.7,0.1,1.6-2.9,2.3-2.8
				c0.7,0.1,1.2,1.5,1.9,1.5c0.7,0.1,1.2,2.1,1.9,2.1c0.7,0.1,1.3,0.7,2,0.8c0.7,0,1.3,0.9,2,0.9c0.7,0,1.6-3.4,2.3-3.3
				c0.7,0,1.5-2.3,2.1-2.2c0.7,0,1.3-0.1,2-0.1c0.7,0,1.3,0.6,1.9,0.7c0.7,0,1.3,4.5,1.9,4.5c0.7,0,1.3-1.6,2-1.6c0.7,0,1.4,2.1,2,2
				c0.7,0,1.3-0.6,2-0.6c0.7,0,1.3-0.5,2-0.6c0.7,0,1.3-0.2,2-0.2c0.7-0.1,1-3.3,1.6-3.4c0.7-0.1,1.9,5,2.6,4.9
				c0.7-0.1,1.1-1.7,1.8-1.8c0.6-0.1,1.4-0.1,2-0.2c0.6-0.1,0.3-5,1-5.2c0.6-0.1,2.3,4.4,3,4.2c0.6-0.2,1-1.4,1.7-1.6
				c0.6-0.2,1.6,0.5,2.2,0.3c0.6-0.2,0.9-1.5,1.6-1.7c0.6-0.2,0.6-2.1,1.2-2.3c0.6-0.2,0.8-1.3,1.4-1.5c0.6-0.3,3,3.5,3.6,3.2
				c0.6-0.3,0.7-1.7,1.3-2c0.6-0.3,0.1-2.5,0.7-2.8c0.6-0.3,0.5-2.3,1.1-2.6c0.6-0.3,3,3.9,3.6,3.7c0.6-0.2,1.2,0,1.8-0.2
				c0.6-0.2,0.5-3.4,1.2-3.5c0.6-0.1,1.4,0.6,2.1,0.5c0.6-0.1,1.3,0,2-0.1c0.6-0.1,1.1-3.5,1.7-3.5c0.6,0,1.6,4.7,2.3,4.7
				c0.7,0,1.3-0.2,1.9-0.2c0.7,0,1.3-0.7,1.9-0.8c0.7,0,1.3-0.6,1.9-0.6c0.7-0.1,1.5,1.5,2.2,1.4c0.6-0.1,0.9-2.8,1.6-2.9
				c0.6-0.1,1-2.2,1.6-2.3s1.8,2.8,2.4,2.7c0.6-0.1,1.1-1.5,1.7-1.6c0.7-0.1,1.3-0.2,2-0.3c0.7-0.1,1.7,2.3,2.3,2.2
				c0.7-0.1,1-2.5,1.6-2.6c0.7-0.1,1.6,2.2,2.3,2.1c0.7-0.1,1.1-1.7,1.7-1.8c0.7-0.1,1.6,2.3,2.3,2.2c0.7-0.1,0.7-5,1.3-5.1
				c0.7-0.1,1.5,1.6,2.2,1.5c0.7-0.1,1.3-0.1,2-0.2c0.7-0.1,1.5,1.3,2.1,1.2c0.7-0.1,1.5,1.4,2.1,1.3c0.7-0.1,1.3,0.2,2,0.1
				c0.7-0.1,0.9-4.2,1.5-4.3c0.7-0.1,1.5,1.4,2.1,1.4c0.7-0.1,1.2-1.4,1.8-1.4c0.7-0.1,1.4,0.8,2.1,0.7c0.7-0.1,1.4,1.3,2.1,1.3
				c0.7-0.1,1.1-2,1.8-2.1c0.7-0.1,1.5,1.9,2.1,1.8c0.7-0.1,1.3,0.1,2,0.1c0.7-0.1,1.4,0.6,2,0.6c0.7,0,1.3-0.3,1.9-0.4
				c0.7,0,1.4,0.9,2,0.9c0.7,0,1-4.7,1.7-4.8c0.7,0,1.6,4.3,2.2,4.2c0.7,0,1.1-3.2,1.8-3.2c0.7,0,1.5,3.6,2.2,3.6
				c0.7,0,1.2-1.6,1.9-1.6c0.7,0,1.1-4.5,1.8-4.6c0.7,0,1.4,0.8,2.1,0.8c0.7,0,1.4,1.8,2.1,1.8c0.7,0,1.4,0.4,2,0.4
				c0.7,0,1.4,1.8,2.1,1.8s1.2-4.3,1.9-4.3c0.7,0,1.4,3.7,2.1,3.7c0.7,0,1.3-4.4,2-4.5c0.7,0,1.4,5.7,2,5.7c0.7,0,1.4-6.2,2-6.2
				c0.7,0,1.3,1.2,2,1.2c0.7,0,1.3,0.7,2,0.7c0.7,0,1.4-1,2.1-1c0.7,0,1.3,0.8,2,0.9c0.7,0,1.3,0.9,2,0.9c0.7,0,1.5-1.9,2.2-1.8
				c0.7,0.1,1,4.3,1.7,4.4c0.7,0.1,1.7-3.9,2.4-3.8c0.7,0.1,1,3.1,1.7,3.1c0.7,0.1,1.3,0.5,1.9,0.6c0.7,0.1,1.3,0.5,1.9,0.6
				c0.7,0.1,1.9-3.1,2.5-3c0.7,0.1,1.2,1.3,1.8,1.4c0.7,0.1,0.7,3.5,1.3,3.6c0.7,0.1,2-3.2,2.7-3c0.7,0.1,1.6-0.7,2.2-0.6
				c0.6,0.2,0.7,2.8,1.3,3c0.6,0.2,2-2.2,2.6-2c0.6,0.2,0.8,2.2,1.5,2.3c0.6,0.2,0.7,2.7,1.3,2.9s1.2,0.7,1.9,0.8
				c0.7,0.2,2.5-4.3,3.2-4.1c0.7,0.2,1.4,0.1,2,0.3c0.7,0.2,0.1,4.8,0.8,5c0.7,0.2,1.9-1.9,2.5-1.7s1.2,0.7,1.9,0.8s1.6-0.6,2.2-0.5
				c0.7,0.2,0.9,1.7,1.6,1.9c0.7,0.2,2.2-3.1,2.9-2.9c0.7,0.2,0.4,3.8,1,4c0.7,0.2,1.5-0.5,2.2-0.3c0.7,0.2,1.8-1.6,2.5-1.4
				c0.7,0.2,0.7,2.7,1.3,2.8c0.7,0.2,1,1.6,1.6,1.8c0.7,0.2,1.7-1.2,2.4-1c0.7,0.2,0.5,3.3,1.2,3.5c0.7,0.2,1.6-0.8,2.2-0.6
				c0.6,0.2,1.9-2,2.6-1.8s0.9,1.7,1.6,1.9c0.6,0.2,2-2.1,2.6-1.9c0.6,0.2,0.3,4.2,0.9,4.4c0.6,0.2,1.2,0.8,1.8,1s1.4-0.2,2.1,0
				c0.6,0.2,1.2,0.9,1.8,1c0.6,0.2,1.3,0.4,1.9,0.6s1.3,0.3,2,0.4c0.6,0.2,1.9-1.8,2.5-1.6c0.6,0.2,1.3,0.3,2,0.5s1.9-1.9,2.5-1.7
				c0.6,0.2,1.5-0.3,2.1-0.1c0.6,0.2-0.2,6,0.4,6.2s1.7-1.1,2.3-0.9c0.6,0.2,1.6-0.8,2.3-0.6c0.6,0.2,1.2,0.7,1.9,0.8
				c0.6,0.2,1.8-1.6,2.5-1.4c0.6,0.2,0.3,4.2,0.9,4.3c0.6,0.2,2-2.2,2.6-2c0.6,0.2,1.9-1.8,2.5-1.6c0.6,0.2,1.4,0.1,2,0.3
				c0.6,0.2,0.1,4.8,0.7,5c0.6,0.2,1.6-0.6,2.2-0.4c0.6,0.2,0.8,2.2,1.4,2.4c0.6,0.2,1.5-0.5,2.2-0.3c0.6,0.2,2.4-3.8,3.1-3.6
				c0.6,0.2,0.6,2.9,1.2,3c0.6,0.2,1,1.3,1.7,1.5c0.6,0.2,2.6-4.4,3.3-4.2c0.6,0.2,0.5,3.4,1.1,3.6c0.6,0.2,1.7-1.1,2.3-0.9
				c0.6,0.2,0.6,3.1,1.2,3.3c0.6,0.2,1.4-0.2,2.1,0c0.6,0.2,1.4-0.1,2.1,0.1c0.7,0.2,0.7,2.8,1.3,3c0.7,0.2,2.3-3.4,2.9-3.2
				c0.7,0.2,0.3,4.5,0.9,4.6c0.7,0.2,2.9-5.9,3.5-5.7c0.7,0.2,0.8,2.2,1.5,2.4c0.7,0.2,0.9,1.9,1.6,2.1c0.7,0.2,0.9,2,1.6,2.2
				c0.7,0.2,2.3-3.9,2.9-3.7c0.7,0.2,0.4,4.3,1,4.4c0.7,0.2,1.2,0.8,1.9,0.9c0.7,0.1,2.1-3.4,2.8-3.2c0.7,0.1,1.5-0.8,2.2-0.6
				c0.7,0.1,0.8,2.6,1.5,2.8c0.7,0.1,1.5-0.5,2.1-0.4c0.7,0.1,1.5-0.5,2.1-0.4c0.7,0.1,0.4,5,1,5.2c0.7,0.1,2.3-4.6,3-4.5
				c0.7,0.1,0.7,3.6,1.3,3.7c0.7,0.1,1.3,0.2,2,0.3c0.7,0.1,1,1.9,1.7,2c0.7,0.1,2.3-5.2,3-5.1c0.7,0.1,0.6,4.4,1.2,4.5
				c0.7,0.1,1.4-0.1,2.1,0c0.7,0.1,1.5-0.7,2.1-0.6c0.7,0.1,1.4-0.4,2.1-0.3c0.7,0.1,1.2,1.3,1.8,1.4c0.7,0.1,1.3,0.3,2,0.3
				c0.7,0.1,1.3,0.1,2,0.2s1.7-2.9,2.4-2.8c0.7,0.1,1.1,1.5,1.8,1.6c0.7,0.1,1.6-2,2.2-1.9c0.7,0.1,1.3,0.3,2,0.3
				c0.7,0.1,1.3-0.1,2,0c0.7,0.1,1.3,0.3,2,0.4c0.7,0.1,1.3,0.7,1.9,0.7c0.7,0.1,0.8,5,1.5,5.1c0.7,0.1,1.6-2.7,2.3-2.6
				c0.7,0.1,1.6-2.7,2.3-2.6c0.7,0.1,0.7,6.2,1.4,6.3c0.7,0.1,1.6-2.8,2.3-2.7s1.4-0.4,2.1-0.4c0.7,0.1,1.6-2.2,2.2-2.1
				c0.7,0.1,1.2,1.9,1.8,2c0.7,0.1,1.2,1.5,1.9,1.6c0.7,0.1,1.2,1.8,1.9,1.9c0.7,0.1,1.7-4.7,2.4-4.6c0.7,0.1,1.3,0,2,0.1
				c0.7,0.1,1,3.9,1.7,4c0.7,0.1,1.4-0.7,2.1-0.6c0.7,0,1.5-1.7,2.1-1.7c0.7,0,1.2,2.7,1.8,2.7c0.7,0,1.4-0.1,2,0c0.7,0,1.3,0.9,2,1
				c0.7,0,1.3,1.4,2,1.5c0.7,0,1.6-4.2,2.2-4.2c0.7,0,1.2,4,1.8,4c0.7,0,1.4-1.8,2.1-1.7s1.3,0.7,2,0.8s1.4-1.8,2.1-1.8
				c0.7,0,1.4-3.3,2.1-3.3c0.7,0,1.3,5.3,1.9,5.3c0.7,0,1.4-1.5,2-1.5s1.3-3.3,2-3.3c0.7,0,1.3,1.2,2,1.2c0.7,0,1.4,4.7,2,4.7
				s1.3-4.4,2-4.4c0.7,0,1.4,2.2,2,2.2c0.7,0,1.3-0.4,2-0.4c0.7,0,1.3-2.7,1.9-2.7c0.7,0,1.3-0.3,2-0.3c0.7,0,1.4,2.9,2.1,2.9
				c0.7,0,1.3-1.3,2-1.4c0.7,0,1.5,3.2,2.1,3.1c0.7,0,1.3-1.3,2-1.3c0.7,0,1.2-2.6,1.9-2.7c0.7,0,1.4,1.1,2.1,1.1
				c0.7,0,1.4,1.7,2.1,1.7c0.7,0,1.1-4.1,1.8-4.2s1.5,4,2.2,3.9c0.7,0,1.4,1.7,2.1,1.7c0.7,0,1.3-1.2,1.9-1.2s1-5.7,1.7-5.7
				c0.7,0,1.6,5.2,2.3,5.1c0.7,0,1.2-3,1.9-3c0.7,0,1.5,3,2.2,2.9s1.1-5,1.8-5c0.7,0,1.5,3.3,2.2,3.2s1.2-3.1,1.9-3.2
				c0.7,0,1.6,5.1,2.2,5.1c0.7,0,1.2-3.9,1.8-3.9c0.7,0,1.4,2.2,2.1,2.2c0.7,0,1.4,1,2,0.9c0.7,0,1.1-4.9,1.8-5c0.7,0,1.5,4,2.2,3.9
				c0.7,0,1.2-2.9,1.9-2.9c0.7,0,1.4,2.3,2.1,2.3s1.3,0,2,0c0.7,0,1.3-3.2,1.9-3.2s1.4,3.6,2.1,3.6c0.7,0,1.4,1.6,2,1.6
				s1.3-5.5,1.9-5.5c0.7,0,1.3-0.3,2-0.3c0.7,0,1.4,5.3,2,5.3s1.3-0.5,2-0.5c0.7,0,1.3,1.6,2,1.6c0.7,0,1.4-4.4,2.1-4.4
				c0.7,0,1.3-0.1,2-0.1c0.7,0,1.3,4.5,2,4.5c0.7,0,1.4-5.1,2-5.1c0.7,0,1.3-0.5,2-0.5c0.7,0,1.3,2.9,2,2.9c0.7,0,1.3-3.1,2-3.1
				c0.7,0,1.4,4.3,2,4.3c0.7,0,1.3-4.9,2-4.9c0.7,0,1.4,6,2,6c0.7,0,1.3-4.5,2-4.5c0.7,0,1.3,0.3,2,0.3c0.7,0,1.3-1.7,2-1.7
				c0.7,0,1.3,5.6,2,5.6s1.3-3.9,2-3.9c0.7,0,1.3,0.2,2,0.2c0.7,0,1.3,1.8,2,1.8c0.7,0,1.4-1.1,2-1.1c0.7,0,1.4-2.6,2.1-2.6
				c0.7,0,1.4,0,2,0.1c0.7,0,1.3,4.7,1.9,4.7c0.7,0,1.3,1,2,1.1c0.7,0,1.3,0.7,2,0.7c0.7,0,1.5-3.7,2.1-3.7c0.7,0,1.3,2.2,1.9,2.3
				c0.7,0,1.3,0.1,2,0.2c0.7,0,1.4-1.7,2.1-1.7c0.7,0,1.3,2.2,1.9,2.2c0.7,0,1.4-1.4,2.1-1.3c0.7,0,1.4,0.1,2,0.1
				c0.7,0,1.2,2.7,1.8,2.7c0.7,0.1,1.8-4.6,2.4-4.6c0.7,0.1,0.9,4.5,1.6,4.6c0.7,0.1,1.4-0.5,2.1-0.4c0.7,0.1,2-5.3,2.7-5.2
				c0.7,0.1,1.2,1.7,1.9,1.7c0.7,0.1,1.1,1.9,1.8,2c0.7,0.1,1.1,2.4,1.7,2.5c0.7,0.1,1.5-1.2,2.2-1.1c0.7,0.1,1.4-0.4,2.1-0.3
				c0.7,0.1,1.3,0.9,1.9,0.9c0.7,0.1,1.7-2.7,2.4-2.6c0.7,0.1,1.1,1.9,1.8,2c0.7,0.1,1.4-0.2,2.1-0.2c0.7,0.1,1.2,1.1,1.9,1.1
				c0.7,0.1,1.4,0,2,0.1c0.7,0.1,1.7-3.4,2.3-3.4c0.7,0.1,0.9,4.9,1.6,5c0.7,0.1,1.7-4.7,2.4-4.7c0.7,0.1,1.1,2.6,1.8,2.7
				c0.7,0,1.2,1.9,1.9,2c0.7,0,1.4,0,2,0c0.7,0,1.5-1.8,2.1-1.8s1.5-2.4,2.2-2.4c0.7,0,1.1,4.1,1.8,4.1c0.7,0,1.4-1.7,2.1-1.6
				s1.3,0.7,2,0.8c0.7,0,1.3,1.2,2,1.2s1.3,1.5,2,1.5s1.4,0.2,2,0.2c0.7,0,1.4-4.9,2.1-4.9s1.3,2,2,2c0.7,0,1.3,1.8,2,1.8
				c0.7,0,1.4-0.7,2-0.7c0.7,0,1.3-1.7,2-1.7c0.7,0,1.4,0.8,2,0.8c0.7,0,1.3-0.3,2-0.3c0.7,0,1.4,1.8,2.1,1.8c0.7,0,1.2-4.5,1.9-4.5
				c0.7,0,1.4,1.8,2.1,1.8c0.7,0,1.3-0.1,2-0.1s1.5,2.9,2.2,2.8c0.7,0,1.1-4.6,1.8-4.6c0.7,0,1.7,5.6,2.3,5.6c0.7,0,1.3-0.9,2-0.9
				c0.7,0,1-4.9,1.7-5s1.6,3.9,2.3,3.8c0.7,0,1.2-2,1.9-2c0.7-0.1,1.2-2.7,1.8-2.8c0.7-0.1,1.4,0.4,2.1,0.3c0.7-0.1,1.8,5.9,2.5,5.8
				c0.7,0,1-5.5,1.7-5.5c0.7,0,1.4,0.5,2.1,0.5c0.7,0,1.5,2.7,2.2,2.7c0.7,0,1.4,0.1,2,0.1c0.7,0,1.3-3.1,1.9-3.1
				c0.7,0,1.4,4.4,2.1,4.4c0.7,0,1.3-2.1,2-2.1c0.7,0,1.4-0.8,2.1-0.8c0.7,0,1.5-2.9,2.2-2.9c0.7,0,1.4,0.4,2.1,0.4
				c0.7,0.1,1,4,1.7,4.1c0.7,0.1,1.4-0.7,2.1-0.6c0.7,0.1,1.4-0.1,2.1,0c0.7,0.1,0.9,2.1,1.6,2.3c0.7,0.1,2.3-3.8,2.9-3.6
				c0.7,0.2,0.8,2.5,1.4,2.7c0.7,0.2,0.4,3.2,1,3.4c0.6,0.2,1.9-1.3,2.5-1.1c0.6,0.2,2-1.9,2.6-1.8c0.7,0.2,1.6-0.8,2.2-0.6
				c0.7,0.2,0.7,2.6,1.4,2.8c0.7,0.2,1.7-1.2,2.3-1.1c0.7,0.1,1.2,0.7,1.9,0.8c0.7,0.1,0.9,2.3,1.6,2.4c0.7,0.1,1.6-1.2,2.3-1.1
				c0.7,0.1,0.7,3,1.4,3.2c0.7,0.1,2.3-4,2.9-3.9c0.7,0.1,0,6,0.7,6.1c0.7,0.2,1.4-0.2,2.1-0.1c0.7,0.2,2.3-3.9,3-3.8
				c0.7,0.2,0.5,3.9,1.1,4.1c0.7,0.2,1.3,0.3,2,0.5c0.7,0.2,1.7-1.5,2.4-1.3c0.7,0.1,1.8-1.8,2.4-1.6c0.7,0.1,0.5,4.2,1.2,4.3
				c0.7,0.1,2-3.1,2.7-2.9c0.7,0.1,0.6,4.1,1.2,4.3c0.7,0.1,1.7-1.7,2.4-1.6c0.7,0.1,1,2,1.7,2.1c0.7,0.1,2.2-4.7,2.8-4.6
				c0.7,0.1,0.5,5.9,1.1,6c0.7,0.1,2.1-5,2.8-4.9c0.7,0.1,1.1,1.9,1.8,2c0.7,0.1,1.6-2.1,2.3-2c0.7,0.1,1.1,3,1.7,3.1
				c0.7,0.1,1.5-1.3,2.1-1.3c0.7,0,1.3,1.7,1.9,1.7c0.7,0,1.4-2.4,2.1-2.4c0.7,0,1.3,5.5,2,5.5c0.7,0,1.4-0.3,2.1-0.3
				c0.7,0,1.4-2,2-2c0.7,0,1.4-0.5,2-0.5c0.7,0,1.3-1.7,2-1.7c0.7,0,1.5,2.4,2.2,2.4c0.7,0,1.3-1.4,2-1.4c0.7,0,1.3-0.5,2-0.6
				c0.7,0,1.2-2.7,1.9-2.7c0.7,0,1.6,4.5,2.3,4.5c0.7,0,1.2-3.2,1.8-3.3c0.7,0,1.5,2.3,2.1,2.3s1.2-3,1.9-3c0.7,0,1.3-1,2-1
				c0.7,0,1.5,4.5,2.2,4.5c0.7,0,1.1-5.2,1.8-5.2c0.7,0,1.5,3.1,2.1,3.1s1.4,1.9,2.1,1.9c0.7,0,1.3-0.5,2-0.5s1.3-2.1,2-2.1
				c0.7,0,1.4,3.3,2.1,3.2c0.7,0,1.3-1.4,2-1.4c0.7,0,1.3-3.5,1.9-3.5c0.7,0,1.4,3.6,2.1,3.6s1.3-1.1,2-1.1c0.7,0,1.4,2.9,2,2.8
				c0.7,0,1.3-3,2-3c0.7,0,1.4,2.4,2,2.4c0.7,0,1.3-4.9,2-4.9c0.7,0,1.4,5,2.1,5c0.7,0,1.3,0.3,2,0.3c0.7,0,1.3-2.6,2-2.6s1.4,2,2,2
				c0.7,0,1.3-2.4,2-2.4s1.3-0.2,2-0.2c0.7,0,1.3-3.2,2-3.2c0.7,0,1.4,6,2.1,6c0.7,0,1.3-2.4,2-2.4c0.7,0,1.3-1.2,2-1.3
				c0.7,0,1.3-1.4,2-1.4c0.7,0,1.4,4.9,2.1,4.9c0.7,0,1.4,0.8,2,0.7c0.7,0,1.3-4.4,1.9-4.4c0.7,0,1.3,0.5,2,0.5c0.7,0,1.3-1.4,2-1.4
				c0.7,0,1.3-0.7,2-0.7c0.7,0,1.3,0.6,2,0.6c0.7,0,1.3-1.1,2-1.2c0.7,0,1.3,0.2,2,0.2c0.7,0,1.5,5,2.2,5c0.7,0,1.3,0,2-0.1
				c0.7,0,1.3-1.3,2-1.4c0.7,0,1.4,1.1,2.1,1.1c0.7,0,1.2-2.5,1.9-2.5c0.7,0,1.2-2.9,1.9-2.9c0.7,0,1.5,3.6,2.2,3.6s1.1-3.9,1.8-3.9
				c0.7,0,1.7,5.9,2.4,5.8c0.7,0,1.4,0.4,2.1,0.3c0.7,0,1-4.9,1.7-5c0.7-0.1,1.4,1.2,2.1,1.2c0.7-0.1,1.2-2,1.8-2.1
				c0.7-0.1,1.7,3.6,2.3,3.5c0.7-0.1,1.2-1.6,1.9-1.6c0.7-0.1,1.4,0.8,2.1,0.7c0.7-0.1,1-3.7,1.6-3.7c0.7-0.1,1.3,0.1,2,0
				c0.7-0.1,1.4,0.5,2.1,0.5c0.7-0.1,1.5,0.9,2.1,0.8c0.7-0.1,1.4,0.7,2.1,0.6c0.7-0.1,1.5,2.2,2.2,2.1c0.7-0.1,1.4,0.5,2.1,0.4
				c0.7,0,1.1-2.9,1.8-3c0.7,0,1.3-1.4,1.9-1.5c0.7,0,1.5,3.1,2.2,3.1c0.7,0,1.2-2.2,1.9-2.2c0.7,0,1.3-1.1,2-1.1
				c0.7,0,1.3-0.9,2-0.9c0.7,0,1.6,4.2,2.2,4.1c0.7,0,1.2-2.6,1.9-2.7c0.7,0,1.4,1.4,2.1,1.4c0.7,0,1.2-3.3,1.9-3.3
				c0.7,0,1.5,3.2,2.2,3.2c0.7,0,1.2-2.6,1.9-2.7c0.7,0,1.6,4.5,2.3,4.4c0.7,0,1.2-3.4,1.8-3.4c0.7,0,1.3-0.9,2-1s1.3-1.4,2-1.4
				s1.7,4.7,2.4,4.7c0.7,0,1.2-3.7,1.9-3.7c0.7,0,1.6,3.2,2.3,3.2c0.7,0,1.2-4.1,1.9-4.2c0.7,0,1.4-0.2,2.1-0.2
				c0.7,0,1.4-0.4,2.1-0.5s1.5,3.9,2.2,3.8c0.7,0,1.3-4.8,2-4.8s1.5,4.3,2.2,4.3c0.7,0,1.3-1.7,2-1.7c0.7,0,1.3-2.5,2-2.5
				c0.7,0,1.3,5.2,2,5.2c0.7,0,1.4-5.7,2-5.7c0.7,0,1.2,6.1,1.9,6.1c0.7,0,1.3-1.6,2-1.6c0.7,0,1.4-2.6,2.1-2.6c0.7,0,1.4-1.3,2-1.3
				c0.7,0,1.2,3.1,1.9,3.1c0.7,0,1.4-2.4,2.1-2.3c0.7,0,1.2,3.2,1.9,3.2c0.7,0,1.3,0.8,1.9,0.8c0.7,0,1.4-1.2,2-1.1
				c0.7,0,1.3,1.1,1.9,1.1c0.7,0,1.3,0.6,2,0.6c0.7,0,1.4-0.6,2-0.6s1.4-1.6,2.1-1.6s1.3,1.2,2,1.2c0.7,0,1.5-2.9,2.1-2.9
				c0.7,0,1.3,1,2,1c0.7,0,1.2,2.6,1.9,2.6s1.4-1.3,2.1-1.3c0.7,0,1.2,3.2,1.9,3.2c0.7,0,1.4-1.3,2.1-1.3s1.4-1.8,2.1-1.7
				s1.4-2.4,2.1-2.4c0.7,0,1.3,2,1.9,2.1c0.7,0,1.2,4,1.8,4c0.7,0,1.6-5,2.2-4.9c0.7,0,1.3,0.9,2,0.9s1.3-0.2,2-0.2
				c0.7,0,1.3,1.7,1.9,1.8c0.7,0,1.2,2.6,1.9,2.6s1.4-2.4,2.1-2.3s1.3,1.7,1.9,1.8c0.7,0,1.4-2.3,2.1-2.2c0.7,0,1.4-1.9,2.1-1.9
				c0.7,0,1.2,4,1.8,4c0.7,0,1.4-1.2,2.1-1.1c0.7,0,1.3,0.8,2,0.8s1.5-4.4,2.2-4.3c0.7,0,1.1,5.3,1.8,5.4c0.7,0,1.6-5,2.2-4.9
				c0.7,0,1.3,0.5,2,0.5c0.7,0,1.2,2.6,1.9,2.7c0.7,0,1.4-1.8,2.1-1.7c0.7,0,1.3,2,1.9,2.1c0.7,0,1.3,0.7,2,0.7c0.7,0,1.3,1.1,2,1.2
				c0.7,0,1.4,0,2.1,0.1c0.7,0,1.4-2.1,2.1-2.1c0.7,0,1.3-0.9,2-0.9c0.7,0,1.3-1.7,2-1.7c0.7,0,1.3-0.6,2-0.6c0.7,0,1.4,1.6,2.1,1.5
				c0.7,0,1.3,0.2,2,0.1c0.7,0,1.3-1.5,1.9-1.6c0.7,0,1.5,3.3,2.2,3.3c0.7,0,1.4,0.9,2.1,0.9c0.7,0,1.4,0.2,2,0.2
				c0.7,0,1.4,0.8,2.1,0.7c0.7,0,1-5,1.7-5.1s1.4,1,2.1,1c0.7,0,1.6,3.7,2.3,3.6c0.7,0,1.3-0.8,2-0.9c0.7,0,1.4,0.3,2,0.2
				c0.7,0,1.3-0.6,2-0.7c0.7,0,1.2-3.7,1.8-3.8c0.7,0,1.4-0.4,2-0.4c0.7,0,1.4,2.8,2.1,2.8c0.7,0,1.3-1.6,2-1.6c0.7,0,1.4,2.4,2,2.4
				c0.7,0,1.4-3.5,2.1-3.5c0.7,0,1.4-0.8,2.1-0.7c0.7,0,1.2,4.4,1.9,4.4c0.7,0,1.7-4.4,2.4-4.4c0.7,0,1,5.7,1.7,5.8
				c0.7,0.1,1.7-3.1,2.4-3c0.7,0.1,1.4,0.1,2.1,0.2c0.7,0.1,1.5-0.3,2.2-0.2c0.7,0.1,1.3,0.7,2,0.8c0.7,0.1,1.4,0.3,2.1,0.4
				c0.7,0.1,1.7-2.2,2.4-2.1c0.7,0.1,1.1,1.8,1.8,1.8c0.7,0.1,1.4-0.8,2.1-0.8c0.7,0.1,1.4-0.3,2-0.2c0.7,0.1,1,3.7,1.6,3.8
				s1.5-1.2,2.1-1.1c0.7,0.1,1.1,2.8,1.8,2.8s1.3,1.1,1.9,1.2c0.7,0.1,1.4-1.1,2.1-1.1s1.6-2.8,2.2-2.8c0.7,0.1,1,4.4,1.7,4.4
				c0.7,0,1.7-4.9,2.4-4.8c0.7,0,1.3-0.3,2-0.2c0.7,0,1.2,1.8,1.9,1.9c0.7,0,1.2,3.3,1.8,3.3c0.7,0,1.4-0.1,2,0s1.4-1.6,2.1-1.5
				s1.5-3.1,2.1-3c0.7,0,1.2,4.2,1.8,4.2c0.7,0,1.3,0.5,2,0.5c0.7,0,1.5-5.7,2.2-5.7c0.7,0,1.2,3.8,1.9,3.8c0.7,0,1.3,2.8,1.9,2.9
				c0.7,0,1.4-6,2.1-6s1.3,4.9,1.9,4.9s1.4-2.1,2-2.1c0.7,0,1.3,0.4,2,0.4c0.7,0,1.3-1.3,2-1.3c0.7,0,1.4,3.5,2,3.5
				c0.7,0,1.3-2,2-2.1c0.7,0,1.3-3.3,2-3.4s1.4,2.8,2,2.8c0.7,0,1.3-1.6,2-1.6c0.7,0,1.3-1.4,2-1.4c0.7,0,1.4,3.2,2.1,3.2
				c0.7,0,1.3-2.3,1.9-2.4c0.7,0,1.4,2.3,2.1,2.2c0.7,0,1.2-2.2,1.9-2.2c0.7,0,1.3-0.5,2-0.5c0.7,0,1.2-1.5,1.9-1.5
				c0.7,0,1.6,5,2.3,5s1.1-3.8,1.8-3.8c0.7,0,1.6,3.2,2.2,3.2c0.7,0,1.1-3.8,1.7-3.8c0.7,0,1.3-0.3,2-0.4c0.7-0.1,1.4,1.1,2.1,1
				c0.7-0.1,1.3-0.8,1.9-0.8c0.7-0.1,1.7,4.4,2.4,4.3c0.7-0.1,0.9-4.2,1.6-4.3c0.7-0.1,1.3-0.1,2-0.2c0.7-0.1,1.5,1.9,2.2,1.9
				c0.7-0.1,1.6,2.4,2.3,2.3s0.8-4.9,1.5-5c0.7-0.1,1.1-1.7,1.8-1.7c0.7-0.1,1.6,2.1,2.3,2c0.7-0.1,1.1-1.8,1.8-1.9s1.5,1.6,2.2,1.5
				c0.6-0.1,1.3-0.3,2-0.4c0.7-0.1,1.6,4.1,2.3,4.1c0.7,0,1.2,0,1.9,0c0.7,0,1.2-1.1,1.9-1.1c0.7,0,1.3-1.6,1.9-1.6
				c0.7,0,1.3,0.3,2,0.3c0.7,0,1.3-3.6,2-3.6c0.7,0,1.3-0.2,2-0.2c0.7,0,1.3,1.4,2,1.4c0.7,0,1.3,0.4,2,0.4c0.7,0,1.3,0.4,2,0.4
				c0.7,0,1.3,2,2,2c0.7,0,1.2-4.6,1.9-4.6c0.8,0,1.6,2.7,1.4,1.8c0.6-0.2,1-2.1,1.7-2.3c0.7-0.2,1.5-0.3,2.1-0.4
				c0.7-0.2,1.6,0.7,2.3,0.6c0.7-0.1,1.4,0,2.1-0.1c0.7-0.1,1.6,1.9,2.3,1.9c0.7-0.1,1.2-3.4,1.8-3.5c0.7,0,1.3,1.7,2,1.7v34.3H-0.3
				V103.6z"/>
		</g>
	</g>
</g>
</svg>
