<?xml version="1.0" encoding="utf-8"?>
<!-- Generator: Adobe Illustrator 19.0.0, SVG Export Plug-In . SVG Version: 6.00 Build 0)  -->
<svg version="1.1" id="Layer_1" xmlns="http://www.w3.org/2000/svg" xmlns:xlink="http://www.w3.org/1999/xlink" x="0px" y="0px"
	 viewBox="0 0 350 74" style="enable-background:new 0 0 350 74;" xml:space="preserve">
<style type="text/css">
	.st0{fill:#A31E22;}
</style>
<polygon id="XMLID_9508_" class="st0" points="349.2,72.1 331.5,72.3 314.1,72.2 296.7,71.3 279.3,72.2 261.8,71.2 244.4,72.4 
	227,71.6 209.6,72.5 192.2,72.3 174.8,72.6 157.3,72.6 139.9,71.8 122.5,71.3 105.1,72.4 87.7,71.3 70.2,71.7 52.8,71.2 35.4,71.7 
	18,71.9 1.1,71.6 9.1,54.5 17.7,37 8.9,19.6 0.5,2.1 18,1.4 35.4,2.3 52.8,2.7 70.2,1.4 87.6,2.1 105.1,1.6 122.5,2.2 139.9,2.2 
	157.3,2.2 174.7,2.1 192.1,2.7 209.6,1.7 227,1.8 244.4,1.4 261.8,1.8 279.2,2.8 296.7,2.8 314.1,2.7 331.5,1.6 349.5,1.8 
	340.2,19.4 332,37 340.5,54.5 "/>
</svg>
