<?xml version="1.0" encoding="utf-8"?>
<!-- Generator: Adobe Illustrator 19.1.0, SVG Export Plug-In . SVG Version: 6.00 Build 0)  -->
<svg version="1.1" id="Layer_1" xmlns="http://www.w3.org/2000/svg" xmlns:xlink="http://www.w3.org/1999/xlink" x="0px" y="0px"
	 viewBox="25 108 350 86" style="enable-background:new 25 108 350 86;" xml:space="preserve">
<style type="text/css">
	.st0{fill:#A31E22;}
</style>
<polygon id="XMLID_9508_" class="st0" points="374.2,192.9 356.5,193.1 339.1,193 321.7,191.9 304.3,193 286.8,191.8 269.4,193.3 
	252,192.3 234.6,193.4 217.2,193.1 199.8,193.5 182.3,193.5 164.9,192.5 147.5,191.9 130.1,193.3 112.7,191.9 95.2,192.4 
	77.8,191.8 60.4,192.4 43,192.7 26.1,192.3 34.1,171.9 42.7,151 33.9,130.2 25.5,109.3 43,108.5 60.4,109.6 77.8,110.1 95.2,108.5 
	112.6,109.3 130.1,108.7 147.5,109.5 164.9,109.5 182.3,109.5 199.7,109.3 217.1,110.1 234.6,108.9 252,109 269.4,108.5 286.8,109 
	304.2,110.2 321.7,110.2 339.1,110.1 356.5,108.7 374.5,109 365.2,130 357,151 365.5,171.9 "/>
</svg>
