<?xml version="1.0" encoding="utf-8"?>
<!-- Generator: Adobe Illustrator 19.1.0, SVG Export Plug-In . SVG Version: 6.00 Build 0)  -->
<svg version="1.1" id="Layer_1" xmlns="http://www.w3.org/2000/svg" xmlns:xlink="http://www.w3.org/1999/xlink" x="0px" y="0px"
	 viewBox="448 98.6 1400 167" style="enable-background:new 448 98.6 1400 167;" xml:space="preserve">
<style type="text/css">
	.st0{fill:#FEF8EC;}
</style>
<polygon id="XMLID_73_" class="st0" points="1848,265.4 1848,266 1848,252.8 1843.3,253.3 1839,252.8 1834.6,253.2 1830.4,252.9 
	1830.2,248 1830,243 1830.6,238.1 1830.5,233.1 1829.8,228.1 1830.4,222.9 1825.3,223.4 1820.4,223.2 1815.5,222.8 1810.5,223.4 
	1805.8,222.8 1806,218.5 1805.9,213.8 1805.1,209.2 1805.1,204.6 1805.6,200 1805.1,195.4 1805.8,190.6 1800.9,190.9 1796.2,190.9 
	1791.5,190.8 1786.7,190.7 1782,190.5 1777.3,191.1 1772.6,190.8 1767.9,190.3 1763.2,191.2 1758.5,190.3 1753.8,190.9 1749,190.9 
	1744.3,190.7 1739.6,190.9 1734.7,190.7 1734.6,195.5 1734.7,200.2 1735.1,205 1734.9,209.7 1734.6,214.4 1735,219.1 1734.8,223.7 
	1730.1,223.8 1725.2,224.2 1720.4,224 1715.6,223.9 1710.8,223.6 1706,223.8 1701.2,223.9 1696.6,223.6 1696.3,218.5 1695.8,213.1 
	1696.3,207.8 1691.6,207.7 1686.9,207.9 1682.3,208 1677.6,208 1672.9,207.3 1668.2,207.9 1663.6,207.5 1663.4,203 1663.3,198.3 
	1663.9,193.6 1663.4,188.9 1663,184.2 1663.6,179.5 1663.6,174.8 1663,170.2 1660.1,166.9 1657.1,163.4 1654.6,159.5 1651.5,156.1 
	1648.6,152.5 1645.5,149.1 1642.4,145.7 1638.9,142.6 1636,139.2 1631.9,138.6 1627.7,139.3 1623.4,139.4 1619.4,139.2 
	1615.6,142.4 1612.1,146 1608.4,149.3 1605.4,153.3 1601.6,156.7 1598,160.1 1594.9,164.1 1591,167.3 1587.2,170.7 1587.4,175.6 
	1587.5,180.4 1587.6,185.2 1587.5,189.9 1587.5,194.7 1587.7,199.5 1587.2,204.3 1587.2,209 1587.3,213.8 1587.6,218.6 
	1587.8,223.4 1587.4,228.1 1587.1,232.9 1587.4,237.7 1587.1,242.5 1587.6,247.2 1587.4,252 1587.1,256.8 1587.6,261.7 
	1582.6,261.2 1577.8,261.9 1572.9,262 1568,261.2 1563.2,262.1 1558.3,261.6 1553.4,261.4 1548.9,261.3 1548.4,256.5 1548,251.5 
	1548.1,246.4 1548.8,241.4 1548.2,236.6 1543.5,236.5 1538.4,236.4 1533.4,236.5 1528.3,236.3 1523.3,236.6 1518.2,236 
	1513.2,235.9 1507.9,236.6 1508.3,231.5 1507.8,226.8 1507.8,222 1508,217.3 1508.2,212.5 1508.5,207.7 1508.4,203 1508.1,198.2 
	1508.6,193.5 1508,188.7 1508.1,183.9 1508.2,179.2 1508.5,174.4 1508,169.7 1508,164.9 1507.9,160.1 1507.8,155.4 1508.1,150.6 
	1508.3,145.9 1508.2,141.1 1507.8,136.3 1507.9,131.6 1508.6,126.8 1507.7,122.1 1507.9,117.3 1508.3,112.5 1508.6,107.8 
	1508,103.1 1503.2,103.1 1498.3,102.9 1493.4,103.4 1488.5,103 1483.6,103.4 1478.7,103.3 1473.8,102.6 1468.9,103.2 1464,102.9 
	1459.1,103.5 1454.2,103.4 1449.3,103.3 1444.4,102.8 1439.5,103.1 1434.6,102.6 1429.7,103.1 1424.8,103.3 1419.9,102.6 
	1415,102.9 1410.3,103.3 1409.7,107.7 1409.8,112.5 1410.5,117.3 1410.1,122 1410.3,126.8 1410,131.5 1410.3,136.3 1410,141 
	1410,145.8 1409.9,150.5 1410.2,155.3 1409.7,160 1410.4,164.8 1410,169.5 1410,174.3 1409.7,179.1 1410.2,183.8 1409.9,188.6 
	1409.8,193.3 1409.7,198.1 1410,202.8 1410.1,207.6 1409.8,212.3 1410,217.1 1409.7,221.8 1410.1,226.6 1410,231.4 1410.5,236.1 
	1410.4,240.9 1410,245.6 1409.6,250.4 1410.1,255.2 1405,255.3 1399.9,255 1394.9,255.3 1389.9,255.4 1384.8,255.5 1379.7,254.7 
	1374.4,255.5 1374.9,250.8 1375.2,246.4 1375,241.9 1374.9,237.5 1375,233.1 1374.2,228.7 1375,223.5 1374.9,218.3 1375,212.9 
	1369.7,212.7 1364.8,213.1 1359.8,213.6 1354.8,213.1 1349.9,213.2 1349.5,219.9 1345.3,220 1340.7,220.4 1336.1,220.6 
	1331.6,220.2 1327,220.2 1322.6,220 1322.7,215.3 1322.2,210.4 1322.7,205.5 1322.8,200.6 1322.8,195.7 1322.2,191.1 1317.6,190.6 
	1312.7,191.2 1307.8,190.3 1302.9,190.7 1298.4,190.5 1298.4,186.1 1297.9,181.4 1298.2,176.7 1297.7,172 1298.2,167.3 
	1298.4,162.7 1297.9,158 1297.6,153.3 1297.6,148.6 1298,143.9 1293.2,143.8 1288.3,143.6 1283.4,144 1278.5,143.7 1273.6,144.3 
	1268.8,144.2 1263.9,143.5 1259,144 1254.1,144.3 1249.2,143.5 1244.3,143.5 1239.5,143.6 1234.6,144.2 1229.7,143.5 1224.8,143.6 
	1219.9,144.2 1215,144.1 1210.2,143.4 1205.3,143.5 1200.4,144 1195.5,143.4 1190.3,143.5 1191.1,148.5 1190.6,153.1 1190.3,157.8 
	1190.4,162.4 1190.3,167.1 1191,171.7 1190.8,176.3 1190.7,181 1190.2,185.6 1190.8,190.2 1190.4,194.9 1190.6,199.5 1190.5,204.2 
	1191,208.8 1190.4,213.4 1190.4,218.1 1191.1,222.7 1190.7,227.4 1190.7,232.1 1186.4,232.3 1181.9,232.2 1182,228.2 1182.2,224.4 
	1177.5,224.9 1172.9,224.4 1168.3,224.8 1163.6,224.7 1159,224.3 1154.5,224.6 1154.3,229.1 1154.5,233.9 1149.7,234.2 
	1145.1,234.2 1140.4,234 1135.8,233.3 1131.1,233.3 1126.5,233.9 1121.8,233.6 1117.2,234.2 1112.5,233.5 1107.9,233.8 1103,233.5 
	1102.9,237.6 1103.2,241.2 1096.6,241.6 1096.5,236.8 1097,232 1091.9,232.6 1087,231.7 1082.1,232.7 1077.2,232.6 1072.3,232.3 
	1067.4,231.8 1062.5,231.8 1057.6,232 1052.7,232.2 1047.8,232.4 1042.9,231.9 1038,232.3 1033.1,231.8 1028.2,231.8 1023.3,232.7 
	1018.4,231.8 1013.5,232 1008.6,232 1003.7,232.4 999.1,232.5 999.2,237.3 998.7,242.3 998.5,247.2 994.3,247.1 989.8,247.5 
	985.4,246.9 980.9,247.5 976.2,247.5 976.3,241 971.7,240.6 967.1,240.8 962.4,241.2 957.4,241.2 958.1,236.1 958.2,231.2 
	957.9,226.4 957.2,221.5 957.6,216.6 958,211.8 957.2,206.9 957.7,202 952.9,202.5 948.1,201.6 943.3,201.6 938.5,201.7 
	933.6,202.2 928.8,201.7 924,202 919.2,202.3 914.4,201.9 909.5,202.1 909.8,196.4 909.3,191.1 902.9,191.1 900.3,186.9 
	896.8,183.6 893.3,180.3 888.8,178.5 884.4,176.8 879.7,175.3 874.9,175 870.1,175.2 865,174.7 860.1,175.9 855.1,176.4 
	850.4,178.3 845.7,180.3 842,183.8 838,186.9 835,190.8 834.9,185.5 834.5,180.1 835.2,174.6 830.3,174.6 825.6,174.9 820.9,174.6 
	816.2,175.2 811.4,174.7 806.7,174.6 802,174.5 797.3,174.8 792.6,175.2 787.9,175.1 783.2,175 778.5,174.5 773.8,175.2 
	769.1,174.7 764.4,174.8 759.7,174.7 755,175.2 750.3,175.2 745.5,175.3 740.8,174.7 736.1,174.8 731.4,174.8 726.7,175.3 
	722,174.4 717.4,175 717.2,179.6 716.9,184.3 716.8,189.1 717.2,193.8 716.9,198.6 717.5,203.3 716.9,208.1 717,212.9 716.8,217.6 
	717,222.4 717.7,227.1 717.7,231.9 717.3,236.8 712.4,236.8 707.6,236.7 702.8,236.6 698,236.8 693.1,236.6 688.3,236.4 
	683.5,236.5 678.6,236.8 673.8,236.7 669,236.5 664.2,237 659.3,236.4 654.5,237.1 649.7,236.4 644.8,236.8 640,236.2 635,236.5 
	634.9,241.6 635.3,246.7 630.7,246.6 626.3,247 621.8,246.9 617,246.3 617.4,251.6 617.5,256.6 612.5,257 607.6,256.2 602.7,256.6 
	597.8,256.7 592.9,256.2 588,256.4 583.2,256.5 578.3,256.9 573.4,256.7 568.5,256.1 563.6,256.4 558.7,256 553.8,256.1 549,256.5 
	549.1,251.6 549.4,246.6 548.6,241.6 549.1,236.5 544.1,236.5 539.4,236.5 534.6,237 529.8,236.3 525,236.3 520.2,236.4 
	515.4,237.1 510.6,236.8 505.8,236.7 501,236.7 496.2,236.5 491.4,236.7 491.6,240.8 491.6,245.1 486.9,245 482.3,245 477.7,244.9 
	473.2,244.7 468.6,245 448,245.2 448,265.4 "/>
</svg>
