<?xml version="1.0" encoding="utf-8"?>
<!-- Generator: Adobe Illustrator 19.1.0, SVG Export Plug-In . SVG Version: 6.00 Build 0)  -->
<svg version="1.1" id="Layer_1" xmlns="http://www.w3.org/2000/svg" xmlns:xlink="http://www.w3.org/1999/xlink" x="0px" y="0px"
	 viewBox="520 113.5 1400 167" style="enable-background:new 520 113.5 1400 167;" xml:space="preserve">
<style type="text/css">
	.st0{fill:#FEF8EC;}
</style>
<polygon id="XMLID_1_" class="st0" points="1920,267.8 1915.3,268.3 1911,267.8 1906.6,268.2 1902.4,267.9 1902.2,262.9 1902,257.9 
	1902.6,252.9 1902.5,247.9 1901.8,242.8 1902.4,237.6 1897.3,238.1 1892.4,237.9 1887.5,237.5 1882.5,238.1 1877.8,237.5 
	1878,233.1 1877.9,228.4 1877.1,223.7 1877.1,219.1 1877.6,214.5 1877.1,209.8 1877.8,205 1872.9,205.3 1868.2,205.3 1863.5,205.2 
	1858.7,205.1 1854,204.9 1849.3,205.5 1844.6,205.2 1839.9,204.7 1835.2,205.6 1830.5,204.7 1825.8,205.3 1821,205.3 1816.3,205.1 
	1811.6,205.3 1806.7,205.1 1806.6,209.9 1806.7,214.7 1807.1,219.5 1806.9,224.3 1806.6,229 1807,233.7 1806.8,238.4 1802.1,238.5 
	1797.2,238.9 1792.4,238.7 1787.6,238.6 1782.8,238.3 1778,238.5 1773.2,238.6 1768.6,238.3 1768.3,233.1 1767.8,227.7 
	1768.3,222.3 1763.6,222.2 1758.9,222.4 1754.3,222.5 1749.6,222.5 1744.9,221.8 1740.2,222.4 1735.6,222 1735.4,217.5 
	1735.3,212.7 1735.9,208 1735.4,203.3 1735,198.5 1735.6,193.8 1735.6,189 1735,184.4 1732.1,181 1729.1,177.5 1726.6,173.6 
	1723.5,170.1 1720.6,166.5 1717.5,163.1 1714.4,159.6 1710.9,156.5 1708,153.1 1703.9,152.5 1699.7,153.2 1695.4,153.3 
	1691.4,153.1 1687.6,156.3 1684.1,159.9 1680.4,163.3 1677.4,167.3 1673.6,170.7 1670,174.2 1666.9,178.2 1663,181.4 1659.2,184.9 
	1659.4,189.8 1659.5,194.7 1659.6,199.5 1659.5,204.3 1659.5,209.1 1659.7,214 1659.2,218.8 1659.2,223.5 1659.3,228.4 
	1659.6,233.2 1659.8,238.1 1659.4,242.8 1659.1,247.7 1659.4,252.5 1659.1,257.4 1659.6,262.1 1659.4,267 1659.1,271.8 
	1659.6,276.8 1654.6,276.3 1649.8,277 1644.9,277.1 1640,276.3 1635.2,277.2 1630.3,276.7 1625.4,276.5 1620.9,276.4 1620.4,271.5 
	1620,266.5 1620.1,261.3 1620.8,256.3 1620.2,251.4 1615.5,251.3 1610.4,251.2 1605.4,251.3 1600.3,251.1 1595.3,251.4 
	1590.2,250.8 1585.2,250.7 1579.9,251.4 1580.3,246.3 1579.8,241.5 1579.8,236.7 1580,231.9 1580.2,227.1 1580.5,222.2 
	1580.4,217.5 1580.1,212.6 1580.6,207.9 1580,203 1580.1,198.2 1580.2,193.5 1580.5,188.6 1580,183.9 1580,179 1579.9,174.2 
	1579.8,169.4 1580.1,164.6 1580.3,159.8 1580.2,155 1579.8,150.1 1579.9,145.4 1580.6,140.5 1579.7,135.8 1579.9,130.9 
	1580.3,126.1 1580.6,121.4 1580,116.6 1575.2,116.6 1570.3,116.4 1565.4,116.9 1560.5,116.5 1555.6,116.9 1550.7,116.8 
	1545.8,116.1 1540.9,116.7 1536,116.4 1531.1,117 1526.2,116.9 1521.3,116.8 1516.4,116.3 1511.5,116.6 1506.6,116.1 1501.7,116.6 
	1496.8,116.8 1491.9,116.1 1487,116.4 1482.3,116.8 1481.7,121.3 1481.8,126.1 1482.5,130.9 1482.1,135.7 1482.3,140.5 1482,145.3 
	1482.3,150.1 1482,154.9 1482,159.7 1481.9,164.5 1482.2,169.3 1481.7,174.1 1482.4,178.9 1482,183.7 1482,188.5 1481.7,193.4 
	1482.2,198.1 1481.9,202.9 1481.8,207.7 1481.7,212.5 1482,217.3 1482.1,222.1 1481.8,226.9 1482,231.7 1481.7,236.5 1482.1,241.3 
	1482,246.2 1482.5,250.9 1482.4,255.8 1482,260.5 1481.6,265.4 1482.1,270.2 1477,270.3 1471.9,270 1466.9,270.3 1461.9,270.4 
	1456.8,270.5 1451.7,269.7 1446.4,270.5 1446.9,265.8 1447.2,261.3 1447,256.8 1446.9,252.3 1447,247.9 1446.2,243.4 1447,238.2 
	1446.9,232.9 1447,227.5 1441.7,227.3 1436.8,227.7 1431.8,228.2 1426.8,227.7 1421.9,227.8 1421.5,234.6 1417.3,234.7 
	1412.7,235.1 1408.1,235.3 1403.6,234.9 1399,234.9 1394.6,234.7 1394.7,229.9 1394.2,225 1394.7,220 1394.8,215.1 1394.8,210.1 
	1394.2,205.5 1389.6,205 1384.7,205.6 1379.8,204.7 1374.9,205.1 1370.4,204.9 1370.4,200.4 1369.9,195.7 1370.2,190.9 
	1369.7,186.2 1370.2,181.4 1370.4,176.8 1369.9,172 1369.6,167.3 1369.6,162.6 1370,157.8 1365.2,157.7 1360.3,157.5 1355.4,157.9 
	1350.5,157.6 1345.6,158.2 1340.8,158.1 1335.9,157.4 1331,157.9 1326.1,158.2 1321.2,157.4 1316.3,157.4 1311.5,157.5 
	1306.6,158.1 1301.7,157.4 1296.8,157.5 1291.9,158.1 1287,158 1282.2,157.3 1277.3,157.4 1272.4,157.9 1267.5,157.3 1262.3,157.4 
	1263.1,162.5 1262.6,167.1 1262.3,171.8 1262.4,176.5 1262.3,181.2 1263,185.9 1262.8,190.5 1262.7,195.3 1262.2,199.9 
	1262.8,204.6 1262.4,209.3 1262.6,214 1262.5,218.7 1263,223.3 1262.4,228 1262.4,232.7 1263.1,237.4 1262.7,242.1 1262.7,246.9 
	1258.4,247.1 1253.9,247 1254,242.9 1254.2,239.1 1249.5,239.6 1244.9,239.1 1240.3,239.5 1235.6,239.4 1231,239 1226.5,239.3 
	1226.3,243.8 1226.5,248.7 1221.7,249 1217.1,249 1212.4,248.8 1207.8,248.1 1203.1,248.1 1198.5,248.7 1193.8,248.4 1189.2,249 
	1184.5,248.3 1179.9,248.6 1175,248.3 1174.9,252.4 1175.2,256.1 1168.6,256.5 1168.5,251.6 1169,246.8 1163.9,247.4 1159,246.5 
	1154.1,247.5 1149.2,247.4 1144.3,247.1 1139.4,246.6 1134.5,246.6 1129.6,246.8 1124.7,247 1119.8,247.2 1114.9,246.7 1110,247.1 
	1105.1,246.6 1100.2,246.6 1095.3,247.5 1090.4,246.6 1085.5,246.8 1080.6,246.8 1075.7,247.2 1071.1,247.3 1071.2,252.1 
	1070.7,257.2 1070.5,262.1 1066.3,262 1061.8,262.4 1057.4,261.8 1052.9,262.4 1048.2,262.4 1048.3,255.9 1043.7,255.5 
	1039.1,255.7 1034.4,256.1 1029.4,256.1 1030.1,250.9 1030.2,246 1029.9,241.1 1029.2,236.2 1029.6,231.2 1030,226.4 1029.2,221.4 
	1029.7,216.5 1024.9,217 1020.1,216.1 1015.3,216.1 1010.5,216.2 1005.6,216.7 1000.8,216.2 996,216.5 991.2,216.8 986.4,216.4 
	981.5,216.6 981.8,210.8 981.3,205.5 974.9,205.5 972.3,201.2 968.8,197.9 965.3,194.6 960.8,192.7 956.4,191 951.7,189.5 
	946.9,189.2 942.1,189.4 937,188.9 932.1,190.1 927.1,190.6 922.4,192.5 917.7,194.6 914,198.1 910,201.2 907,205.2 906.9,199.8 
	906.5,194.4 907.2,188.8 902.3,188.8 897.6,189.1 892.9,188.8 888.2,189.4 883.4,188.9 878.7,188.8 874,188.7 869.3,189 
	864.6,189.4 859.9,189.3 855.2,189.2 850.5,188.7 845.8,189.4 841.1,188.9 836.4,189 831.7,188.9 827,189.4 822.3,189.4 
	817.5,189.5 812.8,188.9 808.1,189 803.4,189 798.7,189.5 794,188.6 789.4,189.2 789.2,193.9 788.9,198.6 788.8,203.5 789.2,208.2 
	788.9,213 789.5,217.8 788.9,222.6 789,227.5 788.8,232.2 789,237.1 789.7,241.8 789.7,246.7 789.3,251.6 784.4,251.6 779.6,251.5 
	774.8,251.4 770,251.6 765.1,251.4 760.3,251.2 755.5,251.3 750.6,251.6 745.8,251.5 741,251.3 736.2,251.8 731.3,251.2 
	726.5,251.9 721.7,251.2 716.8,251.6 712,251 707,251.3 706.9,256.5 707.3,261.6 702.7,261.5 698.3,261.9 693.8,261.8 689,261.2 
	689.4,266.6 689.5,271.6 684.5,272 679.6,271.2 674.7,271.6 669.8,271.7 664.9,271.2 660,271.4 655.2,271.5 650.3,271.9 
	645.4,271.7 640.5,271.1 635.6,271.4 630.7,271 625.8,271.1 621,271.5 621.1,266.6 621.4,261.5 620.6,256.5 621.1,251.3 
	616.1,251.3 611.4,251.3 606.6,251.8 601.8,251.1 597,251.1 592.2,251.2 587.4,251.9 582.6,251.6 577.8,251.5 573,251.5 
	568.2,251.3 563.4,251.5 563.6,255.7 563.6,260 558.9,259.9 554.3,259.9 549.7,259.8 545.2,259.6 540.6,259.9 520,260.1 520,281.5 
	1920,281.5 "/>
</svg>
