<?xml version="1.0" encoding="utf-8"?>
<!-- Generator: Adobe Illustrator 19.0.0, SVG Export Plug-In . SVG Version: 6.00 Build 0)  -->
<svg version="1.1" id="Layer_1" xmlns="http://www.w3.org/2000/svg" xmlns:xlink="http://www.w3.org/1999/xlink" x="0px" y="0px"
	 viewBox="0 0 1400 168.9" style="enable-background:new 0 0 1400 168.9;" xml:space="preserve">
<style type="text/css">
	.st0{fill:#FFF5EA;}
</style>
<polygon id="XMLID_73_" class="st0" points="1400,168.3 1400,168.9 1400,155.7 1395.3,156.2 1391,155.7 1386.6,156.1 1382.4,155.8 
	1382.2,150.9 1382,145.9 1382.6,141 1382.5,136 1381.8,131 1382.4,125.8 1377.3,126.3 1372.4,126.1 1367.5,125.7 1362.5,126.3 
	1357.8,125.7 1358,121.4 1357.9,116.7 1357.1,112.1 1357.1,107.5 1357.6,102.9 1357.1,98.3 1357.8,93.5 1352.9,93.8 1348.2,93.8 
	1343.5,93.7 1338.7,93.6 1334,93.4 1329.3,94 1324.6,93.7 1319.9,93.2 1315.2,94.1 1310.5,93.2 1305.8,93.8 1301,93.8 1296.3,93.6 
	1291.6,93.8 1286.7,93.6 1286.6,98.4 1286.7,103.1 1287.1,107.9 1286.9,112.6 1286.6,117.3 1287,122 1286.8,126.6 1282.1,126.7 
	1277.2,127.1 1272.4,126.9 1267.6,126.8 1262.8,126.5 1258,126.7 1253.2,126.8 1248.6,126.5 1248.3,121.4 1247.8,116 1248.3,110.7 
	1243.6,110.6 1238.9,110.8 1234.3,110.9 1229.6,110.9 1224.9,110.2 1220.2,110.8 1215.6,110.4 1215.4,105.9 1215.3,101.2 
	1215.9,96.5 1215.4,91.8 1215,87.1 1215.6,82.4 1215.6,77.7 1215,73.1 1212.1,69.8 1209.1,66.3 1206.6,62.4 1203.5,59 1200.6,55.4 
	1197.5,52 1194.4,48.6 1190.9,45.5 1188,42.1 1183.9,41.5 1179.7,42.2 1175.4,42.3 1171.4,42.1 1167.6,45.3 1164.1,48.9 
	1160.4,52.2 1157.4,56.2 1153.6,59.6 1150,63 1146.9,67 1143,70.2 1139.2,73.6 1139.4,78.5 1139.5,83.3 1139.6,88.1 1139.5,92.8 
	1139.5,97.6 1139.7,102.4 1139.2,107.2 1139.2,111.9 1139.3,116.7 1139.6,121.5 1139.8,126.3 1139.4,131 1139.1,135.8 1139.4,140.6 
	1139.1,145.4 1139.6,150.1 1139.4,154.9 1139.1,159.7 1139.6,164.6 1134.6,164.1 1129.8,164.8 1124.9,164.9 1120,164.1 1115.2,165 
	1110.3,164.5 1105.4,164.3 1100.9,164.2 1100.4,159.4 1100,154.4 1100.1,149.3 1100.8,144.3 1100.2,139.5 1095.5,139.4 
	1090.4,139.3 1085.4,139.4 1080.3,139.2 1075.3,139.5 1070.2,138.9 1065.2,138.8 1059.9,139.5 1060.3,134.4 1059.8,129.7 
	1059.8,124.9 1060,120.2 1060.2,115.4 1060.5,110.6 1060.4,105.9 1060.1,101.1 1060.6,96.4 1060,91.6 1060.1,86.8 1060.2,82.1 
	1060.5,77.3 1060,72.6 1060,67.8 1059.9,63 1059.8,58.3 1060.1,53.5 1060.3,48.8 1060.2,44 1059.8,39.2 1059.9,34.5 1060.6,29.7 
	1059.7,25 1059.9,20.2 1060.3,15.4 1060.6,10.7 1060,6 1055.2,6 1050.3,5.8 1045.4,6.3 1040.5,5.9 1035.6,6.3 1030.7,6.2 
	1025.8,5.5 1020.9,6.1 1016,5.8 1011.1,6.4 1006.2,6.3 1001.3,6.2 996.4,5.7 991.5,6 986.6,5.5 981.7,6 976.8,6.2 971.9,5.5 
	967,5.8 962.3,6.2 961.7,10.6 961.8,15.4 962.5,20.2 962.1,24.9 962.3,29.7 962,34.4 962.3,39.2 962,43.9 962,48.7 961.9,53.4 
	962.2,58.2 961.7,62.9 962.4,67.7 962,72.4 962,77.2 961.7,82 962.2,86.7 961.9,91.5 961.8,96.2 961.7,101 962,105.7 962.1,110.5 
	961.8,115.2 962,120 961.7,124.7 962.1,129.5 962,134.3 962.5,139 962.4,143.8 962,148.5 961.6,153.3 962.1,158.1 957,158.2 
	951.9,157.9 946.9,158.2 941.9,158.3 936.8,158.4 931.7,157.6 926.4,158.4 926.9,153.7 927.2,149.3 927,144.8 926.9,140.4 927,136 
	926.2,131.6 927,126.4 926.9,121.2 927,115.8 921.7,115.6 916.8,116 911.8,116.5 906.8,116 901.9,116.1 901.5,122.8 897.3,122.9 
	892.7,123.3 888.1,123.5 883.6,123.1 879,123.1 874.6,122.9 874.7,118.2 874.2,113.3 874.7,108.4 874.8,103.5 874.8,98.6 874.2,94 
	869.6,93.5 864.7,94.1 859.8,93.2 854.9,93.6 850.4,93.4 850.4,89 849.9,84.3 850.2,79.6 849.7,74.9 850.2,70.2 850.4,65.6 
	849.9,60.9 849.6,56.2 849.6,51.5 850,46.8 845.2,46.7 840.3,46.5 835.4,46.9 830.5,46.6 825.6,47.2 820.8,47.1 815.9,46.4 
	811,46.9 806.1,47.2 801.2,46.4 796.3,46.4 791.5,46.5 786.6,47.1 781.7,46.4 776.8,46.5 771.9,47.1 767,47 762.2,46.3 757.3,46.4 
	752.4,46.9 747.5,46.3 742.3,46.4 743.1,51.4 742.6,56 742.3,60.7 742.4,65.3 742.3,70 743,74.6 742.8,79.2 742.7,83.9 742.2,88.5 
	742.8,93.1 742.4,97.8 742.6,102.4 742.5,107.1 743,111.7 742.4,116.3 742.4,121 743.1,125.6 742.7,130.3 742.7,135 738.4,135.2 
	733.9,135.1 734,131.1 734.2,127.3 729.5,127.8 724.9,127.3 720.3,127.7 715.6,127.6 711,127.2 706.5,127.5 706.3,132 706.5,136.8 
	701.7,137.1 697.1,137.1 692.4,136.9 687.8,136.2 683.1,136.2 678.5,136.8 673.8,136.5 669.2,137.1 664.5,136.4 659.9,136.7 
	655,136.4 654.9,140.5 655.2,144.1 648.6,144.5 648.5,139.7 649,134.9 643.9,135.5 639,134.6 634.1,135.6 629.2,135.5 624.3,135.2 
	619.4,134.7 614.5,134.7 609.6,134.9 604.7,135.1 599.8,135.3 594.9,134.8 590,135.2 585.1,134.7 580.2,134.7 575.3,135.6 
	570.4,134.7 565.5,134.9 560.6,134.9 555.7,135.3 551.1,135.4 551.2,140.2 550.7,145.2 550.5,150.1 546.3,150 541.8,150.4 
	537.4,149.8 532.9,150.4 528.2,150.4 528.3,143.9 523.7,143.5 519.1,143.7 514.4,144.1 509.4,144.1 510.1,139 510.2,134.1 
	509.9,129.3 509.2,124.4 509.6,119.5 510,114.7 509.2,109.8 509.7,104.9 504.9,105.4 500.1,104.5 495.3,104.5 490.5,104.6 
	485.6,105.1 480.8,104.6 476,104.9 471.2,105.2 466.4,104.8 461.5,105 461.8,99.3 461.3,94 454.9,94 452.3,89.8 448.8,86.5 
	445.3,83.2 440.8,81.4 436.4,79.7 431.7,78.2 426.9,77.9 422.1,78.1 417,77.6 412.1,78.8 407.1,79.3 402.4,81.2 397.7,83.2 
	394,86.7 390,89.8 387,93.7 386.9,88.4 386.5,83 387.2,77.5 382.3,77.5 377.6,77.8 372.9,77.5 368.2,78.1 363.4,77.6 358.7,77.5 
	354,77.4 349.3,77.7 344.6,78.1 339.9,78 335.2,77.9 330.5,77.4 325.8,78.1 321.1,77.6 316.4,77.7 311.7,77.6 307,78.1 302.3,78.1 
	297.5,78.2 292.8,77.6 288.1,77.7 283.4,77.7 278.7,78.2 274,77.3 269.4,77.9 269.2,82.5 268.9,87.2 268.8,92 269.2,96.7 
	268.9,101.5 269.5,106.2 268.9,111 269,115.8 268.8,120.5 269,125.3 269.7,130 269.7,134.8 269.3,139.7 264.4,139.7 259.6,139.6 
	254.8,139.5 250,139.7 245.1,139.5 240.3,139.3 235.5,139.4 230.6,139.7 225.8,139.6 221,139.4 216.2,139.9 211.3,139.3 206.5,140 
	201.7,139.3 196.8,139.7 192,139.1 187,139.4 186.9,144.5 187.3,149.6 182.7,149.5 178.3,149.9 173.8,149.8 169,149.2 169.4,154.5 
	169.5,159.5 164.5,159.9 159.6,159.1 154.7,159.5 149.8,159.6 144.9,159.1 140,159.3 135.2,159.4 130.3,159.8 125.4,159.6 
	120.5,159 115.6,159.3 110.7,158.9 105.8,159 101,159.4 101.1,154.5 101.4,149.5 100.6,144.5 101.1,139.4 96.1,139.4 91.4,139.4 
	86.6,139.9 81.8,139.2 77,139.2 72.2,139.3 67.4,140 62.6,139.7 57.8,139.6 53,139.6 48.2,139.4 43.4,139.6 43.6,143.7 43.6,148 
	38.9,147.9 34.3,147.9 29.7,147.8 25.2,147.6 20.6,147.9 0,148.1 0,168.3 "/>
</svg>
