<?xml version="1.0" encoding="utf-8"?>
<!-- Generator: Adobe Illustrator 19.0.0, SVG Export Plug-In . SVG Version: 6.00 Build 0)  -->
<svg version="1.1" id="Layer_1" xmlns="http://www.w3.org/2000/svg" xmlns:xlink="http://www.w3.org/1999/xlink" x="0px" y="0px"
	 viewBox="0 0 200 200" style="enable-background:new 0 0 200 200;" xml:space="preserve">
<style type="text/css">
	.st0{fill:#BA9F6F;}
	.st1{fill:#FFFFFF;}
</style>
<path id="XMLID_489_" class="st0" d="M199.8,99.2c0,13.5-2.7,27-7.5,38.7c-5,12.2-13.3,23.1-22.4,32.3c-9.2,9.2-20.8,15.7-33,20.8
	c-11.7,4.9-24.5,8.9-38,8.9c-13.5,0-26.2-4.3-37.9-9.2c-12.2-5-22.4-12.9-31.5-22.1c-9.2-9.2-17.4-19.2-22.5-31.4
	C2,125.5,0.4,112.7,0.4,99.2c0-13.5,1-26.5,5.9-38.3c5-12.2,13.4-22.4,22.6-31.6c9.2-9.2,19.4-17.5,31.6-22.5C72.3,2,85.3,0,98.8,0
	c13.5,0,26.4,2.1,38.2,7c12.2,5,22.5,13.2,31.7,22.3c9.2,9.2,17.2,19.5,22.3,31.7C195.8,72.8,199.8,85.7,199.8,99.2z"/>
<g id="XMLID_466_">
	<g id="XMLID_474_">
		<g id="XMLID_486_">
			<path id="XMLID_21_" class="st1" d="M108.6,88h-7.5c-1.4,0-2.5-1.1-2.5-2.5s1.1-2.5,2.5-2.5h4.9v-5.5c0-4.2,3.9-11.8,4.4-12.6
				c0.4-0.8,0.4-1.9,0.4-3.2c0-4.1-2.9-7.2-6.8-7.2c-3.9,0-7,3.2-7,7.2c0,1,0.3,2,0.8,3.1c0,0,0,0.1,0.1,0.1
				c0.4,0.9,3.8,9.2,3.8,13.3c0,1.4-1.1,2.5-2.5,2.5s-2.5-1.1-2.5-2.5c0-2.4-2.1-8.2-3.4-11.4c-0.8-1.7-1.2-3.5-1.2-5.2
				c0-6.8,5.3-12.2,12-12.2c6.6,0,11.9,5.4,11.9,12.2c0,1.8-0.1,3.7-1,5.5c-1.5,2.8-3.8,8.1-3.8,10.3V85C111,86.4,110,88,108.6,88z"
				/>
		</g>
		<g id="XMLID_484_">
			<path id="XMLID_20_" class="st1" d="M108.1,93h-7c-0.8,0-1.5-0.7-1.5-1.5s0.7-1.5,1.5-1.5h7c0.8,0,1.5,0.7,1.5,1.5
				S108.9,93,108.1,93z"/>
		</g>
		<g id="XMLID_483_">
			<path id="XMLID_19_" class="st1" d="M146.1,67h-26c-1.4,0-2.5-1.1-2.5-2.5s1.1-2.5,2.5-2.5h26c1.4,0,2.5,1.1,2.5,2.5
				S147.5,67,146.1,67z"/>
		</g>
		<g id="XMLID_481_">
			<path id="XMLID_18_" class="st1" d="M88.1,67h-29c-1.4,0-2.5-1.1-2.5-2.5s1.1-2.5,2.5-2.5h29c1.4,0,2.5,1.1,2.5,2.5
				S89.5,67,88.1,67z"/>
		</g>
		<g id="XMLID_479_">
			<path id="XMLID_17_" class="st1" d="M115.8,52.6c-0.4,0-0.7-0.1-1-0.4c-0.6-0.6-0.6-1.5,0-2.1l9.3-9.3c0.6-0.6,1.5-0.6,2.1,0
				c0.6,0.6,0.6,1.5,0,2.1l-9.3,9.3C116.5,52.5,116.2,52.6,115.8,52.6z"/>
		</g>
		<g id="XMLID_478_">
			<path id="XMLID_16_" class="st1" d="M87.1,81.3c-0.4,0-0.8-0.1-1-0.4c-0.6-0.6-0.6-1.5,0-2.1l5.7-5.7c0.6-0.6,1.5-0.6,2.1,0
				c0.6,0.6,0.6,1.5,0,2.1l-5.7,5.7C87.9,81.1,87.5,81.3,87.1,81.3z"/>
		</g>
		<g id="XMLID_477_">
			<path id="XMLID_15_" class="st1" d="M121.5,81.3c-0.4,0-0.7-0.1-1-0.4l-5.7-5.7c-0.6-0.6-0.6-1.5,0-2.1c0.6-0.6,1.5-0.6,2.1,0
				l5.7,5.7c0.6,0.6,0.6,1.5,0,2.1C122.2,81.1,121.8,81.3,121.5,81.3z"/>
		</g>
		<g id="XMLID_476_">
			<path id="XMLID_14_" class="st1" d="M92.8,52.6c-0.4,0-0.8-0.1-1-0.4l-9.3-9.3c-0.6-0.6-0.6-1.5,0-2.1c0.6-0.6,1.5-0.6,2.1,0
				l9.3,9.3c0.6,0.6,0.6,1.5,0,2.1C93.6,52.5,93.2,52.6,92.8,52.6z"/>
		</g>
		<g id="XMLID_475_">
			<path id="XMLID_13_" class="st1" d="M102.5,47c-1.4,0-2.5-1.1-2.5-2.5v-24c0-1.4,1.1-2.5,2.5-2.5s2.5,1.1,2.5,2.5v24
				C105,45.8,103.9,47,102.5,47z"/>
		</g>
	</g>
	<g id="XMLID_473_">
		<path id="XMLID_10_" class="st1" d="M135,110.7c-7.1,0-12.9-5.8-12.9-12.9c0-7.1,5.8-12.9,12.9-12.9c7.1,0,12.9,5.8,12.9,12.9
			C147.9,104.9,142.1,110.7,135,110.7z M135,87.8c-5.5,0-10,4.5-10,10c0,5.5,4.5,10,10,10c5.5,0,10-4.5,10-10
			C145,92.3,140.5,87.8,135,87.8z"/>
	</g>
	<g id="XMLID_472_">
		<path id="XMLID_9_" class="st1" d="M160.5,151c-1.4,0-2.5-1.1-2.5-2.5v-16.2c0-9.9-7.5-17.7-17.1-17.7c-2.4,0-4.4,0.5-7,1.7
			c-1.2,0.6-2.7,0.1-3.3-1.2c-0.6-1.2,0-2.7,1.2-3.3c3.3-1.5,5.9-2.2,9.1-2.2c12.4,0,22.1,10,22.1,22.7v16.2
			C163,149.9,161.9,151,160.5,151z"/>
	</g>
	<g id="XMLID_471_">
		<path id="XMLID_6_" class="st1" d="M70.9,110.7c-7.1,0-12.9-5.8-12.9-12.9c0-7.1,5.8-12.9,12.9-12.9c7.1,0,12.9,5.8,12.9,12.9
			C83.8,104.9,78,110.7,70.9,110.7z M70.9,87.8c-5.5,0-10,4.5-10,10c0,5.5,4.5,10,10,10s10-4.5,10-10C80.8,92.3,76.4,87.8,70.9,87.8
			z"/>
	</g>
	<g id="XMLID_470_">
		<path id="XMLID_5_" class="st1" d="M39.5,151c-1.4,0-2.5-1.1-2.5-2.5v-16.2c0-12.3,10.8-22.7,23.6-22.7c3.6,0,7.8,0.9,10.6,2.2
			c1.2,0.6,1.8,2.1,1.2,3.3c-0.6,1.2-2.1,1.8-3.3,1.2c-2.2-1-5.6-1.7-8.5-1.7c-10.1,0-18.6,8.1-18.6,17.7v16.2
			C42,149.9,40.9,151,39.5,151z"/>
	</g>
	<g id="XMLID_469_">
		<path id="XMLID_4_" class="st1" d="M126.1,152.1c-0.1,0-0.1,0-0.2,0c-0.8-0.1-1.4-0.8-1.3-1.6l3.7-29c0-0.4-0.1-0.7-0.3-1
			c-0.2-0.3-0.6-0.4-1-0.4H80.9c-0.4,0-0.7,0.2-1,0.4c-0.2,0.3-0.4,0.6-0.3,1l3.4,26.6c0.1,0.6,0.6,1.1,1.3,1.1h36.9
			c0.8,0,1.5,0.7,1.5,1.5s-0.7,1.5-1.5,1.5H84.4c-2.1,0-3.9-1.6-4.2-3.7l-3.4-26.6c-0.2-1.2,0.2-2.4,1-3.3c0.8-0.9,1.9-1.4,3.2-1.4
			h46.2c1.2,0,2.4,0.5,3.2,1.4s1.2,2.1,1,3.3l-3.7,29C127.5,151.6,126.8,152.1,126.1,152.1z"/>
	</g>
	<g id="XMLID_468_">
		<path id="XMLID_3_" class="st1" d="M73.1,140.5c-0.1,0-0.2,0-0.3,0c-15.4-3.4-17.5-19.4-17.6-19.6c-0.1-0.8,0.5-1.5,1.3-1.6
			c0.8-0.1,1.5,0.5,1.6,1.3c0.1,0.6,2,14.1,15.3,17.1c0.8,0.2,1.3,1,1.1,1.7C74.4,140.1,73.8,140.5,73.1,140.5z"/>
	</g>
	<g id="XMLID_467_">
		<path id="XMLID_2_" class="st1" d="M147,131.8c-0.1,0-0.2,0-0.3,0c-3.9-0.2-7.3-4.3-10.4-12.4c-0.3-0.8,0.1-1.6,0.9-1.9
			c0.8-0.3,1.6,0.1,1.9,0.9c3.4,9,6.3,10.5,7.8,10.5c2.5,0.1,4.8-3.3,5.4-4.5c0.4-0.7,1.2-1,2-0.6c0.7,0.4,1,1.2,0.6,2
			C154.7,126,151.7,131.8,147,131.8z"/>
	</g>
</g>
</svg>
