<?xml version="1.0" encoding="UTF-8" standalone="no"?>
<!-- Generator: Adobe Illustrator 19.0.0, SVG Export Plug-In . SVG Version: 6.00 Build 0)  -->

<svg
   xmlns:dc="http://purl.org/dc/elements/1.1/"
   xmlns:cc="http://creativecommons.org/ns#"
   xmlns:rdf="http://www.w3.org/1999/02/22-rdf-syntax-ns#"
   xmlns:svg="http://www.w3.org/2000/svg"
   xmlns="http://www.w3.org/2000/svg"
   xmlns:sodipodi="http://sodipodi.sourceforge.net/DTD/sodipodi-0.dtd"
   xmlns:inkscape="http://www.inkscape.org/namespaces/inkscape"
   version="1.1"
   id="Layer_1"
   x="0px"
   y="0px"
   viewBox="0 0 200 200"
   style="enable-background:new 0 0 200 200;"
   xml:space="preserve"
   sodipodi:docname="sprints-icon.svg"
   inkscape:export-filename="/Users/ernestd/ernestd/pycon/pycon/static/img/SVG/Sprints-icon.png"
   inkscape:export-xdpi="96"
   inkscape:export-ydpi="96"
   inkscape:version="0.92.2 5c3e80d, 2017-08-06"><metadata
     id="metadata3823"><rdf:RDF><cc:Work
         rdf:about=""><dc:format>image/svg+xml</dc:format><dc:type
           rdf:resource="http://purl.org/dc/dcmitype/StillImage" /></cc:Work></rdf:RDF></metadata><defs
     id="defs3821" /><sodipodi:namedview
     pagecolor="#ffffff"
     bordercolor="#666666"
     borderopacity="1"
     objecttolerance="10"
     gridtolerance="10"
     guidetolerance="10"
     inkscape:pageopacity="0"
     inkscape:pageshadow="2"
     inkscape:window-width="1519"
     inkscape:window-height="1015"
     id="namedview3819"
     showgrid="true"
     showguides="true"
     inkscape:zoom="2"
     inkscape:cx="58.52275"
     inkscape:cy="145.84077"
     inkscape:window-x="0"
     inkscape:window-y="0"
     inkscape:window-maximized="0"
     inkscape:current-layer="Layer_1"><inkscape:grid
       type="xygrid"
       id="grid3833" /></sodipodi:namedview><style
     type="text/css"
     id="style3781">
	.st0{fill:#BA9F6F;}
	.st1{fill:#FFFFFF;}
</style><circle
     id="path3829"
     cx="100"
     cy="100"
     style="stroke-width:1.20569539;opacity:1;fill:#ea6345;fill-opacity:1"
     r="100" /><g
     id="XMLID_466_"
     transform="matrix(1.0293556,0,0,1.0157497,-5.2411572,4.0778445)"><g
       id="XMLID_474_"><g
         id="XMLID_486_"><path
           id="XMLID_21_"
           class="st1"
           d="m 108.6,88 h -7.5 c -1.4,0 -2.5,-1.1 -2.5,-2.5 0,-1.4 1.1,-2.5 2.5,-2.5 h 4.9 v -5.5 c 0,-4.2 3.9,-11.8 4.4,-12.6 0.4,-0.8 0.4,-1.9 0.4,-3.2 0,-4.1 -2.9,-7.2 -6.8,-7.2 -3.9,0 -7,3.2 -7,7.2 0,1 0.3,2 0.8,3.1 0,0 0,0.1 0.1,0.1 0.4,0.9 3.8,9.2 3.8,13.3 0,1.4 -1.1,2.5 -2.5,2.5 -1.4,0 -2.5,-1.1 -2.5,-2.5 0,-2.4 -2.1,-8.2 -3.4,-11.4 -0.8,-1.7 -1.2,-3.5 -1.2,-5.2 0,-6.8 5.3,-12.2 12,-12.2 6.6,0 11.9,5.4 11.9,12.2 0,1.8 -0.1,3.7 -1,5.5 -1.5,2.8 -3.8,8.1 -3.8,10.3 V 85 c -0.2,1.4 -1.2,3 -2.6,3 z"
           inkscape:connector-curvature="0"
           style="fill:#ffffff" /></g><g
         id="XMLID_484_"><path
           id="XMLID_20_"
           class="st1"
           d="m 108.1,93 h -7 c -0.8,0 -1.5,-0.7 -1.5,-1.5 0,-0.8 0.7,-1.5 1.5,-1.5 h 7 c 0.8,0 1.5,0.7 1.5,1.5 0,0.8 -0.7,1.5 -1.5,1.5 z"
           inkscape:connector-curvature="0"
           style="fill:#ffffff" /></g><g
         id="XMLID_483_"><path
           id="XMLID_19_"
           class="st1"
           d="m 146.1,67 h -26 c -1.4,0 -2.5,-1.1 -2.5,-2.5 0,-1.4 1.1,-2.5 2.5,-2.5 h 26 c 1.4,0 2.5,1.1 2.5,2.5 0,1.4 -1.1,2.5 -2.5,2.5 z"
           inkscape:connector-curvature="0"
           style="fill:#ffffff" /></g><g
         id="XMLID_481_"><path
           id="XMLID_18_"
           class="st1"
           d="m 88.1,67 h -29 c -1.4,0 -2.5,-1.1 -2.5,-2.5 0,-1.4 1.1,-2.5 2.5,-2.5 h 29 c 1.4,0 2.5,1.1 2.5,2.5 0,1.4 -1.1,2.5 -2.5,2.5 z"
           inkscape:connector-curvature="0"
           style="fill:#ffffff" /></g><g
         id="XMLID_479_"><path
           id="XMLID_17_"
           class="st1"
           d="m 115.8,52.6 c -0.4,0 -0.7,-0.1 -1,-0.4 -0.6,-0.6 -0.6,-1.5 0,-2.1 l 9.3,-9.3 c 0.6,-0.6 1.5,-0.6 2.1,0 0.6,0.6 0.6,1.5 0,2.1 l -9.3,9.3 c -0.4,0.3 -0.7,0.4 -1.1,0.4 z"
           inkscape:connector-curvature="0"
           style="fill:#ffffff" /></g><g
         id="XMLID_478_"><path
           id="XMLID_16_"
           class="st1"
           d="m 87.1,81.3 c -0.4,0 -0.8,-0.1 -1,-0.4 -0.6,-0.6 -0.6,-1.5 0,-2.1 l 5.7,-5.7 c 0.6,-0.6 1.5,-0.6 2.1,0 0.6,0.6 0.6,1.5 0,2.1 l -5.7,5.7 c -0.3,0.2 -0.7,0.4 -1.1,0.4 z"
           inkscape:connector-curvature="0"
           style="fill:#ffffff" /></g><g
         id="XMLID_477_"><path
           id="XMLID_15_"
           class="st1"
           d="m 121.5,81.3 c -0.4,0 -0.7,-0.1 -1,-0.4 l -5.7,-5.7 c -0.6,-0.6 -0.6,-1.5 0,-2.1 0.6,-0.6 1.5,-0.6 2.1,0 l 5.7,5.7 c 0.6,0.6 0.6,1.5 0,2.1 -0.4,0.2 -0.8,0.4 -1.1,0.4 z"
           inkscape:connector-curvature="0"
           style="fill:#ffffff" /></g><g
         id="XMLID_476_"><path
           id="XMLID_14_"
           class="st1"
           d="m 92.8,52.6 c -0.4,0 -0.8,-0.1 -1,-0.4 l -9.3,-9.3 c -0.6,-0.6 -0.6,-1.5 0,-2.1 0.6,-0.6 1.5,-0.6 2.1,0 l 9.3,9.3 c 0.6,0.6 0.6,1.5 0,2.1 -0.3,0.3 -0.7,0.4 -1.1,0.4 z"
           inkscape:connector-curvature="0"
           style="fill:#ffffff" /></g><g
         id="XMLID_475_"><path
           id="XMLID_13_"
           class="st1"
           d="m 102.5,47 c -1.4,0 -2.5,-1.1 -2.5,-2.5 v -24 c 0,-1.4 1.1,-2.5 2.5,-2.5 1.4,0 2.5,1.1 2.5,2.5 v 24 c 0,1.3 -1.1,2.5 -2.5,2.5 z"
           inkscape:connector-curvature="0"
           style="fill:#ffffff" /></g></g><g
       id="XMLID_473_"><path
         id="XMLID_10_"
         class="st1"
         d="m 135,110.7 c -7.1,0 -12.9,-5.8 -12.9,-12.9 0,-7.1 5.8,-12.9 12.9,-12.9 7.1,0 12.9,5.8 12.9,12.9 0,7.1 -5.8,12.9 -12.9,12.9 z m 0,-22.9 c -5.5,0 -10,4.5 -10,10 0,5.5 4.5,10 10,10 5.5,0 10,-4.5 10,-10 0,-5.5 -4.5,-10 -10,-10 z"
         inkscape:connector-curvature="0"
         style="fill:#ffffff" /></g><g
       id="XMLID_472_"><path
         id="XMLID_9_"
         class="st1"
         d="m 160.5,151 c -1.4,0 -2.5,-1.1 -2.5,-2.5 v -16.2 c 0,-9.9 -7.5,-17.7 -17.1,-17.7 -2.4,0 -4.4,0.5 -7,1.7 -1.2,0.6 -2.7,0.1 -3.3,-1.2 -0.6,-1.2 0,-2.7 1.2,-3.3 3.3,-1.5 5.9,-2.2 9.1,-2.2 12.4,0 22.1,10 22.1,22.7 v 16.2 c 0,1.4 -1.1,2.5 -2.5,2.5 z"
         inkscape:connector-curvature="0"
         style="fill:#ffffff" /></g><g
       id="XMLID_471_"><path
         id="XMLID_6_"
         class="st1"
         d="m 70.9,110.7 c -7.1,0 -12.9,-5.8 -12.9,-12.9 0,-7.1 5.8,-12.9 12.9,-12.9 7.1,0 12.9,5.8 12.9,12.9 0,7.1 -5.8,12.9 -12.9,12.9 z m 0,-22.9 c -5.5,0 -10,4.5 -10,10 0,5.5 4.5,10 10,10 5.5,0 10,-4.5 10,-10 -0.1,-5.5 -4.5,-10 -10,-10 z"
         inkscape:connector-curvature="0"
         style="fill:#ffffff" /></g><g
       id="XMLID_470_"><path
         id="XMLID_5_"
         class="st1"
         d="m 39.5,151 c -1.4,0 -2.5,-1.1 -2.5,-2.5 v -16.2 c 0,-12.3 10.8,-22.7 23.6,-22.7 3.6,0 7.8,0.9 10.6,2.2 1.2,0.6 1.8,2.1 1.2,3.3 -0.6,1.2 -2.1,1.8 -3.3,1.2 -2.2,-1 -5.6,-1.7 -8.5,-1.7 -10.1,0 -18.6,8.1 -18.6,17.7 v 16.2 c 0,1.4 -1.1,2.5 -2.5,2.5 z"
         inkscape:connector-curvature="0"
         style="fill:#ffffff" /></g><g
       id="XMLID_469_"><path
         id="XMLID_4_"
         class="st1"
         d="m 126.1,152.1 c -0.1,0 -0.1,0 -0.2,0 -0.8,-0.1 -1.4,-0.8 -1.3,-1.6 l 3.7,-29 c 0,-0.4 -0.1,-0.7 -0.3,-1 -0.2,-0.3 -0.6,-0.4 -1,-0.4 H 80.9 c -0.4,0 -0.7,0.2 -1,0.4 -0.2,0.3 -0.4,0.6 -0.3,1 l 3.4,26.6 c 0.1,0.6 0.6,1.1 1.3,1.1 h 36.9 c 0.8,0 1.5,0.7 1.5,1.5 0,0.8 -0.7,1.5 -1.5,1.5 H 84.4 c -2.1,0 -3.9,-1.6 -4.2,-3.7 l -3.4,-26.6 c -0.2,-1.2 0.2,-2.4 1,-3.3 0.8,-0.9 1.9,-1.4 3.2,-1.4 h 46.2 c 1.2,0 2.4,0.5 3.2,1.4 0.8,0.9 1.2,2.1 1,3.3 l -3.7,29 c -0.2,0.7 -0.9,1.2 -1.6,1.2 z"
         inkscape:connector-curvature="0"
         style="fill:#ffffff" /></g><g
       id="XMLID_468_"><path
         id="XMLID_3_"
         class="st1"
         d="m 73.1,140.5 c -0.1,0 -0.2,0 -0.3,0 -15.4,-3.4 -17.5,-19.4 -17.6,-19.6 -0.1,-0.8 0.5,-1.5 1.3,-1.6 0.8,-0.1 1.5,0.5 1.6,1.3 0.1,0.6 2,14.1 15.3,17.1 0.8,0.2 1.3,1 1.1,1.7 -0.1,0.7 -0.7,1.1 -1.4,1.1 z"
         inkscape:connector-curvature="0"
         style="fill:#ffffff" /></g><g
       id="XMLID_467_"><path
         id="XMLID_2_"
         class="st1"
         d="m 147,131.8 c -0.1,0 -0.2,0 -0.3,0 -3.9,-0.2 -7.3,-4.3 -10.4,-12.4 -0.3,-0.8 0.1,-1.6 0.9,-1.9 0.8,-0.3 1.6,0.1 1.9,0.9 3.4,9 6.3,10.5 7.8,10.5 2.5,0.1 4.8,-3.3 5.4,-4.5 0.4,-0.7 1.2,-1 2,-0.6 0.7,0.4 1,1.2 0.6,2 -0.2,0.2 -3.2,6 -7.9,6 z"
         inkscape:connector-curvature="0"
         style="fill:#ffffff" /></g></g><path
     style="stroke-width:0.26420081;fill:#fecf89;fill-opacity:0"
     d="M 90.752972,199.46998 C 69.790771,197.36636 50.481316,189.11644 34.676793,175.51157 31.390436,172.68261 25.05973,166.15398 22.448184,162.90065 10.339826,147.81668 3.0990499,130.57861 0.75464695,111.25495 0.17312734,106.4618 0.09549094,94.684346 0.61444824,89.98679 4.1210103,58.245694 21.323223,31.036576 48.269905,14.60911 71.935569,0.18184425 101.03427,-3.6668441 127.7579,4.0957701 c 34.10549,9.9068799 60.42641,37.1659979 69.06101,71.5226759 2.1589,8.590148 2.9092,14.93451 2.90217,24.540074 -0.008,11.41774 -1.34811,20.1521 -4.66044,30.38309 -4.80902,14.85392 -12.51591,27.67435 -23.33012,38.80971 -16.14919,16.62876 -35.83189,26.50804 -59.31308,29.77083 -3.63596,0.50522 -17.825855,0.73305 -21.664468,0.34783 z m 29.854688,-41.18729 c 0.6846,-0.6846 0.67303,-1.63659 -0.0276,-2.2708 -0.53347,-0.4829 -1.35529,-0.50866 -20.27111,-0.6354 l -19.715094,-0.1321 -0.200954,-0.66051 c -0.110525,-0.36327 -0.97369,-6.71368 -1.918148,-14.11201 -1.276538,-9.99969 -1.642018,-13.54209 -1.424248,-13.80449 0.240568,-0.28987 4.679482,-0.35298 24.826234,-0.35298 h 24.53329 l 0.14979,0.59679 c 0.0824,0.32824 -0.69267,7.07526 -1.72234,14.9934 -1.02967,7.91813 -1.83787,14.81187 -1.79601,15.31943 0.0576,0.69881 0.24657,1.00411 0.77829,1.25768 0.82684,0.39431 1.90404,0.0886 2.28568,-0.64871 0.44701,-0.86359 4.1191,-30.50626 3.91315,-31.58854 -0.28064,-1.47471 -1.65629,-2.72469 -3.39613,-3.08588 -0.98459,-0.20439 -8.67396,-0.27039 -25.57396,-0.21948 -22.429833,0.0676 -24.226757,0.106 -25.011045,0.53487 -0.988502,0.54055 -2.05371,1.88245 -2.290473,2.88543 -0.09159,0.38802 0.670576,7.16477 1.693714,15.05944 1.718045,13.25666 1.911232,14.43128 2.527131,15.36545 0.396542,0.60146 1.11497,1.21494 1.772256,1.51335 1.053718,0.47841 2.022199,0.50213 20.722287,0.50766 19.26861,0.006 19.62629,-0.004 20.14531,-0.5226 z m -83.740336,-1.06285 c 1.125878,-0.60256 1.171572,-1.00951 1.31935,-11.75088 0.1333,-9.68904 0.176235,-10.4063 0.719556,-12.02114 0.860853,-2.55859 2.351152,-4.91965 4.42819,-7.01554 5.44851,-5.49796 13.244272,-7.18846 21.111451,-4.57798 2.7301,0.9059 3.512552,0.84234 4.531054,-0.36808 0.573775,-0.6819 0.670864,-1.00852 0.555482,-1.86875 -0.170758,-1.2731 -0.706005,-1.82908 -2.425406,-2.51935 l -1.321004,-0.53034 1.992048,-0.0144 c 3.812605,-0.0276 6.829141,-1.28441 9.528021,-3.96985 6.329466,-6.29794 4.378581,-17.143731 -3.780325,-21.016415 -5.162634,-2.450481 -10.808399,-1.539741 -15.006785,2.4208 -6.467284,6.100905 -5.264095,16.088375 2.511427,20.846945 l 1.585205,0.97014 -1.056803,-0.15183 c -3.053171,-0.43864 -5.426928,-0.46155 -7.946891,-0.0767 -9.911698,1.51372 -17.568063,8.2157 -20.265387,17.73926 -0.466058,1.64553 -0.537255,2.90771 -0.645846,11.44966 -0.06713,5.28014 -0.04843,9.9927 0.04156,10.47237 0.246359,1.31321 1.322933,2.25234 2.581981,2.25234 0.570978,0 1.265385,-0.12161 1.543121,-0.27026 z m 124.994276,-0.52032 0.79057,-0.79057 -0.10147,-10.90031 c -0.0961,-10.32477 -0.13229,-11.00252 -0.68531,-12.83595 -2.04989,-6.79607 -6.12383,-11.72115 -12.06354,-14.58392 -2.22267,-1.07125 -5.66044,-2.08508 -7.24923,-2.13786 -0.51755,-0.0172 -1.28311,-0.10636 -1.70126,-0.19815 l -0.76026,-0.16689 1.49377,-1.02772 c 2.45171,-1.68678 4.49428,-4.68905 5.16268,-7.58834 0.147,-0.63766 0.27018,-2.06825 0.27373,-3.1791 0.0208,-6.503677 -4.87975,-12.002269 -11.53578,-12.943555 -3.9743,-0.562037 -8.2609,0.858451 -11.16459,3.699709 -3.28469,3.214077 -4.71118,8.203486 -3.58335,12.533506 1.2516,4.8052 5.36489,8.74361 10.16799,9.73567 l 1.52886,0.31579 -1.49349,0.7063 c -2.20103,1.04093 -2.76393,2.64962 -1.46661,4.1914 1.01002,1.20034 1.99263,1.27082 4.38146,0.31429 2.3682,-0.94827 5.32255,-1.42785 7.35955,-1.19468 7.52755,0.86166 12.96078,5.34635 15.34563,12.66658 0.57362,1.76072 0.60972,2.35416 0.75262,12.37473 l 0.1501,10.52532 0.74129,0.63716 c 1.09672,0.94268 2.62466,0.87858 3.65664,-0.15341 z M 71.052542,146.5712 c 0.553014,-0.40437 0.633292,-1.5762 0.148034,-2.1609 -0.182486,-0.21988 -0.999857,-0.59072 -1.81638,-0.82408 -3.863232,-1.10412 -7.415853,-3.36889 -9.788761,-6.24025 -1.763631,-2.1341 -3.84107,-6.33144 -4.54465,-9.18217 -0.30484,-1.23513 -0.673992,-2.39432 -0.820339,-2.57595 -0.480591,-0.59649 -1.991804,-0.40169 -2.46303,0.31749 -0.393125,0.59999 -0.385353,0.80225 0.105437,2.74306 2.194125,8.67659 7.555004,14.8577 15.191683,17.51605 2.399958,0.83544 3.279118,0.92511 3.988006,0.40675 z m 77.758758,-9.17775 c 2.20668,-0.94606 5.61406,-4.83442 5.61406,-6.40653 0,-0.87878 -1.04793,-1.62793 -1.95776,-1.39958 -0.35233,0.0884 -0.91493,0.60682 -1.25023,1.15198 -0.84491,1.37372 -2.5657,3.20331 -3.43625,3.65349 -1.77965,0.92029 -3.74148,0.20278 -5.48846,-2.00732 -1.06012,-1.34114 -3.0761,-5.10933 -3.8612,-7.21719 -0.55681,-1.49492 -1.3461,-2.1251 -2.34705,-1.87387 -0.86955,0.21824 -1.30887,1.00597 -1.11149,1.99292 0.0834,0.41679 0.73221,1.98876 1.44188,3.49327 3.69588,7.83526 7.70809,10.62286 12.3965,8.61283 z M 107.17867,98.136066 c 0.60159,-0.544431 0.62337,-1.611915 0.0459,-2.250005 -0.38962,-0.430531 -0.90758,-0.483155 -4.75561,-0.483155 -3.966099,0 -4.36147,0.0431 -4.846767,0.528402 -0.634772,0.634771 -0.670666,1.26452 -0.11712,2.054819 0.396945,0.566721 0.564298,0.587189 4.800857,0.587189 3.7138,0 4.46397,-0.06732 4.87274,-0.43725 z m 0.46311,-4.836037 c 0.26049,-0.139411 0.69851,-0.58525 0.97338,-0.990753 0.43193,-0.637207 0.5212,-1.436571 0.65767,-5.889197 0.17958,-5.85898 0.30011,-6.347469 2.9764,-12.063215 1.67841,-3.58456 2.00214,-4.770246 2.01115,-7.366085 0.0251,-7.214082 -5.39884,-12.812768 -12.40043,-12.80006 -6.162204,0.01118 -11.285345,4.425926 -12.231784,10.540443 -0.40479,2.615166 -0.07064,4.32995 1.781073,9.139971 1.489422,3.868941 2.778344,8.302891 2.778344,9.557633 0,1.714592 1.54307,2.942515 3.286657,2.615416 2.010648,-0.377199 2.460782,-2.304819 1.485461,-6.361223 -0.531619,-2.21103 -2.385561,-7.591466 -3.550401,-10.303831 -0.784177,-1.825984 -0.852957,-2.933234 -0.298238,-4.801176 1.229126,-4.138914 6.140648,-6.209712 9.888378,-4.169144 2.38545,1.298833 3.71919,3.792199 3.71919,6.952878 0,1.226533 -0.25045,1.987469 -1.60468,4.875511 -2.69624,5.750047 -3.19856,7.569323 -3.35069,12.135326 l -0.12984,3.896962 h -2.86934 c -2.773346,0 -2.897213,0.02489 -3.702149,0.744105 -0.69354,0.619678 -0.832798,0.937039 -0.832798,1.897903 0,0.960864 0.139258,1.278224 0.832798,1.897902 l 0.832798,0.744106 h 4.636721 c 2.55019,0 4.84984,-0.114064 5.11033,-0.253472 z M 88.694201,83.304505 c 1.858877,-1.858878 3.379775,-3.588193 3.379775,-3.842922 0,-0.64971 -1.182652,-1.76013 -1.874626,-1.76013 -0.851699,0 -7.372402,6.52786 -7.372402,7.380494 0,0.90084 0.735927,1.602333 1.680986,1.602333 0.681022,0 1.332291,-0.525802 4.186267,-3.379775 z m 32.292289,3.028919 c 0.26459,-0.193472 0.47982,-0.680586 0.47982,-1.085934 0,-0.587545 -0.65619,-1.393844 -3.26948,-4.017376 -1.79822,-1.805266 -3.53786,-3.350838 -3.86586,-3.434605 -0.94266,-0.24074 -1.91277,0.550129 -1.91759,1.563289 -0.004,0.745619 0.41222,1.258536 3.31451,4.089022 3.46675,3.380978 4.10338,3.730323 5.2586,2.885604 z M 87.338684,71.380956 c 1.054309,-1.054309 1.054846,-2.337698 0.0016,-3.516813 L 86.56936,67.001321 71.289973,66.923671 c -8.403665,-0.04271 -15.679068,-0.0051 -16.167562,0.08356 -2.144821,0.389294 -2.915603,2.835979 -1.377857,4.373722 l 0.772277,0.77228 h 16.024796 16.024795 z m 59.709376,0 c 1.0543,-1.054301 1.05485,-2.337693 0.002,-3.516813 l -0.77089,-0.862822 -14.1567,-0.07276 c -15.79993,-0.0812 -15.41115,-0.122175 -16.17443,1.704607 -0.46643,1.11632 -0.1605,2.328677 0.7701,3.051839 0.54002,0.419641 1.7564,0.456951 15.07274,0.462352 l 14.48532,0.0059 0.77227,-0.77228 z M 91.545575,57.093791 c 1.078108,-1.078108 0.820399,-1.449294 -4.813345,-6.932729 -5.608304,-5.458676 -6.029688,-5.738108 -7.075691,-4.692106 -1.05446,1.05446 -0.779554,1.461084 4.687086,6.932854 5.577273,5.582504 6.021812,5.872119 7.20195,4.691981 z m 28.387035,-4.557463 c 5.58022,-5.419596 5.87073,-5.851258 4.76224,-7.076127 -1.02944,-1.137517 -1.51622,-0.813459 -7.04439,4.689622 -5.47193,5.447091 -5.78219,5.899244 -4.79577,6.989215 1.00865,1.11455 1.56111,0.75529 7.07792,-4.60271 z m -17.79868,-1.498833 0.77228,-0.772277 V 37.022845 23.780473 l -0.63775,-0.637748 c -1.18413,-1.184133 -2.824386,-1.184133 -4.008518,0 l -0.637749,0.637748 v 13.242372 13.242373 l 0.77228,0.772277 c 0.605678,0.605681 1.009025,0.77228 1.869727,0.77228 0.8607,0 1.26405,-0.166599 1.86973,-0.77228 z"
     id="path3835"
     inkscape:connector-curvature="0" /><path
     style="fill:#fecf89;fill-opacity:0;stroke-width:0.26420081"
     d="m 92.153236,199.60062 c -4.125109,-0.41273 -8.496113,-1.04765 -11.871402,-1.7244 C 49.643041,191.73305 23.549905,171.4262 10.000223,143.17991 5.0299207,132.81859 2.1722164,122.83832 0.70692346,110.72392 0.14463192,106.07513 0.06724336,94.947773 0.56545709,90.383091 2.7352481,70.503266 10.013365,52.660901 22.173484,37.410832 25.338621,33.441416 33.581443,25.235348 37.595773,22.057306 60.559554,3.8774716 89.578124,-3.4512248 117.91281,1.773082 c 44.52512,8.2094726 77.72516,44.842308 81.62349,90.063114 0.55988,6.494628 0.29014,15.400704 -0.67217,22.192864 -5.64385,39.83573 -35.13319,72.79134 -73.95,82.64231 -9.11799,2.31397 -13.39518,2.85107 -23.51387,2.95272 -4.504619,0.0453 -8.665782,0.0347 -9.247024,-0.0235 z m 28.342794,-41.2008 c 0.58961,-0.41298 0.78389,-1.51237 0.37962,-2.14815 -0.52133,-0.81988 -1.84311,-0.87518 -20.917423,-0.87518 -18.076238,0 -19.252726,-0.028 -19.431699,-0.46236 -0.416953,-1.01192 -3.752417,-27.68188 -3.518985,-28.13738 0.223088,-0.43532 1.673321,-0.46235 24.806607,-0.46235 22.93251,0 24.58122,0.0301 24.74296,0.45157 0.0953,0.24836 -0.69498,7.18531 -1.7562,15.41544 -1.06557,8.26396 -1.84651,15.22528 -1.74417,15.54772 0.34886,1.09915 2.15199,1.25192 2.96075,0.25084 0.32409,-0.40115 4.04856,-28.73082 4.04856,-30.79477 0,-1.63248 -0.7495,-2.84128 -2.24571,-3.62193 -1.04974,-0.5477 -1.22364,-0.55138 -26.02377,-0.55138 -23.170205,0 -25.027096,0.0329 -25.802303,0.45707 -1.049202,0.5741 -1.859694,1.59214 -2.174106,2.73085 -0.183339,0.664 0.203445,4.35029 1.569968,14.96282 2.042558,15.86266 2.057926,15.92517 4.189073,17.03958 l 1.16441,0.60889 h 19.582618 c 17.2962,0 19.65118,-0.048 20.1698,-0.41128 z m -83.24524,-1.54695 0.741284,-0.63721 0.140734,-10.52527 0.140735,-10.52526 0.810814,-2.12281 c 1.320449,-3.45708 3.181482,-6.02954 5.868153,-8.11137 5.654103,-4.38124 12.200454,-5.40872 19.538124,-3.06661 2.106235,0.67229 2.583215,0.74213 3.34692,0.49009 1.088095,-0.35911 1.726515,-1.27172 1.726515,-2.46803 0,-1.23566 -0.811353,-2.1592 -2.450442,-2.78925 l -1.38047,-0.53065 1.992048,-0.0138 c 3.581725,-0.0248 6.481807,-1.12791 9.061532,-3.4469 5.693218,-5.1178 5.773712,-13.837779 0.176473,-19.117932 -4.192262,-3.954767 -9.845194,-4.87078 -14.989625,-2.428949 -6.707337,3.18367 -9.440541,10.885611 -6.234349,17.567881 1.140909,2.37785 3.491081,4.83938 5.65622,5.92421 l 1.431492,0.71725 -1.849405,-0.20912 c -6.658095,-0.75284 -12.396695,0.51617 -17.461696,3.86142 -4.105588,2.7116 -7.324159,6.52267 -9.089139,10.76233 -1.481746,3.55932 -1.576922,4.50538 -1.581963,15.72489 l -0.0046,10.2143 0.812874,0.68399 c 1.081565,0.91007 2.570936,0.92943 3.597757,0.0468 z m 124.53968,-0.13506 0.77228,-0.77227 v -10.2032 c 0,-11.38157 -0.13367,-12.65609 -1.71383,-16.34169 -1.25704,-2.93194 -2.3962,-4.72714 -4.33322,-6.82872 -3.83558,-4.16143 -8.84889,-6.59037 -14.95692,-7.24659 -1.33006,-0.1429 -1.50623,-0.2184 -1.09455,-0.46909 5.94054,-3.61753 8.24252,-10.88235 5.36693,-16.937529 -3.61444,-7.61098 -13.39676,-10.098282 -20.02667,-5.092082 -5.22853,3.94804 -6.90264,10.493471 -4.15861,16.259401 1.63855,3.44302 5.48844,6.46198 9.22467,7.23369 l 1.52391,0.31476 -1.23025,0.57529 c -0.67664,0.31642 -1.46534,0.83943 -1.75266,1.16225 -0.74996,0.84264 -0.69747,2.44221 0.10831,3.29992 0.98516,1.04865 1.97933,1.09352 4.24745,0.1917 3.9483,-1.56988 8.17642,-1.62856 12.05845,-0.16737 4.94232,1.86029 8.76545,5.84628 10.5362,10.98504 l 0.76485,2.2196 0.14201,10.65738 0.14201,10.65736 0.74129,0.63722 c 1.088,0.93525 2.62509,0.87819 3.63835,-0.13507 z M 71.149273,146.39366 c 1.115726,-1.11573 0.26855,-2.34834 -1.981505,-2.88304 -0.726553,-0.17265 -2.331572,-0.80878 -3.566711,-1.41361 -1.826426,-0.89437 -2.689665,-1.54548 -4.62358,-3.48739 -3.252338,-3.26577 -4.763435,-5.96018 -5.954576,-10.61751 -0.617178,-2.41313 -0.848869,-2.73451 -1.971382,-2.73451 -1.593477,0 -1.854354,1.01394 -1.032552,4.01319 2.344724,8.55729 8.267892,14.97778 15.827797,17.15673 2.095537,0.60399 2.670557,0.59809 3.302509,-0.0339 z m 77.807757,-9.09985 c 2.27025,-1.00737 5.41549,-4.60782 5.41549,-6.19926 0,-1.73457 -2.23561,-2.10518 -3.06176,-0.50758 -0.56704,1.09654 -2.67935,3.33881 -3.58787,3.80862 -1.19775,0.61938 -2.64794,0.47058 -3.84175,-0.39421 -1.61602,-1.17065 -3.81817,-4.69254 -5.3553,-8.56472 -0.7596,-1.91352 -1.52081,-2.49511 -2.65229,-2.02643 -1.22861,0.5089 -1.25744,1.28304 -0.14565,3.91071 3.12379,7.38291 7.08239,11.2356 10.9828,10.68892 0.50859,-0.0713 1.51943,-0.3935 2.24633,-0.71605 z m -41.8312,-39.157744 c 0.60159,-0.544431 0.62337,-1.611915 0.0459,-2.250005 -0.3893,-0.430172 -0.9063,-0.483155 -4.71466,-0.483155 -3.917868,0 -4.316951,0.04368 -4.747694,0.519646 -0.258652,0.285807 -0.470274,0.841266 -0.470274,1.234352 0,1.262414 0.563366,1.416412 5.181608,1.416412 3.55782,0 4.29797,-0.06878 4.70512,-0.43725 z m 0.71716,-5.013873 c 1.31643,-0.922064 1.60328,-2.202743 1.6096,-7.186138 0.007,-5.323558 0.19855,-6.091976 3.01179,-12.065513 l 1.61752,-3.434611 -0.0114,-3.43461 c -0.0131,-3.950555 -0.43706,-5.429308 -2.2525,-7.857453 -2.23862,-2.994137 -5.37835,-4.654248 -9.24339,-4.887374 -6.360101,-0.383622 -11.793065,3.915136 -12.93535,10.234919 -0.446624,2.470967 -0.134249,4.412212 1.316911,8.183908 1.780777,4.628407 2.878906,8.185509 3.078962,9.973506 0.09388,0.839051 0.352687,1.842362 0.575125,2.229585 0.834962,1.453498 2.743184,1.699012 4.060074,0.522373 0.784291,-0.700764 0.841987,-0.867977 0.801863,-2.32386 -0.05927,-2.150397 -1.0513,-5.897062 -2.684758,-10.139662 -0.753469,-1.956972 -1.55022,-4.033696 -1.770566,-4.614938 -0.776959,-2.049509 0.214822,-5.261337 2.14906,-6.959617 1.387331,-1.218095 2.67703,-1.696108 4.633019,-1.717176 4.13962,-0.04459 6.86685,2.999287 6.86685,7.664138 0,1.47707 -0.16621,2.012605 -1.46873,4.732428 -0.8078,1.686784 -1.89449,4.333807 -2.41487,5.882272 -0.86057,2.56074 -0.95797,3.153947 -1.07687,6.558396 l -0.13072,3.743004 -3.02608,0.08791 c -2.940031,0.08541 -3.044187,0.108985 -3.663122,0.829191 -0.935068,1.088066 -0.877937,2.625186 0.135231,3.638352 l 0.772277,0.77228 h 4.717154 c 3.93558,0 4.81918,-0.07146 5.33293,-0.431308 z M 88.629873,83.328774 c 2.07958,-2.057656 3.391263,-3.558346 3.391263,-3.879934 0,-0.672341 -1.004383,-1.747387 -1.632531,-1.747387 -0.641778,0 -7.320922,6.2639 -7.518489,7.05106 -0.239278,0.953368 0.540006,1.931767 1.538634,1.931767 0.708772,0 1.324679,-0.489606 4.221123,-3.355506 z m 32.453347,2.827104 c 0.29062,-0.29062 0.5284,-0.731595 0.5284,-0.979944 0,-0.248349 -1.58016,-2.031704 -3.51146,-3.963012 -3.69135,-3.691347 -4.20476,-3.985469 -5.20716,-2.983067 -1.0366,1.036599 -0.7321,1.585178 2.84016,5.116626 3.61176,3.570507 4.25249,3.906967 5.35006,2.809397 z M 87.285844,71.380956 c 1.537746,-1.537743 0.766964,-3.984428 -1.377857,-4.373722 -0.488494,-0.08866 -7.763897,-0.126267 -16.167562,-0.08356 l -15.279387,0.07765 -0.770811,0.862822 c -1.053374,1.179115 -1.052837,2.462504 0.0016,3.516813 l 0.772164,0.77228 h 16.024795 16.024796 z m 59.709376,0 c 1.34006,-1.340052 0.98892,-3.434797 -0.6936,-4.137801 -1.37477,-0.574413 -28.07176,-0.551454 -29.1867,0.0251 -0.97649,0.504964 -1.31571,1.14084 -1.31571,2.466317 0,0.848911 0.1561,1.182042 0.81287,1.734676 l 0.81287,0.683987 h 14.399 14.399 z M 91.492734,57.093791 c 1.056613,-1.056613 0.782304,-1.460507 -4.708922,-6.933397 -5.58549,-5.566843 -6.020486,-5.851065 -7.180113,-4.691438 -1.050188,1.050188 -0.775126,1.455903 4.696903,6.927932 5.581343,5.581342 6.02074,5.868296 7.192132,4.696903 z m 28.452696,-4.549035 c 2.80597,-2.79259 5.16759,-5.284796 5.24803,-5.538236 0.15358,-0.483889 -0.28629,-1.533294 -0.78123,-1.86377 -0.96989,-0.647614 -1.59704,-0.186813 -6.81461,5.007073 -5.47193,5.447091 -5.78219,5.899244 -4.79577,6.989215 0.24073,0.266006 0.79782,0.483155 1.23952,0.483155 0.68876,0 1.52415,-0.718425 5.90406,-5.077437 z m -17.80199,-1.47599 0.70993,-0.741009 V 37.101754 c 0,-12.919442 -0.0125,-13.241911 -0.53985,-13.912311 -0.66352,-0.843523 -2.07621,-1.154445 -3.175824,-0.698971 -1.603273,0.664097 -1.590055,0.533252 -1.509485,14.944173 l 0.07324,13.100177 0.741284,0.637477 c 1.08576,0.933712 2.751615,0.887107 3.700705,-0.103533 z"
     id="path4642"
     inkscape:connector-curvature="0" /><path
     style="fill:#fecf89;fill-opacity:0;stroke-width:0.26420081"
     d="m 92.153236,199.60062 c -4.125109,-0.41273 -8.496113,-1.04765 -11.871402,-1.7244 C 49.643041,191.73305 23.549905,171.4262 10.000223,143.17991 5.0299207,132.81859 2.1722164,122.83832 0.70692346,110.72392 0.14463192,106.07513 0.06724336,94.947773 0.56545709,90.383091 2.7352481,70.503266 10.013365,52.660901 22.173484,37.410832 25.338621,33.441416 33.581443,25.235348 37.595773,22.057306 60.559554,3.8774716 89.578124,-3.4512248 117.91281,1.773082 c 44.52512,8.2094726 77.72516,44.842308 81.62349,90.063114 0.55988,6.494628 0.29014,15.400704 -0.67217,22.192864 -5.64385,39.83573 -35.13319,72.79134 -73.95,82.64231 -9.11799,2.31397 -13.39518,2.85107 -23.51387,2.95272 -4.504619,0.0453 -8.665782,0.0347 -9.247024,-0.0235 z m 28.342794,-41.2008 c 0.58961,-0.41298 0.78389,-1.51237 0.37962,-2.14815 -0.52133,-0.81988 -1.84311,-0.87518 -20.917423,-0.87518 -18.076238,0 -19.252726,-0.028 -19.431699,-0.46236 -0.416953,-1.01192 -3.752417,-27.68188 -3.518985,-28.13738 0.223088,-0.43532 1.673321,-0.46235 24.806607,-0.46235 22.93251,0 24.58122,0.0301 24.74296,0.45157 0.0953,0.24836 -0.69498,7.18531 -1.7562,15.41544 -1.06557,8.26396 -1.84651,15.22528 -1.74417,15.54772 0.34886,1.09915 2.15199,1.25192 2.96075,0.25084 0.32409,-0.40115 4.04856,-28.73082 4.04856,-30.79477 0,-1.63248 -0.7495,-2.84128 -2.24571,-3.62193 -1.04974,-0.5477 -1.22364,-0.55138 -26.02377,-0.55138 -23.170205,0 -25.027096,0.0329 -25.802303,0.45707 -1.049202,0.5741 -1.859694,1.59214 -2.174106,2.73085 -0.183339,0.664 0.203445,4.35029 1.569968,14.96282 2.042558,15.86266 2.057926,15.92517 4.189073,17.03958 l 1.16441,0.60889 h 19.582618 c 17.2962,0 19.65118,-0.048 20.1698,-0.41128 z m -83.24524,-1.54695 0.741284,-0.63721 0.140734,-10.52527 0.140735,-10.52526 0.810814,-2.12281 c 1.320449,-3.45708 3.181482,-6.02954 5.868153,-8.11137 5.654103,-4.38124 12.200454,-5.40872 19.538124,-3.06661 2.106235,0.67229 2.583215,0.74213 3.34692,0.49009 1.088095,-0.35911 1.726515,-1.27172 1.726515,-2.46803 0,-1.23566 -0.811353,-2.1592 -2.450442,-2.78925 l -1.38047,-0.53065 1.992048,-0.0138 c 3.581725,-0.0248 6.481807,-1.12791 9.061532,-3.4469 5.693218,-5.1178 5.773712,-13.837779 0.176473,-19.117932 -4.192262,-3.954767 -9.845194,-4.87078 -14.989625,-2.428949 -6.707337,3.18367 -9.440541,10.885611 -6.234349,17.567881 1.140909,2.37785 3.491081,4.83938 5.65622,5.92421 l 1.431492,0.71725 -1.849405,-0.20912 c -6.658095,-0.75284 -12.396695,0.51617 -17.461696,3.86142 -4.105588,2.7116 -7.324159,6.52267 -9.089139,10.76233 -1.481746,3.55932 -1.576922,4.50538 -1.581963,15.72489 l -0.0046,10.2143 0.812874,0.68399 c 1.081565,0.91007 2.570936,0.92943 3.597757,0.0468 z m 124.53968,-0.13506 0.77228,-0.77227 v -10.2032 c 0,-11.38157 -0.13367,-12.65609 -1.71383,-16.34169 -1.25704,-2.93194 -2.3962,-4.72714 -4.33322,-6.82872 -3.83558,-4.16143 -8.84889,-6.59037 -14.95692,-7.24659 -1.33006,-0.1429 -1.50623,-0.2184 -1.09455,-0.46909 5.94054,-3.61753 8.24252,-10.88235 5.36693,-16.937529 -3.61444,-7.61098 -13.39676,-10.098282 -20.02667,-5.092082 -5.22853,3.94804 -6.90264,10.493471 -4.15861,16.259401 1.63855,3.44302 5.48844,6.46198 9.22467,7.23369 l 1.52391,0.31476 -1.23025,0.57529 c -0.67664,0.31642 -1.46534,0.83943 -1.75266,1.16225 -0.74996,0.84264 -0.69747,2.44221 0.10831,3.29992 0.98516,1.04865 1.97933,1.09352 4.24745,0.1917 3.9483,-1.56988 8.17642,-1.62856 12.05845,-0.16737 4.94232,1.86029 8.76545,5.84628 10.5362,10.98504 l 0.76485,2.2196 0.14201,10.65738 0.14201,10.65736 0.74129,0.63722 c 1.088,0.93525 2.62509,0.87819 3.63835,-0.13507 z M 71.149273,146.39366 c 1.115726,-1.11573 0.26855,-2.34834 -1.981505,-2.88304 -0.726553,-0.17265 -2.331572,-0.80878 -3.566711,-1.41361 -1.826426,-0.89437 -2.689665,-1.54548 -4.62358,-3.48739 -3.252338,-3.26577 -4.763435,-5.96018 -5.954576,-10.61751 -0.617178,-2.41313 -0.848869,-2.73451 -1.971382,-2.73451 -1.593477,0 -1.854354,1.01394 -1.032552,4.01319 2.344724,8.55729 8.267892,14.97778 15.827797,17.15673 2.095537,0.60399 2.670557,0.59809 3.302509,-0.0339 z m 77.807757,-9.09985 c 2.27025,-1.00737 5.41549,-4.60782 5.41549,-6.19926 0,-1.73457 -2.23561,-2.10518 -3.06176,-0.50758 -0.56704,1.09654 -2.67935,3.33881 -3.58787,3.80862 -1.19775,0.61938 -2.64794,0.47058 -3.84175,-0.39421 -1.61602,-1.17065 -3.81817,-4.69254 -5.3553,-8.56472 -0.7596,-1.91352 -1.52081,-2.49511 -2.65229,-2.02643 -1.22861,0.5089 -1.25744,1.28304 -0.14565,3.91071 3.12379,7.38291 7.08239,11.2356 10.9828,10.68892 0.50859,-0.0713 1.51943,-0.3935 2.24633,-0.71605 z m -41.8312,-39.157744 c 0.60159,-0.544431 0.62337,-1.611915 0.0459,-2.250005 -0.3893,-0.430172 -0.9063,-0.483155 -4.71466,-0.483155 -3.917868,0 -4.316951,0.04368 -4.747694,0.519646 -0.258652,0.285807 -0.470274,0.841266 -0.470274,1.234352 0,1.262414 0.563366,1.416412 5.181608,1.416412 3.55782,0 4.29797,-0.06878 4.70512,-0.43725 z m 0.71716,-5.013873 c 1.31643,-0.922064 1.60328,-2.202743 1.6096,-7.186138 0.007,-5.323558 0.19855,-6.091976 3.01179,-12.065513 l 1.61752,-3.434611 -0.0114,-3.43461 c -0.0131,-3.950555 -0.43706,-5.429308 -2.2525,-7.857453 -2.23862,-2.994137 -5.37835,-4.654248 -9.24339,-4.887374 -6.360101,-0.383622 -11.793065,3.915136 -12.93535,10.234919 -0.446624,2.470967 -0.134249,4.412212 1.316911,8.183908 1.780777,4.628407 2.878906,8.185509 3.078962,9.973506 0.09388,0.839051 0.352687,1.842362 0.575125,2.229585 0.834962,1.453498 2.743184,1.699012 4.060074,0.522373 0.784291,-0.700764 0.841987,-0.867977 0.801863,-2.32386 -0.05927,-2.150397 -1.0513,-5.897062 -2.684758,-10.139662 -0.753469,-1.956972 -1.55022,-4.033696 -1.770566,-4.614938 -0.776959,-2.049509 0.214822,-5.261337 2.14906,-6.959617 1.387331,-1.218095 2.67703,-1.696108 4.633019,-1.717176 4.13962,-0.04459 6.86685,2.999287 6.86685,7.664138 0,1.47707 -0.16621,2.012605 -1.46873,4.732428 -0.8078,1.686784 -1.89449,4.333807 -2.41487,5.882272 -0.86057,2.56074 -0.95797,3.153947 -1.07687,6.558396 l -0.13072,3.743004 -3.02608,0.08791 c -2.940031,0.08541 -3.044187,0.108985 -3.663122,0.829191 -0.935068,1.088066 -0.877937,2.625186 0.135231,3.638352 l 0.772277,0.77228 h 4.717154 c 3.93558,0 4.81918,-0.07146 5.33293,-0.431308 z M 88.629873,83.328774 c 2.07958,-2.057656 3.391263,-3.558346 3.391263,-3.879934 0,-0.672341 -1.004383,-1.747387 -1.632531,-1.747387 -0.641778,0 -7.320922,6.2639 -7.518489,7.05106 -0.239278,0.953368 0.540006,1.931767 1.538634,1.931767 0.708772,0 1.324679,-0.489606 4.221123,-3.355506 z m 32.453347,2.827104 c 0.29062,-0.29062 0.5284,-0.731595 0.5284,-0.979944 0,-0.248349 -1.58016,-2.031704 -3.51146,-3.963012 -3.69135,-3.691347 -4.20476,-3.985469 -5.20716,-2.983067 -1.0366,1.036599 -0.7321,1.585178 2.84016,5.116626 3.61176,3.570507 4.25249,3.906967 5.35006,2.809397 z M 87.285844,71.380956 c 1.537746,-1.537743 0.766964,-3.984428 -1.377857,-4.373722 -0.488494,-0.08866 -7.763897,-0.126267 -16.167562,-0.08356 l -15.279387,0.07765 -0.770811,0.862822 c -1.053374,1.179115 -1.052837,2.462504 0.0016,3.516813 l 0.772164,0.77228 h 16.024795 16.024796 z m 59.709376,0 c 1.34006,-1.340052 0.98892,-3.434797 -0.6936,-4.137801 -1.37477,-0.574413 -28.07176,-0.551454 -29.1867,0.0251 -0.97649,0.504964 -1.31571,1.14084 -1.31571,2.466317 0,0.848911 0.1561,1.182042 0.81287,1.734676 l 0.81287,0.683987 h 14.399 14.399 z M 91.492734,57.093791 c 1.056613,-1.056613 0.782304,-1.460507 -4.708922,-6.933397 -5.58549,-5.566843 -6.020486,-5.851065 -7.180113,-4.691438 -1.050188,1.050188 -0.775126,1.455903 4.696903,6.927932 5.581343,5.581342 6.02074,5.868296 7.192132,4.696903 z m 28.452696,-4.549035 c 2.80597,-2.79259 5.16759,-5.284796 5.24803,-5.538236 0.15358,-0.483889 -0.28629,-1.533294 -0.78123,-1.86377 -0.96989,-0.647614 -1.59704,-0.186813 -6.81461,5.007073 -5.47193,5.447091 -5.78219,5.899244 -4.79577,6.989215 0.24073,0.266006 0.79782,0.483155 1.23952,0.483155 0.68876,0 1.52415,-0.718425 5.90406,-5.077437 z m -17.80199,-1.47599 0.70993,-0.741009 V 37.101754 c 0,-12.919442 -0.0125,-13.241911 -0.53985,-13.912311 -0.66352,-0.843523 -2.07621,-1.154445 -3.175824,-0.698971 -1.603273,0.664097 -1.590055,0.533252 -1.509485,14.944173 l 0.07324,13.100177 0.741284,0.637477 c 1.08576,0.933712 2.751615,0.887107 3.700705,-0.103533 z"
     id="path4644"
     inkscape:connector-curvature="0" /></svg>