<?xml version="1.0" encoding="UTF-8" standalone="no"?>
<!-- Generator: Adobe Illustrator 19.0.0, SVG Export Plug-In . SVG Version: 6.00 Build 0)  -->

<svg
   xmlns:dc="http://purl.org/dc/elements/1.1/"
   xmlns:cc="http://creativecommons.org/ns#"
   xmlns:rdf="http://www.w3.org/1999/02/22-rdf-syntax-ns#"
   xmlns:svg="http://www.w3.org/2000/svg"
   xmlns="http://www.w3.org/2000/svg"
   xmlns:sodipodi="http://sodipodi.sourceforge.net/DTD/sodipodi-0.dtd"
   xmlns:inkscape="http://www.inkscape.org/namespaces/inkscape"
   version="1.1"
   id="Layer_1"
   x="0px"
   y="0px"
   viewBox="0 0 200 200"
   style="enable-background:new 0 0 200 200;"
   xml:space="preserve"
   sodipodi:docname="tutorials-icon.svg"
   inkscape:version="0.92.2 5c3e80d, 2017-08-06"
   inkscape:export-filename="/Users/ernestd/ernestd/pycon/pycon/static/img/SVG/tutorials-icon.png"
   inkscape:export-xdpi="96"
   inkscape:export-ydpi="96"><metadata
     id="metadata5417"><rdf:RDF><cc:Work
         rdf:about=""><dc:format>image/svg+xml</dc:format><dc:type
           rdf:resource="http://purl.org/dc/dcmitype/StillImage" /></cc:Work></rdf:RDF></metadata><defs
     id="defs5415" /><sodipodi:namedview
     pagecolor="#ffffff"
     bordercolor="#666666"
     borderopacity="1"
     objecttolerance="10"
     gridtolerance="10"
     guidetolerance="10"
     inkscape:pageopacity="0"
     inkscape:pageshadow="2"
     inkscape:window-width="1513"
     inkscape:window-height="1062"
     id="namedview5413"
     showgrid="true"
     inkscape:zoom="1.18"
     inkscape:cx="-205.08475"
     inkscape:cy="100"
     inkscape:window-x="0"
     inkscape:window-y="0"
     inkscape:window-maximized="0"
     inkscape:current-layer="Layer_1"><inkscape:grid
       type="xygrid"
       id="grid5421" /></sodipodi:namedview><style
     type="text/css"
     id="style5395">
	.st0{fill:#BA9F6F;}
	.st1{fill:#FFFFFF;}
</style><circle
     style="opacity:1;fill:#3492b3;fill-opacity:1;stroke-width:2.93218613"
     id="path5419"
     cx="100"
     cy="100"
     r="100" /><g
     id="XMLID_53_"
     transform="translate(3.427,9.898)"><path
       id="XMLID_54_"
       class="st1"
       d="m 86.5,53.9 c 0.2,0.2 0.5,0.3 0.8,0.3 0.1,0 0.2,0 0.3,0 1.8,-0.6 3.7,-1 5.5,-1.3 0.5,-0.1 0.9,-0.5 0.9,-1.1 V 50.6 C 94,50.3 93.9,50 93.6,49.8 93.4,49.6 93,49.5 92.7,49.6 90.4,50 88.1,50.5 86,51.3 c -0.4,0.1 -0.6,0.4 -0.7,0.8 -0.1,0.4 0,0.7 0.3,1 z"
       inkscape:connector-curvature="0"
       style="fill:#ffffff" /><path
       id="XMLID_55_"
       class="st1"
       d="m 62.3,71.5 h 1.4 c 0.3,0 0.7,-0.2 0.9,-0.5 1.5,-2.1 3.1,-4.1 4.9,-5.9 C 70.6,64 71.8,63 73,62 c 0.2,-0.2 0.4,-0.5 0.4,-0.8 0,-0.3 -0.1,-0.6 -0.3,-0.8 l -0.8,-0.8 c -0.4,-0.4 -1,-0.4 -1.4,-0.1 -1.3,1.1 -2.5,2.2 -3.7,3.4 -2.1,2.1 -4.1,4.5 -5.7,7 -0.2,0.3 -0.2,0.7 -0.1,1.1 0.1,0.3 0.5,0.5 0.9,0.5 z"
       inkscape:connector-curvature="0"
       style="fill:#ffffff" /><path
       id="XMLID_56_"
       class="st1"
       d="m 109,52.9 c 1.9,0.4 3.8,0.8 5.6,1.4 0.1,0 0.2,0.1 0.3,0.1 0.3,0 0.6,-0.1 0.8,-0.3 l 0.9,-0.9 c 0.3,-0.3 0.4,-0.6 0.3,-1 -0.1,-0.4 -0.3,-0.7 -0.7,-0.8 -2.2,-0.8 -4.5,-1.4 -6.9,-1.8 -0.3,-0.1 -0.6,0 -0.9,0.2 -0.2,0.2 -0.4,0.5 -0.4,0.8 v 1.2 c 0.1,0.5 0.5,1 1,1.1 z"
       inkscape:connector-curvature="0"
       style="fill:#ffffff" /><path
       id="XMLID_57_"
       class="st1"
       d="m 131.3,59.8 c -0.4,-0.4 -1.1,-0.3 -1.5,0.1 l -0.8,0.8 c -0.2,0.2 -0.3,0.5 -0.3,0.8 0,0.3 0.2,0.6 0.4,0.8 1.1,0.9 2.1,1.9 3.1,2.8 1.8,1.8 3.4,3.8 4.9,5.9 0.2,0.3 0.5,0.5 0.9,0.5 h 1.4 c 0.4,0 0.8,-0.2 1,-0.6 0.2,-0.4 0.2,-0.8 -0.1,-1.1 -1.7,-2.5 -3.6,-4.8 -5.7,-7 -1.1,-1 -2.2,-2 -3.3,-3 z"
       inkscape:connector-curvature="0"
       style="fill:#ffffff" /><path
       id="XMLID_58_"
       class="st1"
       d="m 147.2,86.4 c -0.1,-0.5 -0.5,-0.9 -1.1,-0.9 H 145 c -0.3,0 -0.6,0.1 -0.8,0.4 -0.2,0.3 -0.3,0.6 -0.2,0.9 0.7,3.2 1.1,6.5 1.1,9.8 v 0.1 c 0,0.1 0.5,14.3 -7,30.5 -4.4,9.5 -10.6,17.7 -18.4,24.5 -9.2,7.9 -20.7,13.9 -34.3,17.7 -0.2,0.1 -0.4,0 -0.6,-0.1 -0.2,-0.1 -0.3,-0.3 -0.3,-0.5 v -22.6 c 0,-0.9 -0.7,-1.6 -1.5,-1.7 -0.5,0 -0.9,0.1 -1.3,0.4 -0.3,0.3 -0.5,0.8 -0.5,1.2 v 25.7 c 0,0.3 0.1,0.5 0.2,0.8 0.3,0.6 0.9,0.9 1.5,0.9 0.1,0 0.3,0 0.4,-0.1 15.3,-3.9 28.3,-10.4 38.6,-19.2 8.2,-7.1 14.7,-15.7 19.3,-25.6 7.7,-16.7 7.3,-31.4 7.3,-32 -0.2,-3.4 -0.6,-6.8 -1.3,-10.2 z"
       inkscape:connector-curvature="0"
       style="fill:#ffffff" /><path
       id="XMLID_59_"
       class="st1"
       d="m 107,121.5 c 0,-0.4 -0.2,-0.9 -0.5,-1.2 -0.3,-0.3 -0.7,-0.5 -1.2,-0.5 h -6.9 l -0.3,-1 h 8.5 c 0.9,0 1.7,-0.7 1.7,-1.7 v -4.4 c 0,-0.9 -0.7,-1.7 -1.7,-1.7 H 93.8 v -1 h 12.8 c 0.9,0 1.7,-0.7 1.7,-1.7 v -5.8 c 0,-4.5 5.5,-14.3 7.6,-17.6 l 0.1,-0.1 c 1.1,-2.2 2.3,-4.9 2.3,-7.8 0,-4.6 -1.8,-9 -5,-12.2 -3.2,-3.3 -7.5,-5.1 -12.2,-5.1 -9.5,0 -17.2,7.8 -17.2,17.3 0,2.5 0.6,5.1 1.7,7.5 0.1,0.1 5.9,12.3 5.9,18 0,0.9 0.6,1.6 1.5,1.7 0.5,0.1 0.9,-0.1 1.3,-0.4 0.4,-0.3 0.6,-0.8 0.6,-1.2 0,-6.4 -6,-18.9 -6.2,-19.5 -0.9,-1.9 -1.4,-4 -1.4,-6.1 0,-7.7 6.2,-14 13.9,-14 3.7,0 7.2,1.5 9.8,4.1 2.6,2.6 4,6.2 4,9.9 0,2.2 -0.9,4.4 -1.9,6.2 -0.8,1.3 -8.1,13.1 -8.1,19.3 v 4.1 H 92.1 c -0.9,0 -1.7,0.7 -1.7,1.7 v 4.4 c 0,0.9 0.7,1.7 1.7,1.7 h 12.8 v 1 h -9.1 c -0.4,0 -0.7,0.1 -1,0.3 -0.6,0.4 -0.8,1.2 -0.6,1.9 l 1.5,4.4 c 0.2,0.7 0.9,1.1 1.6,1.1 h 6.4 c -0.9,8.3 -7.8,13.2 -18.5,13.2 -4.5,0 -9.1,-2.9 -11.5,-4.7 -10.8,-8.6 -17.1,-21.3 -17.1,-35 0,-3.3 0.4,-6.6 1.1,-9.8 0.1,-0.3 0,-0.6 -0.2,-0.9 -0.2,-0.3 -0.5,-0.4 -0.8,-0.4 h -1.2 c -0.5,0 -1,0.4 -1.1,0.8 -0.7,3.3 -1.1,6.8 -1.1,10.2 0,14.7 6.7,28.4 18.3,37.6 v 0 c 3.3,2.4 8.3,5.4 13.5,5.4 13.3,0.1 21.9,-7 21.9,-18 z"
       inkscape:connector-curvature="0"
       style="fill:#ffffff" /><path
       id="XMLID_60_"
       class="st1"
       d="m 169,78.2 h -45.3 c -2.3,0 -2.5,1.5 -2.5,2 0,0.5 0.2,2 2.5,2 H 169 c 2.3,0 2.5,-1.5 2.5,-2 0,-0.5 -0.2,-2 -2.5,-2 z"
       inkscape:connector-curvature="0"
       style="fill:#ffffff" /><path
       id="XMLID_61_"
       class="st1"
       d="m 81.2,80.2 c 0,-0.5 -0.2,-2 -2.5,-2 H 33.5 c -2.3,0 -2.5,1.5 -2.5,2 0,0.5 0.2,2 2.5,2 h 45.3 c 2.2,0 2.4,-1.5 2.4,-2 z"
       inkscape:connector-curvature="0"
       style="fill:#ffffff" /><path
       id="XMLID_62_"
       class="st1"
       d="m 115.5,62.6 c 0,0.4 0.2,0.9 0.5,1.2 0.3,0.3 0.7,0.5 1.2,0.5 0.4,0 0.9,-0.2 1.2,-0.5 L 136,46.2 c 0.6,-0.6 0.6,-1.7 0,-2.3 -0.6,-0.6 -1.7,-0.6 -2.3,0 L 116,61.5 c -0.4,0.3 -0.5,0.7 -0.5,1.1 z"
       inkscape:connector-curvature="0"
       style="fill:#ffffff" /><path
       id="XMLID_63_"
       class="st1"
       d="m 66.5,113.3 c 0.3,0.3 0.7,0.5 1.2,0.5 0.4,0 0.9,-0.2 1.2,-0.5 L 86.5,95.7 C 86.8,95.4 87,95 87,94.5 87,94 86.8,93.6 86.5,93.3 c -0.6,-0.6 -1.7,-0.6 -2.3,0 l -17.6,17.6 c -0.7,0.7 -0.7,1.7 -0.1,2.4 z"
       inkscape:connector-curvature="0"
       style="fill:#ffffff" /><path
       id="XMLID_64_"
       class="st1"
       d="m 116,93.3 c -0.3,0.3 -0.5,0.7 -0.5,1.2 0,0.5 0.2,0.9 0.5,1.2 l 17.6,17.6 c 0.3,0.3 0.7,0.5 1.2,0.5 0.5,0 0.9,-0.2 1.2,-0.5 0.6,-0.6 0.6,-1.7 0,-2.3 L 118.4,93.4 c -0.7,-0.8 -1.8,-0.8 -2.4,-0.1 z"
       inkscape:connector-curvature="0"
       style="fill:#ffffff" /><path
       id="XMLID_65_"
       class="st1"
       d="m 84.2,63.8 c 0.3,0.3 0.7,0.5 1.2,0.5 0.4,0 0.9,-0.2 1.2,-0.5 0.3,-0.3 0.5,-0.7 0.5,-1.2 0,-0.4 -0.2,-0.9 -0.5,-1.2 L 68.9,43.8 c -0.6,-0.6 -1.7,-0.6 -2.3,0 -0.6,0.6 -0.6,1.7 0,2.3 z"
       inkscape:connector-curvature="0"
       style="fill:#ffffff" /><path
       id="XMLID_66_"
       class="st1"
       d="m 97,58.7 c 0.5,0 2,-0.2 2,-2.5 V 10.9 c 0,-2.3 -1.5,-2.5 -2,-2.5 -0.5,0 -2,0.2 -2,2.5 v 45.3 c -0.1,2.3 1.5,2.5 2,2.5 z"
       inkscape:connector-curvature="0"
       style="fill:#ffffff" /></g></svg>