<?xml version="1.0" encoding="utf-8"?>
<!-- Generator: Adobe Illustrator 19.0.0, SVG Export Plug-In . SVG Version: 6.00 Build 0)  -->
<svg version="1.1" id="Layer_1" xmlns="http://www.w3.org/2000/svg" xmlns:xlink="http://www.w3.org/1999/xlink" x="0px" y="0px"
	 viewBox="0 0 200 200" style="enable-background:new 0 0 200 200;" xml:space="preserve">
<style type="text/css">
	.st0{fill:#BA9F6F;}
	.st1{fill:#FFFFFF;}
</style>
<path id="XMLID_632_" class="st0" d="M199.7,99.1c0,13.6-2.2,26.3-7.1,38.2c-5.1,12.3-12.9,22.6-22.2,31.8
	c-9.3,9.3-19.3,17.7-31.6,22.9c-11.9,4.9-24.8,8-38.5,8c-13.6,0-26.8-2.6-38.7-7.5c-12.3-5.1-24.2-11.9-33.5-21.2
	C19,162,12,150.2,6.9,137.9C1.9,126,0.4,112.8,0.4,99.1c0-13.6,2.2-26.6,7.2-38.4c5.1-12.3,12.7-23.1,22-32.4
	C38.8,19,49,9.9,61.3,4.8C73.2-0.1,86.8,0,100.4,0c13.6,0,26.9,0.5,38.8,5.5c12.3,5.1,23.6,12.8,32.8,22.1
	c9.3,9.3,16.1,20.9,21.2,33.2C198.1,72.6,199.7,85.5,199.7,99.1z"/>
<g id="XMLID_53_">
	<path id="XMLID_54_" class="st1" d="M86.5,53.9c0.2,0.2,0.5,0.3,0.8,0.3c0.1,0,0.2,0,0.3,0c1.8-0.6,3.7-1,5.5-1.3
		c0.5-0.1,0.9-0.5,0.9-1.1v-1.2c0-0.3-0.1-0.6-0.4-0.8c-0.2-0.2-0.6-0.3-0.9-0.2c-2.3,0.4-4.6,0.9-6.7,1.7c-0.4,0.1-0.6,0.4-0.7,0.8
		c-0.1,0.4,0,0.7,0.3,1L86.5,53.9z"/>
	<path id="XMLID_55_" class="st1" d="M62.3,71.5h1.4c0.3,0,0.7-0.2,0.9-0.5c1.5-2.1,3.1-4.1,4.9-5.9C70.6,64,71.8,63,73,62
		c0.2-0.2,0.4-0.5,0.4-0.8c0-0.3-0.1-0.6-0.3-0.8l-0.8-0.8c-0.4-0.4-1-0.4-1.4-0.1c-1.3,1.1-2.5,2.2-3.7,3.4c-2.1,2.1-4.1,4.5-5.7,7
		c-0.2,0.3-0.2,0.7-0.1,1.1C61.5,71.3,61.9,71.5,62.3,71.5z"/>
	<path id="XMLID_56_" class="st1" d="M109,52.9c1.9,0.4,3.8,0.8,5.6,1.4c0.1,0,0.2,0.1,0.3,0.1c0.3,0,0.6-0.1,0.8-0.3l0.9-0.9
		c0.3-0.3,0.4-0.6,0.3-1c-0.1-0.4-0.3-0.7-0.7-0.8c-2.2-0.8-4.5-1.4-6.9-1.8c-0.3-0.1-0.6,0-0.9,0.2c-0.2,0.2-0.4,0.5-0.4,0.8v1.2
		C108.1,52.3,108.5,52.8,109,52.9z"/>
	<path id="XMLID_57_" class="st1" d="M131.3,59.8c-0.4-0.4-1.1-0.3-1.5,0.1l-0.8,0.8c-0.2,0.2-0.3,0.5-0.3,0.8
		c0,0.3,0.2,0.6,0.4,0.8c1.1,0.9,2.1,1.9,3.1,2.8c1.8,1.8,3.4,3.8,4.9,5.9c0.2,0.3,0.5,0.5,0.9,0.5h1.4c0.4,0,0.8-0.2,1-0.6
		c0.2-0.4,0.2-0.8-0.1-1.1c-1.7-2.5-3.6-4.8-5.7-7C133.5,61.8,132.4,60.8,131.3,59.8z"/>
	<path id="XMLID_58_" class="st1" d="M147.2,86.4c-0.1-0.5-0.5-0.9-1.1-0.9H145c-0.3,0-0.6,0.1-0.8,0.4c-0.2,0.3-0.3,0.6-0.2,0.9
		c0.7,3.2,1.1,6.5,1.1,9.8l0,0.1c0,0.1,0.5,14.3-7,30.5c-4.4,9.5-10.6,17.7-18.4,24.5c-9.2,7.9-20.7,13.9-34.3,17.7
		c-0.2,0.1-0.4,0-0.6-0.1c-0.2-0.1-0.3-0.3-0.3-0.5v-22.6c0-0.9-0.7-1.6-1.5-1.7c-0.5,0-0.9,0.1-1.3,0.4c-0.3,0.3-0.5,0.8-0.5,1.2
		v25.7c0,0.3,0.1,0.5,0.2,0.8c0.3,0.6,0.9,0.9,1.5,0.9c0.1,0,0.3,0,0.4-0.1c15.3-3.9,28.3-10.4,38.6-19.2
		c8.2-7.1,14.7-15.7,19.3-25.6c7.7-16.7,7.3-31.4,7.3-32C148.3,93.2,147.9,89.8,147.2,86.4z"/>
	<path id="XMLID_59_" class="st1" d="M107,121.5c0-0.4-0.2-0.9-0.5-1.2c-0.3-0.3-0.7-0.5-1.2-0.5h-6.9l-0.3-1h8.5
		c0.9,0,1.7-0.7,1.7-1.7v-4.4c0-0.9-0.7-1.7-1.7-1.7H93.8v-1h12.8c0.9,0,1.7-0.7,1.7-1.7v-5.8c0-4.5,5.5-14.3,7.6-17.6l0.1-0.1
		c1.1-2.2,2.3-4.9,2.3-7.8c0-4.6-1.8-9-5-12.2c-3.2-3.3-7.5-5.1-12.2-5.1c-9.5,0-17.2,7.8-17.2,17.3c0,2.5,0.6,5.1,1.7,7.5
		c0.1,0.1,5.9,12.3,5.9,18c0,0.9,0.6,1.6,1.5,1.7c0.5,0.1,0.9-0.1,1.3-0.4c0.4-0.3,0.6-0.8,0.6-1.2c0-6.4-6-18.9-6.2-19.5
		c-0.9-1.9-1.4-4-1.4-6.1c0-7.7,6.2-14,13.9-14c3.7,0,7.2,1.5,9.8,4.1c2.6,2.6,4,6.2,4,9.9c0,2.2-0.9,4.4-1.9,6.2
		c-0.8,1.3-8.1,13.1-8.1,19.3v4.1H92.1c-0.9,0-1.7,0.7-1.7,1.7v4.4c0,0.9,0.7,1.7,1.7,1.7h12.8v1h-9.1c-0.4,0-0.7,0.1-1,0.3
		c-0.6,0.4-0.8,1.2-0.6,1.9l1.5,4.4c0.2,0.7,0.9,1.1,1.6,1.1h6.4c-0.9,8.3-7.8,13.2-18.5,13.2c-4.5,0-9.1-2.9-11.5-4.7
		c-10.8-8.6-17.1-21.3-17.1-35c0-3.3,0.4-6.6,1.1-9.8c0.1-0.3,0-0.6-0.2-0.9c-0.2-0.3-0.5-0.4-0.8-0.4h-1.2c-0.5,0-1,0.4-1.1,0.8
		c-0.7,3.3-1.1,6.8-1.1,10.2c0,14.7,6.7,28.4,18.3,37.6l0,0c3.3,2.4,8.3,5.4,13.5,5.4C98.4,139.6,107,132.5,107,121.5z"/>
	<path id="XMLID_60_" class="st1" d="M169,78.2h-45.3c-2.3,0-2.5,1.5-2.5,2s0.2,2,2.5,2H169c2.3,0,2.5-1.5,2.5-2
		S171.3,78.2,169,78.2z"/>
	<path id="XMLID_61_" class="st1" d="M81.2,80.2c0-0.5-0.2-2-2.5-2H33.5c-2.3,0-2.5,1.5-2.5,2s0.2,2,2.5,2h45.3
		C81,82.2,81.2,80.7,81.2,80.2z"/>
	<path id="XMLID_62_" class="st1" d="M115.5,62.6c0,0.4,0.2,0.9,0.5,1.2c0.3,0.3,0.7,0.5,1.2,0.5c0.4,0,0.9-0.2,1.2-0.5L136,46.2
		c0.6-0.6,0.6-1.7,0-2.3c-0.6-0.6-1.7-0.6-2.3,0L116,61.5C115.6,61.8,115.5,62.2,115.5,62.6z"/>
	<path id="XMLID_63_" class="st1" d="M66.5,113.3c0.3,0.3,0.7,0.5,1.2,0.5c0.4,0,0.9-0.2,1.2-0.5l17.6-17.6c0.3-0.3,0.5-0.7,0.5-1.2
		s-0.2-0.9-0.5-1.2c-0.6-0.6-1.7-0.6-2.3,0l-17.6,17.6C65.9,111.6,65.9,112.6,66.5,113.3z"/>
	<path id="XMLID_64_" class="st1" d="M116,93.3c-0.3,0.3-0.5,0.7-0.5,1.2s0.2,0.9,0.5,1.2l17.6,17.6c0.3,0.3,0.7,0.5,1.2,0.5
		s0.9-0.2,1.2-0.5c0.6-0.6,0.6-1.7,0-2.3l-17.6-17.6C117.7,92.6,116.6,92.6,116,93.3z"/>
	<path id="XMLID_65_" class="st1" d="M84.2,63.8c0.3,0.3,0.7,0.5,1.2,0.5c0.4,0,0.9-0.2,1.2-0.5c0.3-0.3,0.5-0.7,0.5-1.2
		c0-0.4-0.2-0.9-0.5-1.2L68.9,43.8c-0.6-0.6-1.7-0.6-2.3,0c-0.6,0.6-0.6,1.7,0,2.3L84.2,63.8z"/>
	<path id="XMLID_66_" class="st1" d="M97,58.7c0.5,0,2-0.2,2-2.5V10.9c0-2.3-1.5-2.5-2-2.5s-2,0.2-2,2.5v45.3
		C94.9,58.5,96.5,58.7,97,58.7z"/>
</g>
</svg>
